<svg preserveAspectRatio="none" width="100%" height="100%" overflow="visible" style="display: block;" viewBox="0 0 27 27" fill="none" xmlns="http://www.w3.org/2000/svg">
<path id="Vector" d="M10.0234 0.0800735C11.3659 0.051812 12.7083 0.0235513 14.0507 0C14.5924 0 14.7384 0.103626 14.7478 0.268485C14.7619 0.518128 14.5406 0.668857 14.1025 0.9185C14.159 1.92179 14.2108 2.92036 14.2674 3.92364C16.9805 3.77763 19.6983 3.63161 22.4114 3.49501C22.4726 4.7291 22.5386 5.96318 22.5998 7.19727C19.8867 7.33387 17.1783 7.47989 14.4652 7.62591C14.5217 8.65745 14.5782 9.68429 14.6348 10.7158C18.1863 10.5227 21.7425 10.339 25.2941 10.16C25.3553 11.413 25.4213 12.6659 25.4825 13.9188C22.1382 14.0884 18.7986 14.2579 15.4544 14.4416C18.5019 19.5476 24.7807 21.3186 26.2832 21.5541C25.1528 22.5574 24.0506 24.1212 23.6266 25.1763C20.6827 24.2672 17.687 22.3879 16.1279 21.1349C14.4793 19.8302 13.5231 18.3465 13.1557 17.7812C11.9546 20.1081 8.37484 24.1259 3.08522 26.4198C2.30803 25.181 1.52141 24.2249 0.0423924 23.085C2.76963 22.0817 7.81432 20.2258 10.0234 14.7431C6.75922 14.9268 3.4903 15.1152 0.226092 15.313C0.150728 14.0601 0.0753641 12.8119 0 11.559C3.54211 11.347 7.08893 11.1398 10.631 10.9419C10.5745 9.91038 10.518 8.88354 10.4568 7.852C8.8176 7.94149 7.18314 8.0357 5.54397 8.1299C4.78091 9.65132 4.26749 10.4945 3.84828 11.1303C2.88268 10.6028 1.95476 10.2071 0.235513 9.89154C1.86055 7.19727 2.93449 4.73381 3.78234 1.80874C5.14831 2.01599 6.51429 2.22795 7.88026 2.43991C8.07809 2.45875 8.20056 2.56238 8.20998 2.72724C8.22882 3.08993 7.84258 3.22182 7.47518 3.29718C7.40452 3.55153 7.28206 3.92364 7.1643 4.3193C8.19114 4.26278 9.21797 4.20155 10.2448 4.14502C10.1694 2.79318 10.0941 1.43663 10.0187 0.0847848L10.0234 0.0800735Z" fill="var(--fill-0, #0F172A)"/>
</svg>
