<svg preserveAspectRatio="none" width="100%" height="100%" overflow="visible" style="display: block;" viewBox="0 0 50 86" fill="none" xmlns="http://www.w3.org/2000/svg">
<path id="Vector" d="M33.1727 85.8755H16.248C15.7154 85.8755 15.2535 85.5045 15.1399 84.9845L4.63679 37.502C4.63427 37.4869 4.62921 37.4717 4.62668 37.4541L0.017535 11.3994C-0.0480938 11.0309 0.0730565 10.6548 0.338096 10.3923L3.21315 7.56016C3.26363 7.50968 3.32168 7.46424 3.38226 7.42385L4.90688 6.41166L8.48616 0.542929C8.65275 0.270317 8.92789 0.0784767 9.24088 0.0204205C9.55641 -0.0401599 9.87952 0.0355674 10.137 0.227405C10.1496 0.237502 11.4369 1.19669 17.6894 5.60644C20.3827 7.50715 23.4849 9.27913 24.7116 9.96319C25.9384 9.27913 29.0406 7.50463 31.7339 5.60644C37.9863 1.19669 39.2736 0.237502 39.2837 0.227405C39.5387 0.0355674 39.8643 -0.0401599 40.1798 0.0204205C40.4954 0.0810009 40.768 0.270317 40.9346 0.542929L44.5139 6.41166L46.0385 7.42385C46.099 7.46424 46.1546 7.50968 46.2076 7.56016L49.0826 10.3923C49.3502 10.6548 49.4688 11.0309 49.4032 11.3994L44.7941 37.4541C44.7915 37.4692 44.789 37.4869 44.7839 37.502L34.2808 84.9845C34.1647 85.5045 33.7053 85.8755 33.1727 85.8755ZM17.1592 83.6037H32.2615L42.5626 37.0351L47.0658 11.5938L44.6931 9.25894L43.0473 8.16596C42.9085 8.07509 42.7924 7.95393 42.7065 7.81258L39.6371 2.78188C38.6224 3.51389 36.6687 4.90724 33.0414 7.46424C29.4975 9.96318 25.4209 12.1693 25.2467 12.2627C24.911 12.4445 24.5046 12.4445 24.1689 12.2627C23.9973 12.1693 19.9207 9.96318 16.3742 7.46424C12.7495 4.90724 10.7958 3.51137 9.77854 2.78188L6.70915 7.81258C6.62333 7.95393 6.50719 8.07509 6.36836 8.16596L4.7226 9.25894L2.35241 11.5938L6.85554 37.0351L17.1568 83.6037H17.1592Z" fill="var(--fill-0, #212C68)"/>
</svg>
