<svg preserveAspectRatio="none" width="100%" height="100%" overflow="visible" style="display: block;" viewBox="0 0 38 20" fill="none" xmlns="http://www.w3.org/2000/svg">
<path id="Vector" d="M36.2874 19.7369C36.2111 19.7369 36.1349 19.729 36.0586 19.7133L0.95635 12.8106C0.64606 12.7501 0.37258 12.5661 0.196398 12.3031C0.0228454 12.0375 -0.0402709 11.7167 0.0254686 11.4064L1.88723 2.6131C1.99767 2.09244 2.44207 1.70853 2.97325 1.67697L30.81 0.00192946C31.4621 -0.0348847 32.0222 0.459469 32.0617 1.1116C32.1011 1.76374 31.6041 2.32384 30.952 2.36329L4.01455 3.98573L2.58931 10.7227L36.5135 17.394C37.1551 17.5202 37.5732 18.1434 37.447 18.7824C37.3366 19.3477 36.8422 19.7369 36.2874 19.7369Z" fill="var(--fill-0, #202933)"/>
</svg>
