<svg preserveAspectRatio="none" width="100%" height="100%" overflow="visible" style="display: block;" viewBox="0 0 69 75" fill="none" xmlns="http://www.w3.org/2000/svg">
<path id="Vector" d="M29.0804 13.7196C29.6275 13.9683 30.2527 14.2169 30.2527 15.0624C30.2527 15.9861 29.2936 16.2418 28.2563 16.2702C26.6079 19.1335 22.686 25.6558 20.4195 28.9312L26.4019 26.3877C26.1248 26.2598 25.9898 26.1958 25.7838 26.0608C28.7394 23.702 37.6773 16.5544 42.3524 0L51.9085 1.02311C52.3206 1.05153 53.3508 1.17232 53.3508 2.28068C53.3508 3.22564 52.7327 3.68745 52.2496 3.97876C54.516 11.1476 63.1769 18.8351 68.2001 21.5492C65.1734 23.8228 63.319 26.2242 61.1165 30.3167C60.0152 29.457 59.6031 29.1799 58.85 28.5333V34.7146L35.6809 36.6258V30.1817C34.6507 31.2829 34.5157 31.4463 33.6844 32.2918C32.4482 30.8495 30.8638 28.9809 27.9081 27.1692C29.3504 30.6648 31.2048 36.4482 32.0361 40.0149C29.0094 41.4146 26.4019 42.6934 23.7873 44.1286C23.6523 42.9847 23.5812 42.53 23.4462 41.6206C22.9631 41.7343 20.9027 42.125 20.4195 42.1677V73.7632L11.3466 74.2108V49.9404C11.0695 50.111 10.7284 50.2886 10.4513 50.3099C10.0393 54.9636 9.21509 61.6778 7.70175 67.8164C4.19902 66.431 2.7496 65.9833 0 65.6139C1.5844 61.8412 3.2967 53.3011 3.4388 47.3471L10.1103 48.1358C10.7284 48.2424 11.0695 48.2139 11.3466 48.2708V44.0221C10.3874 44.2494 6.74258 44.9102 5.91841 45.0452C5.37133 45.9901 4.88821 46.7077 4.33402 46.7503C3.50985 46.8143 3.23273 46.0043 3.09773 45.2654L1.03733 36.2635C1.72651 36.2066 5.15818 35.6809 6.0534 35.5317C6.80652 34.6365 8.25593 32.6968 10.5935 29.3078C7.56676 26.4871 4.40506 23.8441 1.03733 21.5421L6.67152 12.597C7.3607 13.0517 7.56675 13.2578 8.18488 13.7196C10.5224 9.37848 11.7586 6.2097 12.7888 3.43167L20.8316 6.70704C21.3787 6.94861 21.8618 7.20438 21.8618 7.89356C21.8618 8.50458 21.4497 9.00903 20.9026 9.07298C20.6256 9.1014 20.2135 9.07297 19.9435 9.02324C17.741 13.0801 15.2685 17.5278 14.3733 18.9914C14.6504 19.2685 15.8866 20.3627 16.0926 20.5687C18.8422 15.8653 19.9435 13.7622 21.2508 10.4087L29.0875 13.7267L29.0804 13.7196ZM16.1566 34.807C17.876 34.5086 20.2135 34.1533 21.8618 33.8549C21.5847 32.7323 21.1087 31.1621 20.1425 29.258C18.9062 31.1266 17.4639 33.1657 16.1566 34.7999V34.807ZM28.5334 43.9936C29.3575 50.8712 30.1177 55.3757 31.624 60.4557C28.8033 61.0099 26.4658 61.7701 23.1691 63.5748C21.9968 58.1253 21.8618 57.0667 20.8316 46.3383L28.5334 43.9936ZM42.3524 70.0331V72.6904L32.3842 73.1806V41.4643L62.978 39.0699V71.6886L52.8037 72.1859V69.5074L42.3524 70.0473V70.0331ZM55.3473 25.3574C51.4325 21.6203 48.2637 16.7392 46.6864 14.3164C45.3791 16.7179 43.1126 20.7748 38.4376 26.9063L55.3473 25.3645V25.3574ZM52.8037 60.1147V49.9475L42.3524 50.6723V60.747L52.8037 60.1218V60.1147Z" fill="var(--fill-0, #0F172A)"/>
</svg>
