<svg preserveAspectRatio="none" width="100%" height="100%" overflow="visible" style="display: block;" viewBox="0 0 9 7" fill="none" xmlns="http://www.w3.org/2000/svg">
<path id="Vector" d="M5.29901 6.09217C5.02817 6.09217 4.78359 6.06324 4.58638 6.02117C4.01839 5.89495 3.66078 5.33485 3.78437 4.76686C3.90796 4.19887 4.47067 3.84125 5.03866 3.96484C5.12017 3.98061 5.94323 4.12261 6.2246 3.51518C6.33504 3.27852 6.3298 3.04185 6.2141 2.81045C6.0537 2.48964 5.70658 2.24509 5.28322 2.15306C3.98947 1.87695 2.22501 2.84727 1.65439 3.24433C1.17843 3.57566 0.523683 3.45996 0.189726 2.984C-0.141601 2.50805 -0.0285343 1.85328 0.44742 1.52196C0.731414 1.32211 3.30316 -0.418672 5.71974 0.0940957C6.77946 0.32024 7.64457 0.967116 8.09423 1.86906C8.49392 2.66845 8.50707 3.58881 8.13104 4.39872C7.51046 5.73717 6.24303 6.08954 5.29638 6.08954L5.29901 6.09217Z" fill="var(--fill-0, #202933)"/>
</svg>
