<svg preserveAspectRatio="none" width="100%" height="100%" overflow="visible" style="display: block;" viewBox="0 0 26 38" fill="none" xmlns="http://www.w3.org/2000/svg">
<path id="Vector" d="M11.0624 11.5029C17.1868 15.0127 22.3663 18.9488 25.3148 22.2526C23.2331 24.8601 23.0057 25.1443 20.9666 27.8797C19.6451 26.4942 15.645 22.3307 8.27013 17.7836C7.89357 24.3414 7.517 30.9064 7.14754 37.4642C4.7674 37.3292 2.38015 37.1942 0 37.0592C0.682072 24.7038 1.36415 12.3554 2.05333 0C4.45479 0.248672 6.84915 0.49024 9.25061 0.738912C9.54902 0.753121 10.0606 0.82417 10.0321 1.24336C10.0108 1.66255 9.52772 1.80465 9.17958 1.86859C8.93801 6.14575 8.68932 10.43 8.44775 14.7072C9.32166 13.6343 10.1956 12.5615 11.0695 11.4886L11.0624 11.5029Z" fill="var(--fill-0, #0F172A)"/>
</svg>
