<svg preserveAspectRatio="none" width="100%" height="100%" overflow="visible" style="display: block;" viewBox="0 0 34 36" fill="none" xmlns="http://www.w3.org/2000/svg">
<path id="Vector" d="M7.01828 35.9722H1.13046C0.508705 35.9722 0 35.4682 0 34.8418V1.13047C0 0.508719 0.503995 0 1.13046 0H32.4819C33.1037 0 33.6124 0.504009 33.6124 1.13047V29.6605C33.6124 35.2469 28.7985 35.8969 25.1763 35.8969C24.5404 35.8969 24.173 35.8403 23.7868 35.7838C23.6879 35.7697 23.5795 35.7509 23.4618 35.7367C22.939 35.6661 22.5386 35.2469 22.4868 34.7193C22.1712 31.2902 21.2809 29.7312 20.8052 28.8927C20.5791 28.4971 20.6121 27.9978 20.8947 27.6398C21.1773 27.2771 21.6483 27.1217 22.0864 27.2441C22.8306 27.4514 23.8527 27.734 25.2894 27.734C25.426 27.734 25.5296 27.734 25.605 27.7246C25.6144 27.5597 25.6144 27.3383 25.6144 27.1499V21.4599H8.15345V34.8418C8.15345 35.4635 7.64945 35.9722 7.02298 35.9722H7.01828ZM2.26092 33.716H5.89252V20.3342C5.89252 19.7124 6.39652 19.2037 7.02298 19.2037H26.7448C27.3666 19.2037 27.8753 19.7077 27.8753 20.3342V27.1546C27.8753 28.4217 27.8753 29.9996 25.2894 29.9996C24.7336 29.9996 24.2296 29.9619 23.7727 29.9101C24.1071 30.8333 24.4321 32.0439 24.6394 33.6218C24.7948 33.6359 24.9596 33.6454 25.181 33.6454C30.8804 33.6454 31.3562 31.6812 31.3562 29.6699V2.27035H2.26092V33.7207V33.716ZM26.7401 16.0526H19.6559C19.0341 16.0526 18.5254 15.5486 18.5254 14.9221V6.6556C18.5254 6.03384 19.0294 5.52514 19.6559 5.52514H26.7401C27.3619 5.52514 27.8706 6.02913 27.8706 6.6556V14.9221C27.8706 15.5439 27.3666 16.0526 26.7401 16.0526ZM20.7864 13.7916H25.6097V7.78605H20.7864V13.7916ZM13.9942 16.0526H7.02298C6.40123 16.0526 5.89252 15.5486 5.89252 14.9221V6.6556C5.89252 6.03384 6.39652 5.52514 7.02298 5.52514H13.9942C14.6159 5.52514 15.1246 6.02913 15.1246 6.6556V14.9221C15.1246 15.5439 14.6206 16.0526 13.9942 16.0526ZM8.14874 13.7916H12.859V7.78605H8.14874V13.7916Z" fill="var(--fill-0, #14B8A6)"/>
</svg>
