<svg preserveAspectRatio="none" width="100%" height="100%" overflow="visible" style="display: block;" viewBox="0 0 51 55" fill="none" xmlns="http://www.w3.org/2000/svg">
<path id="Vector" d="M10.5863 54.2602H1.70518C0.767326 54.2602 0 53.5 0 52.5551V1.7052C0 0.767348 0.760221 0 1.70518 0H48.9955C49.9333 0 50.7007 0.760243 50.7007 1.7052V44.7396C50.7007 53.1661 43.4395 54.1466 37.9758 54.1466C37.0166 54.1466 36.4624 54.0613 35.8798 53.976C35.7306 53.9547 35.5672 53.9263 35.3896 53.905C34.6009 53.7984 33.997 53.1661 33.9189 52.3703C33.4428 47.198 32.1 44.8462 31.3824 43.5816C31.0414 42.9847 31.0911 42.2316 31.5174 41.6917C31.9437 41.1446 32.6542 40.9101 33.315 41.0948C34.4375 41.4075 35.9793 41.8337 38.1463 41.8337C38.3523 41.8337 38.5086 41.8337 38.6223 41.8195C38.6365 41.5709 38.6365 41.2369 38.6365 40.9527V32.37H12.2986V52.5551C12.2986 53.4929 11.5384 54.2602 10.5934 54.2602H10.5863ZM3.41035 50.857H8.88823V30.6719C8.88823 29.7341 9.64845 28.9667 10.5934 28.9667H40.3417C41.2795 28.9667 42.0469 29.727 42.0469 30.6719V40.9598C42.0469 42.8711 42.0469 45.2512 38.1463 45.2512C37.3079 45.2512 36.5477 45.1944 35.8585 45.1162C36.3629 46.5088 36.8532 48.3347 37.1658 50.7149C37.4003 50.7362 37.6489 50.7504 37.9828 50.7504C46.5798 50.7504 47.2974 47.7877 47.2974 44.7539V3.42457H3.41035V50.8641V50.857ZM40.3346 24.2136H29.6488C28.7109 24.2136 27.9436 23.4533 27.9436 22.5084V10.0392C27.9436 9.1014 28.7038 8.33407 29.6488 8.33407H40.3346C41.2724 8.33407 42.0398 9.09429 42.0398 10.0392V22.5084C42.0398 23.4462 41.2795 24.2136 40.3346 24.2136ZM31.354 20.8032H38.6294V11.7444H31.354V20.8032ZM21.1087 24.2136H10.5934C9.65556 24.2136 8.88823 23.4533 8.88823 22.5084V10.0392C8.88823 9.1014 9.64845 8.33407 10.5934 8.33407H21.1087C22.0465 8.33407 22.8139 9.09429 22.8139 10.0392V22.5084C22.8139 23.4462 22.0536 24.2136 21.1087 24.2136ZM12.2915 20.8032H19.3964V11.7444H12.2915V20.8032Z" fill="var(--fill-0, #14B8A6)"/>
</svg>
