<svg preserveAspectRatio="none" width="100%" height="100%" overflow="visible" style="display: block;" viewBox="0 0 59 126" fill="none" xmlns="http://www.w3.org/2000/svg">
<path id="Vector" d="M55.5178 125.942H1.27889C0.5755 125.942 0 125.366 0 124.663V109.679C0 91.1489 9.684 80.3495 19.0554 69.8981C28.377 59.4965 37.1871 49.6776 37.1871 32.6542C37.1871 22.146 33.8123 19.9932 28.7465 19.9932C25.123 19.9932 20.3058 21.1087 20.3058 30.7359V43.8018C20.3058 44.5052 19.7303 45.0807 19.027 45.0807H1.28599C0.582601 45.0807 0.00711185 44.5052 0.00711185 43.8018V31.9508C0.00711185 11.3465 10.3945 0 29.258 0C48.1216 0 58.509 11.3465 58.509 31.9508C58.509 54.6865 45.4999 69.3155 35.0414 81.0742C27.5884 89.458 21.1513 96.6908 21.1513 104.62C21.1513 105.082 21.1513 105.522 21.1726 105.956H55.5178C56.2212 105.956 56.7967 106.531 56.7967 107.234V124.663C56.7967 125.366 56.2212 125.942 55.5178 125.942ZM2.55777 123.391H54.2389V108.52H20.0359C19.4248 108.52 18.8991 108.087 18.7783 107.49C18.5865 106.496 18.5865 105.551 18.5865 104.634C18.5865 95.7387 25.3219 88.1649 33.1231 79.3903C43.816 67.3617 55.9441 53.7274 55.9441 31.965C55.9441 12.7391 46.7148 2.57198 29.2509 2.57198C11.7871 2.57198 2.55777 12.732 2.55777 31.965V42.5371H17.741V30.743C17.741 21.9187 21.4426 17.4426 28.7394 17.4426C36.0361 17.4426 39.7378 22.1389 39.7378 32.6613C39.7378 50.6651 30.1888 61.3154 20.9595 71.6104C11.4958 82.1683 2.55777 92.1365 2.55777 109.686V123.391Z" fill="var(--fill-0, white)"/>
</svg>
