<svg preserveAspectRatio="none" width="100%" height="100%" overflow="visible" style="display: block;" viewBox="0 0 47 43" fill="none" xmlns="http://www.w3.org/2000/svg">
<path id="Vector" d="M30.8722 42.4029C30.5936 42.4029 30.3187 42.26 30.1647 42.0034C29.9301 41.6148 30.0547 41.1052 30.447 40.8706C36.5837 37.1717 45.1289 30.848 44.9016 28.3772C44.8906 28.2489 44.8577 27.9006 44.0512 27.5964C37.3829 25.0889 35.0954 23.5382 33.7096 21.9802C32.3753 20.4772 31.9683 18.6479 31.9683 14.1388V1.87273L23.4744 3.96229C23.3461 3.99529 23.2105 3.99529 23.0785 3.96229L14.5846 1.87273V14.1388C14.5846 18.6442 14.1777 20.4772 12.8433 21.9802C11.4613 23.5382 9.17009 25.0889 2.50181 27.5964C1.69531 27.9006 1.66232 28.2452 1.65132 28.3772C1.42404 30.848 9.96559 37.1717 16.106 40.8706C16.4946 41.1052 16.6229 41.6111 16.3883 42.0034C16.1536 42.392 15.6477 42.5203 15.2555 42.2856C12.638 40.7093 -0.390586 32.6223 0.00899793 28.2306C0.0713183 27.545 0.456238 26.6102 1.9226 26.0567C8.64953 23.5272 10.5521 22.0792 11.6116 20.8878C12.627 19.744 12.935 18.1677 12.935 14.1425V0.82428C12.935 0.571333 13.0523 0.333047 13.2502 0.175413C13.4482 0.0177797 13.7085 -0.0372074 13.9578 0.0251129L23.2765 2.31997L32.5952 0.0251129C32.8408 -0.0335415 33.1011 0.0214456 33.3027 0.175413C33.5007 0.333047 33.618 0.571333 33.618 0.82428V14.1425C33.618 18.1677 33.9259 19.744 34.9414 20.8878C35.9972 22.0755 37.9034 23.5272 44.6304 26.0567C46.0967 26.6102 46.4816 27.5414 46.544 28.2306C46.9472 32.6223 33.9149 40.7093 31.2975 42.2856C31.1655 42.3663 31.0189 42.4029 30.8722 42.4029Z" fill="var(--fill-0, #202933)"/>
</svg>
