<svg preserveAspectRatio="none" width="100%" height="100%" overflow="visible" style="display: block;" viewBox="0 0 7 10" fill="none" xmlns="http://www.w3.org/2000/svg">
<path id="Vector" d="M3.29193 0C2.64596 0 2.07246 0.138716 1.57143 0.416149C1.07039 0.693582 0.68323 1.07867 0.409938 1.57143C0.136646 2.06418 0 2.6294 0 3.26708C0 3.85507 0.118012 4.42857 0.354037 4.98758C0.590062 5.54658 1.01035 6.25673 1.61491 7.11801L3.47826 9.73913C3.51139 9.7971 3.56522 9.82609 3.63975 9.82609H4.6087C4.65839 9.82609 4.69151 9.80745 4.70807 9.77019C4.72464 9.73292 4.71636 9.69358 4.68323 9.65217L2.08696 6.02484C2.50932 6.28157 2.99379 6.40994 3.54037 6.40994C4.13665 6.40994 4.66667 6.27536 5.13043 6.00621C5.5942 5.73706 5.95445 5.36232 6.21118 4.88199C6.46791 4.40166 6.59627 3.85093 6.59627 3.22981C6.59627 2.59213 6.45756 2.02899 6.18012 1.54037C5.90269 1.05176 5.51553 0.672878 5.01863 0.403727C4.52174 0.134576 3.94617 0 3.29193 0ZM3.29193 1.08075C3.94617 1.08075 4.46791 1.27743 4.85714 1.67081C5.24638 2.06418 5.44099 2.59213 5.44099 3.25466C5.44099 3.91718 5.24638 4.44513 4.85714 4.83851C4.46791 5.23188 3.94617 5.42857 3.29193 5.42857C2.6294 5.42857 2.10145 5.23188 1.70807 4.83851C1.3147 4.44513 1.11801 3.91718 1.11801 3.25466C1.11801 2.60041 1.31677 2.07453 1.71429 1.67702C2.1118 1.2795 2.63768 1.08075 3.29193 1.08075Z" fill="var(--fill-0, #64748B)"/>
</svg>
