<svg preserveAspectRatio="none" width="100%" height="100%" overflow="visible" style="display: block;" viewBox="0 0 3 3" fill="none" xmlns="http://www.w3.org/2000/svg">
<path id="Vector" d="M1.18331 2.36488C1.10705 2.36488 1.02818 2.35699 0.951923 2.34122C0.875665 2.32544 0.802029 2.3044 0.731031 2.27284C0.660032 2.24392 0.591655 2.20711 0.525916 2.16503C0.460176 2.12296 0.399698 2.073 0.347106 2.01777C0.126222 1.79689 0 1.49186 0 1.18157C0 1.10531 0.0078958 1.02642 0.0236733 0.950165C0.0394508 0.873908 0.06049 0.80028 0.0920449 0.729282C0.12097 0.658283 0.157777 0.589914 0.199851 0.524175C0.241924 0.458435 0.291885 0.397953 0.347106 0.345361C0.402328 0.29014 0.462806 0.240179 0.525916 0.198106C0.589026 0.156032 0.657403 0.119221 0.731031 0.0902958C0.802029 0.0613705 0.878294 0.0377017 0.951923 0.0219242C1.33584 -0.0543336 1.74605 0.0718851 2.01953 0.345361C2.07475 0.400583 2.12471 0.461065 2.16679 0.524175C2.20886 0.587285 2.24567 0.658283 2.27459 0.729282C2.30352 0.80028 2.32719 0.876537 2.34296 0.950165C2.35874 1.02642 2.36662 1.10531 2.36662 1.18157C2.36662 1.49186 2.24042 1.79689 2.01953 2.01777C1.79865 2.23866 1.4936 2.36488 1.18331 2.36488Z" fill="var(--fill-0, #202933)"/>
</svg>
