<svg preserveAspectRatio="none" width="100%" height="100%" overflow="visible" style="display: block;" viewBox="0 0 10 7" fill="none" xmlns="http://www.w3.org/2000/svg">
<path id="Vector" d="M5.56528 6.18826C5.10247 6.18826 4.67384 6.12515 4.34252 6.03837C3.77979 5.89112 3.4432 5.31524 3.59046 4.75514C3.73772 4.19241 4.31097 3.85582 4.8737 4.00308C5.04462 4.04515 6.59082 4.39752 6.94844 3.29835C7.01155 3.10113 6.99575 2.94073 6.89583 2.77507C6.70124 2.45426 6.24108 2.19919 5.69939 2.10978C5.01044 1.99671 2.99091 2.71196 1.51835 3.44035C0.997692 3.69805 0.366597 3.48242 0.108898 2.96177C-0.148801 2.44111 0.0668108 1.81001 0.587468 1.55231C1.20016 1.24991 4.34514 -0.246321 6.04385 0.0350437C7.20875 0.227003 8.17383 0.829177 8.69448 1.68379C9.11259 2.37011 9.20198 3.17476 8.94954 3.95049C8.3763 5.71231 6.83799 6.19089 5.56528 6.19089V6.18826Z" fill="var(--fill-0, #202933)"/>
</svg>
