<svg preserveAspectRatio="none" width="100%" height="100%" overflow="visible" style="display: block;" viewBox="0 0 40 85" fill="none" xmlns="http://www.w3.org/2000/svg">
<path id="Vector" d="M19.7313 84.4172C7.19255 84.4172 0 76.6971 0 63.2352V21.182C0 7.7201 7.19255 0 19.7313 0C32.27 0 39.4625 7.7201 39.4625 21.182V63.2352C39.4625 76.6971 32.27 84.4172 19.7313 84.4172ZM19.7313 1.7004C8.10163 1.7004 1.69568 8.61977 1.69568 21.1867V63.2399C1.69568 75.8069 8.10163 82.7262 19.7313 82.7262C31.3609 82.7262 37.7668 75.8069 37.7668 63.2399V21.1867C37.7668 8.61977 31.3609 1.7004 19.7313 1.7004ZM19.7313 72.8677C14.8938 72.8677 12.4398 69.9002 12.4398 64.0501V20.3813C12.4398 14.5311 14.8938 11.5637 19.7313 11.5637C24.5687 11.5637 27.0227 14.5311 27.0227 20.3813V64.0501C27.0227 69.9002 24.5687 72.8677 19.7313 72.8677ZM19.7313 13.2547C17.329 13.2547 14.1355 13.9942 14.1355 20.3766V64.0454C14.1355 70.4325 17.329 71.1673 19.7313 71.1673C22.1335 71.1673 25.3318 70.4278 25.3318 64.0454V20.3766C25.3318 13.9895 22.1382 13.2547 19.7313 13.2547Z" fill="var(--fill-0, white)"/>
</svg>
