<svg preserveAspectRatio="none" width="100%" height="100%" overflow="visible" style="display: block;" viewBox="0 0 26 11" fill="none" xmlns="http://www.w3.org/2000/svg">
<path id="Vector" d="M1.1362 10.1935C0.654086 10.1935 0.207303 9.88553 0.0533275 9.40089C-0.135986 8.80266 0.19468 8.16403 0.792912 7.97472C0.863589 7.952 8.0449 5.66761 16.4201 2.77994C19.4265 1.74503 21.8244 0.889334 23.763 0.086643C24.3436 -0.153155 25.0074 0.12198 25.2472 0.700018C25.487 1.28058 25.2119 1.94444 24.6338 2.18424C22.6448 3.00965 20.2064 3.87544 17.1623 4.9255C8.75925 7.82074 1.55522 10.1127 1.48202 10.1354C1.36843 10.1708 1.25231 10.1884 1.13872 10.1884L1.1362 10.1935Z" fill="var(--fill-0, #212C68)"/>
</svg>
