<svg preserveAspectRatio="none" width="100%" height="100%" overflow="visible" style="display: block;" viewBox="0 0 28 37" fill="none" xmlns="http://www.w3.org/2000/svg">
<path id="Vector" d="M27.257 1.82803C26.4366 -0.458886 23.0264 -0.0651117 20.5376 0.220121C19.0004 0.396814 17.5035 0.439728 16.1834 0.475066C14.2398 0.528074 12.8363 0.568463 11.92 0.990002C10.451 1.66648 7.06098 5.93236 5.81908 7.53774C4.8927 8.02238 1.81067 9.81455 1.06604 12.5609C0.740419 13.7573 1.05089 15.085 1.30836 15.865C0.773233 16.6298 -0.0294574 18.0838 0.000832834 19.934C0.0361714 22.1427 0.639452 23.5461 0.833814 23.9449C1.1771 24.9672 3.26208 31.0303 5.05677 32.9639C6.94486 34.9958 10.1228 36.2857 10.2566 36.3387C10.3929 36.3942 10.5368 36.4195 10.6781 36.4195C10.928 36.4195 11.1754 36.3362 11.3799 36.1771C11.6979 35.9272 11.8595 35.5259 11.8039 35.1246L10.5873 26.4641L12.2431 24.3892C13.5406 24.215 16.9204 23.6319 18.7959 22.1048C19.8308 21.2617 20.0858 20.3252 20.1186 19.6866C20.1388 19.3156 20.0883 18.9647 19.9999 18.6441C21.6533 18.4069 23.8821 17.6496 24.7908 15.3602C25.2275 14.2571 25.0433 13.3232 24.6066 12.5861C24.8943 12.4448 25.1745 12.263 25.4295 12.0283C26.0959 11.4174 26.4543 10.5668 26.4694 9.57223C26.4795 8.81245 26.1792 8.10316 25.5961 7.52259C25.22 7.14901 24.7202 6.83349 24.1447 6.56845C24.4046 6.48011 24.652 6.38166 24.8893 6.27565C27.0273 5.31393 27.9133 3.65049 27.257 1.82803ZM24.1951 9.54194C24.1876 10.0266 24.021 10.2361 23.8948 10.3547C23.448 10.7687 22.5468 10.8141 22.2717 10.799C22.2616 10.799 22.254 10.799 22.2439 10.799C22.2364 10.799 22.2288 10.7965 22.2212 10.7965C20.6411 10.7561 12.6849 10.5642 11.3294 10.8141C9.89311 11.0766 7.01049 12.571 6.68487 12.7401C6.12955 13.0304 5.91247 13.7169 6.20275 14.2723C6.40469 14.661 6.80099 14.8831 7.2099 14.8831C7.3866 14.8831 7.56581 14.8402 7.73493 14.7544C8.84305 14.1763 10.9078 13.202 11.7383 13.0506C12.4981 12.9117 17.4909 12.9521 21.9057 13.0632C22.2793 13.2752 22.9734 13.7826 22.6781 14.5297C21.8098 16.7232 18.2482 16.4733 18.2153 16.4708C18.1851 16.4683 18.1548 16.4708 18.122 16.4708C18.1093 16.4708 18.0967 16.4683 18.0841 16.4683L11.5742 16.6829C11.4026 16.6879 11.2335 16.7333 11.082 16.8141L6.03363 19.4797C5.47831 19.7725 5.26628 20.459 5.55909 21.0144C5.76355 21.4006 6.15732 21.6202 6.56371 21.6202C6.74293 21.6202 6.92467 21.5772 7.09379 21.4889L11.9125 18.9445L17.5843 18.7577C17.7307 18.995 17.8721 19.3004 17.8544 19.5831C17.8493 19.6791 17.8317 19.9693 17.3647 20.3505C15.931 21.5192 12.6697 22.0796 11.5364 22.1957C11.2335 22.226 10.9533 22.3774 10.764 22.6172L8.51238 25.4367C8.31802 25.6816 8.2322 25.9946 8.27511 26.3025L9.26207 33.3223C8.41142 32.8376 7.43456 32.1839 6.72778 31.4241C5.44297 30.0408 3.5776 24.9849 2.96927 23.1549C2.94908 23.0968 2.92131 23.0337 2.89355 22.9807C2.8885 22.9706 2.31046 21.8398 2.27765 19.9062C2.24988 18.1418 3.41605 16.8646 3.42363 16.857C3.74167 16.5238 3.8275 16.0291 3.63818 15.6076C3.42615 15.1381 3.05762 13.9214 3.2646 13.1641C3.73663 11.43 6.01344 9.98367 6.96001 9.5167L15.0525 7.49482C15.3933 7.51249 16.1657 7.54278 17.1703 7.53268C19.9217 7.68414 23.0365 8.18392 23.9983 9.14311C24.2052 9.3501 24.2052 9.4864 24.2027 9.55203L24.1951 9.54194ZM23.9553 4.20328C22.1026 5.03627 19.1695 5.22558 17.1703 5.2483C16.0294 5.19277 15.1687 5.20034 14.9137 5.20539C14.9087 5.20539 14.9061 5.20539 14.9011 5.20539C14.8683 5.20539 14.8329 5.21296 14.7976 5.21801C14.7547 5.22306 14.7143 5.22558 14.6714 5.23567C14.6663 5.23567 14.6613 5.23567 14.6562 5.23567L9.55235 6.51292C11.0214 4.75609 12.3895 3.27943 12.8641 3.05226C13.3588 2.82508 14.8228 2.78469 16.2414 2.74431C17.6095 2.70644 19.1594 2.66354 20.7925 2.47422C22.0218 2.33287 22.9002 2.28238 23.5288 2.28238C24.9044 2.28238 25.0887 2.52471 25.1114 2.59286C25.2124 2.87305 25.4471 3.52933 23.9503 4.20077L23.9553 4.20328Z" fill="var(--fill-0, #212C68)"/>
</svg>
