<svg preserveAspectRatio="none" width="100%" height="100%" overflow="visible" style="display: block;" viewBox="0 0 51 53" fill="none" xmlns="http://www.w3.org/2000/svg">
<path id="Vector" d="M1.8899 20.4337V12.3554L21.8121 13.6414V0L30.068 1.06574C30.3806 1.08705 31.0698 1.19363 31.0698 1.85438C31.0698 2.29489 30.544 2.52934 30.068 2.65723V14.1743L49.6207 15.439V23.2118L30.2243 22.0821C34.7999 36.4411 44.3133 43.1197 50.6225 46.5585C46.2104 49.9049 45.2086 51.603 44.5265 52.7682C39.2191 50.1394 30.8566 42.2316 26.075 31.9082C19.6096 44.8604 11.0908 49.095 5.57025 51.7025C4.20611 48.5195 2.62882 46.5017 0 44.0434C4.41215 42.3666 17.5562 37.6347 21.0306 21.5492L1.89701 20.4337H1.8899Z" fill="var(--fill-0, #14B8A6)"/>
</svg>
