<svg preserveAspectRatio="none" width="100%" height="100%" overflow="visible" style="display: block;" viewBox="0 0 75 148" fill="none" xmlns="http://www.w3.org/2000/svg">
<path id="Vector" d="M73.0813 8.44621C71.0591 4.98042 64.7718 3.11605 59.2313 1.9827C52.8204 0.673171 46.7171 0 46.7171 0C46.7171 0 43.3933 1.13335 39.9065 7.89137C36.3408 14.8045 36.4144 19.1854 36.4144 19.1854L39.9065 21.1103L37.9659 25.1677L31.484 31.0001C31.484 31.0001 28.2995 30.1876 25.9645 32.0204C24.5629 33.1169 24.3473 36.5196 24.3473 36.5196L16.8714 36.2514L3.60514 32.6804L0 48.8628L9.0405 51.7659L10.5157 54.619C10.5157 54.619 22.2804 69.6549 24.8101 85.6402C26.1748 94.2652 32.1729 147.091 32.1729 147.091H34.6947C34.6947 147.091 35.6098 75.2533 35.5782 72.0557C42.7175 63.4202 65.6948 32.4911 67.7274 29.9167C71.3904 25.2808 77.4464 15.9274 73.0839 8.44621H73.0813Z" fill="var(--fill-0, #D8DAE5)"/>
</svg>
