<svg preserveAspectRatio="none" width="100%" height="100%" overflow="visible" style="display: block;" viewBox="0 0 43 37" fill="none" xmlns="http://www.w3.org/2000/svg">
<path id="Vector" d="M1.13798 36.3877C1.08245 36.3877 1.02692 36.3826 0.968863 36.3751C0.347913 36.2817 -0.0786741 35.7061 0.0121966 35.0852C1.25662 26.7201 2.24105 21.0911 3.30878 18.8774C5.42153 14.5005 9.07907 14.031 9.94991 13.9805C10.6668 13.7811 14.4682 12.6957 18.7795 10.9439C23.4164 9.06086 26.5742 7.51353 27.4728 7.0617L29.7143 3.64648C29.8102 3.5026 29.9364 3.38144 30.0853 3.2931L35.3861 0.158058C35.7092 -0.0337805 36.1055 -0.0514529 36.4438 0.107571C36.7845 0.266594 37.0218 0.582124 37.0849 0.950655C37.1152 1.13997 40.2376 20.0057 42.3907 31.5715C42.5068 32.1874 42.0979 32.7806 41.482 32.8967C40.8661 33.0103 40.2729 32.6039 40.1568 31.988C38.3722 22.4012 35.9238 7.81644 35.1135 2.9599L31.4686 5.11556L29.2044 8.56359C29.0984 8.72766 28.9494 8.85892 28.7778 8.94979C28.6364 9.02299 25.2389 10.7748 19.6327 13.0516C14.7307 15.0432 10.5911 16.1639 10.4169 16.2093C10.3159 16.2371 10.2124 16.2497 10.1115 16.2472C9.99535 16.2472 7.06729 16.3128 5.35337 19.8644C4.30836 22.0301 3.20781 29.0297 2.25619 35.4184C2.1729 35.9813 1.68825 36.3877 1.13293 36.3877H1.13798Z" fill="var(--fill-0, #212C68)"/>
</svg>
