<svg preserveAspectRatio="none" width="100%" height="100%" overflow="visible" style="display: block;" viewBox="0 0 58 50" fill="none" xmlns="http://www.w3.org/2000/svg">
<path id="Vector" d="M7.55975 49.4276C7.34772 49.4276 7.14327 49.3367 6.99939 49.1777C6.66872 48.8142 -1.07295 40.1159 0.126041 28.0225C0.603112 21.187 3.49328 14.6898 8.72087 8.72767C13.1508 3.67425 20.6098 0.253978 27.7255 0.0141807C33.9728 -0.195327 39.5462 1.91994 43.8676 6.14038C49.8954 7.33179 54.714 12.2035 56.7864 19.2182C58.884 26.3187 56.2791 32.3768 56.1655 32.6317C56.0241 32.9523 55.6833 33.134 55.3375 33.0709C54.9942 33.0078 54.7368 32.72 54.7166 32.3692C54.709 32.2379 53.8407 19.1955 45.1524 13.1475L42.7898 11.7365C42.6687 11.6633 42.5651 11.7113 42.5147 11.7466C42.4541 11.7895 42.3885 11.8652 42.4112 11.994C43.2063 16.3507 41.9265 20.8261 39.0717 23.6734C39.0641 23.6809 39.054 23.6885 39.0464 23.6986C36.6888 25.8442 33.3393 26.8614 30.1007 27.8458C26.5593 28.9211 23.2147 29.9384 21.6346 32.2707C20.3271 34.1967 17.7145 39.3536 17.6868 39.4041C17.5681 39.6388 17.3385 39.7928 17.0759 39.8155L14.4912 40.0402L8.17314 49.1045C8.04188 49.2938 7.82985 49.4125 7.60015 49.4276C7.585 49.4276 7.56732 49.4276 7.55217 49.4276H7.55975ZM28.5484 1.51607C28.2833 1.51607 28.0284 1.52112 27.7759 1.52869C21.0591 1.75587 14.0267 4.97168 9.85928 9.72724C4.85635 15.4344 2.08985 21.6338 1.6355 28.1513C0.696502 37.6346 5.72721 45.0986 7.51181 47.4133L13.4588 38.8816C13.5875 38.6973 13.792 38.5787 14.0141 38.561L16.5332 38.3439C17.1719 37.097 19.2215 33.134 20.3851 31.4201C22.2682 28.646 25.8601 27.553 29.6641 26.397C32.736 25.463 35.9139 24.4962 38.0191 22.5905C40.5155 20.089 41.6287 16.1361 40.9244 12.2691C40.7982 11.58 41.0784 10.9035 41.6539 10.5047C42.232 10.1033 42.964 10.0781 43.5673 10.4391L45.9526 11.8627C45.9677 11.8728 45.9829 11.8804 45.9955 11.8905C52.4221 16.3507 54.8352 24.0873 55.7263 28.646C56.1503 26.349 56.3573 23.1079 55.3325 19.6473C53.3989 13.1021 48.9236 8.59388 43.3628 7.58673C43.2113 7.55897 43.0725 7.48577 42.964 7.37723C38.1731 2.60147 32.6123 1.51355 28.5458 1.51355L28.5484 1.51607Z" fill="var(--fill-0, #212C68)"/>
</svg>
