<svg preserveAspectRatio="none" width="100%" height="100%" overflow="visible" style="display: block;" viewBox="0 0 35 35" fill="none" xmlns="http://www.w3.org/2000/svg">
<path id="Vector" d="M13.5655 5.90195C13.5514 7.18314 13.542 8.45962 13.5326 9.74081C9.02013 9.69842 4.51243 9.67016 0 9.65132C0.00471026 8.37013 0.00941994 7.09365 0.0141302 5.81246C4.53127 5.8313 9.0484 5.85956 13.5655 5.90195ZM5.40267 32.6845C5.40267 33.3486 5.39325 34.0128 5.38854 34.6816C3.86241 34.6722 2.33629 34.6628 0.810165 34.6581C0.829006 30.0043 0.847849 25.3459 0.8714 20.6922C4.79033 20.711 8.70927 20.7346 12.6329 20.7675C12.5952 25.2234 12.5528 29.6793 12.5152 34.1305C11.0126 34.1164 9.51 34.107 8.01214 34.0928C8.01214 33.6265 8.01686 33.1649 8.02157 32.6986C7.15017 32.6939 6.27876 32.6845 5.40737 32.6798L5.40267 32.6845ZM11.7285 1.06923C11.7191 2.31274 11.7097 3.55624 11.6956 4.79504C8.40309 4.76678 5.11063 4.74794 1.81345 4.7291C1.81816 3.48559 1.82286 2.24208 1.83228 1.00329C5.12946 1.01742 8.43136 1.04097 11.7285 1.06923ZM11.6438 10.9325C11.6343 12.1996 11.6202 13.4666 11.6108 14.7337C8.32773 14.7054 5.0494 14.6866 1.76635 14.6677C1.77106 13.4007 1.77576 12.1336 1.78518 10.8666C5.07294 10.8807 8.356 10.9042 11.6438 10.9325ZM11.6014 15.9395C11.5919 17.1548 11.5825 18.3747 11.5684 19.59C8.29476 19.5617 5.02113 19.5429 1.74279 19.524C1.7475 18.3088 1.75221 17.0888 1.76163 15.8736C5.03997 15.8877 8.31832 15.9112 11.6014 15.9395ZM8.04511 28.596C8.05453 27.3901 8.06396 26.1843 8.06867 24.9832C7.19257 24.9785 6.32116 24.9691 5.44506 24.9644C5.43564 26.1702 5.43092 27.376 5.4215 28.5771C6.29289 28.5818 7.16902 28.5866 8.04041 28.596H8.04511ZM21.2951 0C23.198 0.0847846 25.1057 0.17428 27.0086 0.263775C27.3525 0.268485 27.8141 0.310877 27.8093 0.72538C27.8046 1.1022 27.4938 1.24822 26.7637 1.54025C26.7637 1.7899 26.7543 2.04425 26.7543 2.29389C29.1942 2.32687 31.6341 2.36926 34.0787 2.40694C34.0552 3.68813 34.0363 4.96461 34.0128 6.2458C31.5776 6.20341 29.1377 6.16573 26.7025 6.13275C26.6977 6.49544 26.693 6.85813 26.6883 7.22553C28.7561 7.2538 30.8192 7.28677 32.887 7.31974C32.8682 8.36071 32.854 9.40167 32.8352 10.4426C30.7721 10.4097 28.709 10.3767 26.6459 10.3484C26.6412 10.7253 26.6365 11.1021 26.6318 11.4789C29.3308 11.5166 32.0297 11.559 34.7287 11.6061C34.7052 12.8967 34.6816 14.192 34.6628 15.4826C27.4043 15.3554 20.1458 15.2612 12.8826 15.1953C12.892 13.9047 12.9061 12.6094 12.9155 11.3187C15.6663 11.3423 18.4171 11.3706 21.1679 11.4082C21.1679 11.0314 21.1773 10.6546 21.182 10.2778C19.2461 10.2542 17.3102 10.2307 15.3743 10.2118C15.3837 9.17087 15.3931 8.1299 15.4072 7.08894C17.3479 7.10778 19.2838 7.13133 21.2244 7.15488C21.2244 6.79219 21.2338 6.4295 21.2385 6.0621C18.7515 6.03384 16.2645 6.00558 13.7728 5.98203C13.7869 4.70084 13.7963 3.42436 13.8105 2.14317C16.3022 2.16672 18.7939 2.19498 21.2857 2.22324C21.2951 1.48373 21.3045 0.744221 21.3139 0H21.2951ZM19.3968 28.026C19.3686 30.2728 19.345 32.5196 19.3168 34.7664C17.6399 34.7476 15.9631 34.7287 14.2815 34.7146C14.338 28.6525 14.3993 22.5904 14.4558 16.533C20.7063 16.5942 26.9615 16.6743 33.212 16.7826C33.1319 21.6248 33.0472 26.4669 32.9671 31.3138C32.9059 34.8135 31.2808 34.7805 25.4118 34.7381C25.3883 33.8338 25.3647 32.5903 23.9234 29.863C25.5107 30.1456 26.6506 30.2022 27.0275 30.2069C27.8235 30.221 27.8282 29.9196 27.8376 29.1282C27.8423 28.8032 27.847 28.4735 27.8518 28.1485C25.0303 28.1061 22.2089 28.0684 19.3874 28.0355L19.3968 28.026ZM27.9554 21.5117C27.9601 21.0831 27.9695 20.6592 27.9742 20.2306C25.1433 20.1882 22.3172 20.1505 19.4863 20.1175C19.4816 20.5461 19.4769 20.9701 19.4722 21.3987C22.2984 21.4317 25.1292 21.4694 27.9554 21.5117ZM27.8988 25.4637C27.9036 25.035 27.913 24.6111 27.9177 24.1825C25.0915 24.1401 22.2654 24.1024 19.4439 24.0694C19.4392 24.498 19.4345 24.922 19.4298 25.3506C22.256 25.3836 25.0774 25.4213 27.9036 25.4637H27.8988Z" fill="var(--fill-0, #14B8A6)"/>
</svg>
