<svg preserveAspectRatio="none" width="100%" height="100%" overflow="visible" style="display: block;" viewBox="0 0 59 31" fill="none" xmlns="http://www.w3.org/2000/svg">
<path id="Vector" d="M58.8681 24.6634C58.7217 24.0526 58.1058 23.679 57.4974 23.8254C49.9072 25.658 38.6165 28.1872 37.2762 28.0686C35.5219 27.8288 20.9851 23.7143 19.1904 22.9495C17.5371 22.2452 9.56065 17.8708 8.18244 16.8536C6.9153 15.9197 3.50259 11.5604 2.95232 10.427C2.76048 10.0358 2.71505 9.73287 2.75039 9.50065L8.12186 14.2461C8.18497 14.3016 8.25563 14.3496 8.32883 14.3925L15.3965 18.2596C15.5707 18.3555 15.7575 18.3984 15.9418 18.3984C16.3431 18.3984 16.7319 18.1838 16.9388 17.8077C17.2392 17.2575 17.0373 16.5684 16.487 16.2655L9.53035 12.459L3.46221 7.10015C2.8867 6.43124 2.36168 5.55787 2.28595 5.16157C2.62671 4.96216 3.49503 5.06313 4.82275 5.73961C6.61745 6.65336 11.2216 10.167 11.2695 10.2024C11.373 10.2806 11.4916 10.3437 11.6153 10.3816L21.3158 13.4611C21.6515 13.5671 22.015 13.5141 22.3027 13.3147L23.4058 12.5549C23.6759 12.3681 23.8551 12.0728 23.8904 11.7472C23.9283 11.419 23.8198 11.0934 23.5976 10.8511C22.6536 9.82374 20.0739 6.95626 19.4706 6.03999C18.7992 5.01769 18.2085 3.50066 18.3776 2.72826C18.418 2.54399 18.4887 2.46826 18.5821 2.41021C19.2459 1.99372 20.1092 2.73078 21.1971 3.96259L21.2426 4.01307C21.3991 4.19229 21.6363 4.47751 21.909 4.80818C23.5371 6.77957 25.2459 8.76864 26.6519 9.50318L27.4723 9.93229C28.5955 10.5229 29.3376 10.9142 31.2459 11.8355C33.6338 12.9916 36.9127 13.8751 37.0515 13.9104C37.1954 13.9483 37.3443 13.9583 37.4907 13.9407L54.0948 11.8103C54.7158 11.7295 55.1575 11.1616 55.0767 10.5381C54.996 9.91714 54.428 9.4754 53.8045 9.55617L37.4276 11.6588C36.678 11.4493 34.0982 10.6946 32.2354 9.79094C30.3624 8.88475 29.633 8.50107 28.5299 7.92051L27.7045 7.48887C26.5888 6.90578 24.683 4.59868 23.6607 3.36183C23.3629 3.00087 23.1256 2.71564 22.9439 2.50865L22.8984 2.45817C21.9746 1.41316 19.8114 -1.03531 17.3755 0.484253C16.7445 0.878026 16.3229 1.48636 16.1563 2.24109C15.6944 4.34879 17.3755 6.9916 17.5699 7.28693C18.0621 8.03914 19.4302 9.61423 20.508 10.8233L12.4887 8.27642C11.6305 7.62519 7.64983 4.6315 5.85513 3.71522C2.77311 2.14265 1.22074 2.87718 0.46348 3.76569C-0.541145 4.94701 0.281741 6.62056 1.09705 7.76906C0.471055 8.60204 0.153008 9.86918 0.907739 11.4215C1.59684 12.8376 5.23166 17.5023 6.83199 18.6811C8.37679 19.8195 16.4744 24.2621 18.2994 25.037C20.2354 25.8624 35.065 30.0551 36.9657 30.3151C37.0389 30.3252 37.1298 30.3302 37.2358 30.3302C40.0048 30.3302 53.749 27.0639 58.03 26.0315C58.6409 25.8851 59.0145 25.2718 58.8681 24.6609V24.6634Z" fill="var(--fill-0, #212C68)"/>
</svg>
