<svg preserveAspectRatio="none" width="100%" height="100%" overflow="visible" style="display: block;" viewBox="0 0 32 62" fill="none" xmlns="http://www.w3.org/2000/svg">
<path id="Vector" d="M13.8595 61.3532C7.24528 61.3532 0.989233 58.2858 0.72351 58.1587C0.0823082 57.841 -0.183417 57.0612 0.134295 56.42C0.452007 55.7787 1.23185 55.513 1.87305 55.8307C1.93082 55.8596 7.86337 58.7595 13.8537 58.7595C19.844 58.7595 24.1303 56.3044 26.9435 50.7993C29.0172 46.7442 29.774 38.9053 29.127 28.132C28.8613 23.7071 27.8793 14.6841 27.8677 14.5917C27.8677 14.5455 27.8619 14.4992 27.8619 14.453L27.8273 4.32089C26.4524 3.82988 23.1251 2.86519 17.8164 2.66878C17.7644 2.66878 15.061 2.51859 11.7972 2.66878C9.81586 2.76121 8.15799 2.92295 7.16441 3.04426C7.02577 4.93898 6.70806 9.179 6.36724 14.1007C6.32103 14.817 5.70293 15.3599 4.98085 15.308C4.26456 15.256 3.72156 14.6379 3.77355 13.9216C4.23568 7.22651 4.64582 1.79074 4.64582 1.79074C4.69203 1.1842 5.14838 0.69319 5.74914 0.600764C5.85312 0.583435 8.26774 0.225287 11.6759 0.0693191C15.0841 -0.0866489 17.8222 0.0693191 17.9377 0.0693191C25.6726 0.346595 29.5371 2.18933 29.6931 2.26443C30.1379 2.48394 30.421 2.9345 30.421 3.43129L30.4556 14.3722C30.5538 15.2791 31.455 23.6378 31.7149 27.9702C32.4023 39.3675 31.5705 47.4489 29.2541 51.9778C25.9788 58.3724 21.086 61.3474 13.8479 61.3474L13.8595 61.3532Z" fill="var(--fill-0, #202933)"/>
</svg>
