<svg preserveAspectRatio="none" width="100%" height="100%" overflow="visible" style="display: block;" viewBox="0 0 87 64" fill="none" xmlns="http://www.w3.org/2000/svg">
<path id="Vector" d="M10.5281 63.9105C8.84695 63.9105 7.39554 62.6737 7.15827 60.9774L0.0324938 10.2792C-0.0962396 9.35785 0.161227 8.41381 0.739265 7.68432C1.3173 6.95735 2.18057 6.49291 3.10695 6.40961L75.3138 0.0133189C77.1211 -0.145705 78.7366 1.13658 78.989 2.9338L86.1148 53.6321C86.2435 54.5534 85.986 55.4974 85.408 56.2269C84.83 56.9539 83.9667 57.4183 83.0403 57.5016L10.8335 63.8979C10.7325 63.908 10.629 63.9105 10.5281 63.9105ZM9.40479 60.6619C9.48809 61.2601 10.0257 61.6892 10.629 61.6362L82.8358 55.24C83.1488 55.2122 83.429 55.0607 83.6259 54.8159C83.8203 54.5685 83.9061 54.2631 83.8607 53.9501L76.7349 3.25185C76.6516 2.65362 76.1139 2.2245 75.5107 2.27751L3.30384 8.6738C2.99084 8.70157 2.71065 8.85302 2.51377 9.09786C2.3194 9.34523 2.23358 9.65066 2.27902 9.96366L9.40479 60.6619Z" fill="var(--fill-0, #212C68)"/>
</svg>
