<svg preserveAspectRatio="none" width="100%" height="100%" overflow="visible" style="display: block;" viewBox="0 0 15 22" fill="none" xmlns="http://www.w3.org/2000/svg">
<path id="Vector" d="M13.1804 21.1601C11.2293 21.1601 9.37016 19.6665 9.10458 17.8784C9.05462 17.5365 9.03884 17.0133 9.24132 16.4242C7.80294 16.4006 6.475 16.0219 5.44158 15.0121C4.64218 14.2312 4.12153 13.2898 3.92168 12.301C3.63242 12.2064 3.34843 12.0986 3.06707 11.975C0.374376 10.7733 -0.343501 8.33564 0.140342 6.45023C0.674146 4.37549 2.18616 2.5716 4.4029 1.36988C6.78267 0.0787579 9.67783 -0.349864 11.6079 0.299643C12.2259 0.507379 12.5598 1.18055 12.3521 1.7985C12.1444 2.41646 11.4712 2.75041 10.8533 2.54267C9.73568 2.16664 7.5505 2.35597 5.53361 3.44988C3.90327 4.33342 2.80148 5.60877 2.43597 7.03926C2.20719 7.93331 2.50433 9.1324 4.03475 9.81346C4.05579 9.82135 4.07419 9.83187 4.09523 9.83976C4.4923 8.69589 5.44421 7.34166 7.61624 6.25827C9.16769 5.48518 11.0636 5.26429 12.3363 5.71132C13.1699 6.0032 13.5512 6.51071 13.7221 6.88411C14.937 9.51632 11.6132 11.2019 10.3615 11.8356C9.2045 12.422 7.91338 12.7165 6.61174 12.7191C6.74322 12.9295 6.90626 13.1294 7.09822 13.3187C8.10009 14.2969 10.0433 14.3022 13.3987 13.3318C14.0271 13.1504 14.6819 13.5133 14.8634 14.1391C15.0448 14.7676 14.6819 15.4224 14.0561 15.6038C12.3731 16.0903 11.3502 16.8476 11.4528 17.5313C11.5475 18.1703 12.4021 18.7909 13.1857 18.7909C13.1962 18.7909 13.2067 18.7909 13.2172 18.7909C13.8641 18.7909 14.3927 19.3115 14.4005 19.961C14.4084 20.6158 13.8852 21.1496 13.2304 21.1575C13.2146 21.1575 13.2015 21.1575 13.1857 21.1575L13.1804 21.1601ZM6.44082 10.3446C7.35854 10.3709 8.34726 10.2026 9.28865 9.72669C11.3003 8.70641 11.5974 8.18312 11.5895 7.95698C11.2161 7.79132 9.93816 7.74398 8.6707 8.37771C7.56102 8.93255 6.8037 9.6031 6.44344 10.3473L6.44082 10.3446Z" fill="var(--fill-0, #202933)"/>
</svg>
