<svg preserveAspectRatio="none" width="100%" height="100%" overflow="visible" style="display: block;" viewBox="0 0 40 40" fill="none" xmlns="http://www.w3.org/2000/svg">
<path id="Vector" d="M23.6807 38.9562C21.7624 39.0415 19.844 39.1268 17.9257 39.212C17.8191 36.7892 17.7126 34.3665 17.5989 31.9437C13.6343 35.489 8.40512 38.7573 6.03208 39.6312C3.82955 37.0024 2.65013 36.3416 1.42809 35.688C8.04987 33.1302 12.4194 29.2722 13.4425 28.3841C9.32875 28.5689 5.21501 28.7678 1.09416 28.9667C1.016 27.425 0.944954 25.8903 0.8668 24.3485C6.31627 24.0786 11.7657 23.8299 17.2223 23.5812C17.201 23.162 17.1868 22.7428 17.1655 22.3236C13.343 22.4942 9.51348 22.6718 5.69104 22.8565C5.62709 21.4426 5.55605 20.0288 5.4921 18.6149C9.32165 18.4301 13.1512 18.2525 16.9808 18.082C16.9665 17.6912 16.9452 17.3005 16.931 16.9097C12.1494 17.1228 7.3678 17.3431 2.59329 17.5776C2.52225 16.0784 2.4512 14.5793 2.37304 13.0873C5.07291 12.9594 7.76567 12.8315 10.4655 12.7036C10.2311 12.2062 9.52769 10.8918 9.43533 10.7284C6.36601 10.8705 3.29668 11.0197 0.227357 11.1689C0.149203 9.62716 0.0781541 8.0925 0 6.55073C1.7336 6.46547 3.4672 6.38021 5.2079 6.30206C4.46189 5.07291 4.09954 4.54714 3.45299 3.65193C5.04449 2.59329 6.63599 1.53466 8.22749 0.483134C9.32875 2.03201 10.6716 4.28426 11.1405 5.10133C10.5721 5.43526 10.0037 5.76919 9.43533 6.10312C10.4158 6.06049 11.3963 6.01076 12.3768 5.96813C12.2986 4.27716 12.2204 2.57908 12.1423 0.888114C14.0393 0.873904 15.9363 0.859694 17.8333 0.845484C18.2596 0.824169 18.693 0.888112 18.7072 1.27178C18.7286 1.69097 18.4302 1.83307 17.8902 2.11016C17.9399 3.31089 17.9968 4.51872 18.0536 5.71946C18.7499 5.69104 19.4462 5.65551 20.1424 5.62709C20.0714 3.93612 19.9932 2.23805 19.9222 0.547076C21.8334 0.532866 23.7446 0.518657 25.6558 0.511552C25.8264 0.504447 26.5582 0.511553 26.5795 1.02311C26.5937 1.4423 26.0111 1.71939 25.7127 1.81886C25.7624 3.00538 25.8122 4.199 25.8619 5.38552C26.9703 5.33579 28.0786 5.29316 29.1941 5.24342C28.3699 4.96633 27.5458 4.69635 26.7216 4.41925C27.155 3.55956 28.1923 1.66255 28.7181 0C30.7288 0.603918 32.7323 1.20783 34.743 1.81886C34.9633 1.89701 35.1409 2.05332 35.148 2.26647C35.1693 2.85617 34.4873 2.84196 33.9331 2.86328C33.5707 3.42457 33.4499 3.59509 32.6542 5.10133C34.6151 5.02317 36.5832 4.94502 38.5442 4.86687C38.601 6.40863 38.6649 7.9504 38.7218 9.48506C35.7235 9.59874 32.7252 9.71952 29.727 9.84741C29.4214 10.7 29.1159 11.5526 28.9596 11.9007C31.4037 11.8013 33.8478 11.7018 36.2848 11.6023C36.3416 13.1015 36.4056 14.6006 36.4624 16.0997C31.8798 16.2845 27.2971 16.4692 22.7144 16.6681C22.7286 17.0589 22.7499 17.4497 22.7642 17.8404C26.48 17.677 30.1959 17.5278 33.9118 17.3786C33.9686 18.7925 34.0254 20.2064 34.0823 21.6203C30.3735 21.7695 26.6576 21.9258 22.9489 22.0821C22.9702 22.5013 22.9844 22.9205 23.0057 23.3396C28.4126 23.1052 33.8265 22.8849 39.2333 22.6718C39.2902 24.2135 39.3541 25.7553 39.411 27.29C35.3398 27.4463 31.2616 27.6168 27.1905 27.7873C32.1071 31.5316 37.2155 33.0947 39.7094 33.8407C36.7466 36.228 36.1569 37.3008 35.688 38.2884C32.8602 37.5139 27.0626 34.7288 23.361 31.5245C23.4675 34.0041 23.5741 36.4766 23.6807 38.9562ZM16.0003 10.43C16.3271 11.0908 16.4692 11.375 16.9879 12.4052C18.7783 12.327 20.5687 12.2489 22.3592 12.1707C22.6292 11.5242 22.7855 11.2258 23.2118 10.1174C20.8103 10.224 18.4088 10.3234 16.0074 10.4371L16.0003 10.43Z" fill="var(--fill-0, #0F172A)"/>
</svg>
