<svg preserveAspectRatio="none" width="100%" height="100%" overflow="visible" style="display: block;" viewBox="0 0 64 103" fill="none" xmlns="http://www.w3.org/2000/svg">
<path id="Vector" d="M36.4824 102.365C34.8484 102.365 33.4678 102.084 32.3242 101.682C27.9648 100.144 24.906 96.1485 23.7046 90.4361C21.5193 80.039 4.76233 30.7021 4.59423 30.2061C4.58596 30.1841 4.58043 30.1648 4.57492 30.1427C4.55839 30.0876 2.96564 24.4523 0.416677 17.927C-1.53156 12.9448 3.97145 9.36799 4.20568 9.21919C4.24977 9.19163 4.29385 9.16682 4.3407 9.14478C13.3902 4.84323 13.4729 4.81017 13.5197 4.79088C15.2696 4.08268 16.9615 3.31386 18.4523 2.63872C22.5637 0.773159 25.2808 -0.461365 27.1656 0.164165C29.3095 0.875119 33.9721 7.83586 34.2063 10.1313C34.2476 10.5336 34.3716 13.394 34.413 14.397C35.0964 15.9677 39.7313 26.4088 47.2322 38.327C48.8277 40.5425 51.3298 43.6784 53.7493 46.7151C55.1436 48.465 56.4608 50.1183 57.519 51.4851C60.856 55.806 70.5146 80.7968 53.719 94.5144C46.2787 100.593 40.5911 102.371 36.4852 102.371L36.4824 102.365ZM26.1295 89.9235C27.1463 94.7569 29.6375 98.1022 33.1481 99.3423C38.0477 101.07 44.6171 98.736 52.1427 92.5882C67.307 80.2016 58.5055 56.8256 55.5487 52.9952C54.5043 51.6422 53.1926 49.9971 51.8038 48.2555C49.354 45.183 46.8216 42.0057 45.1902 39.7379C45.1765 39.7186 45.1599 39.6965 45.1489 39.6745C36.9261 26.61 32.0872 15.2706 32.0376 15.1576C31.9797 15.0198 31.9467 14.8737 31.9412 14.7249C31.8612 12.8098 31.762 10.6356 31.7345 10.3765C31.5802 8.85819 27.6176 3.04932 26.3665 2.50646C25.4158 2.19507 22.2579 3.62524 19.4719 4.89007C17.9673 5.57347 16.2616 6.34781 14.4704 7.07254C14.0819 7.25166 8.94813 9.6904 5.48154 11.3383C5.01032 11.6607 1.59609 14.1297 2.72314 17.0149C5.21699 23.3969 6.8125 28.9495 6.95028 29.429C7.77973 31.865 23.9222 79.4163 26.1295 89.918V89.9235Z" fill="var(--fill-0, #202933)"/>
</svg>
