<svg preserveAspectRatio="none" width="100%" height="100%" overflow="visible" style="display: block;" viewBox="0 0 79 76" fill="none" xmlns="http://www.w3.org/2000/svg">
<path id="Vector" d="M16.7297 75.9089C16.6497 75.9089 16.5698 75.9007 16.4899 75.8841C16.3108 75.8456 12.0395 74.9142 6.44836 69.8465C1.14927 65.0462 0.143467 61.982 0.0470194 61.6485C-0.0659617 61.26 0.0277367 60.8411 0.295033 60.538C9.37761 50.2402 23.0979 34.5909 24.4537 32.7998C24.6907 32.1908 24.9084 31.218 25.1536 30.102C25.8839 26.8145 26.8814 22.3146 30.0063 18.7102C31.318 17.1946 32.558 15.9187 33.6493 14.7917C36.1321 12.2317 37.926 10.3799 38.5515 7.89433C38.6342 7.56641 38.7141 7.23849 38.794 6.91608C39.6372 3.46051 40.6871 -0.841038 44.7958 0.142724C48.6702 1.07137 47.7774 7.32667 47.3971 9.99688C47.1711 11.5703 46.3031 14.1937 45.7548 15.7506L50.6681 16.8915C52.1616 16.2108 57.7638 13.6757 61.2221 12.3777C65.0442 10.9448 71.7597 8.98832 73.8044 11.9975C74.5567 13.1025 74.463 14.0504 74.2536 14.6484C73.617 16.4671 71.068 17.8615 64.8486 19.7959C62.2913 20.5923 60.4533 21.656 59.5385 22.2539L59.7506 22.907C61.3048 22.9704 64.7934 23.1468 68.1718 23.5436C68.4116 23.5711 68.6624 23.5987 68.9214 23.629C72.2612 24.0038 76.4195 24.4667 77.6926 26.9964C78.1941 27.9884 78.2437 29.0907 77.8331 30.0193C77.4225 30.9452 76.5986 31.6176 75.5129 31.918C74.3996 32.2266 73.5398 32.0668 72.3494 31.8436C71.6412 31.7113 70.7511 31.546 69.4973 31.4109C75.0499 33.4473 77.4528 35.5774 76.8328 37.9115C76.5683 38.909 76.0447 39.62 75.2786 40.025C73.7024 40.8573 71.677 40.1435 69.3348 39.3168C68.4502 39.0055 67.5408 38.6831 66.6508 38.4488C70.0485 40.8021 71.3298 43.0866 70.2634 44.9907C68.8718 47.479 66.1713 46.25 63.3109 44.9494C60.7592 43.7892 57.2623 42.1992 52.9194 41.8327C48.1632 41.4359 41.3402 44.04 40.1801 44.8336C38.9676 46.1894 26.1236 63.7841 17.6886 75.4129C17.4654 75.7216 17.1072 75.9007 16.7352 75.9007L16.7297 75.9089ZM2.54912 61.5411C3.05341 62.5496 4.47807 64.8836 8.02733 68.0995C11.8218 71.5358 14.9274 72.8915 16.2639 73.36C26.2035 59.659 37.9508 43.5633 38.6948 43.0011C40.0478 41.976 47.5294 39.022 53.1096 39.4905C57.8603 39.89 61.5693 41.5765 64.2781 42.8082C65.5705 43.3952 66.6838 43.9022 67.4471 44.0455C68.0258 44.153 68.0947 44.0317 68.1994 43.8444C68.5218 43.2684 67.2597 41.4194 63.5314 39.2783C60.649 37.6221 58.2571 36.834 58.2323 36.8258C57.6508 36.6356 57.3119 36.0349 57.4497 35.4397C57.5875 34.8444 58.1579 34.4587 58.7641 34.5413C58.9267 34.5634 62.7791 35.12 66.8161 36.068C67.9459 36.3325 69.0454 36.721 70.1118 37.0986C71.7018 37.6607 73.5068 38.2973 74.1709 37.9445C74.2315 37.9115 74.4161 37.815 74.5484 37.3107C74.6834 36.7954 73.1513 35.1228 67.5381 33.2269C65.0139 32.3726 59.194 31.5294 59.1334 31.5212C58.5602 31.4385 58.1303 30.9507 58.1221 30.3693C58.1138 29.7906 58.5299 29.2891 59.1031 29.1926C59.2436 29.1678 62.6 28.6112 67.7034 28.9061C70.1917 29.0493 71.6825 29.3277 72.771 29.5288C73.8953 29.7383 74.3142 29.8016 74.8736 29.6473C75.1519 29.5702 75.5156 29.4076 75.6672 29.0659C75.7912 28.7848 75.7581 28.4183 75.5762 28.0601C74.8763 26.6712 70.9771 26.2358 68.6458 25.9741C68.3841 25.9437 68.1305 25.9162 67.8853 25.8886C63.4818 25.3733 58.8826 25.2383 58.8358 25.2355C58.337 25.2218 57.9016 24.8938 57.7473 24.4199L57.017 22.1575C56.8655 21.6918 57.0198 21.1793 57.4028 20.8734C57.5048 20.7907 59.9766 18.8425 64.1349 17.5501C69.0454 16.0235 71.6963 14.7862 72.016 13.8741C72.0353 13.8217 72.0849 13.6812 71.8424 13.3229C71.2003 12.3777 67.3562 12.5899 62.0378 14.585C58.1827 16.0317 51.3404 19.1704 51.2743 19.2007C51.0373 19.3082 50.77 19.3357 50.5165 19.2779L43.9168 17.7457C43.5861 17.6686 43.305 17.4536 43.1452 17.1533C42.9853 16.8529 42.9606 16.5002 43.0818 16.1833C43.0983 16.1392 44.7627 11.7054 45.0521 9.6662C45.8981 3.74985 44.9033 2.598 44.2336 2.43817C42.6547 2.05789 42.0898 3.30068 41.0702 7.47823C40.9903 7.8089 40.9076 8.13958 40.8249 8.47301C40.0451 11.5676 37.9646 13.717 35.3302 16.434C34.2583 17.5391 33.0458 18.7901 31.7754 20.2561C29.0418 23.4086 28.1187 27.5723 27.4436 30.6145C27.1432 31.9703 26.9034 33.0423 26.5617 33.8442C26.5314 33.9158 26.4929 33.9847 26.4488 34.0508C25.2969 35.7125 6.46216 57.0962 2.54364 61.5411H2.54912ZM40.125 44.8777C40.125 44.8777 40.1222 44.8777 40.1195 44.8805C40.1195 44.8805 40.1223 44.8805 40.125 44.8777Z" fill="var(--fill-0, #202933)"/>
</svg>
