<svg preserveAspectRatio="none" width="100%" height="100%" overflow="visible" style="display: block;" viewBox="0 0 18 18" fill="none" xmlns="http://www.w3.org/2000/svg">
<path id="Vector" d="M11.3028 17.884C10.435 17.884 9.54097 17.7762 8.63639 17.5553C5.14168 16.7033 2.17813 14.313 0.900157 11.3153C-0.979992 6.90552 0.50572 4.03928 1.55755 2.72186C3.109 0.781231 5.65972 -0.307414 7.76075 0.0765045C11.053 0.678678 13.3565 2.82178 13.4538 2.91382C13.9297 3.36085 13.9508 4.11028 13.5037 4.58623C13.0567 5.06219 12.3099 5.08322 11.834 4.63882C11.8156 4.62042 9.91964 2.87701 7.33476 2.40631C6.26452 2.21172 4.50269 2.82968 3.40615 4.20232C2.52262 5.30674 1.74952 7.27892 3.07746 10.3897C4.06881 12.7143 6.4144 14.5786 9.19913 15.2597C11.5789 15.8408 13.8272 15.4464 15.3655 14.1763C15.8704 13.7608 16.6145 13.8318 17.03 14.3367C17.4455 14.8416 17.3745 15.5858 16.8696 16.0012C15.3655 17.2398 13.4196 17.8866 11.3054 17.8866L11.3028 17.884Z" fill="var(--fill-0, #202933)"/>
</svg>
