<svg preserveAspectRatio="none" width="100%" height="100%" overflow="visible" style="display: block;" viewBox="0 0 24 14" fill="none" xmlns="http://www.w3.org/2000/svg">
<path id="Vector" d="M1.13519 13.5448C0.880247 13.5448 0.622781 13.459 0.41075 13.2823C-0.0713693 12.8809 -0.139521 12.1666 0.261824 11.6819L9.61645 0.411443C9.83101 0.151452 10.1516 0 10.4898 0C10.8281 0 11.1486 0.151452 11.3632 0.411443L19.8116 10.5915L21.5836 8.30204C21.9673 7.80477 22.6816 7.71643 23.1764 8.10011C23.6736 8.48378 23.7645 9.19813 23.3783 9.69287L20.7405 13.103C20.5285 13.3757 20.2054 13.5372 19.8621 13.5448C19.5163 13.5549 19.1882 13.4009 18.9686 13.1333L10.4898 2.91543L2.01108 13.1333C1.78643 13.4034 1.46333 13.5448 1.13519 13.5448Z" fill="var(--fill-0, #212C68)"/>
</svg>
