<svg preserveAspectRatio="none" width="100%" height="100%" overflow="visible" style="display: block;" viewBox="0 0 43 43" fill="none" xmlns="http://www.w3.org/2000/svg">
<path id="Vector" d="M26.4 0L22.6425 3.7575L26.4 7.515L30.1575 3.7575L26.4 0ZM14.88 2.3175C14.615 2.3175 14.4 2.53254 14.4 2.7975V7.5975C14.4 7.86246 14.615 8.0775 14.88 8.0775H15.84C18.0547 8.0775 18.24 9.93606 18.24 11.6775C18.24 12.5554 18.137 13.6038 17.9587 14.7187C16.7341 14.1614 15.6003 13.8448 14.6475 13.8375H14.6212C13.4414 13.8375 12.7383 14.2908 12.3562 14.6719C12.099 14.9292 11.9179 15.2313 11.7825 15.5606L11.7694 15.555L1.22812 42.3019L28.8506 32.8425C28.8717 32.8348 28.8933 32.8277 28.9144 32.82L28.9256 32.8162C29.2856 32.6809 29.6082 32.4806 29.8856 32.2031C30.8902 31.1986 30.972 29.4804 30.15 27.3262C30.7762 27.2956 31.4439 27.2775 32.16 27.2775C35.1014 27.2775 37.44 27.9687 37.44 28.9575V29.6775C37.44 29.9425 37.655 30.1575 37.92 30.1575H41.76C41.8896 30.1575 42.0138 30.1053 42.1031 30.0131C42.1943 29.919 42.2438 29.793 42.24 29.6644C42.24 29.6644 42.21 28.6183 42.2119 28.4494V28.4475C42.2224 27.1784 41.7115 25.987 40.74 25.0069C39.2155 23.4699 36.5928 22.4775 34.0594 22.4775C31.5217 22.4775 29.5702 23.0443 28.1419 23.6775C27.5093 22.7634 26.7834 21.8499 25.9725 20.9475C27.3448 20.5277 28.7222 20.2237 29.3737 20.0812C29.6224 20.0275 29.7934 19.9884 29.9287 19.95C31.5415 19.4978 34.545 18.2627 34.545 15.3731C34.545 14.8182 34.2982 14.2705 34.0275 13.8356H34.7325C36.6938 13.8356 38.3981 12.7857 38.3981 10.8206V9.22875C38.3981 9.10971 38.442 8.07 39.93 8.07L40.8 8.0625C41.065 8.0625 41.28 7.84746 41.28 7.5825V3.75937C41.28 3.49441 41.065 3.27937 40.8 3.27937L39.1687 3.2775H39.1631C37.0569 3.2775 35.4926 3.99925 34.3819 5.48437C33.6523 6.45973 33.4116 8.12934 33.33 9.0375H32.7712C29.9517 9.0375 28.8037 11.0122 28.8037 13.8375V15.495C27.2557 15.9682 25.1095 16.8216 23.31 18.3037C22.2907 17.4135 21.2609 16.6433 20.2519 15.9937C21.2117 14.2078 22.08 11.8017 22.08 8.9175C22.08 5.73798 20.1051 2.3175 15.7687 2.3175H14.88ZM6.24 3.84L2.4825 7.5975L6.24 11.355L9.9975 7.5975L6.24 3.84ZM39.84 14.7975L37.44 17.1975L39.84 19.5975L42.2381 17.1975L39.84 14.7975ZM2.4 15.7575L0 18.1575L2.4 20.5575L4.79812 18.1575L2.4 15.7575ZM14.6175 15.7575H14.6325C15.3408 15.7627 16.368 16.0708 17.5744 16.6687C17.4036 17.3983 17.2109 18.1343 16.9762 18.8681L16.9425 18.975C16.8782 19.1824 16.9616 19.4073 17.145 19.5225C17.2228 19.5734 17.3117 19.5975 17.4 19.5975C17.5181 19.5975 17.636 19.5536 17.7281 19.4681C17.7451 19.4522 18.4265 18.7908 19.2431 17.625C20.0978 18.1757 21.0046 18.847 21.9412 19.6575C21.7137 19.9321 21.4898 20.2129 21.2925 20.52L19.275 23.6587C19.1512 23.8517 19.1821 24.1041 19.3462 24.2625C19.4394 24.3508 19.559 24.3975 19.68 24.3975C19.775 24.3975 19.8693 24.3688 19.9519 24.3112L22.9762 22.2187C23.2605 22.022 23.6273 21.8398 24.0206 21.6637C24.9332 22.6265 25.7524 23.6083 26.4431 24.585C25.7811 25.0217 25.4014 25.3721 25.3612 25.4119L23.1825 27.5662C23.0212 27.7256 22.994 27.9752 23.1169 28.1662C23.2388 28.3573 23.4832 28.4353 23.6925 28.3537C23.7126 28.3461 25.2249 27.7958 28.1419 27.4856C28.8418 29.0609 28.9999 30.3757 28.53 30.8456C27.571 31.8027 23.2876 30.316 18.765 25.7944C14.2415 21.2718 12.75 16.9894 13.71 16.0294C13.8924 15.8489 14.198 15.7575 14.6175 15.7575ZM33.12 34.56L29.3625 38.3175L33.12 42.075L36.8775 38.3175L33.12 34.56Z" fill="var(--fill-0, white)"/>
</svg>
