<svg preserveAspectRatio="none" width="100%" height="100%" overflow="visible" style="display: block;" viewBox="0 0 127 69" fill="none" xmlns="http://www.w3.org/2000/svg">
<path id="Vector" d="M112.322 21.3522L126.123 16.3849L119.27 14.0604L122.588 7.54426L94.6544 5.1908L83.2341 0L75.8765 3.02401L34.7788 1.34372C34.7788 1.34372 24.3473 6.39776 19.2801 7.54426C14.2129 8.69075 5.69303 9.45597 5.69303 9.45597V14.2497L2.60854 14.1734V20.9104H0V33.8742H2.60854V62.421L32.2386 65.7842L39.0966 66.7755L54.7373 68.5637L124.426 61.6321C124.426 61.6321 123.958 57.7403 124.211 52.4575C124.432 47.8373 125.323 42.2731 125.323 42.2731L110.761 42.1679L110.795 37.9974L110.761 33.0722H112.322V21.3495V21.3522Z" fill="var(--fill-0, white)"/>
</svg>
