<svg preserveAspectRatio="none" width="100%" height="100%" overflow="visible" style="display: block;" viewBox="0 0 19 11" fill="none" xmlns="http://www.w3.org/2000/svg">
<path id="Vector" d="M18.0186 10.194C17.8914 10.194 17.7596 10.1657 17.6371 10.1139C11.9942 7.59863 6.24769 5.06922 0.562406 2.59163C0.162035 2.41735 -0.0640594 1.99343 0.016015 1.56479C0.0960893 1.13616 0.454069 0.820574 0.892123 0.797023C6.44081 0.514407 12.0649 0.245921 17.6088 0.000987965C18.1222 -0.0225633 18.565 0.377809 18.5886 0.895938L18.956 9.21425C18.9701 9.53926 18.8146 9.84543 18.5462 10.0291C18.386 10.1375 18.2023 10.194 18.0186 10.194ZM4.9665 2.46917C8.98906 4.2308 13.0257 6.01128 17.0153 7.78704L16.7563 1.91806C12.842 2.09234 8.89485 2.27604 4.9665 2.46917Z" fill="var(--fill-0, #14B8A6)"/>
</svg>
