<svg preserveAspectRatio="none" width="100%" height="100%" overflow="visible" style="display: block;" viewBox="0 0 12 75" fill="none" xmlns="http://www.w3.org/2000/svg">
<path id="Vector" d="M10.1215 74.3869C9.47671 74.3869 8.93108 73.8881 8.88699 73.235C7.13716 48.5858 5.15311 20.6933 4.57167 18.125C2.9486 15.5678 0.270118 11.9359 0.242562 11.9001C0.0827351 11.6851 -0.002691 11.4233 6.46369e-05 11.156L0.0551807 2.21399C0.0579364 1.63255 0.465767 1.13378 1.03343 1.00977L5.54716 0.0287681C6.21678 -0.117281 6.87539 0.307088 7.02144 0.976708C7.16749 1.64633 6.74312 2.30493 6.0735 2.45097L2.52974 3.2198L2.4829 10.7565C3.20763 11.7485 5.35702 14.7136 6.75137 16.9291C7.02969 17.3727 7.26944 17.7558 8.6197 35.3257C9.41884 45.742 10.4054 59.6277 11.3588 73.0559C11.4084 73.7393 10.8931 74.3318 10.2097 74.3814C10.1794 74.3814 10.1491 74.3841 10.1215 74.3841V74.3869Z" fill="var(--fill-0, #202933)"/>
</svg>
