<svg preserveAspectRatio="none" width="100%" height="100%" overflow="visible" style="display: block;" viewBox="0 0 65 105" fill="none" xmlns="http://www.w3.org/2000/svg">
<path id="Vector" d="M56.3675 104.414H6.35287C6.01891 104.414 5.69809 104.272 5.47458 104.022C5.25107 103.773 5.14062 103.441 5.17744 103.107C5.18532 103.026 5.94791 94.5927 0.168089 84.9422C-0.0501657 84.5793 -0.0554268 84.1296 0.14968 83.7589C0.354788 83.3907 0.741332 83.1567 1.16469 83.1488C7.69657 83.0357 11.9249 82.8674 11.967 82.8648C12.6218 82.8385 13.1714 83.346 13.1977 84.0008C13.224 84.6529 12.7164 85.2051 12.0617 85.2314C12.0249 85.2314 8.61167 85.3682 3.19211 85.4786C7.17066 92.9282 7.60981 99.3707 7.58877 102.045H56.2176C57.0091 101.814 61.8396 100.041 61.837 91.5187C61.837 84.3374 51.7841 35.9662 48.5918 21.9164C45.1681 6.84891 37.8894 4.67951 31.468 2.76517C30.9605 2.61266 30.4635 2.4654 29.977 2.31288C29.3538 2.1183 29.0067 1.45301 29.2013 0.829798C29.3959 0.206587 30.0612 -0.140512 30.6844 0.0540766C31.1603 0.203963 31.6468 0.348588 32.1438 0.495844C38.4863 2.38651 47.1718 4.97402 50.9006 21.3905C54.2112 35.9636 64.201 84.0402 64.2036 91.5161C64.2063 102.592 56.9328 104.314 56.6225 104.383C56.5384 104.401 56.4542 104.409 56.3701 104.409L56.3675 104.414Z" fill="var(--fill-0, #202933)"/>
</svg>
