<svg preserveAspectRatio="none" width="100%" height="100%" overflow="visible" style="display: block;" viewBox="0 0 5 5" fill="none" xmlns="http://www.w3.org/2000/svg">
<path id="Vector" d="M1.87792 1.18057C1.87792 1.21867 1.89887 1.24343 1.94078 1.25486L2.45506 1.40914H2.48364C2.51792 1.40914 2.54078 1.3901 2.55221 1.352C2.60935 1.14248 2.73506 0.994857 2.92935 0.909143C3.12364 0.823429 3.34649 0.780571 3.59792 0.780571C3.88364 0.780571 4.22649 0.833905 4.62649 0.940571C4.63792 0.944381 4.64745 0.946286 4.65506 0.946286C4.69697 0.946286 4.71792 0.921524 4.71792 0.872L4.72935 0.277714C4.72935 0.224381 4.70649 0.19581 4.66078 0.192C4.28364 0.104381 3.92935 0.0605714 3.59792 0.0605714C3.17126 0.0605714 2.79411 0.147238 2.46649 0.320571C2.13887 0.493905 1.94459 0.772952 1.88364 1.15771C1.87983 1.16152 1.87792 1.16914 1.87792 1.18057ZM0.820779 0.0548571C0.801732 0.00914286 0.769351 -0.008 0.723636 0.00342857L0.0607792 0.174857C0.0341126 0.178667 0.0160173 0.190095 0.00649351 0.209143C-0.0030303 0.22819 -0.00207792 0.251048 0.00935065 0.277714C0.466494 1.40533 0.803636 2.472 1.02078 3.47771L0.117922 3.472C0.0645887 3.472 0.0379221 3.49867 0.0379221 3.552V4.08914C0.0379221 4.14248 0.0645887 4.16914 0.117922 4.16914H1.12364C1.15792 4.35962 1.1884 4.57486 1.21506 4.81486C1.21887 4.86438 1.24745 4.88914 1.30078 4.88914L1.91221 4.85486C1.93887 4.85486 1.95887 4.84724 1.97221 4.832C1.98554 4.81676 1.9903 4.79581 1.98649 4.76914L1.88935 4.16914L2.92935 4.17486C2.97887 4.17486 3.00364 4.14819 3.00364 4.09486V3.55771C3.00364 3.50438 2.97697 3.47771 2.92364 3.47771H1.78078C1.56364 2.41105 1.24364 1.2701 0.820779 0.0548571ZM2.21506 3.02629C2.21506 3.07581 2.23983 3.10248 2.28935 3.10629C2.72364 3.15581 3.11602 3.18057 3.46649 3.18057C3.83983 3.18057 4.19602 3.1501 4.53506 3.08914C4.58459 3.08152 4.60554 3.05105 4.59792 2.99771L4.54649 2.44343C4.53887 2.3901 4.5084 2.36724 4.45506 2.37486C4.08935 2.44343 3.73506 2.47771 3.39221 2.47771C3.05316 2.47771 2.7084 2.44724 2.35792 2.38629H2.33506C2.29697 2.38629 2.27411 2.40914 2.26649 2.45486L2.21506 3.01486V3.02629Z" fill="var(--fill-0, white)"/>
</svg>
