<svg preserveAspectRatio="none" width="100%" height="100%" overflow="visible" style="display: block;" viewBox="0 0 21 49" fill="none" xmlns="http://www.w3.org/2000/svg">
<path id="Vector" d="M1.13567 48.5307C0.645983 48.5307 0.194139 48.2127 0.0477361 47.7205C-0.131481 47.1197 0.209291 46.4861 0.812571 46.3069C4.23789 45.2846 5.0961 43.1996 6.00733 40.9935C6.14111 40.6704 6.2724 40.3498 6.41123 40.0368C8.01661 36.3944 18.2799 1.17449 18.3834 0.818585C18.5576 0.215305 19.1887 -0.130508 19.7919 0.0461849C20.3952 0.220354 20.741 0.851396 20.5643 1.45468C20.1403 2.91113 10.1546 37.1769 8.49115 40.9531C8.35989 41.251 8.23621 41.5539 8.11 41.8593C7.13819 44.2194 5.92656 47.155 1.4638 48.4853C1.35526 48.5181 1.24674 48.5332 1.1382 48.5332L1.13567 48.5307Z" fill="var(--fill-0, #212C68)"/>
</svg>
