<svg preserveAspectRatio="none" width="100%" height="100%" overflow="visible" style="display: block;" viewBox="0 0 73 46" fill="none" xmlns="http://www.w3.org/2000/svg">
<path id="Vector" d="M65.5704 45.6231C64.2071 45.6231 62.6359 45.1726 60.9549 43.9248C60.3772 43.4973 60.2617 42.6828 60.6891 42.1052C61.1166 41.5275 61.9311 41.412 62.5088 41.8395C64.3746 43.2316 65.8476 43.1565 66.8008 42.7984C66.0498 42.007 65.1545 40.7881 64.4266 38.9916C63.5197 36.7734 63.7507 33.3305 63.7796 32.9435C63.8143 32.5103 64.0627 32.1175 64.4439 31.9037C64.8252 31.69 65.2873 31.6842 65.6743 31.8864C65.6975 31.898 66.6217 32.3254 68.2854 32.129C68.4702 32.1059 68.6435 32.0597 68.811 32.0019C67.6268 30.9506 65.8939 29.3389 64.6981 27.8832C62.0524 24.6714 61.0646 20.5354 61.0242 20.3621C61.0126 20.3217 61.0069 20.2812 61.0011 20.2408C60.9318 19.7613 59.1352 8.31792 44.0641 4.09523C29.1085 -0.0985759 22.9334 5.52782 20.9 7.37633C17.9424 10.074 17.9366 11.4199 17.9482 11.5875C18.081 11.9514 18.0521 12.3615 17.85 12.6966C17.6247 13.0778 17.2261 13.3204 16.7813 13.3378C16.504 13.3493 9.82049 13.7595 6.94375 20.9918C5.4765 24.683 5.77688 26.7799 6.06571 28.8075C6.13503 29.31 6.20435 29.7953 6.25056 30.2921C6.3892 31.7998 6.15236 33.0648 5.75955 34.1046L6.78201 33.7753C7.15748 33.654 7.56762 33.7118 7.89689 33.9255C8.22615 34.145 8.43989 34.4974 8.47455 34.8902C8.4861 34.9884 8.67673 37.2702 7.19792 40.0198C6.86865 40.6264 6.25634 41.3485 5.56314 42.0532C7.92577 41.4582 10.6408 40.3722 12.004 38.4371C13.9623 35.6701 14.4995 34.1046 14.5053 31.1586C14.5053 30.3267 14.4302 29.4371 14.3493 28.5013C14.1067 25.6997 13.8352 22.5225 15.5162 19.305C17.7749 14.9841 21.6105 15.5791 21.778 15.608C22.4886 15.7293 22.9622 16.3994 22.8409 17.1041C22.7196 17.8089 22.0553 18.2825 21.3563 18.1728C21.1195 18.1439 19.1497 17.9648 17.8153 20.5123C16.4867 23.054 16.7177 25.7112 16.9373 28.2818C17.0181 29.2349 17.1048 30.2227 17.1048 31.1643C17.1048 35.0346 16.0996 37.1547 14.1241 39.9447C10.687 44.8029 1.7506 45.3401 1.36934 45.3632C0.803237 45.3921 0.277566 45.0513 0.0811616 44.5198C-0.115242 43.9884 0.0522806 43.3876 0.502855 43.041C1.91234 41.9492 4.35006 39.835 4.90461 38.801C5.28587 38.0905 5.51694 37.4319 5.66135 36.8716L2.77883 37.7959C2.16651 37.9923 1.49643 37.7092 1.21337 37.1258C0.93032 36.5423 1.12095 35.8434 1.65817 35.4794C1.74482 35.4217 3.96303 33.8273 3.66265 30.5347C3.62221 30.0783 3.55867 29.6335 3.48935 29.1772C3.16586 26.9185 2.80194 24.3653 4.52336 20.0271C7.24991 13.1702 12.8532 11.368 15.3833 10.9001C15.5971 9.68119 16.4809 7.86734 19.1381 5.44695C25.3018 -0.144789 33.9262 -1.43875 44.7631 1.59974C61.0646 6.16902 63.3753 18.6176 63.5601 19.8249C63.6699 20.2581 64.5883 23.6779 66.7026 26.2427C68.4818 28.4031 71.7455 31.1181 71.7802 31.1412C72.0575 31.3665 72.225 31.7016 72.2481 32.0539C72.2712 32.4121 72.1499 32.7587 71.9073 33.0244C71.7686 33.1746 70.5036 34.4859 68.5973 34.7169C67.7135 34.8209 66.9567 34.7978 66.3386 34.7169C66.3618 35.8087 66.4773 37.1431 66.8354 38.0154C67.9792 40.8228 69.5331 41.747 69.6024 41.7875C69.9432 41.9839 70.1801 42.3305 70.2436 42.7175C70.3072 43.1045 70.1916 43.5031 69.9259 43.7977C69.1634 44.6353 67.5979 45.6231 65.5704 45.6231Z" fill="var(--fill-0, #202933)"/>
</svg>
