<svg preserveAspectRatio="none" width="100%" height="100%" overflow="visible" style="display: block;" viewBox="0 0 58 45" fill="none" xmlns="http://www.w3.org/2000/svg">
<path id="Vector" d="M24.4576 15.2017C24.4576 15.2017 25.7853 18.9602 30.3793 23.0544C34.9733 27.1487 39.792 27.7141 39.792 27.7141C39.792 27.7141 35.5564 20.8811 37.0836 20.5883C39.2039 23.6022 46.779 28.1432 46.779 28.1432L45.8349 23.582C45.8349 23.582 51.219 27.9943 53.0137 31.884C53.5766 33.1032 54.3894 37.6215 54.3894 37.6215C54.3894 37.6215 55.972 33.5323 56.6056 30.6119C59.0313 19.407 53.8845 12.9779 51.6405 10.4916L53.8971 10.0675C52.1807 8.39903 46.2161 4.0953 41.6296 2.26274C31.4016 -1.82391 23.1324 0.235821 20.9591 3.62328C14.583 2.08605 7.09121 6.90219 3.27717 14.6439C-4.07578 29.5643 3.24182 44.5504 3.24182 44.5504L9.66333 44.5984V40.0372L12.8261 40.07C12.8261 40.07 16.4155 45.2748 18.6595 25.8664C19.9873 17.7057 24.455 15.2068 24.455 15.2068L24.4576 15.2017Z" fill="var(--fill-0, #212C68)"/>
</svg>
