<svg preserveAspectRatio="none" width="100%" height="100%" overflow="visible" style="display: block;" viewBox="0 0 40 44" fill="none" xmlns="http://www.w3.org/2000/svg">
<path id="Vector" d="M17.4151 0.269655C17.4151 0.269655 17.4884 10.8275 21.9021 13.4046C24.5526 14.9516 27.4413 14.7096 27.4413 14.7096C27.4413 14.7096 29.5199 14.9773 31.5361 15.9671C32.8595 16.6159 34.3112 17.5544 35.0591 18.1666C36.7784 17.5141 39.1319 17.9393 39.0512 22.9763C38.9779 27.4377 36.2945 29.8278 34.3112 30.0734C34.1132 30.9239 33.864 31.7561 33.545 32.5003C31.4921 37.1596 25.92 42.1746 21.4329 43.3917C21.4329 43.3917 20.6337 43.6043 19.5266 43.6043C18.4195 43.6043 17.6203 43.3917 17.6203 43.3917C13.1333 42.1746 7.56111 37.1596 5.50821 32.5003C5.19294 31.7598 4.93999 30.9276 4.74203 30.0734C2.75878 29.8278 0.0753363 27.4377 0.00201827 22.9763C-0.0786316 17.9393 2.27488 17.5141 3.99419 18.1666V18.1226C4.14815 16.8945 4.34611 7.39617 11.6339 0.933183C11.6339 0.933183 13.016 -0.371879 14.5043 0.104689L17.4041 0.0790276L17.4187 0.265989L17.4151 0.269655Z" fill="var(--fill-0, #FFEBE1)"/>
</svg>
