<svg preserveAspectRatio="none" width="100%" height="100%" overflow="visible" style="display: block;" viewBox="0 0 57 56" fill="none" xmlns="http://www.w3.org/2000/svg">
<path id="Vector" d="M23.7371 41.2279C26.7131 38.2959 33.8806 34.7935 38.1849 33.6196C45.4597 31.6355 51.2659 32.228 51.3733 29.6928C51.4202 26.9069 46.9064 27.097 44.4181 27.119C41.9298 27.1411 38.2786 27.8879 38.2786 27.8879L38.262 27.1521C38.262 27.1521 41.4641 25.1653 46.6391 23.7324C51.8142 22.2994 56.9011 22.6632 56.5815 19.6402C56.2425 16.4437 50.3896 17.3806 45.8455 18.3726C41.3015 19.3647 36.6334 20.6571 36.6334 20.6571C36.6334 20.6571 42.0428 17.7168 45.84 15.6611C49.6373 13.6082 56.091 12.9523 55.9642 10.1664C55.8485 6.00535 47.6422 8.58187 43.6245 10.3097C39.6068 12.0374 34.6108 14.6801 34.6108 14.6801L34.2911 13.8479C34.2911 13.8479 37.0688 10.9848 39.2899 9.16331C42.4726 6.55372 47.2922 4.97474 46.8734 2.56081C46.2892 -0.798313 40.8248 0.981827 36.9944 3.5363C33.1641 6.09078 23.2466 14.3604 23.2466 14.3604L19.5816 13.5916C19.5816 13.5916 19.5265 9.00624 18.0632 5.32471C16.6 1.64318 14.8336 0.496836 13.8802 0.144114C12.9543 -0.20034 10.6313 -0.0873593 10.5982 2.30453C10.5624 4.69367 13.701 9.43336 12.0256 14.5616C10.3502 19.6898 7.92797 22.5116 6.89737 26.0278C5.86676 29.544 6.23601 34.314 6.23601 34.314L0 47.6347C0 47.6347 0.79639 50.2113 6.95248 53.2039C13.07 56.1772 15.8835 55.8465 15.8835 55.8465C15.8835 55.8465 20.0169 44.9122 23.7343 41.2251L23.7371 41.2279Z" fill="var(--fill-0, white)"/>
</svg>
