<svg preserveAspectRatio="none" width="100%" height="100%" overflow="visible" style="display: block;" viewBox="0 0 13 13" fill="none" xmlns="http://www.w3.org/2000/svg">
<path id="Vector" d="M4.89193 0.273292C4.76439 0.273292 4.70062 0.33706 4.70062 0.464596V5.20621C4.70062 5.33375 4.76439 5.39752 4.89193 5.39752H11.7789C11.9064 5.39752 11.9702 5.33375 11.9702 5.20621V0.464596C11.9702 0.33706 11.9064 0.273292 11.7789 0.273292H4.89193ZM0.0136646 7.50186C0.00455487 7.52008 0 7.54741 0 7.58385C0 7.64762 0.0273292 7.70683 0.0819876 7.76149C0.637681 8.31718 1.12277 8.99358 1.53727 9.79068C1.95176 10.5878 2.27288 11.419 2.50062 12.2845C2.52795 12.412 2.60538 12.4621 2.73292 12.4348L4.11304 12.1888C4.24969 12.1615 4.29524 12.0841 4.24969 11.9565C3.9764 10.9545 3.67578 10.1164 3.34783 9.44224V0.191304C3.34783 0.0637681 3.28406 0 3.15652 0H1.83106C1.70352 0 1.63975 0.0637681 1.63975 0.191304V6.7913C1.50311 6.6 1.32319 6.3677 1.1 6.09441C0.876812 5.82112 0.724224 5.68447 0.642236 5.68447C0.578468 5.68447 0.532919 5.73002 0.50559 5.82112L0.0136646 7.50186ZM3.9764 7.6795C3.9764 7.80704 4.04017 7.87081 4.1677 7.87081H5.76646C5.63892 8.49938 5.47495 9.11884 5.27453 9.72919H4.56398C4.43644 9.72919 4.37267 9.79296 4.37267 9.9205V11.0957C4.37267 11.2232 4.43644 11.287 4.56398 11.287H7.36522V12.2708C7.36522 12.3983 7.42899 12.4621 7.55652 12.4621H8.96398C9.09151 12.4621 9.15528 12.3983 9.15528 12.2708V11.287H12.1342C12.2617 11.287 12.3255 11.2232 12.3255 11.0957V9.9205C12.3255 9.79296 12.2617 9.72919 12.1342 9.72919H11.287C11.1776 9.13706 11.0182 8.5176 10.8087 7.87081H12.4894C12.617 7.87081 12.6807 7.80704 12.6807 7.6795V6.46335C12.6807 6.33582 12.617 6.27205 12.4894 6.27205H4.1677C4.04017 6.27205 3.9764 6.33582 3.9764 6.46335V7.6795ZM10.2484 3.89441H6.43603V1.7764H10.2484V3.89441ZM6.94162 9.72919C7.1147 9.22816 7.28778 8.6087 7.46087 7.87081H9.10062C9.30104 8.45383 9.46957 9.07329 9.60621 9.72919H6.94162Z" fill="var(--fill-0, #F43F5E)"/>
</svg>
