<svg preserveAspectRatio="none" width="100%" height="100%" overflow="visible" style="display: block;" viewBox="0 0 22 11" fill="none" xmlns="http://www.w3.org/2000/svg">
<path id="Vector" d="M6.47326 10.4729C6.43063 10.4729 6.388 10.4729 6.33826 10.4729L1.06642 10.345C0.462499 10.3308 -0.0206356 9.82637 0.000679129 9.22245C0.014889 8.62564 0.505123 8.15671 1.09483 8.15671C1.10194 8.15671 1.11615 8.15671 1.12326 8.15671L6.3951 8.2846C7.32585 8.29881 8.20685 7.95066 8.86761 7.2828L14.651 1.46387C16.4912 -0.369194 19.4255 -0.497085 21.3438 1.17257C21.7986 1.57044 21.8483 2.25964 21.4504 2.72146C21.0525 3.17617 20.3634 3.2259 19.9015 2.82803C18.85 1.91149 17.223 1.99676 16.1999 3.01276L10.4165 8.82458C9.37206 9.8761 7.94397 10.48 6.46614 10.48L6.47326 10.4729Z" fill="var(--fill-0, #14B8A6)"/>
</svg>
