<svg preserveAspectRatio="none" width="100%" height="100%" overflow="visible" style="display: block;" viewBox="0 0 25 56" fill="none" xmlns="http://www.w3.org/2000/svg">
<path id="Vector" d="M19.1265 55.9738C15.4715 55.9738 9.48664 55.5548 6.18753 53.071C3.63053 51.145 0.487912 47.1366 0.0537525 42.1842C-0.355165 37.5447 1.57079 32.9027 5.77104 28.3895C16.3549 17.0231 15.6053 0.961714 15.5977 0.800166C15.5851 0.593183 15.6608 0.388725 15.8047 0.237274C15.9485 0.0858229 16.1454 0 16.355 0H23.4782C23.8972 0 24.2355 0.338241 24.2355 0.757255C24.2355 1.17627 23.8972 1.51451 23.4782 1.51451H17.1324C17.1703 5.00546 16.6629 18.9137 6.87916 29.4194C2.98182 33.6045 1.19218 37.8527 1.56071 42.0479C1.95196 46.5031 4.7866 50.1177 7.09623 51.8568C11.5009 55.1761 21.9889 54.3608 22.0924 54.3533C22.5089 54.323 22.8749 54.6284 22.9077 55.0474C22.9431 55.4639 22.6326 55.8299 22.2161 55.8627C22.0697 55.8754 20.8581 55.9687 19.1215 55.9687L19.1265 55.9738Z" fill="var(--fill-0, #212C68)"/>
</svg>
