<svg preserveAspectRatio="none" width="100%" height="100%" overflow="visible" style="display: block;" viewBox="0 0 62 77" fill="none" xmlns="http://www.w3.org/2000/svg">
<path id="Vector" d="M55.2505 36.1903V23.5974C55.2505 19.9639 54.3436 16.3882 52.5933 13.2053C49.2544 7.12831 42.5016 0.0462127 30.8733 0H30.6711C19.0428 0.0519893 12.29 7.12831 8.95112 13.2053C7.20081 16.3882 6.29389 19.9639 6.29389 23.5974V36.1903C3.58467 35.1621 -0.123905 35.8322 0.00318032 43.7692C0.118712 50.7993 4.34718 54.5657 7.47231 54.9527C7.78425 56.2929 8.17706 57.6042 8.67962 58.7768C11.9145 66.1189 20.6949 74.0212 27.7655 75.9391C27.7655 75.9391 29.0305 76.2741 30.7693 76.2741C32.5081 76.2741 33.7731 75.9391 33.7731 75.9391C40.8437 74.0212 49.6241 66.1189 52.859 58.7768C53.3558 57.6099 53.7544 56.2986 54.0663 54.9527C57.1914 54.5657 61.4199 50.7993 61.5354 43.7692C61.6625 35.8322 57.9539 35.1679 55.2447 36.1903H55.2505Z" fill="var(--fill-0, #FFEBE1)"/>
</svg>
