<svg preserveAspectRatio="none" width="100%" height="100%" overflow="visible" style="display: block;" viewBox="0 0 12 12" fill="none" xmlns="http://www.w3.org/2000/svg">
<path id="Vector" d="M10.836 0.000139557C10.704 0.00325792 10.5785 0.0584931 10.4871 0.153785L5.67391 4.96694L0.860755 0.153785C0.814149 0.10579 0.758386 0.0676346 0.696769 0.0415785C0.635151 0.0155223 0.568931 0.00209535 0.502031 0.00209268C0.402524 0.00211696 0.305286 0.0318287 0.22276 0.0874263C0.140234 0.143024 0.0761716 0.221979 0.03877 0.31419C0.00136838 0.4064 -0.00767157 0.507673 0.0128065 0.60505C0.0332846 0.702428 0.0823495 0.791481 0.153724 0.860817L4.96687 5.67397L0.153724 10.4871C0.105738 10.5332 0.0674275 10.5884 0.0410359 10.6494C0.0146443 10.7105 0.000702174 10.7762 2.58464e-05 10.8427C-0.000650482 10.9093 0.0119527 10.9752 0.0370972 11.0368C0.0622418 11.0984 0.0994223 11.1544 0.146461 11.2014C0.1935 11.2485 0.249452 11.2856 0.31104 11.3108C0.372628 11.3359 0.438614 11.3485 0.505134 11.3478C0.571654 11.3472 0.63737 11.3332 0.698434 11.3068C0.759498 11.2804 0.814682 11.2421 0.860755 11.1942L5.67391 6.381L10.4871 11.1942C10.5331 11.2421 10.5883 11.2804 10.6494 11.3068C10.7104 11.3332 10.7762 11.3472 10.8427 11.3478C10.9092 11.3485 10.9752 11.3359 11.0368 11.3108C11.0984 11.2856 11.1543 11.2485 11.2014 11.2014C11.2484 11.1544 11.2856 11.0984 11.3107 11.0368C11.3359 10.9752 11.3485 10.9093 11.3478 10.8427C11.3471 10.7762 11.3332 10.7105 11.3068 10.6494C11.2804 10.5884 11.2421 10.5332 11.1941 10.4871L6.38094 5.67397L11.1941 0.860817C11.2668 0.79103 11.3167 0.700903 11.3373 0.602249C11.3579 0.503596 11.3482 0.40102 11.3095 0.307971C11.2708 0.214922 11.2049 0.135741 11.1204 0.0808096C11.0359 0.025878 10.9368 -0.00224083 10.836 0.000139557Z" fill="var(--fill-0, #94A3B8)"/>
</svg>
