<svg preserveAspectRatio="none" width="100%" height="100%" overflow="visible" style="display: block;" viewBox="0 0 57 32" fill="none" xmlns="http://www.w3.org/2000/svg">
<path id="Vector" d="M15.5748 31.5307C15.3539 31.5307 15.1304 31.4676 14.9305 31.3388C14.3836 30.9811 14.2284 30.2501 14.586 29.7005L23.545 15.9426C23.8763 15.4351 24.5364 15.2589 25.0754 15.535C25.1096 15.5508 28.8068 17.3809 34.4394 17.1338C37.9025 16.9812 41.3368 16.4474 41.371 16.4422C41.7233 16.387 42.0783 16.4921 42.3439 16.7288L45.4258 19.4925C45.6756 19.716 45.8176 20.0368 45.8202 20.3708C45.8202 20.7074 45.6782 21.0255 45.431 21.2517C45.4257 21.2569 44.3161 22.2956 43.3747 24.373C42.8908 25.4406 42.8856 26.3688 43.3563 26.7922C43.6587 27.0657 44.1188 27.0841 44.5291 26.8448C46.1594 25.885 47.3979 24.8358 50.0459 22.172C51.2161 20.9966 50.6744 19.9316 50.5534 19.7318C50.2326 19.2348 50.3378 18.5932 50.7875 18.2093C50.798 18.2014 52.1548 16.9944 52.9937 14.7829C54.2348 11.5038 53.6642 9.8209 53.6563 9.80512C53.4591 9.37387 53.4986 9.01362 53.8141 8.66914C53.8983 8.514 54.298 7.6252 53.4854 5.81605C52.7912 4.26986 48.8048 3.73868 46.9825 3.72553C46.9535 3.72553 46.922 3.72554 46.8931 3.72028C34.7286 2.7 21.2257 1.97949 19.6848 2.53959C18.1596 3.25221 9.5504 13.5759 2.11658 23.145C1.71688 23.6604 0.972713 23.755 0.457316 23.3527C-0.058082 22.953 -0.152749 22.2088 0.249577 21.6935C0.28902 21.6435 4.18606 16.6289 8.34869 11.5564C16.9395 1.08281 18.2569 0.559519 18.8197 0.338634C21.4834 -0.715827 42.6989 0.996031 47.0508 1.35891C47.9686 1.37206 54.177 1.57454 55.6469 4.84836C56.6856 7.16239 56.3622 8.72962 56.0256 9.52375C56.2228 10.4704 56.3806 12.5215 55.2052 15.6218C54.5294 17.4072 53.5775 18.6694 52.9569 19.3689C53.3092 20.5285 53.2908 22.2667 51.721 23.8418C49.2097 26.3662 47.7503 27.6942 45.7282 28.8854C44.4318 29.6479 42.8435 29.5165 41.7733 28.554C40.4848 27.397 40.277 25.4695 41.2158 23.3974C41.8075 22.0931 42.4622 21.1202 42.9697 20.4707L41.1763 18.864C40.0377 19.0271 37.3345 19.3768 34.5419 19.5004C29.9743 19.7002 26.5717 18.68 24.9834 18.0699L16.5661 30.9943C16.34 31.3414 15.9613 31.5307 15.5748 31.5307Z" fill="var(--fill-0, #202933)"/>
</svg>
