<svg preserveAspectRatio="none" width="100%" height="100%" overflow="visible" style="display: block;" viewBox="0 0 8 12" fill="none" xmlns="http://www.w3.org/2000/svg">
<path id="Vector" d="M3.424 11.5233C3.34511 11.5233 3.26885 11.5206 3.18997 11.5127C2.08817 11.4128 1.13363 10.6055 0.568274 9.30389C0.0975788 8.21788 -0.0891159 6.83999 0.0397335 5.42527C0.168583 4.01056 0.605092 2.6905 1.26249 1.70704C2.05399 0.52899 3.14 -0.0915858 4.2418 0.0109678C5.34359 0.110892 6.29813 0.918171 6.86349 2.21981C7.33418 3.30583 7.52089 4.68373 7.39204 6.09844C7.26319 7.51316 6.82668 8.8332 6.16928 9.81667C5.433 10.9132 4.44428 11.5233 3.424 11.5233ZM4.0104 2.36707C3.84474 2.36707 3.53708 2.56955 3.22942 3.0271C2.7929 3.6766 2.4905 4.62851 2.39847 5.6409C2.30643 6.65329 2.43002 7.64464 2.74031 8.36252C2.96645 8.8858 3.24519 9.14087 3.40559 9.15402C3.566 9.1698 3.88681 8.96995 4.20499 8.494C4.6415 7.84449 4.9439 6.89258 5.03594 5.88019C5.12797 4.8678 5.00438 3.87645 4.69409 3.15858C4.46794 2.63529 4.18921 2.38022 4.0288 2.36707C4.02354 2.36707 4.01829 2.36707 4.0104 2.36707Z" fill="var(--fill-0, #202933)"/>
</svg>
