<svg preserveAspectRatio="none" width="100%" height="100%" overflow="visible" style="display: block;" viewBox="0 0 54 43" fill="none" xmlns="http://www.w3.org/2000/svg">
<path id="Vector" d="M31.1894 21.8682C33.7322 23.3986 50.5116 26.4857 50.5116 26.4857C50.5116 26.4857 56.4124 28.9522 52.8204 36.5281C49.4492 43.6384 44.0244 41.8661 44.0244 41.8661L27.7605 36.2809C27.7605 36.2809 18.3729 36.3492 15.3699 30.7614C12.3669 25.1735 11.6727 21.3554 11.6727 21.3554L8.13854 12.4411L5.09718e-06 4.23419C5.09718e-06 4.23419 -0.0184122 0.760517 2.15888 0.168862C4.33354 -0.422794 12.2144 0.650075 13.2583 1.68876C14.3023 2.72744 14.3286 3.68724 14.3286 3.68724C14.3286 3.68724 17.4105 3.44006 18.7699 4.31571C20.1294 5.19136 22.3015 10.1902 24.931 14.8104C27.5606 19.4305 28.6519 20.3377 31.1921 21.8682H31.1894Z" fill="var(--fill-0, white)"/>
</svg>
