<svg preserveAspectRatio="none" width="100%" height="100%" overflow="visible" style="display: block;" viewBox="0 0 11 25" fill="none" xmlns="http://www.w3.org/2000/svg">
<path id="Vector" d="M9.16174 24.3175C9.16174 24.3175 9.14916 24.3175 9.14411 24.3175C8.51559 24.3074 8.01576 23.7925 8.02585 23.164C8.09148 18.8552 6.17312 15.4879 6.15293 15.4551C6.01662 15.2178 5.96866 14.9402 6.02167 14.6701C6.03429 14.607 7.2333 8.34449 7.31155 5.76477C7.3999 2.77109 7.21559 2.45305 6.3195 2.28393C6.21854 2.26373 6.05194 2.25868 5.81467 2.42528C5.44866 2.68022 4.53744 3.61922 3.99474 6.81231C3.34097 10.6718 2.15966 12.6659 2.10918 12.7492C1.78608 13.2868 1.0869 13.4585 0.549251 13.1354C0.0115997 12.8123 -0.160052 12.1131 0.163043 11.5754C0.170616 11.5628 1.1803 9.82366 1.75582 6.43116C2.26066 3.45767 3.18954 1.48375 4.51726 0.557378C5.20384 0.0803071 5.97373 -0.0963806 6.74361 0.0500221C9.73729 0.617964 9.65904 3.26836 9.58332 5.8304C9.51264 8.22838 8.60142 13.2465 8.3288 14.7029C8.88665 15.8035 10.3607 19.1076 10.3001 23.1968C10.29 23.8177 9.78521 24.315 9.16426 24.315L9.16174 24.3175Z" fill="var(--fill-0, #212C68)"/>
</svg>
