<svg preserveAspectRatio="none" width="100%" height="100%" overflow="visible" style="display: block;" viewBox="0 0 31 18" fill="none" xmlns="http://www.w3.org/2000/svg">
<path id="Vector" d="M0.64 0C0.2875 0 0 0.2875 0 0.64V17.28C0 17.635 0.2875 17.92 0.64 17.92H30.08C30.435 17.92 30.72 17.635 30.72 17.28V0.64C30.72 0.2875 30.435 0 30.08 0H0.64ZM9.6 1.28H10.88V16.64H9.6V1.28ZM19.84 1.28H21.12V16.64H19.84V1.28ZM22.72 1.92H24.28C24.265 2.0925 24.255 2.27 24.26 2.46H24.36C24.46 2.2525 24.5875 2.075 24.74 1.92H28.12C28.665 2.3925 29 3.09 29 3.92C29 5.57 27.7375 6.74 25.96 6.74C24.81 6.74 23.885 6.25 23.34 5.32C22.9 4.6425 22.68 3.73 22.68 2.64C22.68 2.3925 22.6975 2.1475 22.72 1.92ZM25.96 2.58C25.13 2.58 24.5 3.1675 24.5 3.96C24.5 4.77 25.125 5.38 25.94 5.38C26.755 5.38 27.38 4.7775 27.38 3.98C27.38 3.17 26.7925 2.58 25.96 2.58ZM5.16 4.8C7.11 4.8 8.32 6.325 8.32 8.96C8.32 11.585 7.125 13.14 5.16 13.14C3.195 13.14 2.02 11.595 2.02 8.96C2.02 6.33 3.205 4.8 5.16 4.8ZM15.36 4.88C17.31 4.88 18.52 6.405 18.52 9.04C18.52 11.665 17.325 13.22 15.36 13.22C13.395 13.22 12.2 11.675 12.2 9.04C12.2 6.41 13.405 4.88 15.36 4.88ZM5.16 6.16C4.2575 6.16 3.7 7.115 3.7 8.96C3.7 10.815 4.2525 11.78 5.16 11.78C6.0725 11.78 6.64 10.82 6.64 8.96C6.64 7.11 6.0675 6.16 5.16 6.16ZM15.36 6.24C14.4575 6.24 13.9 7.195 13.9 9.04C13.9 10.895 14.4525 11.88 15.36 11.88C16.275 11.88 16.82 10.9 16.82 9.04C16.82 7.19 16.2675 6.24 15.36 6.24ZM23.04 8.96H28.64V10.34L25.78 16H24.06L26.98 10.44V10.34H23.04V8.96Z" fill="var(--fill-0, white)"/>
</svg>
