<svg preserveAspectRatio="none" width="100%" height="100%" overflow="visible" style="display: block;" viewBox="0 0 60 49" fill="none" xmlns="http://www.w3.org/2000/svg">
<path id="Vector" d="M39.6813 4.74034C37.7354 1.03 29.3391 -1.85991 18.3554 1.45336C13.4302 2.93907 6.84836 6.86241 4.91561 8.43753L7.21911 9.08177C4.66579 11.4563 -1.26128 17.6621 0.240213 29.511C0.632021 32.6007 1.90211 36.9869 1.90211 36.9869C1.90211 36.9869 3.15641 32.372 3.85062 31.1571C6.06736 27.2837 12.0549 23.1947 12.0549 23.1947L10.6586 27.8438C10.6586 27.8438 18.9313 23.8206 21.4057 20.886C22.965 21.3304 17.9504 28.0358 17.9504 28.0358C17.9504 28.0358 23.0019 27.8885 28.14 24.0546C33.2809 20.2233 35.0006 16.442 35.0006 16.442L38.0378 19.2714C38.0378 19.2714 39.4551 21.4092 40.0468 28.0305C40.6122 48.3756 44.8116 43.3005 44.8116 43.3005L48.0959 43.5529L47.6831 48.2888L54.3517 48.8226C54.3517 48.8226 63.3054 33.9339 57.0313 17.7831C53.7758 9.40258 46.4367 3.72269 39.6813 4.74034Z" fill="var(--fill-0, #202933)"/>
</svg>
