<svg preserveAspectRatio="none" width="100%" height="100%" overflow="visible" style="display: block;" viewBox="0 0 35 62" fill="none" xmlns="http://www.w3.org/2000/svg">
<path id="Vector" d="M19.483 61.3308C13.3483 61.3308 8.83678 58.7255 5.39971 53.2435C2.69626 48.9284 1.16547 40.9567 0.85353 29.5422C0.732221 25.204 0.905519 16.799 0.922849 15.8863L0.0043711 4.9859C-0.036065 4.49489 0.206552 4.01543 0.628243 3.76126C0.784211 3.66884 4.46967 1.50262 12.1756 0.543704C12.2623 0.532151 14.9773 0.145118 18.3855 0.000703567C19.0729 -0.0224028 19.7083 0.52637 19.7372 1.24267C19.7661 1.95896 19.2115 2.56551 18.4952 2.5944C15.2199 2.73303 12.5511 3.11429 12.5222 3.11429C7.23666 3.76704 4.00177 5.02634 2.66738 5.63288L3.51654 15.7246C3.51654 15.7708 3.51654 15.817 3.51654 15.8632C3.51654 15.9556 3.32013 25.0307 3.44144 29.4613C3.73605 40.252 5.16864 47.9984 7.58903 51.8572C10.8759 57.0965 15.1102 59.1876 21.3258 58.6447C27.293 58.1248 32.9483 54.7223 33.006 54.6877C33.6184 54.3122 34.4213 54.5086 34.791 55.1209C35.1665 55.7332 34.9701 56.5304 34.3578 56.9059C34.1094 57.0561 28.1421 60.6607 21.5511 61.2326C20.8405 61.2961 20.1473 61.325 19.4715 61.325L19.483 61.3308Z" fill="var(--fill-0, #202933)"/>
</svg>
