<svg preserveAspectRatio="none" width="100%" height="100%" overflow="visible" style="display: block;" viewBox="0 0 36 24" fill="none" xmlns="http://www.w3.org/2000/svg">
<path id="Vector" d="M35.4855 11.8446C35.4855 10.7112 34.8015 9.88834 34.0089 9.34564C34.0291 9.30273 34.0467 9.25982 34.0644 9.21438C34.2739 8.67673 34.4153 7.79074 33.8877 6.62709C33.2693 5.25898 32.2293 4.56736 31.313 4.25941C31.207 3.34565 30.6618 2.23501 29.1574 1.28844C26.5196 -0.369947 18.1116 -0.0948116 16.4052 0.301485C14.4515 0.755839 7.40146 6.24594 6.08384 7.92453C4.81922 9.53243 0.603839 17.6654 0.126768 18.5867C-0.0347798 18.8997 -0.042372 19.2707 0.106555 19.5913C0.255482 19.9119 0.54579 20.1416 0.891603 20.2173L17.8693 23.9657C17.95 23.9834 18.0333 23.9935 18.1141 23.9935C18.4397 23.9935 18.7578 23.8521 18.9774 23.5972C18.9925 23.5795 20.5171 21.8252 22.4456 20.861C23.2054 20.4798 24.9016 20.2602 26.5424 20.0482C29.2508 19.6973 31.8103 19.3667 32.9412 18.15C33.5217 17.5265 33.807 16.7718 33.7666 15.9691C33.7388 15.4163 33.5596 14.9089 33.3299 14.4748C34.3699 14.0255 35.4881 13.2203 35.4881 11.8446H35.4855ZM31.3257 12.728C29.6345 12.728 22.4809 12.7558 21.1027 13.1445C19.621 13.561 16.7838 16.1609 15.9509 16.946C15.494 17.3751 15.4738 18.0945 15.9029 18.5513C16.125 18.7886 16.428 18.9073 16.7309 18.9073C17.011 18.9073 17.2912 18.8038 17.5083 18.5968C19.0304 17.163 21.0851 15.5072 21.7187 15.3279C22.4254 15.1285 26.8755 15.0074 30.9496 14.9973C31.202 15.2977 31.4797 15.7242 31.4973 16.0852C31.5024 16.2165 31.4822 16.3805 31.2752 16.6027C30.7022 17.2186 28.0215 17.5669 26.247 17.7966C24.3362 18.044 22.5314 18.2787 21.4258 18.829C19.77 19.6569 18.4094 20.9114 17.7254 21.6081L2.82763 18.3191C4.38001 15.3582 7.05059 10.3705 7.86842 9.32797C9.05227 7.82103 15.7338 2.79033 16.9176 2.51519C18.4473 2.15928 26.0855 2.04065 27.9483 3.21187C28.4077 3.49963 28.6829 3.76719 28.8419 3.9969C24.0283 3.80253 18.6417 3.70913 17.6017 4.19377C16.4128 4.74909 12.0813 8.26276 11.2231 8.96196C10.7384 9.35826 10.6652 10.0751 11.0615 10.5598C11.2862 10.8349 11.6118 10.9763 11.9425 10.9763C12.1949 10.9763 12.4498 10.893 12.6594 10.7213C14.6661 9.08312 17.7809 6.64476 18.5281 6.26613C19.4519 6.01876 25.0758 6.097 30.0333 6.31913C30.0384 6.31913 30.0434 6.31913 30.0485 6.31913C30.0687 6.31913 30.0863 6.31913 30.1065 6.31913C30.1191 6.31913 31.2525 6.30904 31.8154 7.55852C32.0249 8.02297 32.0299 8.34858 31.8356 8.55052C28.9328 8.3612 21.1911 7.93461 19.5756 8.62624C17.9071 9.34059 14.1107 12.4201 13.6842 12.7684C13.197 13.1647 13.1263 13.8816 13.5226 14.3662C13.7473 14.6414 14.0729 14.7827 14.4035 14.7827C14.656 14.7827 14.9109 14.6994 15.1204 14.5278C16.6375 13.2884 19.4317 11.158 20.4666 10.7163C21.3627 10.3755 27.0901 10.5118 31.9365 10.8324C32.3783 10.9763 33.2112 11.4003 33.2112 11.8395C33.2112 12.0465 32.3076 12.5362 31.3232 12.723L31.3257 12.728Z" fill="var(--fill-0, #212C68)"/>
</svg>
