<svg preserveAspectRatio="none" width="100%" height="100%" overflow="visible" style="display: block;" viewBox="0 0 26 35" fill="none" xmlns="http://www.w3.org/2000/svg">
<path id="Vector" d="M8.25984 24.9953L10.5114 22.1758C10.5114 22.1758 14.9237 21.7265 16.943 20.0807C18.9624 18.4349 16.9859 16.4534 16.9859 16.4534C16.9859 16.4534 21.4033 16.8194 22.5997 13.798C23.3848 11.8165 21.0575 10.7841 21.0575 10.7841C21.0575 10.7841 24.1597 11.0062 24.1975 8.41139C24.248 5.00879 13.8004 5.19558 13.8004 5.19558C13.8004 5.19558 19.9721 5.5843 23.2863 4.09503C24.9068 3.36806 25.495 2.30286 25.0507 1.06601C24.5787 -0.246569 22.105 -0.0925895 19.5303 0.20274C15.8854 0.624279 12.503 0.301179 11.256 0.876693C9.8526 1.52288 5.42265 7.29065 5.42265 7.29065C5.42265 7.29065 1.75754 9.00961 1.02553 11.713C0.646898 13.1064 1.45969 14.9187 1.45969 14.9187C1.45969 14.9187 -0.0371564 16.4888 0.000706383 18.7706C0.0385692 21.0525 0.747865 22.36 0.747865 22.36C0.747865 22.36 3.01458 29.1753 4.75122 31.0432C6.48786 32.9111 9.54212 34.1379 9.54212 34.1379L8.25731 24.9927L8.25984 24.9953Z" fill="var(--fill-0, #FFEBE1)"/>
</svg>
