<svg preserveAspectRatio="none" width="100%" height="100%" overflow="visible" style="display: block;" viewBox="0 0 56 73" fill="none" xmlns="http://www.w3.org/2000/svg">
<path id="Vector" d="M16.738 72.0905C15.126 72.0905 13.5525 71.9169 12.0727 71.5035C5.53359 69.6793 -2.52662 54.5646 0.758094 42.3075C1.92097 37.9674 2.22684 35.187 2.46933 32.9522C2.56578 32.0648 2.65948 31.2271 2.79176 30.4308C3.30706 27.3803 6.57523 11.7558 20.3066 3.3704C26.7162 -0.542602 35.4653 -0.636295 41.2907 1.00606C49.0754 3.19955 53.9667 8.90096 55.4382 17.493C56.7388 25.0931 55.0689 32.9246 54.2891 35.9365C52.903 41.3017 51.5307 46.4217 51.5169 46.4741L49.373 54.4737C49.1967 55.135 48.516 55.5291 47.8547 55.35C47.1933 55.1736 46.7993 54.493 46.9784 53.8316L49.1223 45.832C49.136 45.7824 50.5056 40.6707 51.8889 35.3165C52.6274 32.4589 54.2147 25.0407 52.9939 17.9119C51.6767 10.2209 47.513 5.33517 40.6184 3.39245C35.3083 1.89614 27.3693 1.96227 21.599 5.48673C8.78251 13.31 5.721 27.981 5.236 30.8413C5.11476 31.5661 5.02934 32.3349 4.93289 33.2222C4.67937 35.5397 4.36245 38.4249 3.14997 42.9496C0.124279 54.2395 7.91172 67.7696 12.7368 69.1144C21.373 71.5228 34.6524 64.4436 34.7847 64.3719C35.3882 64.0468 36.1405 64.2727 36.4656 64.8735C36.7908 65.4742 36.5648 66.2292 35.9641 66.5544C35.4736 66.8189 25.5781 72.0905 16.738 72.0905Z" fill="var(--fill-0, #202933)"/>
</svg>
