<svg preserveAspectRatio="none" width="100%" height="100%" overflow="visible" style="display: block;" viewBox="0 0 40 40" fill="none" xmlns="http://www.w3.org/2000/svg">
<path id="Vector" d="M15.1193 0.120782C17.1442 0.0781528 19.1691 0.0355246 21.194 0C22.011 0 22.2313 0.156308 22.2455 0.40498C22.2668 0.78154 21.9329 1.0089 21.2721 1.38546C21.3574 2.89881 21.4355 4.40505 21.5208 5.91839C25.6132 5.69814 29.7127 5.47789 33.8052 5.27185C33.8975 7.13333 33.997 8.99482 34.0894 10.8563C29.9969 11.0624 25.9116 11.2826 21.8192 11.5029C21.9045 13.0588 21.9897 14.6077 22.075 16.1637C27.4321 15.8724 32.7963 15.5953 38.1534 15.3253C38.2458 17.2152 38.3452 19.1051 38.4376 20.995C33.3931 21.2508 28.3557 21.5066 23.3112 21.7837C27.9081 29.4854 37.379 32.1568 39.6454 32.5121C37.9402 34.0254 36.2777 36.3843 35.6382 37.9758C31.1977 36.6045 26.679 33.7697 24.3272 31.8798C21.8405 29.9117 20.3982 27.6736 19.844 26.8211C18.0323 30.3309 12.6325 36.3914 4.65372 39.8515C3.48141 37.9829 2.29489 36.5406 0.0639443 34.8212C4.17769 33.3078 11.7871 30.5085 15.1193 22.2384C10.1956 22.5155 5.26474 22.7997 0.341036 23.0981C0.227357 21.2082 0.113679 19.3254 0 17.4355C5.3429 17.1157 10.6929 16.8031 16.0358 16.5047C15.9505 14.9487 15.8653 13.3999 15.7729 11.8439C13.3004 11.9789 10.835 12.121 8.36248 12.2631C7.21149 14.558 6.43705 15.8297 5.80471 16.7889C4.34821 15.9932 2.94854 15.3963 0.355246 14.9203C2.80644 10.8563 4.42636 7.14044 5.70525 2.72829C7.76567 3.0409 9.8261 3.36062 11.8865 3.68035C12.1849 3.70877 12.3697 3.86507 12.3839 4.11375C12.4123 4.66082 11.8297 4.85976 11.2755 4.97344C11.1689 5.35711 10.9842 5.91839 10.8066 6.51521C12.3554 6.42995 13.9043 6.33758 15.4532 6.25232C15.3395 4.21321 15.2258 2.167 15.1122 0.127889L15.1193 0.120782Z" fill="var(--fill-0, #0F172A)"/>
</svg>
