<svg preserveAspectRatio="none" width="100%" height="100%" overflow="visible" style="display: block;" viewBox="0 0 142 57" fill="none" xmlns="http://www.w3.org/2000/svg">
<path id="Vector" d="M127.761 18.4991L125.662 18.3834L125.97 9.53749C125.97 9.53749 98.2884 7.98866 81.7195 5.93233C65.1478 3.87337 51.6239 0 51.6239 0C51.6239 0 41.0767 3.71297 25.549 7.14983C10.0187 10.5867 2.33507 11.0285 2.33507 11.0285L2.66113 20.7053L2.80839 24.91L1.47256 25.5543C1.47256 25.5543 2.49021 28.2732 2.80839 31.342C3.12657 34.4107 2.80839 37.7318 2.80839 37.7318L0 38.0158C0 38.0158 0.836206 40.1011 0.896687 43.6063C0.951908 46.8512 0 53.9958 0 53.9958L5.41693 53.9143L17.2606 54.5165L56.3072 56.1521L140.38 53.2911L141.34 26.8848L127.401 26.7349L127.761 18.5044V18.4991Z" fill="var(--fill-0, white)"/>
</svg>
