<svg preserveAspectRatio="none" width="100%" height="100%" overflow="visible" style="display: block;" viewBox="0 0 43 58" fill="none" xmlns="http://www.w3.org/2000/svg">
<path id="Vector" d="M10.8963 57.7883C10.8622 57.7883 10.8306 57.7883 10.7964 57.783C10.5203 57.7593 3.97792 57.1151 1.22738 48.9739L1.16427 48.7898C0.65939 47.3147 -0.526562 43.8568 0.264941 39.1209C1.24052 33.2832 4.86673 27.6664 11.0384 22.4231C15.2036 18.8836 18.1829 17.1113 20.8099 15.5493C24.2651 13.493 26.7606 12.0073 30.3473 7.44496C33.2031 3.81088 33.2057 1.24441 33.2057 1.21811C33.182 0.565979 33.6922 0.024288 34.3469 0.000621771C35.0017 -0.0204149 35.5486 0.494983 35.5723 1.14712C35.5776 1.28386 35.6512 4.52613 32.2091 8.90438C28.3515 13.8138 25.5589 15.4757 22.0221 17.582C19.474 19.0993 16.5868 20.8164 12.574 24.2269C3.67026 31.7922 0.585767 39.7993 3.40468 48.0246L3.47042 48.2192C4.54591 51.401 6.27618 53.1839 7.80922 54.1805C7.52786 52.2451 8.36142 49.939 10.2889 47.3173C11.1724 46.1129 13.2209 45.0348 16.3185 43.4018C22.8373 39.965 32.6929 34.7689 37.6891 24.816C43.2875 13.6613 39.0749 6.91116 38.8908 6.62979C38.5385 6.08284 38.691 5.35181 39.2353 4.99419C39.7797 4.6392 40.5107 4.78645 40.8683 5.33078C41.0839 5.65685 46.0512 13.4299 39.8033 25.8783C34.4679 36.5097 23.7971 42.1344 17.423 45.4976C15.0248 46.7624 12.7581 47.9563 12.1953 48.7215C10.0917 51.5825 9.9602 53.2654 10.2205 54.1726C10.4993 55.1403 11.3223 55.5058 11.3302 55.5084C11.8772 55.724 12.1822 56.3078 12.0481 56.8784C11.9219 57.4175 11.4407 57.7909 10.8963 57.7909V57.7883Z" fill="var(--fill-0, #202933)"/>
</svg>
