<svg preserveAspectRatio="none" width="100%" height="100%" overflow="visible" style="display: block;" viewBox="0 0 10 19" fill="none" xmlns="http://www.w3.org/2000/svg">
<path id="Vector" d="M1.13488 18.9983C0.831976 18.9983 0.539181 18.8771 0.324625 18.6575C0.0772549 18.4051 -0.038886 18.0492 0.0115977 17.6983L0.680513 13.0867C0.771383 12.4657 1.34689 12.0366 1.96784 12.1249C2.58879 12.2158 3.01792 12.7913 2.92957 13.4123L2.52065 16.2394C4.65106 15.1843 7.21564 12.496 7.28884 8.06606C7.33175 5.41566 6.73856 3.58311 5.57491 2.76527C4.79746 2.21752 3.91654 2.22005 3.29054 2.32859L3.23751 5.58226C3.22742 6.20826 2.71502 6.70805 2.08397 6.69795C1.45798 6.68785 0.955653 6.17039 0.968274 5.5444L1.03643 1.4426C1.044 0.978146 1.33429 0.564183 1.77098 0.400111C3.5581 -0.276371 5.46891 -0.0870581 6.88498 0.907471C8.72006 2.19733 9.62119 4.61802 9.56566 8.10392C9.45712 14.8384 4.56019 18.5793 1.2838 18.9882C1.23584 18.9933 1.19042 18.9958 1.14246 18.9958L1.13488 18.9983Z" fill="var(--fill-0, #212C68)"/>
</svg>
