<svg preserveAspectRatio="none" width="100%" height="100%" overflow="visible" style="display: block;" viewBox="0 0 65 69" fill="none" xmlns="http://www.w3.org/2000/svg">
<path id="Vector" d="M47.4367 68.9422C42.6029 68.9422 40.0308 66.2312 39.9147 66.105C39.7304 65.9056 39.6673 65.6229 39.7481 65.3629C39.8289 65.1029 40.0434 64.9086 40.311 64.8505C40.422 64.8253 43.1709 64.1614 45.17 60.5619C46.6921 57.8207 47.2172 54.8371 47.4443 52.7622C44.7106 55.2611 38.4431 60.6553 31.2239 64.6915C24.4894 68.4576 16.8133 66.6023 13.9257 65.9056C13.4966 65.8021 13.1255 65.7113 12.9539 65.6911C5.03298 64.6612 1.99386 59.0928 1.05738 56.7479C-1.60563 50.0891 1.56979 32.9802 1.82726 31.6221C1.8626 30.5342 2.46335 19.0189 12.396 9.01555C18.9438 2.41985 27.7809 0.274298 31.9711 0.0445972C39.9904 -0.394611 43.86 2.5082 45.0438 4.44678C48.2874 4.4493 52.8688 6.11779 57.165 13.5414C63.2483 24.0572 65.5781 41.7239 63.9373 51.6288C61.4106 66.8825 50.8394 68.6747 48.7468 68.8791C48.295 68.9245 47.8583 68.9447 47.4393 68.9447L47.4367 68.9422ZM41.9492 65.8299C43.1053 66.6149 45.3341 67.6877 48.5954 67.3697C50.4961 67.1829 60.093 65.5421 62.438 51.3789C64.003 41.9309 61.6833 24.3803 55.8499 14.2961C51.7178 7.1527 47.4645 5.8275 44.6273 5.96886C44.3093 5.98653 44.0165 5.79974 43.8903 5.50693C43.3627 4.25746 40.205 1.1098 32.0493 1.55406C26.8975 1.83424 18.8832 4.62347 13.4663 10.0782C3.69767 19.9175 3.33925 31.5994 3.33673 31.7155C3.33673 31.7585 3.33167 31.8014 3.3241 31.8443C3.28876 32.0235 -0.0911202 49.8064 2.46083 56.1825C3.30138 58.2801 6.02246 63.2603 13.1482 64.1867C13.4007 64.2195 13.7692 64.3078 14.2816 64.4315C17.0128 65.0903 24.2698 66.8446 30.4869 63.3688C39.9576 58.0731 47.7649 50.3869 47.8431 50.3087C48.0678 50.084 48.4111 50.026 48.6988 50.1623C48.9866 50.2961 49.1582 50.5964 49.1305 50.9145C49.1179 51.0457 49.1078 51.1947 49.0951 51.3587C48.9386 53.3478 48.6105 57.49 46.4952 61.2965C45.0337 63.9241 43.181 65.219 41.9517 65.8274L41.9492 65.8299Z" fill="var(--fill-0, #212C68)"/>
</svg>
