<svg preserveAspectRatio="none" width="100%" height="100%" overflow="visible" style="display: block;" viewBox="0 0 29 16" fill="none" xmlns="http://www.w3.org/2000/svg">
<path id="Vector" d="M27.1791 15.3765C26.9873 15.3765 26.7884 15.3339 26.6036 15.2557C18.092 11.4617 9.42396 7.64638 0.848329 3.90919C0.244412 3.64631 -0.0966267 3.00687 0.0241568 2.36032C0.14494 1.71377 0.684914 1.23775 1.34567 1.20222C9.71526 0.775928 18.1985 0.370946 26.561 0.00149024C27.3355 -0.0340343 28.0033 0.569884 28.0388 1.35143L28.593 13.8987C28.6143 14.3889 28.3799 14.8508 27.9749 15.1279C27.7333 15.2913 27.4562 15.3765 27.1791 15.3765ZM7.49142 3.72447C13.559 6.38171 19.6479 9.06736 25.6658 11.7459L25.275 2.89319C19.3708 3.15607 13.4169 3.43317 7.49142 3.72447Z" fill="var(--fill-0, #14B8A6)"/>
</svg>
