<svg preserveAspectRatio="none" width="100%" height="100%" overflow="visible" style="display: block;" viewBox="0 0 14 11" fill="none" xmlns="http://www.w3.org/2000/svg">
<path id="Vector" d="M4.65695 10.1502C4.45711 10.1502 4.25465 10.1397 4.04954 10.1134C1.51725 9.81096 -0.249835 7.55215 0.0289009 4.97254C0.318155 2.27722 2.73476 0 5.30649 0C6.88949 0 7.88348 0.525918 8.43306 0.959799C8.85379 0.82832 9.46384 0.694212 10.2264 0.688953C10.2369 0.688953 10.2475 0.688953 10.258 0.688953C12.0198 0.688953 13.0216 1.97219 13.3346 2.73477C13.5292 3.20546 13.303 3.74189 12.835 3.93648C12.3695 4.12844 11.8331 3.90756 11.6359 3.44475C11.5912 3.3422 11.1994 2.52966 10.2553 2.52966C10.2501 2.52966 10.2448 2.52966 10.2396 2.52966C9.24823 2.53755 8.65919 2.84258 8.65393 2.84521C8.22794 3.06872 7.7178 2.97142 7.46273 2.56384C7.45221 2.55332 6.87634 1.84334 5.30385 1.84334C3.73136 1.84334 2.04318 3.42897 1.85648 5.17238C1.68556 6.76328 2.72159 8.10437 4.26778 8.28844C5.93757 8.48828 7.53635 7.32601 7.55212 7.31549C7.89397 7.06305 8.36732 7.0762 8.69338 7.34967C8.70916 7.36019 9.33235 7.84141 10.3816 7.75726C11.1441 7.69678 11.3624 7.10512 11.3992 6.98942C11.5307 6.49769 12.0356 6.21633 12.5247 6.34781C13.0164 6.47928 13.303 6.99205 13.1715 7.48379C12.9769 8.20429 12.2012 9.46123 10.5262 9.59271C9.4507 9.67685 8.62762 9.40075 8.11223 9.14042C7.41802 9.54538 6.12689 10.1528 4.65959 10.1528L4.65695 10.1502Z" fill="var(--fill-0, #202933)"/>
</svg>
