<svg preserveAspectRatio="none" width="100%" height="100%" overflow="visible" style="display: block;" viewBox="0 0 53 29" fill="none" xmlns="http://www.w3.org/2000/svg">
<path id="Vector" d="M3.46314 11.7167L10.9549 11.7545L33.2864 4.28293C33.2864 4.28293 40.8842 -0.263133 43.3983 0.0120033C44.7083 0.155882 46.1345 2.55134 48.3659 4.57826C51.2611 7.20846 53.2502 9.15208 52.7832 10.4091C50.9759 15.2783 42.3659 6.92575 42.3659 6.92575L38.1025 9.54333L44.8068 15.041C44.8068 15.041 50.6604 20.2181 50.8976 22.8937C51.193 26.1929 47.9418 25.0216 47.9418 25.0216C47.9418 25.0216 48.8959 27.046 47.0104 28.2829C44.5947 29.5778 41.8863 26.6623 41.8863 26.6623C41.8863 26.6623 40.3137 28.7675 37.7214 28.3561C35.129 27.9446 31.8148 26.001 31.8148 26.001L24.7471 22.5404C24.7471 22.5404 22.2305 25.7006 15.9629 26.781C12.8506 27.3161 9.20566 26.5816 9.20566 26.5816L0.686536 26.6649C0.686536 26.6649 -0.46197 23.3279 0.211988 18.5042C0.885945 13.6805 3.46567 11.7167 3.46567 11.7167H3.46314Z" fill="var(--fill-0, #FFEBE1)"/>
</svg>
