<svg preserveAspectRatio="none" width="100%" height="100%" overflow="visible" style="display: block;" viewBox="0 0 20 85" fill="none" xmlns="http://www.w3.org/2000/svg">
<path id="Vector" d="M13.1602 84.518H1.1825C0.851173 84.518 0.535624 84.3786 0.31211 84.1341C0.0885953 83.8895 -0.0244722 83.5635 0.00445321 83.2321C0.188524 81.0916 4.48525 30.751 4.79291 28.3738C5.34512 24.1113 7.2805 16.1752 7.78275 14.2319L5.62386 5.03368C5.53709 4.66817 5.62912 4.28424 5.87104 4.00025L8.90033 0.418763C9.19221 0.0716585 9.65764 -0.0755931 10.0968 0.0374788L16.1948 1.59682C16.4498 1.66256 16.6786 1.81244 16.839 2.02018L19.3739 5.30978C19.6421 5.65952 19.6947 6.12758 19.5107 6.5299L15.7898 14.5764C15.774 16.0727 15.7057 23.8746 15.803 29.5045C15.9108 35.7735 14.4067 81.4361 14.3435 83.3767C14.3225 84.0157 13.7992 84.5206 13.1602 84.5206V84.518ZM2.471 82.1514H12.0137C12.2504 74.8674 13.5336 35.2055 13.4363 29.544C13.3285 23.2882 13.4232 14.3845 13.4258 14.2977C13.4258 14.1294 13.4653 13.9664 13.5363 13.8138L17.0625 6.18543L15.2139 3.78725L10.2309 2.51454L8.06674 5.07575L10.1546 13.9716C10.1993 14.1583 10.1967 14.3503 10.1494 14.5343C10.1257 14.6264 7.76172 23.9088 7.14114 28.6789C6.86503 30.7983 3.16258 74.0838 2.47363 82.1514H2.471Z" fill="var(--fill-0, #202933)"/>
</svg>
