<svg preserveAspectRatio="none" width="100%" height="100%" overflow="visible" style="display: block;" viewBox="0 0 18 10" fill="none" xmlns="http://www.w3.org/2000/svg">
<path id="Vector" d="M8.5735 9.31548C7.48558 9.31548 6.2664 9.18927 4.91849 8.89142C0.248744 7.86407 -0.127361 3.60577 0.0266141 2.52037C0.157872 1.59652 0.753572 0.478308 1.78596 0.0567696C2.17216 -0.102254 2.6139 0.0845354 2.77293 0.470736C2.93195 0.856936 2.74516 1.30119 2.35896 1.45769C1.88189 1.65205 1.58402 2.32096 1.52596 2.73493C1.52092 2.77279 1.24076 6.5313 5.24411 7.41224C9.22475 8.28814 12.1578 7.51826 13.2003 6.43286C15.1263 4.42866 14.942 2.27553 14.576 1.41478C14.4801 1.19013 14.4978 0.930135 14.6265 0.720628C14.7552 0.51112 14.9773 0.377339 15.2222 0.362194C15.8507 0.319283 16.9891 0.326856 17.5394 0.844314C17.7615 1.05382 17.8852 1.33148 17.8852 1.62681C17.8852 1.84894 17.8852 2.48756 16.3101 3.27258C16.1864 4.63059 15.5806 6.14005 14.2908 7.48292C13.372 8.44211 11.4284 9.31548 8.57097 9.31548H8.5735Z" fill="var(--fill-0, #212C68)"/>
</svg>
