<svg preserveAspectRatio="none" width="100%" height="100%" overflow="visible" style="display: block;" viewBox="0 0 7 10" fill="none" xmlns="http://www.w3.org/2000/svg">
<path id="Vector" d="M3.36646 0C2.54658 0 1.83437 0.229814 1.22981 0.689441C0.625259 1.14907 0.219462 1.79296 0.0124224 2.62112L0 2.67081C0 2.7205 0.0331263 2.75776 0.0993789 2.78261L0.844721 2.96894L0.89441 2.98137C0.944099 2.98137 0.981366 2.94824 1.00621 2.88199C1.18841 2.28571 1.48033 1.83644 1.88199 1.53416C2.28364 1.23188 2.7619 1.08075 3.31677 1.08075C3.95445 1.08075 4.47205 1.27536 4.86957 1.6646C5.26708 2.05383 5.46584 2.57971 5.46584 3.24224C5.46584 3.91304 5.27329 4.44513 4.8882 4.83851C4.50311 5.23188 3.9793 5.42857 3.31677 5.42857C2.47205 5.42857 1.71843 5.09317 1.0559 4.42236C0.981366 4.37267 0.915114 4.36439 0.857143 4.39752L0.447205 4.58385C0.380952 4.62526 0.351967 4.68323 0.360248 4.75776L0.795031 9.68944C0.819876 9.78054 0.869565 9.82609 0.944099 9.82609H5.98758C6.02899 9.82609 6.06211 9.81366 6.08696 9.78882C6.1118 9.76398 6.12422 9.73085 6.12422 9.68944V8.93168C6.12422 8.89027 6.1118 8.85507 6.08696 8.82609C6.06211 8.7971 6.02899 8.78261 5.98758 8.78261H1.6646L1.35404 5.57764C1.95031 6.12422 2.69565 6.39752 3.59006 6.39752C4.17805 6.39752 4.69979 6.26501 5.15528 6C5.61077 5.73499 5.9648 5.36439 6.21739 4.8882C6.46998 4.41201 6.59627 3.85921 6.59627 3.22981C6.59627 2.60041 6.45963 2.04141 6.18634 1.5528C5.91304 1.06418 5.53209 0.68323 5.04348 0.409938C4.55487 0.136646 3.99586 0 3.36646 0Z" fill="var(--fill-0, #64748B)"/>
</svg>
