<svg preserveAspectRatio="none" width="100%" height="100%" overflow="visible" style="display: block;" viewBox="0 0 39 84" fill="none" xmlns="http://www.w3.org/2000/svg">
<path id="Vector" d="M36.8059 83.494H0.847848C0.381532 83.494 0 83.1125 0 82.6462V72.7122C0 60.4279 6.42008 53.2683 12.6329 46.3395C18.8128 39.4437 24.6535 32.9341 24.6535 21.6483C24.6535 14.6819 22.4161 13.2547 19.0577 13.2547C16.6555 13.2547 13.4619 13.9942 13.4619 20.3766V29.0387C13.4619 29.505 13.0804 29.8866 12.6141 29.8866H0.852555C0.38624 29.8866 0.00471486 29.505 0.00471486 29.0387V21.182C0.00471486 7.52227 6.89111 0 19.3968 0C31.9026 0 38.789 7.52227 38.789 21.182C38.789 36.2548 30.1645 45.9533 23.231 53.7487C18.2899 59.3068 14.0224 64.1019 14.0224 69.3585C14.0224 69.6647 14.0224 69.9567 14.0366 70.2441H36.8059C37.2723 70.2441 37.6538 70.6256 37.6538 71.0919V82.6462C37.6538 83.1125 37.2723 83.494 36.8059 83.494ZM1.6957 81.803H35.9581V71.9445H13.2829C12.8778 71.9445 12.5293 71.6571 12.4492 71.2615C12.322 70.602 12.322 69.9756 12.322 69.368C12.322 63.4707 16.7874 58.4496 21.9592 52.6324C29.0482 44.6579 37.0886 35.619 37.0886 21.1914C37.0886 8.44549 30.9699 1.70511 19.3921 1.70511C7.81432 1.70511 1.6957 8.44078 1.6957 21.1914V28.2003H11.7615V20.3813C11.7615 14.5311 14.2156 11.5637 19.053 11.5637C23.8904 11.5637 26.3445 14.6772 26.3445 21.653C26.3445 33.5888 20.0139 40.6495 13.8953 47.4747C7.6212 54.4741 1.6957 61.0826 1.6957 72.7169V81.803Z" fill="var(--fill-0, white)"/>
</svg>
