<svg preserveAspectRatio="none" width="100%" height="100%" overflow="visible" style="display: block;" viewBox="0 0 129 71" fill="none" xmlns="http://www.w3.org/2000/svg">
<path id="Vector" d="M55.9206 70.9269C55.8759 70.9269 55.8312 70.9269 55.7865 70.919L40.1458 69.1309C39.4963 69.0572 39.0309 68.4708 39.1045 67.8213C39.1781 67.1718 39.7671 66.7064 40.414 66.78L55.9312 68.5524L124.324 61.7496C124.2 60.1824 124.043 57.2162 124.216 53.5795C124.374 50.2847 124.858 46.5743 125.136 44.6258L111.936 44.5312C111.623 44.5312 111.321 44.4023 111.102 44.1788C110.884 43.9553 110.761 43.6529 110.763 43.34L110.797 39.1694L110.763 34.2626C110.763 33.9471 110.884 33.6447 111.108 33.4212C111.329 33.1977 111.631 33.0714 111.946 33.0714H112.325V22.5321C112.325 22.0325 112.638 21.5881 113.109 21.4198L123.722 17.599L120.074 16.3631C119.748 16.2526 119.488 16.0055 119.359 15.6873C119.23 15.3691 119.246 15.0115 119.401 14.7038L121.92 9.75758L95.7404 7.55138C95.6063 7.54086 95.4722 7.50667 95.3512 7.44882L84.3964 2.47103L77.5121 5.30046C77.3543 5.3662 77.1834 5.39511 77.0151 5.38722L36.212 3.72008C34.5027 4.54051 25.4701 8.80831 20.7264 9.88118C16.6584 10.8015 10.5315 11.4668 8.05965 11.714V15.4322C8.05965 15.7504 7.93081 16.0554 7.70203 16.279C7.47326 16.5025 7.1656 16.6234 6.84742 16.6155L4.97779 16.5682V22.093C4.97779 22.7477 4.44925 23.2763 3.79448 23.2763H2.36925V33.8735H3.79448C4.44925 33.8735 4.97779 34.402 4.97779 35.0568V62.5464L33.5561 65.7913C34.2056 65.8649 34.671 66.4513 34.5974 67.1008C34.5238 67.7503 33.9373 68.2184 33.2878 68.1422L3.65774 64.7789C3.06082 64.7106 2.60854 64.2057 2.60854 63.6035V36.2401H1.18331C0.528546 36.2401 0 35.7115 0 35.0568V22.093C0 21.4382 0.528546 20.9096 1.18331 20.9096H2.60854V15.356C2.60854 15.0378 2.73738 14.7327 2.96616 14.5092C3.19493 14.2857 3.50785 14.1648 3.82077 14.1727L5.69041 14.22V10.6385C5.69041 10.0258 6.15847 9.51566 6.76854 9.46044C6.85268 9.45255 15.27 8.68734 20.2031 7.5724C25.0783 6.47061 35.3442 1.51122 35.4467 1.46126C35.6229 1.37711 35.8175 1.33505 36.0121 1.34294L76.8495 3.01272L83.9677 0.0886205C84.2701 -0.0349698 84.6094 -0.0297087 84.9065 0.107029L96.1401 5.21368L123.869 7.54875C124.261 7.58293 124.613 7.80907 124.803 8.15355C124.994 8.49802 125.002 8.91612 124.824 9.26585L122.126 14.5618L127.682 16.4472C128.158 16.6076 128.481 17.0547 128.484 17.5569C128.489 18.0592 128.174 18.5115 127.7 18.6824L114.684 23.3683V34.2574C114.684 34.9122 114.155 35.4407 113.501 35.4407H113.13L113.156 39.1747L113.13 42.1803L126.509 42.2776C126.854 42.2776 127.18 42.4327 127.403 42.6957C127.627 42.9587 127.724 43.3058 127.669 43.6476C127.661 43.7028 126.785 49.2039 126.572 53.7031C126.328 58.8124 126.775 62.6411 126.78 62.6805C126.817 62.9961 126.727 63.3143 126.527 63.5614C126.328 63.8086 126.038 63.9664 125.723 63.9979L56.0337 70.9295C55.9943 70.9321 55.9548 70.9348 55.9154 70.9348L55.9206 70.9269Z" fill="var(--fill-0, #202933)"/>
</svg>
