<svg preserveAspectRatio="none" width="100%" height="100%" overflow="visible" style="display: block;" viewBox="0 0 34 22" fill="none" xmlns="http://www.w3.org/2000/svg">
<path id="Vector" d="M0.00252665 17.9744C0.00252665 17.9744 4.60917 9.06152 5.84349 7.49148C7.07782 5.92144 13.9209 0.648415 15.5288 0.274836C17.1367 -0.0987437 25.1585 -0.30573 27.4202 1.11539C29.6819 2.5365 28.9524 4.05101 28.9524 4.05101C28.9524 4.05101 30.8405 4.01315 31.7189 5.9593C32.5973 7.90544 31.0096 8.57687 31.0096 8.57687C31.0096 8.57687 33.2157 9.17511 33.2157 10.7073C33.2157 12.2395 30.2978 12.7266 30.2978 12.7266C30.2978 12.7266 32.466 14.6349 30.9717 16.2428C29.4749 17.8507 22.9701 17.6261 20.7993 18.7115C18.631 19.7969 16.9777 21.7228 16.9777 21.7228L0 17.9744H0.00252665Z" fill="var(--fill-0, #FFEBE1)"/>
</svg>
