<svg preserveAspectRatio="none" width="100%" height="100%" overflow="visible" style="display: block;" viewBox="0 0 14 27" fill="none" xmlns="http://www.w3.org/2000/svg">
<path id="Vector" d="M4.40292 26.2484C3.84255 26.2484 3.3579 25.8344 3.27965 25.2715L0.0108355 2.00865C-0.0320756 1.7007 0.0537448 1.3877 0.245583 1.14286C0.439945 0.898011 0.725179 0.746561 1.03565 0.718795L9.11304 0.00444693C9.71632 -0.0485609 10.254 0.378038 10.3373 0.978794L13.6061 24.2417C13.649 24.5496 13.5632 24.8626 13.3713 25.1075C13.177 25.3523 12.8918 25.5038 12.5813 25.5315L4.50388 26.2459C4.47107 26.2484 4.43573 26.2509 4.40292 26.2509V26.2484ZM2.42648 2.87697L5.37977 23.8883L11.1904 23.3734L8.23715 2.36204L2.42648 2.87697Z" fill="var(--fill-0, #212C68)"/>
</svg>
