<svg preserveAspectRatio="none" width="100%" height="100%" overflow="visible" style="display: block;" viewBox="0 0 17 25" fill="none" xmlns="http://www.w3.org/2000/svg">
<path id="Vector" d="M7.33387 7.62591C11.3941 9.95277 14.8279 12.5623 16.7826 14.7525C15.4025 16.4812 15.2518 16.6696 13.9 18.483C13.0239 17.5645 10.372 14.8043 5.48275 11.7898C5.2331 16.1373 4.98345 20.4896 4.73852 24.8372C3.16058 24.7477 1.57794 24.6582 0 24.5687C0.452185 16.3776 0.904376 8.19114 1.36127 0C2.95334 0.164859 4.5407 0.325008 6.13276 0.489867C6.33059 0.499288 6.66972 0.54639 6.65088 0.824295C6.63675 1.1022 6.31648 1.19641 6.08567 1.2388C5.92552 4.07437 5.76065 6.91466 5.6005 9.75023C6.17986 9.03898 6.75923 8.32774 7.33859 7.61649L7.33387 7.62591Z" fill="var(--fill-0, #0F172A)"/>
</svg>
