<svg preserveAspectRatio="none" width="100%" height="100%" overflow="visible" style="display: block;" viewBox="0 0 38 20" fill="none" xmlns="http://www.w3.org/2000/svg">
<path id="Vector" d="M1.18212 19.7372C0.627275 19.7372 0.132921 19.3454 0.0224789 18.7826C-0.103741 18.141 0.314359 17.5205 0.955977 17.3942L34.8802 10.723L33.4549 3.98601L6.51753 2.36355C5.86539 2.32411 5.36841 1.76401 5.40785 1.11187C5.4473 0.459734 6.0074 -0.0372491 6.65954 0.00219456L34.4963 1.67724C35.0274 1.70879 35.4718 2.09271 35.5823 2.61337L37.444 11.4067C37.5098 11.717 37.4493 12.0404 37.2731 12.3034C37.0995 12.5689 36.8261 12.7504 36.5131 12.8109L1.41089 19.7135C1.33463 19.7293 1.25574 19.7372 1.18212 19.7372Z" fill="var(--fill-0, #202933)"/>
</svg>
