<svg preserveAspectRatio="none" width="100%" height="100%" overflow="visible" style="display: block;" viewBox="0 0 53 23" fill="none" xmlns="http://www.w3.org/2000/svg">
<path id="Vector" d="M21.2802 22.1644C21.1724 22.1644 21.062 22.1487 20.9541 22.1197C20.6491 22.033 20.3888 21.8252 20.2389 21.5439C20.1942 21.4597 15.7003 13.1923 10.6173 7.61236C6.49147 3.08423 1.45845 3.27881 1.24546 3.28933C0.59858 3.32089 0.0384851 2.82127 0.00167098 2.17176C-0.0325136 1.51962 0.461842 0.964773 1.11398 0.927959C1.37168 0.912181 7.45653 0.630828 12.366 6.01884C16.5996 10.6679 20.3231 16.8948 21.7299 19.3587C29.6686 14.7911 47.6575 4.04138 50.5711 0.438861C50.9813 -0.0686483 51.7281 -0.147531 52.2356 0.262683C52.7432 0.672898 52.822 1.4197 52.4118 1.92721C48.4595 6.81297 22.9526 21.3887 21.8692 22.0067C21.6878 22.1092 21.4879 22.1618 21.2828 22.1618L21.2802 22.1644Z" fill="var(--fill-0, #202933)"/>
</svg>
