<svg preserveAspectRatio="none" width="100%" height="100%" overflow="visible" style="display: block;" viewBox="0 0 25 25" fill="none" xmlns="http://www.w3.org/2000/svg">
<path id="Vector" d="M15.087 0.075364C16.679 0.202541 18.2758 0.329718 19.8679 0.461605C20.094 0.466315 20.2918 0.55581 20.2871 0.75364C20.2777 1.05981 19.9903 1.19169 19.849 1.24351C19.8066 2.7555 19.7595 4.2722 19.7171 5.7842C21.3563 5.8313 22.9955 5.88311 24.6394 5.93492C24.5923 7.38097 24.5499 8.83173 24.5028 10.2778C22.8542 10.226 21.2103 10.1789 19.5617 10.1271C19.2979 14.3286 18.7798 15.6804 18.5066 16.3964C17.103 20.0374 13.8576 23.4806 9.97632 24.9173C8.92593 23.1321 7.29619 21.9215 6.60849 21.3751C11.5684 19.7689 13.2923 16.5283 13.6503 15.8123C14.517 14.0224 14.6489 12.242 14.8232 9.99046C13.1934 9.94806 11.5684 9.90096 9.93866 9.86328C9.88685 11.9358 9.83502 14.0036 9.7785 16.0761C8.25709 16.0384 6.73568 16.0007 5.21897 15.9631C5.26608 13.8905 5.31789 11.8227 5.36499 9.75023C3.57509 9.70784 1.7899 9.66545 0 9.62776C0.0329718 8.17701 0.0612391 6.73096 0.0942109 5.2802C1.88411 5.31788 3.67401 5.36027 5.46862 5.40267C5.51101 3.60335 5.5534 1.79932 5.59579 0C7.07481 0.117756 8.55854 0.240222 10.0376 0.357979C10.2919 0.390951 10.631 0.400372 10.6263 0.706539C10.6216 0.899659 10.3908 1.00799 10.16 1.13988C10.1223 2.60006 10.0847 4.05553 10.047 5.51571C11.6767 5.5581 13.3065 5.6005 14.941 5.64289C14.9928 3.78705 15.0446 1.9265 15.0917 0.0706546L15.087 0.075364Z" fill="var(--fill-0, #0F172A)"/>
</svg>
