<svg preserveAspectRatio="none" width="100%" height="100%" overflow="visible" style="display: block;" viewBox="0 0 11 11" fill="none" xmlns="http://www.w3.org/2000/svg">
<path id="Vector" d="M5.13682 10.2803C2.39154 10.2803 0.10906 8.10305 0.00387719 5.33673C-0.0487144 3.96409 0.435145 2.65457 1.36865 1.64744C2.30215 0.640313 3.56959 0.0565458 4.94224 0.00395419C7.77692 -0.106488 10.1672 2.11024 10.2777 4.9423C10.3881 7.77435 8.17136 10.1673 5.3393 10.2777C5.27356 10.2777 5.20519 10.2803 5.13945 10.2803H5.13682ZM2.36787 5.24734C2.42572 6.77512 3.71686 7.96895 5.24728 7.9111C6.77506 7.85325 7.97152 6.56212 7.91104 5.03171C7.88212 4.29017 7.56657 3.60647 7.02487 3.10422C6.48055 2.60197 5.77055 2.33902 5.03426 2.36794C4.29272 2.39687 3.60904 2.71242 3.10679 3.25411C2.60454 3.79843 2.34157 4.50579 2.3705 5.2447L2.36787 5.24734Z" fill="var(--fill-0, #202933)"/>
</svg>
