<svg preserveAspectRatio="none" width="100%" height="100%" overflow="visible" style="display: block;" viewBox="0 0 126 99" fill="none" xmlns="http://www.w3.org/2000/svg">
<path id="Vector" d="M121.484 52.8514C117.791 33.3167 117.221 27.0719 113.412 19.1787C111.337 14.8775 106.72 13.9764 106.72 13.9764C106.72 13.9764 102.532 12.8506 97.6355 10.8616C92.0141 8.5797 88.5863 6.8052 88.5863 6.8052L86.1782 3.13503L80.8774 0C80.8774 0 75.7028 31.2999 74.0268 38.302C72.3507 45.3041 61.6381 73.6759 61.6381 73.6759C61.6381 73.6759 50.9229 45.3041 49.2468 38.302C47.5708 31.2999 42.3962 0 42.3962 0L37.0954 3.13503L34.6873 6.8052C34.6873 6.8052 31.2595 8.5797 25.6381 10.8616C20.7437 12.8481 16.5536 13.9764 16.5536 13.9764C16.5536 13.9764 12.8355 13.936 10.7606 18.2347C9.10473 21.6651 7.51197 34.9953 5.49767 48.0857C2.87757 65.1189 0 82.2909 0 82.2909L17.7753 82.0411L87.8315 89.341L91.6531 98.7385C91.6531 98.7385 98.8193 96.4592 107.306 93.5362C117.203 90.126 120.111 88.8185 123.511 84.4365C127.335 79.5068 125.356 73.378 121.476 52.8539L121.484 52.8514Z" fill="var(--fill-0, #D4EEFF)"/>
</svg>
