<svg preserveAspectRatio="none" width="100%" height="100%" overflow="visible" style="display: block;" viewBox="0 0 82 125" fill="none" xmlns="http://www.w3.org/2000/svg">
<path id="Vector" d="M55.6501 124.793H81.8617C81.8286 124.233 81.0405 110.651 79.2328 100.714C76.5268 85.8528 71.3048 62.4078 71.3048 62.4078C71.3048 62.4078 72.5421 56.2793 72.2666 52.8072C70.6766 52.9064 69.5963 53.35 68.4776 54.0444C67.5296 54.6314 66.3034 56.1635 66.3034 56.1635C66.3034 56.1635 57.7361 47.8222 47.0029 36.0364C31.8689 19.4171 17.3908 0.0201876 17.3908 0.0201876C17.3908 0.0201876 12.4913 -0.632896 6.45095 5.49013C0.564906 11.4561 0 17.0831 0 17.0831C0 17.0831 35.1399 68.9938 46.4628 92.6978C53.5558 107.545 55.5757 124.167 55.6501 124.793Z" fill="var(--fill-0, #FFEDDE)"/>
</svg>
