<svg preserveAspectRatio="none" width="100%" height="100%" overflow="visible" style="display: block;" viewBox="0 0 79 72" fill="none" xmlns="http://www.w3.org/2000/svg">
<path id="Vector" d="M51.2555 71.7626H2.39738C1.61489 71.7626 0.882867 71.3814 0.433562 70.7403C-0.015743 70.0991 -0.121765 69.2788 0.143274 68.5442L24.5168 1.57762C24.8601 0.63357 25.7663 0 26.7709 0H75.6291C76.4116 0 77.146 0.381157 77.5928 1.0223C78.0421 1.66344 78.1482 2.4838 77.8806 3.21834L53.5071 70.185C53.1638 71.129 52.2576 71.7626 51.253 71.7626H51.2555ZM26.7684 2.27177C26.7154 2.27177 26.6674 2.30458 26.6497 2.35507L2.27623 69.3217C2.27118 69.3368 2.2535 69.3823 2.29136 69.4378C2.32922 69.4908 2.37719 69.4908 2.39486 69.4908H51.253C51.306 69.4908 51.354 69.458 51.3716 69.4075L75.7452 2.44089C75.7502 2.42574 75.7679 2.37779 75.73 2.32478C75.6921 2.27177 75.6417 2.27177 75.6265 2.27177H26.7684Z" fill="var(--fill-0, #212C68)"/>
</svg>
