<svg preserveAspectRatio="none" width="100%" height="100%" overflow="visible" style="display: block;" viewBox="0 0 14 18" fill="none" xmlns="http://www.w3.org/2000/svg">
<path id="Vector" d="M0.150648 0C-0.0405063 1.56747 -0.049002 2.91829 0.120913 4.05248C0.299324 5.19091 0.617915 6.15518 1.07244 6.95803C1.52696 7.75663 2.08343 8.44054 2.73761 9.01825C3.39178 9.58747 4.10118 10.093 4.8658 10.5347C5.63041 10.9765 6.41627 11.4098 7.21487 11.8303C8.01348 12.2466 8.79084 12.7054 9.54271 13.2067C10.2903 13.7037 10.97 14.2899 11.5859 14.9695C12.1934 15.6492 12.6946 16.4733 13.0939 17.4376C13.06 15.6874 12.8688 14.1752 12.5205 12.9008C12.1637 11.6307 11.6879 10.5432 11.0932 9.62995C10.5027 8.72515 9.84006 7.94354 9.09244 7.28087C8.34056 6.62245 7.5547 6.0235 6.73486 5.48826C5.91502 4.96153 5.10368 4.43479 4.29658 3.9123C3.48948 3.3983 2.73336 2.82484 2.01547 2.2004C1.31032 1.58021 0.690129 0.845328 0.150648 0Z" fill="var(--fill-0, #94A3B8)"/>
</svg>
