<svg preserveAspectRatio="none" width="100%" height="100%" overflow="visible" style="display: block;" viewBox="0 0 55 53" fill="none" xmlns="http://www.w3.org/2000/svg">
<path id="Vector" d="M32.2092 53.0027C30.2695 53.0027 28.9977 52.9458 27.7615 52.889C27.1149 52.8606 26.5963 52.3561 26.5465 51.7096C26.1274 46.3454 24.8129 43.7734 24.1095 42.395L24.0385 42.2529C23.8112 41.8053 23.868 41.2582 24.1877 40.8675C24.5074 40.4767 25.0261 40.3062 25.5163 40.4412L25.5874 40.4625C27.0794 40.8746 30.5679 41.8337 33.1612 41.8337C34.7385 41.8337 35.6906 41.8337 36.529 38.2244C37.0192 36.0361 37.6018 32.6542 37.8576 25.8903H26.3405C25.1398 33.5778 22.0989 42.6508 10.4823 52.4769C10.0063 52.8819 9.30292 52.8819 8.82689 52.4769C4.45737 48.761 3.2069 48.0434 0.897804 47.3187C0.435985 47.1766 0.0949556 46.7859 0.0168016 46.3098C-0.0613525 45.8338 0.137579 45.3507 0.521244 45.0665C14.7879 34.6436 15.2213 25.9045 15.3421 10.4869H1.8996C1.19621 10.4869 0.620702 9.91136 0.620702 9.20797V1.27889C0.620702 0.5755 1.19621 0 1.8996 0H53.4102C54.1136 0 54.6891 0.5755 54.6891 1.27889V9.20797C54.6891 9.91136 54.1136 10.4869 53.4102 10.4869H27.392C27.3423 12.8031 27.3068 14.1388 27.2854 14.9416H48.4084C49.1118 14.9416 49.6872 15.5171 49.6872 16.2205C49.6872 16.4479 49.1828 40.1072 46.0211 46.8711C43.3284 52.5693 38.6036 53.0098 32.2092 53.0098V53.0027ZM28.9977 50.3809C29.9001 50.4165 30.8877 50.4449 32.2163 50.4449C39.0725 50.4449 41.8434 49.7415 43.712 45.777C46.078 40.7112 46.9447 22.9844 47.101 17.4923H25.9711C25.2677 17.4923 24.6922 16.9168 24.6922 16.2134C24.6922 16.0642 24.6922 15.8937 24.7064 15.5456C24.7277 14.8137 24.7774 13.2365 24.8556 9.17955C24.8698 8.48327 25.4382 7.92909 26.1345 7.92909H52.1313V2.55777H3.17848V7.92909H16.6352C16.9762 7.92909 17.303 8.06408 17.5446 8.30565C17.7862 8.54721 17.9212 8.87404 17.9141 9.21507C17.8075 25.0448 17.7435 34.8354 3.88897 45.7272C5.46626 46.4803 7.02223 47.61 9.65815 49.8197C20.4789 40.3559 22.9799 31.6879 23.9746 24.4338C24.0598 23.8015 24.5998 23.3325 25.2392 23.3325H39.1862C39.5343 23.3325 39.8611 23.4746 40.1027 23.7233C40.3443 23.972 40.4722 24.3059 40.4651 24.6541C40.2306 32.5263 39.5769 36.3487 39.0299 38.7999C37.8291 43.9723 35.5698 44.3986 33.1683 44.3986C31.3352 44.3986 29.1967 44.0007 27.4631 43.5958C28.0599 45.1446 28.6709 47.3116 28.9977 50.4023V50.3809Z" fill="var(--fill-0, white)"/>
</svg>
