<svg preserveAspectRatio="none" width="100%" height="100%" overflow="visible" style="display: block;" viewBox="0 0 28 27" fill="none" xmlns="http://www.w3.org/2000/svg">
<path id="Vector" d="M14.0727 26.2927C12.6633 27.0673 12.7233 25.9267 12.784 25.5753C12.82 25.366 12.984 24.384 12.984 24.384C13.0307 24.028 13.08 23.4773 12.9393 23.126C12.7827 22.7393 12.162 22.538 11.706 22.44C4.97933 21.5553 0 16.8787 0 11.2953C0 5.06733 6.28 0 13.9967 0C21.7133 0 27.9927 5.06733 27.9927 11.2953C27.9927 18.29 20.574 22.718 14.0727 26.2927ZM9.572 13.842C9.572 13.4687 9.266 13.1653 8.89 13.1653H6.986V8.71333C6.986 8.34 6.68 8.03667 6.304 8.03667C5.92733 8.03667 5.622 8.34 5.622 8.71333V13.8427C5.622 14.2167 5.928 14.52 6.304 14.52H8.89C9.266 14.5207 9.572 14.216 9.572 13.842ZM11.564 8.71333C11.564 8.34 11.258 8.03667 10.882 8.03667C10.5053 8.03667 10.2 8.34 10.2 8.71333V13.8427C10.2 14.2167 10.506 14.52 10.882 14.52C11.2587 14.52 11.564 14.216 11.564 13.8427V8.71333ZM17.7907 8.71333C17.7907 8.34 17.4847 8.03667 17.1087 8.03667C16.732 8.03667 16.4253 8.34 16.4253 8.71333V11.8873L13.7733 8.308C13.6453 8.13867 13.4407 8.03733 13.228 8.03733C13.1547 8.03733 13.082 8.048 13.0113 8.072C12.732 8.16467 12.5447 8.42267 12.5447 8.714V13.8433C12.5447 14.2173 12.8513 14.5207 13.228 14.5207C13.6053 14.5207 13.9113 14.2167 13.9113 13.8433V10.6707L16.562 14.25C16.69 14.4193 16.894 14.5207 17.1073 14.5207C17.18 14.5207 17.2533 14.5087 17.324 14.4853C17.604 14.394 17.7907 14.136 17.7907 13.8433V8.71333ZM21.976 10.6013H20.072V9.39H21.976C22.3533 9.39 22.6593 9.08667 22.6593 8.71333C22.6593 8.34 22.3527 8.03667 21.976 8.03667H19.39C19.0133 8.03667 18.708 8.34 18.708 8.71333C18.708 8.714 18.708 8.714 18.708 8.71533V11.2767C18.708 11.2767 18.708 11.2773 18.708 11.278V13.8413C18.708 14.2153 19.0147 14.5187 19.39 14.5187H21.976C22.3527 14.5187 22.6593 14.2147 22.6593 13.8413C22.6593 13.468 22.3527 13.1647 21.976 13.1647H20.072V11.9533H21.976C22.3533 11.9533 22.6593 11.65 22.6593 11.2767C22.6593 10.9027 22.3527 10.5993 21.976 10.5993V10.6013Z" fill="var(--fill-0, white)"/>
</svg>
