<svg preserveAspectRatio="none" width="100%" height="100%" overflow="visible" style="display: block;" viewBox="0 0 42 14" fill="none" xmlns="http://www.w3.org/2000/svg">
<path id="Vector" d="M1.09451 13.4873C0.824525 13.4873 0.55454 13.3879 0.341393 13.1889C-0.0991116 12.7697 -0.113325 12.0805 0.29876 11.64L4.71091 6.98632C14.8851 -3.60001 25.031 0.748201 26.8072 1.63632L36.5978 1.90631C39.2763 1.97735 41.4575 4.29356 41.4575 7.06448C41.4575 8.44283 40.9247 9.72881 39.9584 10.6738C39.0348 11.5761 37.8269 12.0734 36.548 12.0308L25.9972 11.8106C25.3933 11.7963 24.9102 11.299 24.9244 10.6951C24.9386 10.0983 25.4288 9.62223 26.0186 9.62223C26.0257 9.62223 26.0328 9.62223 26.0399 9.62223L36.5907 9.84248C37.287 9.83538 37.9193 9.59381 38.4237 9.11068C38.9637 8.57781 39.2692 7.85313 39.2692 7.06448C39.2692 5.47298 38.0472 4.14435 36.5409 4.10172L26.5017 3.82462C26.317 3.82462 26.1393 3.76779 25.9759 3.67542C25.5852 3.44807 16.2067 -1.80245 6.30242 8.50678L1.89026 13.1534C1.67712 13.3807 1.38581 13.4944 1.09451 13.4944V13.4873Z" fill="var(--fill-0, #14B8A6)"/>
</svg>
