<svg preserveAspectRatio="none" width="100%" height="100%" overflow="visible" style="display: block;" viewBox="0 0 64 52" fill="none" xmlns="http://www.w3.org/2000/svg">
<path id="Vector" d="M41.9685 51.7044C41.6681 51.7044 41.3677 51.5858 41.1431 51.351C40.7115 50.8967 40.7316 50.1773 41.186 49.7457L59.9836 31.9199C57.0959 30.2893 50.7451 26.5964 48.9529 24.7058C45.9921 21.5808 44.4876 18.8774 44.4876 12.7891V3.03563L32.0485 9.7121C31.7127 9.89131 31.3089 9.89131 30.9732 9.7121L18.5314 3.03563V12.7891C18.5314 18.8774 17.027 21.5783 14.0662 24.7058C12.274 26.5964 5.92314 30.2893 3.03548 31.9199L21.8331 49.7457C22.2874 50.1773 22.3076 50.8967 21.876 51.351C21.4444 51.8054 20.725 51.8256 20.2706 51.394L0.354793 32.503C0.0922782 32.2531 -0.036454 31.8946 0.0089813 31.5337C0.0544166 31.1752 0.268971 30.8572 0.587018 30.683C3.31314 29.1811 10.7544 24.8976 12.4204 23.1408C15.0784 20.3364 16.2622 18.1757 16.2622 12.7866V1.13492C16.2622 0.736098 16.4717 0.365043 16.815 0.160584C17.1583 -0.0438751 17.5824 -0.0539734 17.9357 0.13534L31.5133 7.42014L45.0884 0.13534C45.4418 -0.0539734 45.8658 -0.0438751 46.2091 0.160584C46.5524 0.365043 46.7619 0.736098 46.7619 1.13492V12.7866C46.7619 18.1757 47.9483 20.3339 50.6037 23.1408C52.2697 24.9001 59.7085 29.1811 62.4371 30.683C62.7552 30.8572 62.9697 31.1727 63.0152 31.5337C63.0606 31.8921 62.9344 32.2531 62.6693 32.503L42.7535 51.394C42.5339 51.6035 42.2537 51.7044 41.971 51.7044H41.9685Z" fill="var(--fill-0, #212C68)"/>
</svg>
