<svg preserveAspectRatio="none" width="100%" height="100%" overflow="visible" style="display: block;" viewBox="0 0 30 30" fill="none" xmlns="http://www.w3.org/2000/svg">
<path id="Vector" d="M0.823629 29.0502C0.746645 29.0502 0.673323 29.0392 0.596339 29.0172C0.160096 28.8926 -0.0928484 28.4344 0.0317923 27.9981C3.76002 15.0208 4.55552 5.91104 4.66183 4.45201L3.12215 1.1747C2.96451 0.841099 3.04883 0.445184 3.32744 0.203234C3.60605 -0.0387152 4.0093 -0.0680433 4.3209 0.133581L11.682 4.93225L22.9437 9.91421C24.8939 10.0242 28.4389 11.4026 28.9704 15.9923C29.1391 17.4586 29.4213 21.5571 29.8099 28.1741C29.8356 28.6286 29.491 29.0172 29.0328 29.0466C28.5818 29.0759 28.1896 28.7276 28.1603 28.2731C27.7753 21.6891 27.4967 17.6199 27.3318 16.1829C26.8149 11.7142 22.9034 11.5602 22.7384 11.5565C22.6321 11.5565 22.5221 11.5309 22.4231 11.4869L10.9562 6.41694C10.9159 6.39861 10.8755 6.37661 10.8389 6.35462L5.85691 3.10663L6.25283 3.94612C6.31148 4.07076 6.33714 4.2064 6.32981 4.34571C6.32615 4.44102 5.7286 14.163 1.62279 28.4564C1.52015 28.8193 1.19021 29.0539 0.830956 29.0539L0.823629 29.0502Z" fill="var(--fill-0, #202933)"/>
</svg>
