<svg preserveAspectRatio="none" width="100%" height="100%" overflow="visible" style="display: block;" viewBox="0 0 37 45" fill="none" xmlns="http://www.w3.org/2000/svg">
<path id="Vector" d="M30.2527 5.25763C27.29 7.58804 20.5474 15.439 19.5883 16.59C20.3272 16.3768 22.4586 15.78 24.8103 15.7161C30.7287 15.5527 36.8248 19.6806 36.8248 28.5049C36.8248 39.4749 27.7305 44.2707 20.1993 44.2707C14.5864 44.2707 9.14402 41.7982 9.14402 35.9154C9.14402 31.1053 13.1512 28.0786 17.677 28.0005C21.7695 27.9365 26.0324 30.4872 27.0342 35.1196C29.9046 33.457 29.9046 29.6417 29.9046 29.2438C29.9046 28.0573 29.5564 22.0181 22.8068 22.1602C15.4532 22.3165 11.2755 27.226 5.22209 34.3452L0 28.7607C5.00896 24.8104 14.7143 13.8759 17.6273 9.43533C16.2347 9.8261 14.7569 10.2666 6.04629 11.5171L5.00184 3.95033C6.69992 3.93612 19.2756 3.59509 26.7642 0L30.2456 5.25763H30.2527ZM17.1513 34.132C15.6735 34.1462 15.3253 35.077 15.3253 35.9082C15.3253 37.7697 17.7623 38.4873 19.2401 38.4731C20.2419 38.4731 20.9808 38.2173 21.4142 38.0681C20.7179 34.7288 18.3662 34.1178 17.1513 34.132Z" fill="var(--fill-0, #0F172A)"/>
</svg>
