<svg preserveAspectRatio="none" width="100%" height="100%" overflow="visible" style="display: block;" viewBox="0 0 42 40" fill="none" xmlns="http://www.w3.org/2000/svg">
<path id="Vector" d="M21.109 39.439C18.995 40.601 19.085 38.89 19.176 38.363C19.23 38.049 19.476 36.576 19.476 36.576C19.546 36.042 19.62 35.216 19.409 34.689C19.174 34.109 18.243 33.807 17.559 33.66C7.469 32.333 0 25.318 0 16.943C0 7.601 9.42 0 20.995 0C32.57 0 41.989 7.601 41.989 16.943C41.989 27.435 30.861 34.077 21.109 39.439ZM14.358 20.763C14.358 20.203 13.899 19.748 13.335 19.748H10.479V13.07C10.479 12.51 10.02 12.055 9.456 12.055C8.891 12.055 8.433 12.51 8.433 13.07V20.764C8.433 21.325 8.892 21.78 9.456 21.78H13.335C13.899 21.781 14.358 21.324 14.358 20.763ZM17.346 13.07C17.346 12.51 16.887 12.055 16.323 12.055C15.758 12.055 15.3 12.51 15.3 13.07V20.764C15.3 21.325 15.759 21.78 16.323 21.78C16.888 21.78 17.346 21.324 17.346 20.764V13.07ZM26.686 13.07C26.686 12.51 26.227 12.055 25.663 12.055C25.098 12.055 24.638 12.51 24.638 13.07V17.831L20.66 12.462C20.468 12.208 20.161 12.056 19.842 12.056C19.732 12.056 19.623 12.072 19.517 12.108C19.098 12.247 18.817 12.634 18.817 13.071V20.765C18.817 21.326 19.277 21.781 19.842 21.781C20.408 21.781 20.867 21.325 20.867 20.765V16.006L24.843 21.375C25.035 21.629 25.341 21.781 25.661 21.781C25.77 21.781 25.88 21.763 25.986 21.728C26.406 21.591 26.686 21.204 26.686 20.765V13.07ZM32.964 15.902H30.108V14.085H32.964C33.53 14.085 33.989 13.63 33.989 13.07C33.989 12.51 33.529 12.055 32.964 12.055H29.085C28.52 12.055 28.062 12.51 28.062 13.07C28.062 13.071 28.062 13.071 28.062 13.073V16.915C28.062 16.915 28.062 16.916 28.062 16.917V20.762C28.062 21.323 28.522 21.778 29.085 21.778H32.964C33.529 21.778 33.989 21.322 33.989 20.762C33.989 20.202 33.529 19.747 32.964 19.747H30.108V17.93H32.964C33.53 17.93 33.989 17.475 33.989 16.915C33.989 16.354 33.529 15.899 32.964 15.899V15.902Z" fill="var(--fill-0, white)"/>
</svg>
