<svg preserveAspectRatio="none" width="100%" height="100%" overflow="visible" style="display: block;" viewBox="0 0 127 56" fill="none" xmlns="http://www.w3.org/2000/svg">
<path id="Vector" d="M122.968 55.0568C122.942 55.0568 122.915 55.0568 122.886 55.0541L68.1623 51.357C68.0939 51.3517 68.0256 51.3412 67.9572 51.3254L0.900263 34.7591C0.337533 34.6197 -0.0411267 34.0938 0.00357616 33.5153C0.0509086 32.9368 0.511084 32.4792 1.08959 32.4319L7.98698 31.8797L25.2554 26.9361L2.04676 23.4597C1.49718 23.3782 1.07907 22.9233 1.04226 22.3685C1.00545 21.8136 1.36044 21.3088 1.89424 21.1536L74.9545 0.0459694C75.2753 -0.0460659 75.6224 0.00126656 75.9064 0.177448L80.9394 3.2935C81.4943 3.63798 81.6678 4.36637 81.3233 4.92384C80.9789 5.47869 80.2505 5.65224 79.6956 5.30776L75.107 2.46782L7.76084 21.9241L30.9984 25.403C31.548 25.4845 31.9688 25.9394 32.0029 26.4969C32.0397 27.0518 31.6821 27.5593 31.1483 27.7118L8.52604 34.1884C8.52604 34.1884 8.50238 34.1937 8.49186 34.199L68.4279 49.0061L121.895 52.6192L123.731 32.5739L88.4127 10.7063C87.8578 10.3618 87.6843 9.63342 88.0288 9.07858C88.3732 8.52374 89.1016 8.35019 89.6565 8.69466L125.598 30.9462C125.979 31.1828 126.194 31.6141 126.152 32.0611L124.143 53.9865C124.088 54.5992 123.573 55.062 122.965 55.062L122.968 55.0568Z" fill="var(--fill-0, #202933)"/>
</svg>
