<svg preserveAspectRatio="none" width="100%" height="100%" overflow="visible" style="display: block;" viewBox="0 0 127 108" fill="none" xmlns="http://www.w3.org/2000/svg">
<path id="Vector" d="M99.783 104.267L126.396 82.3717L118.21 67.7138C118.21 67.7138 108.451 33.7761 104.748 25.6306C101.507 18.5023 94.6085 16.5612 91.9858 16.0008L85.4028 12.111L82.6968 8.5267L74.6851 3.82415C74.6851 3.82415 79.9202 12.8632 81.1949 22.7353C83.1032 37.5043 76.1693 75.4807 76.1693 75.4807L55.6628 18.7017L41.174 0L34.1063 6.05804L33.349 8.17584L15.5611 18.626C15.5611 18.626 6.79713 21.6247 5.57037 29.2881C1.04451 57.5716 2.57922 62.8901 0.559874 81.3999C0.0171745 86.365 -1.64628 97.8702 5.49716 102.358C10.2653 105.354 18.1585 106.516 28.2401 106.702C43.6099 106.988 43.678 107.124 43.678 107.124C43.678 107.124 45.609 101.475 45.6292 94.7099C45.6443 89.9468 69.8816 92.5518 69.8816 92.5518L74.3897 98.683L99.7856 104.264L99.783 104.267Z" fill="var(--fill-0, #E6E7ED)"/>
</svg>
