<svg preserveAspectRatio="none" width="100%" height="100%" overflow="visible" style="display: block;" viewBox="0 0 59 59" fill="none" xmlns="http://www.w3.org/2000/svg">
<path id="Vector" d="M16.7624 58.2192C15.6905 58.2192 12.7447 57.9381 7.61648 55.4443C1.18482 52.3194 0.148718 49.4756 0.0522704 49.1642C-0.0331544 48.8831 -0.0138757 48.5827 0.110128 48.3182L6.21663 35.2703C6.15049 34.1101 6.0072 30.0676 6.94136 26.8766C7.46218 25.102 8.30264 23.512 9.19547 21.8255C10.1489 20.0261 11.2264 17.9869 12.0806 15.3746C13.0864 12.2965 12.1302 9.30115 11.3614 6.89548C10.9425 5.58104 10.5788 4.44296 10.5926 3.46471C10.6146 1.89951 11.3697 1.05628 11.9979 0.626403C13.1002 -0.128642 14.569 -0.114864 15.4645 0.215813C16.8258 0.720094 18.7741 2.14476 20.3337 6.06603C21.4663 8.91536 21.7997 12.2139 21.8962 13.8039L24.1062 14.2668C26.093 12.6189 34.0954 6.01643 37.5151 3.73476C40.4113 1.80306 44.7129 -0.0625066 47.3059 1.05077C48.3475 1.49718 49.0061 2.35694 49.2101 3.53635C49.6262 5.93376 47.1709 7.42456 44.5696 9.00078C43.4122 9.70347 42.2135 10.431 41.2132 11.2521C40.7365 11.6434 40.2294 12.0871 39.7307 12.539C41.1994 11.8198 42.839 11.0482 44.3353 10.4034C46.482 9.48026 53.7321 6.61991 56.8597 8.61775C57.7801 9.2047 58.2844 10.1361 58.3174 11.3072C58.4387 13.9967 55.2614 15.0577 51.8968 16.1765C50.3729 16.6835 48.7995 17.2098 47.576 17.8684C47.2288 18.0558 46.8705 18.2487 46.504 18.4499C46.5922 18.4306 46.6804 18.4113 46.7686 18.392C50.891 17.4937 55.402 16.7855 57.601 18.3727C58.3698 18.9266 58.8272 19.7257 58.9292 20.6847C59.2709 23.9226 55.7685 24.5426 52.379 25.1405C51.0674 25.372 49.5793 25.6366 48.1298 26.0361C46.8815 26.3806 45.749 26.7609 44.7542 27.1384C45.038 27.1218 45.3163 27.1136 45.5836 27.1108H45.9419C48.196 27.0805 51.2878 27.0447 52.8365 28.6016C53.4372 29.2051 53.7458 29.9932 53.7293 30.8833C53.7293 30.8943 53.7293 30.9026 53.7293 30.9136C53.6218 33.4791 50.7615 33.9172 46.8016 34.5235C44.6936 34.8459 42.3017 35.2124 39.6756 35.9289C35.5145 37.0614 28.5235 40.5032 25.7458 43.2396C22.2544 46.7062 18.2092 57.3319 18.1706 57.4394C18.0163 57.8499 17.6443 58.142 17.2061 58.1916C17.1482 58.1972 17.0049 58.2109 16.7707 58.2109L16.7624 58.2192ZM2.491 48.7867C2.97048 49.5197 4.47507 51.297 8.6471 53.3252C12.6538 55.2734 15.1504 55.7309 16.2637 55.8328C17.2998 53.2177 20.7802 44.8489 24.0842 41.5724C24.0842 41.5724 24.0842 41.5724 24.0869 41.5696C27.1622 38.5412 34.5225 34.8982 39.0528 33.6637C41.8112 32.9114 44.3794 32.5201 46.4434 32.2032C48.6148 31.8698 51.3181 31.4565 51.3732 30.8337C51.3732 30.5251 51.2685 30.379 51.1638 30.2743C50.3178 29.4228 47.4878 29.4559 45.9667 29.4752H45.6029C43.2551 29.5 39.7252 30.2164 39.6893 30.2247C39.3476 30.2936 38.9922 30.2082 38.7193 29.9905C38.4465 29.7728 38.284 29.4448 38.2757 29.0949L38.2592 28.3591C38.2509 27.943 38.4631 27.5545 38.8158 27.334C38.9536 27.2486 42.2218 25.2397 47.4988 23.7793C49.0557 23.3494 50.6016 23.0738 51.9657 22.8341C53.5584 22.553 54.9335 22.3105 55.8098 21.9164C56.6448 21.5417 56.6144 21.2386 56.5814 20.9465C56.5511 20.6544 56.4408 20.4587 56.2176 20.2961C55.1292 19.5108 52.1173 19.6486 47.2673 20.7067C42.8087 21.6795 38.1655 22.9636 38.1186 22.9774C37.5399 23.1372 36.9365 22.8396 36.7132 22.2829C36.49 21.7291 36.716 21.0925 37.2423 20.8059C37.2423 20.8059 42.6544 17.8629 46.4517 15.81C47.8543 15.0522 49.5297 14.4928 51.15 13.9527C53.1975 13.2693 56.0027 12.3351 55.9614 11.4037C55.9476 10.9049 55.774 10.7313 55.5894 10.6128C54.2667 9.7696 49.8273 10.6128 45.264 12.5748C41.3372 14.264 36.3853 16.8791 36.3357 16.9039C36.0381 17.061 35.6854 17.0831 35.3713 16.9646C35.0544 16.8461 34.8064 16.5981 34.6851 16.2839L34.3654 15.4517C34.2029 15.0246 34.3021 14.5396 34.619 14.2117C34.7347 14.0932 37.4683 11.2797 39.7169 9.43893C40.8495 8.51028 42.1171 7.74146 43.3461 6.99468C44.9857 5.99989 47.0276 4.75986 46.8871 3.94694C46.8044 3.46746 46.5922 3.3159 46.3745 3.22221C45.0656 2.66006 41.7478 3.74854 38.8213 5.70228C35.0874 8.19338 25.2718 16.3694 25.1754 16.4493C24.8998 16.6807 24.5306 16.7717 24.1779 16.6973L20.5129 15.9285C19.9728 15.8155 19.5842 15.3415 19.5759 14.7904C19.5759 14.7463 19.5043 10.3703 18.1403 6.94508C16.7872 3.54187 15.2413 2.65455 14.6406 2.43134C14.3843 2.3349 13.723 2.30183 13.3262 2.57464C13.1663 2.68211 12.9542 2.89705 12.9459 3.50329C12.9376 4.0985 13.26 5.10982 13.6017 6.18177C14.4257 8.76655 15.5555 12.3075 14.3154 16.1076C13.4006 18.91 12.2708 21.0457 11.2732 22.9278C10.4024 24.5729 9.65015 25.992 9.19823 27.5379C8.24202 30.8006 8.5782 35.3584 8.58095 35.4025C8.59749 35.6037 8.55892 35.8076 8.47349 35.9922L2.48548 48.7867H2.491Z" fill="var(--fill-0, #202933)"/>
</svg>
