<svg preserveAspectRatio="none" width="100%" height="100%" overflow="visible" style="display: block;" viewBox="0 0 15 24" fill="none" xmlns="http://www.w3.org/2000/svg">
<path id="Vector" d="M1.23961 23.9278C0.655416 23.9278 0.134597 23.5117 0.0216161 22.9137C-0.105143 22.2413 0.338516 21.5938 1.01365 21.467C1.37188 21.3981 9.89506 19.6896 11.6587 11.8581C12.1271 9.77485 12.0279 5.87563 10.2009 1.73942C9.92537 1.11389 10.2092 0.380885 10.8347 0.105321C11.4603 -0.170243 12.1933 0.113589 12.4688 0.739118C14.1718 4.59976 14.8028 9.17963 14.0754 12.4065C11.948 21.85 1.89269 23.8286 1.46557 23.9085C1.38841 23.9223 1.31125 23.9306 1.23685 23.9306L1.23961 23.9278Z" fill="var(--fill-0, #202933)"/>
</svg>
