<svg preserveAspectRatio="none" width="100%" height="100%" overflow="visible" style="display: block;" viewBox="0 0 32 42" fill="none" xmlns="http://www.w3.org/2000/svg">
<path id="Vector" d="M31.5312 10.8688L21.1312 0.4688C20.8304 0.168 20.424 0 20 0H3.2C1.432 0 0 1.432 0 3.2V38.4C0 40.168 1.432 41.6 3.2 41.6H28.8C30.568 41.6 32 40.168 32 38.4V12C32 11.576 31.832 11.1696 31.5312 10.8688ZM20.8 30.4H8C7.1168 30.4 6.4 29.6832 6.4 28.8C6.4 27.9168 7.1168 27.2 8 27.2H20.8C21.6832 27.2 22.4 27.9168 22.4 28.8C22.4 29.6832 21.6832 30.4 20.8 30.4ZM24 24H8C7.1168 24 6.4 23.2832 6.4 22.4C6.4 21.5168 7.1168 20.8 8 20.8H24C24.8832 20.8 25.6 21.5168 25.6 22.4C25.6 23.2832 24.8832 24 24 24ZM20.8 12.8C19.9168 12.8 19.2 12.0832 19.2 11.2V3.0464L28.9536 12.8H20.8Z" fill="var(--fill-0, white)"/>
</svg>
