<svg preserveAspectRatio="none" width="100%" height="100%" overflow="visible" style="display: block;" viewBox="0 0 61 129" fill="none" xmlns="http://www.w3.org/2000/svg">
<path id="Vector" d="M30.1888 128.187C11.0055 128.187 0 116.386 0 95.8098V32.3771C0 11.8013 11.0055 0 30.1888 0C49.372 0 60.3776 11.8013 60.3776 32.3771V95.8098C60.3776 116.386 49.372 128.187 30.1888 128.187ZM30.1888 3.41747C12.9167 3.41747 3.41035 13.7054 3.41035 32.3842V95.8169C3.41035 114.496 12.9238 124.784 30.1888 124.784C47.4537 124.784 56.9672 114.496 56.9672 95.8169V32.3842C56.9672 13.7054 47.4537 3.41747 30.1888 3.41747ZM30.1888 110.766C24.9738 110.766 18.7641 108.385 18.7641 97.0389V31.1693C18.7641 19.8227 24.9809 17.4426 30.1888 17.4426C35.3967 17.4426 41.6135 19.8227 41.6135 31.1693V97.0389C41.6135 108.385 35.3967 110.766 30.1888 110.766ZM30.1888 20.8458C26.4587 20.8458 22.1673 22.0181 22.1673 31.1693V97.0389C22.1673 106.19 26.4516 107.362 30.1888 107.362C33.926 107.362 38.2102 106.19 38.2102 97.0389V31.1693C38.2102 22.0181 33.926 20.8458 30.1888 20.8458Z" fill="var(--fill-0, #14B8A6)"/>
</svg>
