<svg preserveAspectRatio="none" width="100%" height="100%" overflow="visible" style="display: block;" viewBox="0 0 41 85" fill="none" xmlns="http://www.w3.org/2000/svg">
<path id="Vector" d="M20.0139 84.9825C7.29618 84.9825 0 77.1587 0 63.5178V21.4646C0 7.82374 7.29618 0 20.0139 0C32.7316 0 40.0278 7.82374 40.0278 21.4646V63.5178C40.0278 77.1587 32.7316 84.9825 20.0139 84.9825ZM20.0139 2.26564C8.56324 2.26564 2.26092 9.08609 2.26092 21.4694V63.5225C2.26092 75.9058 8.56795 82.7263 20.0139 82.7263C31.4598 82.7263 37.7668 75.9058 37.7668 63.5225V21.4694C37.7668 9.08609 31.4598 2.26564 20.0139 2.26564ZM20.0139 73.4329C16.5565 73.4329 12.4398 71.855 12.4398 64.3327V20.6639C12.4398 13.1416 16.5613 11.5637 20.0139 11.5637C23.4665 11.5637 27.588 13.1416 27.588 20.6639V64.3327C27.588 71.855 23.4665 73.4329 20.0139 73.4329ZM20.0139 13.8199C17.541 13.8199 14.696 14.5971 14.696 20.6639V64.3327C14.696 70.3995 17.5363 71.1767 20.0139 71.1767C22.4915 71.1767 25.3318 70.3995 25.3318 64.3327V20.6639C25.3318 14.5971 22.4915 13.8199 20.0139 13.8199Z" fill="var(--fill-0, #14B8A6)"/>
</svg>
