<svg preserveAspectRatio="none" width="100%" height="100%" overflow="visible" style="display: block;" viewBox="0 0 43 40" fill="none" xmlns="http://www.w3.org/2000/svg">
<path id="Vector" d="M30.9348 38.2884C28.8175 38.3523 26.7003 38.4163 24.5901 38.4873C24.4906 35.4038 24.3912 32.3274 24.2917 29.2438C21.5208 32.7821 19.8369 34.4375 16.455 37.1587C15.3395 35.5956 14.3732 34.6222 11.986 33.1515C12.057 35.0699 12.121 36.9882 12.192 38.9065C10.0606 38.9847 7.92908 39.0628 5.80471 39.141C5.56315 32.6187 5.32159 26.0892 5.08002 19.5669C4.55426 20.2561 4.43347 20.4337 3.93613 20.9169C2.96986 18.9772 2.06753 17.7481 0 15.979C3.52404 11.2613 6.63599 4.07822 7.81541 0C9.76215 0.660757 11.716 1.32151 13.6627 1.98227C14.0109 2.09595 14.359 2.33752 14.3732 2.79934C14.3874 3.21853 13.7551 3.41036 13.3715 3.42457C12.8244 4.83134 12.5828 5.3429 10.6005 9.66268C10.8279 9.74084 11.0624 9.81189 11.2897 9.89004C11.5455 9.9682 12.0286 10.16 12.0428 10.6645C12.0499 10.9558 11.6379 11.2258 11.2187 11.4105C11.4744 18.5225 11.7231 25.6345 11.9789 32.7465C14.5153 31.2261 17.9186 27.8299 19.979 24.5262C17.6557 24.6043 15.3324 24.6825 13.0162 24.7677C12.9523 22.8636 12.8812 20.9595 12.8173 19.0554C16.5331 18.9275 20.249 18.7996 23.9649 18.6788C23.9293 17.6699 23.9009 16.661 23.8654 15.6521C21.1584 15.7374 18.4444 15.8297 15.7374 15.9221C15.5669 10.9629 15.3964 6.01076 15.2258 1.05153C22.821 0.788648 30.409 0.554184 38.0042 0.333932C38.1463 5.29316 38.2884 10.2524 38.4305 15.2045C36.0148 15.2756 33.6063 15.3466 31.1906 15.4177C31.1977 15.7516 30.949 15.9718 30.2812 16.2845C30.3025 17.0092 30.3238 17.741 30.3451 18.4657C33.7483 18.3591 37.1516 18.2596 40.5549 18.1673C40.6046 20.0714 40.6614 21.9755 40.7112 23.8796C38.2031 23.9507 35.7022 24.0217 33.1942 24.0999C35.0841 26.1035 38.1889 29.2083 42.4945 31.5671C40.5904 33.2155 39.5602 34.3807 38.4305 36.3487C37.3079 35.6667 34.4162 33.727 30.6861 29.8477C30.7714 32.6613 30.8566 35.4748 30.9419 38.2955L30.9348 38.2884ZM21.9542 5.89708C22.0039 7.41043 22.0537 8.92377 22.1034 10.4371C25.258 10.3376 28.4126 10.2382 31.5671 10.1387C31.5245 8.62537 31.4748 7.11202 31.4321 5.59867C28.2705 5.69104 25.1159 5.79051 21.9542 5.89708Z" fill="var(--fill-0, #0F172A)"/>
</svg>
