<svg preserveAspectRatio="none" width="100%" height="100%" overflow="visible" style="display: block;" viewBox="0 0 7 11" fill="none" xmlns="http://www.w3.org/2000/svg">
<path id="Vector" d="M3.31677 0C2.50518 0 1.80124 0.227743 1.20497 0.68323C0.608696 1.13872 0.21118 1.7764 0.0124224 2.59627L0 2.64596C0 2.70393 0.0331263 2.7412 0.0993789 2.75776L0.857143 2.96894H0.89441C0.960663 2.96894 1.00621 2.93996 1.03106 2.88199C1.21325 2.294 1.49896 1.84679 1.8882 1.54037C2.27743 1.23395 2.75362 1.08075 3.31677 1.08075C3.73913 1.08075 4.1118 1.16149 4.43478 1.32298C4.75776 1.48447 5.01035 1.71014 5.19255 2C5.37474 2.28986 5.46584 2.61284 5.46584 2.96894C5.46584 3.51553 5.27329 3.95031 4.8882 4.27329C4.50311 4.59627 3.98344 4.75776 3.32919 4.75776H2.80745C2.71636 4.75776 2.67081 4.80331 2.67081 4.89441V5.57764C2.67081 5.66874 2.71636 5.71429 2.80745 5.71429H3.35404C3.9089 5.71429 4.36232 5.86542 4.71429 6.1677C5.06625 6.46998 5.24224 6.84886 5.24224 7.30435C5.24224 7.7764 5.05797 8.16563 4.68944 8.47205C4.32091 8.77847 3.85507 8.93168 3.29193 8.93168C2.77019 8.93168 2.32505 8.79296 1.95652 8.51553C1.58799 8.2381 1.32919 7.86335 1.18012 7.3913C1.17184 7.35818 1.15114 7.33333 1.11801 7.31677C1.08489 7.30021 1.04762 7.29607 1.00621 7.30435L0.236025 7.51553C0.144928 7.54037 0.111801 7.59834 0.136646 7.68944C0.335404 8.39337 0.718426 8.95652 1.28571 9.37888C1.853 9.80124 2.52588 10.0124 3.30435 10.0124C3.88406 10.0124 4.40994 9.90269 4.88199 9.68323C5.35404 9.46377 5.72257 9.16149 5.98758 8.7764C6.25259 8.3913 6.38509 7.95859 6.38509 7.47826C6.38509 6.97309 6.24017 6.52381 5.95031 6.13043C5.66046 5.73706 5.25466 5.44513 4.73292 5.25466C5.32091 5.08903 5.77847 4.7971 6.10559 4.37888C6.43271 3.96066 6.59627 3.45342 6.59627 2.85714C6.59627 2.31884 6.45756 1.8323 6.18012 1.39752C5.90269 0.962733 5.51553 0.621118 5.01863 0.372671C4.52174 0.124224 3.95445 0 3.31677 0Z" fill="var(--fill-0, #64748B)"/>
</svg>
