<svg preserveAspectRatio="none" width="100%" height="100%" overflow="visible" style="display: block;" viewBox="0 0 22 28" fill="none" xmlns="http://www.w3.org/2000/svg">
<path id="Vector" d="M20.359 27.5682C20.2955 27.5682 20.2262 27.5682 20.1626 27.5509C9.25066 25.8699 8.58635 18.834 8.00292 12.6184C7.90472 11.5613 7.80074 10.4753 7.65055 9.44707C6.78406 3.53184 1.33673 2.61914 1.10567 2.58448C0.400925 2.47472 -0.0900847 1.81619 0.0138939 1.10567C0.117873 0.400926 0.7764 -0.0900847 1.48114 0.0138939C4.09794 0.395149 9.29688 2.78088 10.2154 9.07159C10.3771 10.1634 10.4811 11.2898 10.5851 12.3758C11.1512 18.4066 11.6422 23.6113 20.5497 24.9803C21.2602 25.0901 21.7454 25.7544 21.6357 26.4649C21.5375 27.1061 20.9829 27.5682 20.3533 27.5682H20.359Z" fill="var(--fill-0, #202933)"/>
</svg>
