<svg preserveAspectRatio="none" width="100%" height="100%" overflow="visible" style="display: block;" viewBox="0 0 64 98" fill="none" xmlns="http://www.w3.org/2000/svg">
<path id="Vector" d="M22.6048 97.1679C19.287 97.1679 15.6771 96.1676 11.8193 94.1698C3.67911 89.9564 1.05299 83.883 0.284167 79.5318C-0.603148 74.5 0.714044 69.9091 2.48592 67.9444C20.0641 45.5989 38.7501 1.20839 38.9375 0.761972C39.1249 0.315559 39.5547 0.017948 40.0397 0.00141416C40.2106 -0.00685275 44.3358 -0.0922773 52.5531 4.0274C61.2664 8.39508 63.3524 13.1651 63.4378 13.3635C63.5618 13.6556 63.5674 13.9863 63.4544 14.2839L46.2482 59.7877C41.6132 72.042 37.1077 86.9362 37.0636 87.085C37.0554 87.1153 37.0444 87.1457 37.0333 87.176C36.9286 87.4433 34.4155 93.7619 27.9177 96.22C26.2423 96.8538 24.4704 97.1707 22.6048 97.1707V97.1679ZM40.8774 2.53936C38.2183 8.75607 20.8688 48.6053 4.40935 69.5096C4.39006 69.5344 4.36802 69.5592 4.34873 69.5812C3.19963 70.8295 1.93755 74.6103 2.72842 79.0964C3.40079 82.8965 5.71828 88.2148 12.9601 91.9625C18.3253 94.7402 23.054 95.3933 27.0166 93.9052C32.2413 91.9432 34.5037 86.7957 34.7076 86.3079C35.0162 85.2884 39.4115 70.8571 43.9307 58.9059L60.9385 13.9256C60.2606 12.7986 57.8329 9.43947 51.4453 6.23742C45.8348 3.42392 42.3269 2.71296 40.8802 2.53384L40.8774 2.53936Z" fill="var(--fill-0, #202933)"/>
</svg>
