<svg preserveAspectRatio="none" width="100%" height="100%" overflow="visible" style="display: block;" viewBox="0 0 32 36" fill="none" xmlns="http://www.w3.org/2000/svg">
<path id="Vector" d="M16.1373 30.221C17.6729 29.5616 18.5773 29.0293 19.7266 28.1673C18.3653 26.4387 17.6352 25.2705 16.8674 23.8669L19.2367 22.1947L17.004 22.0864V18.1722L28.2615 18.7798L30.1456 20.6403C29.1329 24.6346 26.7637 27.6398 26.1372 28.4405C28.8221 30.4659 30.4942 31.1301 31.3986 31.4645C29.8301 33.1649 29.6888 33.3816 28.5065 35.44C25.9253 33.9233 24.1495 32.5432 23.1745 31.7142C20.7346 33.9657 19.1331 34.7428 18.3983 35.1008C17.8754 34.1729 17.2819 33.2403 16.1326 32.058V34.9501L11.2198 34.7852V30.8051C8.25708 31.5728 4.94577 32.1805 1.91707 32.6892C1.67214 33.1084 1.49786 33.3722 1.21996 33.3628C0.871398 33.3486 0.73009 32.92 0.664146 32.4113L0 27.9271C0.838426 27.9601 1.53554 27.9931 2.82144 27.8894V16.2551L0 16.0997V12.2985L31.8178 14.1967V17.8566L16.1326 16.9899V30.2304L16.1373 30.221ZM27.6068 1.73809V12.7365L4.22039 11.3046V0L27.6068 1.73809ZM11.2245 16.7073L7.84258 16.5189V17.9414L11.2245 18.1204V16.7026V16.7073ZM11.2245 21.2244L7.84258 21.0548V22.4773L11.2245 22.6422V21.2244ZM11.2245 25.7792L7.84258 25.6285V27.4325C10.0376 27.1405 10.2825 27.1122 11.2245 26.9238V25.7745V25.7792ZM22.7976 5.71825V4.58779L9.02956 3.61748V4.76678L22.7976 5.71825ZM9.02956 7.37626V8.60564L22.7976 9.49588V8.29005L9.02956 7.38097V7.37626ZM20.8429 22.2701C21.573 23.6314 22.6187 24.9267 22.7929 25.1245C23.768 23.848 24.0835 23.1462 24.3614 22.4444L20.8429 22.2701Z" fill="var(--fill-0, #14B8A6)"/>
</svg>
