<svg preserveAspectRatio="none" width="100%" height="100%" overflow="visible" style="display: block;" viewBox="0 0 8 10" fill="none" xmlns="http://www.w3.org/2000/svg">
<path id="Vector" d="M5.05164 9.6341C4.32579 9.6341 3.57428 9.25651 2.97308 8.55266C2.74212 8.28505 2.5185 7.96979 2.28389 7.58853C1.20244 5.82523 0.0220229 2.7422 2.75287e-05 0.835934C-0.00363837 0.381362 0.359286 0.0074399 0.813858 0.000108092C1.27576 -0.00722371 1.64235 0.359367 1.64968 0.813939C1.66801 2.21798 2.62115 4.97841 3.68793 6.72338C3.87489 7.02398 4.05452 7.27693 4.22681 7.47855C4.51642 7.81582 4.93067 8.09076 5.21661 7.94412C5.47689 7.81215 5.51721 7.10096 5.15795 6.2908C4.97466 5.87289 5.16162 5.38532 5.57953 5.20203C5.99744 5.01873 6.48501 5.20569 6.6683 5.62361C7.39782 7.27326 7.10821 8.83494 5.96445 9.41415C5.67485 9.56079 5.36691 9.63044 5.05164 9.63044V9.6341Z" fill="var(--fill-0, #202933)"/>
</svg>
