<svg preserveAspectRatio="none" width="100%" height="100%" overflow="visible" style="display: block;" viewBox="0 0 29 10" fill="none" xmlns="http://www.w3.org/2000/svg">
<path id="Vector" d="M24.3585 9.49094H1.13605C0.764995 9.49094 0.419165 9.3092 0.20461 9.0063C-0.00742187 8.70339 -0.0578846 8.31466 0.0683246 7.96633L1.7772 3.27135C1.79235 3.22591 1.81253 3.183 1.83273 3.14261L2.70356 0.747164C2.86763 0.297859 3.29421 0 3.77128 0H26.9938C27.3648 0 27.7107 0.181745 27.9252 0.484647C28.1373 0.787549 28.1877 1.17627 28.0615 1.52461L26.3527 6.21959C26.3375 6.26503 26.3173 6.30794 26.2971 6.34833L25.4263 8.74378C25.2622 9.19308 24.8356 9.49094 24.3585 9.49094ZM2.75911 7.21917H23.5634L24.2096 5.44214C24.2248 5.39671 24.245 5.3538 24.2652 5.31341L25.3733 2.27177H4.56893L3.92276 4.04879C3.90761 4.09423 3.8874 4.13714 3.8672 4.17753L2.75911 7.21917Z" fill="var(--fill-0, #212C68)"/>
</svg>
