<svg preserveAspectRatio="none" width="100%" height="100%" overflow="visible" style="display: block;" viewBox="0 0 41 25" fill="none" xmlns="http://www.w3.org/2000/svg">
<path id="Vector" d="M37.1666 24.6327C36.8966 24.6327 36.6266 24.5333 36.4135 24.3343C35.973 23.9222 35.9517 23.226 36.3637 22.7855L38.3602 20.654L21.82 2.71408L1.89781 24.2349C1.48573 24.6754 0.789444 24.7038 0.348939 24.2917C-0.0915658 23.8796 -0.119984 23.1904 0.292101 22.7428L21.0242 0.355246C21.2303 0.127888 21.5216 0 21.8271 0C22.1326 0 22.4239 0.127888 22.6299 0.355246L40.6622 19.9222C41.053 20.3414 41.0459 20.995 40.6622 21.4142L37.9624 24.2846C37.7492 24.5119 37.4579 24.6327 37.1666 24.6327Z" fill="var(--fill-0, #14B8A6)"/>
</svg>
