<svg preserveAspectRatio="none" width="100%" height="100%" overflow="visible" style="display: block;" viewBox="0 0 55 39" fill="none" xmlns="http://www.w3.org/2000/svg">
<path id="Vector" d="M41.5015 14.9678C41.5015 14.9678 43.2255 16.4268 44.1948 21.1066C44.8259 24.1533 45.0177 25.3321 45.5024 30.6607C46.0072 36.2139 48.5465 37.317 48.5465 37.317C48.5465 37.317 49.8112 36.8424 50.9142 37.1201C52.0173 37.3977 52.5272 38.0692 52.5272 38.0692C52.5272 38.0692 53.1279 33.8815 53.3904 33.3792C53.8776 32.4453 54.385 30.8147 54.4758 30.2063C54.6525 29.0099 54.1351 26.1197 54.1351 26.1197C54.1351 26.1197 54.5692 22.2047 52.3479 16.5404C50.8612 12.7465 49.0463 9.11425 45.3433 6.37298C39.5857 2.10963 36.4961 2.89465 36.4961 2.89465C36.4961 2.89465 33.0127 -1.26015 22.656 0.385615C16.9841 1.28675 11.0674 5.8429 8.85623 7.86477C4.41619 11.9262 2.12173 12.5825 0.327034 21.0334C-0.346923 24.2038 0.183147 27.5711 0.475952 30.3073C0.96312 34.866 1.50077 37.8243 1.50077 37.8243C1.50077 37.8243 2.33628 37.1504 3.45954 37.0847C4.58028 37.0191 5.65053 37.3876 5.65053 37.3876C5.65053 37.3876 6.94544 36.5269 7.28116 34.9568C7.96269 31.7764 6.66778 27.6847 10.7065 24.7667C12.8167 23.2446 18.4431 22.1188 22.7468 19.2615C26.5053 16.765 28.7367 14.6927 30.3143 13.8345C35.759 10.8812 41.4965 14.9704 41.4965 14.9704L41.5015 14.9678Z" fill="var(--fill-0, #212C68)"/>
</svg>
