<svg preserveAspectRatio="none" width="100%" height="100%" overflow="visible" style="display: block;" viewBox="0 0 72 83" fill="none" xmlns="http://www.w3.org/2000/svg">
<path id="Vector" d="M50.793 82.6113C50.3218 82.6113 49.8864 82.3275 49.7045 81.8811C44.072 68.1305 34.6367 45.7382 33.2506 44.0572C30.5253 41.3732 23.5425 37.0992 19.2795 35.9364C16.6534 35.2199 14.2615 34.8534 12.1507 34.531C8.19085 33.9247 5.33049 33.4866 5.22302 30.9211C5.22302 30.9101 5.22302 30.9018 5.22302 30.8908C5.20649 30.0007 5.51788 29.2126 6.11585 28.6091C7.66452 27.0522 10.7536 27.088 13.0105 27.1156H13.3687C13.636 27.1211 13.9143 27.1321 14.1981 27.1486C13.2033 26.7739 12.0708 26.3936 10.8225 26.0464C9.373 25.6441 7.88498 25.3823 6.57329 25.1508C3.18386 24.5528 -0.318559 23.9328 0.0231398 20.6949C0.125098 19.736 0.585275 18.9368 1.35134 18.383C3.55034 16.7957 8.06133 17.5012 12.1838 18.4023C12.2719 18.4215 12.3601 18.4408 12.4483 18.4601C12.0818 18.2617 11.7208 18.0661 11.3763 17.8787C10.1528 17.2173 8.5794 16.6938 7.05553 16.184C3.6909 15.0624 0.513635 14.0043 0.634883 11.2927C0.667951 10.1409 1.16949 9.20945 2.09263 8.6225C5.22027 6.62466 12.4703 9.48225 14.617 10.4081C16.1133 11.0502 17.7529 11.8245 19.2216 12.5438C18.7229 12.0918 18.2159 11.6482 17.7391 11.2569C16.7361 10.4357 15.5401 9.70822 14.3828 9.00553C11.7814 7.42655 9.32617 5.93851 9.74228 3.5411C9.94619 2.36169 10.6048 1.49918 11.6464 1.05276C14.2367 -0.0577587 18.5383 1.80505 21.4372 3.73675C24.8569 6.01842 32.8593 12.6209 34.8461 14.2688L37.0561 13.8058C37.1526 12.2158 37.486 8.91735 38.6186 6.06802C40.1783 2.14675 42.1265 0.722087 43.4878 0.217805C44.3834 -0.115627 45.8521 -0.129405 46.9544 0.628395C47.5827 1.05827 48.335 1.89874 48.3598 3.4667C48.3735 4.44495 48.0125 5.58303 47.5909 6.89747C46.8221 9.30314 45.8687 12.2985 46.8717 15.3766C47.7205 17.9724 49.0597 20.0474 50.3576 22.0535C51.5095 23.8364 52.5979 25.5201 53.127 27.3222C54.0832 30.5877 53.973 36.391 53.9289 37.813L70.956 71.3187C71.1627 71.7238 71.1158 72.2088 70.8402 72.5698C70.7328 72.7103 68.1342 76.0391 62.3997 78.8306C56.1858 81.8563 51.1705 82.5728 50.9611 82.6003C50.906 82.6086 50.8536 82.6113 50.7985 82.6113H50.793ZM34.8902 42.368C35.3036 42.7511 36.2212 43.7265 44.1601 62.4594C47.376 70.0484 50.4871 77.5878 51.5205 80.1065C53.1821 79.7703 56.9821 78.8416 61.3608 76.7115C65.2435 74.8211 67.5555 72.6607 68.4869 71.6742L51.683 38.6093C51.5921 38.4302 51.548 38.2291 51.5563 38.0279C51.5591 37.9618 51.8208 31.2766 50.8591 27.9864C50.4265 26.5148 49.4758 25.0406 48.3735 23.3348C47.0591 21.3012 45.5683 18.9975 44.6259 16.1096C43.3858 12.3095 44.5156 8.76854 45.3396 6.18376C45.6813 5.11182 46.0037 4.09774 45.9954 3.50528C45.9871 2.89904 45.775 2.6841 45.6151 2.57663C45.2156 2.30382 44.557 2.33689 44.3007 2.43334C43.7 2.65654 42.1541 3.54386 40.801 6.94707C39.437 10.3751 39.3654 14.751 39.3654 14.7924C39.3571 15.3435 38.9685 15.8175 38.4284 15.9304L34.7634 16.6993C34.4107 16.7737 34.0442 16.6827 33.7659 16.4513C33.6667 16.3686 23.8511 8.19537 20.12 5.70428C17.1935 3.75329 13.8757 2.66205 12.5668 3.2242C12.3491 3.3179 12.1397 3.46946 12.0543 3.94894C11.9137 4.76185 13.9556 6.00189 15.5952 6.99667C16.8243 7.74069 18.0918 8.51227 19.2244 9.44092C21.473 11.2844 24.2066 14.0952 24.3223 14.2137C24.642 14.5416 24.7412 15.0266 24.5759 15.4537L24.2562 16.2859C24.1349 16.6001 23.8869 16.8481 23.57 16.9666C23.2531 17.0851 22.9032 17.063 22.6056 16.9059C22.556 16.8784 17.6013 14.266 13.6773 12.5768C9.11121 10.6121 4.67189 9.7716 3.35194 10.6148C3.16731 10.7333 2.99371 10.9069 2.98269 11.3864C2.94136 12.3398 5.74383 13.274 7.79402 13.9547C9.41434 14.4948 11.087 15.0514 12.4924 15.812C16.2897 17.8649 21.7017 20.8079 21.7017 20.8079C22.228 21.0945 22.4568 21.7283 22.2308 22.2849C22.0076 22.8416 21.4014 23.1392 20.8254 22.9794C20.7786 22.9656 16.1354 21.6815 11.6767 20.7087C6.82682 19.6506 3.81488 19.5128 2.7264 20.2981C2.5032 20.4607 2.39298 20.6536 2.36267 20.9485C2.33236 21.2433 2.29931 21.5464 3.13426 21.9184C4.01056 22.3097 5.38561 22.555 6.97836 22.8361C8.3424 23.0786 9.88831 23.3514 11.4452 23.7813C16.7223 25.2417 19.9932 27.2506 20.1283 27.336C20.481 27.5565 20.6932 27.945 20.6849 28.3611L20.6683 29.0969C20.6601 29.4468 20.4975 29.7748 20.2247 29.9925C19.9519 30.2102 19.5964 30.2956 19.2547 30.2267C19.2189 30.2184 15.6834 29.502 13.3411 29.4799H12.9774C11.4563 29.4579 8.629 29.4248 7.78026 30.2763C7.67555 30.381 7.57083 30.5298 7.57083 30.8357C7.62595 31.4585 10.3265 31.8718 12.4979 32.2052C14.5619 32.5221 17.1329 32.9134 19.8885 33.6657C24.5979 34.9498 31.9307 39.4691 34.8819 42.368H34.8902ZM33.2616 44.0682C33.2616 44.0682 33.2726 44.0793 33.2781 44.0848C33.2726 44.0793 33.2671 44.0738 33.2616 44.0682Z" fill="var(--fill-0, #202933)"/>
</svg>
