<svg preserveAspectRatio="none" width="100%" height="100%" overflow="visible" style="display: block;" viewBox="0 0 7 14" fill="none" xmlns="http://www.w3.org/2000/svg">
<path id="Vector" d="M0.823045 13.7966C0.606756 13.7966 0.397805 13.7123 0.243837 13.5583C0.0642077 13.3787 -0.0237773 13.1294 0.00554988 12.8801L0.489452 8.61303C0.540774 8.16212 0.951352 7.83586 1.40226 7.88718C1.85316 7.93851 2.17943 8.34909 2.12811 8.79999L1.78718 11.7877C3.20955 11.0105 4.68691 9.03828 4.73823 5.85994C4.77123 3.83636 4.37897 2.43232 3.63113 1.90443C3.23888 1.62949 2.76964 1.61849 2.38105 1.68814L2.3444 3.1435C2.3334 3.59808 1.94848 3.95734 1.50124 3.95C1.04667 3.93901 0.683744 3.56142 0.694741 3.10685L0.746064 1.04294C0.753396 0.70568 0.966017 0.408741 1.27762 0.291432C2.50203 -0.174138 3.67512 -0.078824 4.57693 0.555377C5.81967 1.42786 6.42821 3.22415 6.38422 5.8856C6.30724 10.5853 3.51382 13.4667 0.922026 13.7893C0.889032 13.793 0.852374 13.7966 0.819381 13.7966H0.823045Z" fill="var(--fill-0, #202933)"/>
</svg>
