<svg preserveAspectRatio="none" width="100%" height="100%" overflow="visible" style="display: block;" viewBox="0 0 37 42" fill="none" xmlns="http://www.w3.org/2000/svg">
<path id="Vector" d="M35.8765 31.7997C35.4878 31.3075 34.7735 31.2242 34.2813 31.6129C34.1727 31.6987 23.3061 40.1951 15.1454 39.4C10.5792 38.9532 1.40375 27.9882 2.33517 17.321C2.70875 13.0475 2.53458 10.3946 2.39575 8.26166C2.34274 7.44382 2.29479 6.73957 2.28974 6.06562C2.28217 5.01303 2.23419 3.04417 2.40331 2.10264C2.57243 1.16112 2.82739 0.691627 2.36546 0C2.29983 0.0656288 2.21401 0.0807741 2.12566 0.0732016C1.88334 0.244846 1.68393 0.419015 1.5249 0.605805C0.010392 2.39798 0.0179719 5.93183 0.0179719 6.08328C0.0255445 6.82287 0.0760288 7.59275 0.129037 8.41058C0.262818 10.4653 0.431931 13.0223 0.0734966 17.1215C-0.938702 28.7 8.73398 41.0533 14.9258 41.6591C15.3625 41.7021 15.8017 41.7222 16.2485 41.7222C25.0554 41.7222 35.243 33.7509 35.6923 33.395C36.1845 33.0062 36.2678 32.2919 35.8791 31.7997H35.8765Z" fill="var(--fill-0, #212C68)"/>
</svg>
