<svg preserveAspectRatio="none" width="100%" height="100%" overflow="visible" style="display: block;" viewBox="0 0 40 31" fill="none" xmlns="http://www.w3.org/2000/svg">
<path id="Vector" d="M25.9782 30.4424C25.6127 30.4424 25.2656 30.2741 25.0421 29.9822L16.02 18.2779L11.037 17.0052L2.57498 27.016C2.25943 27.3894 1.74403 27.5314 1.28123 27.3684C0.818423 27.208 0.502868 26.7767 0.487091 26.2876L0.000624808 10.7442C-0.0204118 10.092 0.492352 9.54508 1.14712 9.52405C1.79925 9.50301 2.34621 10.0158 2.36725 10.6705L2.75642 23.1321L9.7064 14.9094C9.99828 14.5623 10.4637 14.4151 10.9029 14.5281L17.0009 16.0875C17.2559 16.1532 17.4847 16.3031 17.6451 16.5108L25.7968 27.0844C28.3817 22.1776 36.0022 7.3862 37.4485 0.925326C37.5905 0.286338 38.2242 -0.113359 38.8605 0.0286381C39.4995 0.170635 39.8992 0.804363 39.7572 1.44072C37.9481 9.52668 27.4666 28.9987 27.0222 29.8218C26.8329 30.1741 26.4752 30.4055 26.0755 30.4397C26.044 30.4397 26.0124 30.4424 25.9809 30.4424H25.9782Z" fill="var(--fill-0, #202933)"/>
</svg>
