<svg preserveAspectRatio="none" width="100%" height="100%" overflow="visible" style="display: block;" viewBox="0 0 27 27" fill="none" xmlns="http://www.w3.org/2000/svg">
<path id="Vector" d="M22.5653 26.5446C22.5306 26.5446 22.496 26.5446 22.4613 26.5446C21.8663 26.4984 21.3811 26.0536 21.2829 25.4643C20.7052 22.0273 19.5557 16.6897 18.7989 15.569C18.0307 14.4311 15.824 13.8418 15.1135 13.7205C14.8593 13.6801 8.69569 12.6692 5.96336 8.85665C4.49611 6.80596 3.79136 4.48955 3.46787 2.99341C2.99997 3.35156 2.57828 4.02164 2.60138 5.28094C2.65915 7.79376 4.3979 9.42853 4.41523 9.44586C4.94668 9.92532 4.99289 10.7456 4.51343 11.2828C4.03398 11.8143 3.2137 11.8605 2.67648 11.381C2.5725 11.2886 0.0770122 9.00684 0.00191652 5.33871C-0.0905089 1.09291 3.18482 0.047348 4.45567 0.00113528C5.14886 -0.0277477 5.73807 0.497922 5.79584 1.18534C5.79584 1.22 6.13088 4.63974 8.07181 7.34318C10.1629 10.2661 15.4716 11.1442 15.5236 11.1557C15.928 11.2193 19.4344 11.8547 20.9536 14.1191C21.6006 15.0838 22.2418 17.3194 22.7559 19.5433C23.0447 18.2032 23.2989 16.759 23.4202 15.3957C23.4838 14.6794 24.1307 14.1538 24.8297 14.2173C25.546 14.2809 26.0717 14.9105 26.0081 15.6268C25.598 20.2423 23.865 25.447 23.7957 25.6665C23.6166 26.198 23.1198 26.5561 22.5653 26.5561V26.5446Z" fill="var(--fill-0, #202933)"/>
</svg>
