<svg preserveAspectRatio="none" width="100%" height="100%" overflow="visible" style="display: block;" viewBox="0 0 14 19" fill="none" xmlns="http://www.w3.org/2000/svg">
<path id="Vector" d="M11.1193 18.7384C11.7529 18.6803 12.3713 18.5465 12.9645 18.3345C13.5551 18.1225 13.8631 17.4737 13.6511 16.8831C13.439 16.2924 12.7903 15.9845 12.1997 16.1965C10.4706 16.8149 8.39823 16.4792 6.51519 15.2777C4.16265 13.7758 2.55977 11.2693 2.33007 8.74007C2.05493 5.70347 2.8122 3.62607 4.51855 2.73756C6.13402 1.897 8.0423 2.3564 8.61529 2.83852C9.77894 3.82043 10.1803 5.12291 10.1828 5.13553C10.357 5.73881 10.988 6.08462 11.5888 5.91046C12.1921 5.73629 12.5379 5.10524 12.3637 4.50449C12.341 4.42371 11.7806 2.54067 10.0768 1.10441C8.72889 -0.0339981 5.81849 -0.500971 3.46595 0.723259C1.98678 1.49314 -0.421289 3.58568 0.0633544 8.94705C0.353636 12.1603 2.35533 15.3206 5.28591 17.1936C7.14876 18.385 9.19333 18.9151 11.1117 18.7409L11.1193 18.7384Z" fill="var(--fill-0, #212C68)"/>
</svg>
