<svg preserveAspectRatio="none" width="100%" height="100%" overflow="visible" style="display: block;" viewBox="0 0 32 53" fill="none" xmlns="http://www.w3.org/2000/svg">
<path id="Vector" d="M20.4743 49.8148L18.9782 42.6229C18.9782 42.6229 19.5443 40.9881 18.9782 37.8457C18.4988 35.1827 17.5803 32.0055 17.5803 32.0055L22.346 29.8797C22.346 29.8797 28.3883 29.5794 29.9306 27.4651C31.473 25.3509 29.9306 23.8085 29.9306 23.8085C29.9306 23.8085 32.1026 23.1962 31.9524 20.9607C31.8196 18.962 29.5205 18.6847 29.5205 18.6847C29.5205 18.6847 31.7676 18.1648 31.3517 15.9639C30.9762 13.9883 28.4749 13.8959 28.4749 13.8959C28.4749 13.8959 21.4275 13.1276 19.1515 13.5089C16.8755 13.8959 8.67278 15.5596 8.67278 15.5596L12.9417 9.16489C12.9417 9.16489 20.9885 4.85555 20.9076 2.21565C20.8267 -0.458912 18.0309 -0.2394 16.8467 0.448014C15.6625 1.13543 10.2209 4.26056 8.92117 5.17904C7.62144 6.09752 0.677975 14.2021 0.0945393 17.1019C-0.419577 19.6667 1.33073 26.3214 1.33073 26.3214C1.33073 26.3214 3.47962 39.2667 3.62404 42.9695C3.76845 46.6723 3.89554 51.7384 3.89554 51.7384C3.89554 51.7384 5.59385 52.8301 12.7337 52.212C18.1926 51.7384 20.4743 49.8032 20.4743 49.8032V49.8148Z" fill="var(--fill-0, #FFEBE1)"/>
</svg>
