<svg preserveAspectRatio="none" width="100%" height="100%" overflow="visible" style="display: block;" viewBox="0 0 104 37" fill="none" xmlns="http://www.w3.org/2000/svg">
<path id="Vector" d="M48.6839 36.1196C48.5855 36.1196 48.4896 36.107 48.3937 36.0817L0.845596 23.4936C0.348331 23.3624 0 22.9105 0 22.3956V16.4486C0 15.9413 0.335719 15.497 0.822887 15.3556L54.4063 0.0439422C54.5602 0.00103104 54.7218 -0.0115911 54.8783 0.0111266L102.318 6.77341C102.878 6.85419 103.295 7.33378 103.295 7.89668V13.8386C103.295 14.3056 103.009 14.7246 102.575 14.8962L49.1004 36.0388C48.9667 36.0918 48.8253 36.1196 48.6839 36.1196ZM2.27177 21.5222L48.6133 33.7898L101.023 13.0687V8.88615L54.7975 2.29804L2.27177 17.3094V21.5247V21.5222Z" fill="var(--fill-0, #212C68)"/>
</svg>
