<svg preserveAspectRatio="none" width="100%" height="100%" overflow="visible" style="display: block;" viewBox="0 0 14 13" fill="none" xmlns="http://www.w3.org/2000/svg">
<path id="Vector" d="M13.9374 11.7266L7.24254 0.129609C7.14191 -0.0432032 6.85754 -0.0432032 6.75691 0.129609L0.0369142 11.7693C-0.0123047 11.8557 -0.0123047 11.9629 0.0369142 12.0493C0.0872265 12.1357 0.180195 12.1893 0.279727 12.1893H13.7197C13.7219 12.1893 13.7241 12.1893 13.7252 12.1893C13.8805 12.1893 14.0052 12.0646 14.0052 11.9093C14.0052 11.8393 13.98 11.7759 13.9374 11.7266ZM6.57754 4.42367C6.57754 4.36352 6.61801 4.32305 6.67816 4.32305H7.32129C7.38145 4.32305 7.42082 4.36352 7.42082 4.42367V8.47273C7.42082 8.53289 7.38145 8.57336 7.32129 8.57336H6.67816C6.61801 8.57336 6.57754 8.53289 6.57754 8.47273V4.42367ZM7.4416 10.2118C7.4416 10.272 7.40113 10.3113 7.34207 10.3113H6.65848C6.59832 10.3113 6.55895 10.2709 6.55895 10.2118V9.47789C6.55895 9.41773 6.59941 9.37836 6.65848 9.37836H7.34207C7.40223 9.37836 7.4416 9.41773 7.4416 9.47789V10.2118Z" fill="var(--fill-0, #FFF042)"/>
</svg>
