<svg preserveAspectRatio="none" width="100%" height="100%" overflow="visible" style="display: block;" viewBox="0 0 15 20" fill="none" xmlns="http://www.w3.org/2000/svg">
<path id="Vector" d="M3.43401 19.5668C2.52418 19.5668 1.63275 19.4195 0.788656 19.1197C0.173334 18.9015 -0.150102 18.2257 0.0681532 17.6104C0.286408 16.995 0.962208 16.6716 1.57753 16.8899C3.38142 17.5288 5.53768 17.1712 7.49408 15.9143C9.93959 14.3418 11.6015 11.7254 11.8303 9.09051C12.1064 5.9245 11.3122 3.76562 9.52938 2.84526C7.84382 1.97487 5.85586 2.46134 5.26157 2.96359C4.05723 3.9865 3.63649 5.35388 3.63386 5.36966C3.44716 5.99287 2.79239 6.35312 2.16655 6.16905C1.54071 5.98761 1.18046 5.33811 1.35927 4.71227C1.38294 4.62812 1.96145 2.66382 3.72852 1.16233C5.12746 -0.0262367 8.15936 -0.525856 10.6128 0.744231C12.1563 1.54099 14.6728 3.71303 14.1837 9.29825C13.8919 12.6483 11.8171 15.9458 8.76942 17.9049C7.06283 19.0014 5.2116 19.5668 3.42875 19.5668H3.43401Z" fill="var(--fill-0, #202933)"/>
</svg>
