<svg preserveAspectRatio="none" width="100%" height="100%" overflow="visible" style="display: block;" viewBox="0 0 27 60" fill="none" xmlns="http://www.w3.org/2000/svg">
<path id="Vector" d="M5.48111 58.9987L3.05788 49.0609C3.05788 49.0609 -0.440633 45.8477 0.0465346 40.0698C0.346913 36.5031 2.63382 31.3942 2.63382 31.3942C2.05074 30.7455 1.50299 29.8569 1.15717 28.7312C0.192936 25.6012 0.36458 23.5995 1.66201 21.9865C2.33344 21.151 3.13866 20.9037 3.76213 20.8582C3.83029 20.4064 3.94136 20.0328 4.10543 19.7627C4.81472 18.5865 6.19545 17.9958 8.47226 18.4653C8.90138 17.3824 9.65358 16.8221 10.537 16.6378C10.6734 16.0295 11.0974 15.6205 11.885 15.4943C13.4676 15.2394 14.1618 16.0698 15.5501 16.8044C16.2139 17.1578 16.8071 17.342 18.2686 17.65C18.5488 14.7497 18.7482 11.703 19.349 9.28989C20.0431 6.51076 20.765 2.02529 23.3018 0.409808C23.7057 0.152341 24.6068 -0.337351 25.6317 0.354276C26.3839 0.861637 26.6514 1.84102 26.3738 3.15107C26.0658 4.605 25.1294 7.62645 24.6068 10.0901C23.9632 13.1342 23.8269 19.9142 23.8218 21.1384C23.8218 21.1384 24.6901 27.9335 22.1458 33.5094C20.3511 37.4396 17.8269 44.2221 17.8269 44.2221L20.4091 53.9781C20.4091 53.9781 18.6624 56.9339 13.6696 58.5594C8.67673 60.185 5.48111 59.0037 5.48111 59.0037V58.9987Z" fill="var(--fill-0, #FFEBE1)"/>
</svg>
