<svg preserveAspectRatio="none" width="100%" height="100%" overflow="visible" style="display: block;" viewBox="0 0 9 6" fill="none" xmlns="http://www.w3.org/2000/svg">
<path id="Vector" d="M1.0103 5.07116C0.967389 5.07116 0.927002 5.06863 0.884091 5.06359C0.331295 4.99543 -0.0624708 4.4906 0.0082064 3.93528C0.237907 2.09767 2.09572 0.785093 2.95899 0.436755C6.0486 -0.807668 8.04017 0.994601 8.12347 1.07285C8.53238 1.45148 8.55509 2.09262 8.17646 2.49901C7.80036 2.90541 7.16679 2.93065 6.75787 2.5596C6.69224 2.50406 5.56395 1.56507 3.71372 2.3097C3.18869 2.52173 2.11339 3.3749 2.01243 4.18517C1.94932 4.69505 1.51262 5.06863 1.01283 5.06863L1.0103 5.07116Z" fill="var(--fill-0, #212C68)"/>
</svg>
