<svg preserveAspectRatio="none" width="100%" height="100%" overflow="visible" style="display: block;" viewBox="0 0 85 127" fill="none" xmlns="http://www.w3.org/2000/svg">
<path id="Vector" d="M55.6374 126.031H58.123C58.123 125.99 58.1258 125.951 58.123 125.91C58.1037 125.739 56.0563 108.549 48.8227 93.4045C38.1226 71.0012 5.87613 22.9814 2.54457 18.0378C2.81187 16.6876 3.99404 12.2455 8.5739 7.59947C13.0518 3.06094 16.7278 2.51533 17.9954 2.47675C20.3267 5.56857 33.6337 23.0751 47.3237 38.1071C57.9604 49.7855 66.5883 58.204 66.6765 58.2894C66.9273 58.5347 67.269 58.6587 67.6189 58.6394C67.9689 58.6173 68.2913 58.4492 68.5118 58.1764C68.9361 57.6473 69.8152 56.6801 70.3718 56.3357C70.978 55.9609 71.5733 55.6605 72.3063 55.4759C72.2511 58.7937 71.3418 63.3488 71.3308 63.4011C71.2977 63.572 71.2977 63.7456 71.3363 63.9164C71.3886 64.1506 76.583 87.5074 79.2532 102.176C80.9893 111.716 81.7912 124.835 81.86 126.034H84.3401C84.3401 126.017 84.3429 126.001 84.3401 125.984C84.3319 125.844 83.5327 111.84 81.692 101.732C79.1623 87.8464 74.384 66.2174 73.8108 63.6326C74.0478 62.3953 74.9985 57.1761 74.7422 53.9493C74.6899 53.2741 74.1029 52.7671 73.4306 52.8084C71.7937 52.9104 70.5289 53.321 69.0629 54.2304C68.5228 54.5665 67.9413 55.1122 67.4784 55.5999C64.979 53.1226 57.7262 45.8477 49.1589 36.44C34.2427 20.0605 19.7701 0.710385 19.624 0.51749C19.4256 0.250193 19.1252 0.0738314 18.7946 0.0297412C18.5686 -0.000570764 13.2089 -0.631613 6.80754 5.85791C0.684517 12.0636 0.0314326 17.9524 0.00663191 18.2004C-0.0236801 18.4897 0.0507221 18.7791 0.213305 19.0188C0.56327 19.5369 35.4303 71.1252 46.5824 94.4709C53.2648 108.461 55.4142 124.273 55.6374 126.031Z" fill="var(--fill-0, #202933)"/>
</svg>
