<svg preserveAspectRatio="none" width="100%" height="100%" overflow="visible" style="display: block;" viewBox="0 0 53 51" fill="none" xmlns="http://www.w3.org/2000/svg">
<path id="Vector" d="M47.1198 14.9345C47.1198 15.2827 46.5585 38.6649 43.5745 45.0452C41.2654 49.9262 37.3861 50.4449 30.9206 50.4449C29.0094 50.4449 27.7731 50.388 26.5369 50.3312C26.0892 44.5265 24.6256 41.8266 23.8938 40.3914C25.3574 40.7964 29.0662 41.8266 31.8797 41.8266C33.6773 41.8266 35.4251 41.8266 36.4908 37.2297C37.0521 34.7004 37.6703 30.8495 37.8976 23.3254H23.9507C22.9418 30.679 20.4622 39.9865 8.3767 50.2175C4.04981 46.5372 2.58619 45.6207 0 44.8178C15.1832 33.727 15.2401 24.4196 15.3537 7.92909H0.618124V0H52.1288V7.92909H24.853C24.7393 13.7906 24.6825 14.4798 24.6825 14.9416H47.1198V14.9345Z" fill="var(--fill-0, #14B8A6)"/>
</svg>
