<svg preserveAspectRatio="none" width="100%" height="100%" overflow="visible" style="display: block;" viewBox="0 0 24 7" fill="none" xmlns="http://www.w3.org/2000/svg">
<path id="Vector" d="M1.13508 6.43427C0.902859 6.43427 0.668103 6.36359 0.466169 6.21719C-0.0411924 5.84866 -0.14973 5.13179 0.216277 4.62443C0.337438 4.45784 1.48342 2.96352 4.52506 1.90841C6.19102 1.33037 8.73287 1.083 12.7665 1.10572C17.3176 1.13096 22.52 0.0354562 22.5705 0.0253594C23.1838 -0.105898 23.7871 0.285356 23.9184 0.898733C24.0496 1.51211 23.6584 2.1154 23.045 2.24665C22.8229 2.29461 17.5726 3.4103 12.7539 3.37748C10.4165 3.36486 7.09972 3.41787 5.26968 4.05396C2.91462 4.8718 2.05388 5.95973 2.04631 5.96983C1.82671 6.27525 1.48342 6.43427 1.13508 6.43427Z" fill="var(--fill-0, #212C68)"/>
</svg>
