<svg preserveAspectRatio="none" width="100%" height="100%" overflow="visible" style="display: block;" viewBox="0 0 11 7" fill="none" xmlns="http://www.w3.org/2000/svg">
<path id="Vector" d="M1.1561 6.60225C1.1561 6.60225 1.11567 6.60225 1.09834 6.60225C0.468688 6.56759 -0.0223232 6.0477 0.000783179 5.41227C0.000783179 5.29096 0.145196 2.48354 3.21257 0.76212C6.60342 -1.13838 9.60725 1.10294 9.73434 1.19536C10.2427 1.5824 10.3409 2.31024 9.95385 2.81281C9.56682 3.31537 8.84474 3.41935 8.34218 3.03232C8.24976 2.963 6.38969 1.62861 4.35055 2.77237C2.45006 3.83526 2.32297 5.44116 2.3172 5.5047C2.27676 6.11702 1.76842 6.5907 1.16188 6.5907L1.1561 6.60225Z" fill="var(--fill-0, #202933)"/>
</svg>
