<svg preserveAspectRatio="none" width="100%" height="100%" overflow="visible" style="display: block;" viewBox="0 0 65 79" fill="none" xmlns="http://www.w3.org/2000/svg">
<path id="Vector" d="M32.0694 78.8678C30.1804 78.8678 28.7883 78.5039 28.7305 78.4923C21.3018 76.4763 12.1748 68.2851 8.7897 60.6022C8.37956 59.6491 8.02142 58.5631 7.70948 57.3673C3.90271 56.3506 0.113261 51.9547 0.003506 45.0921C-0.0658131 40.8925 0.893101 38.0677 2.85137 36.6929C3.83339 36.0055 5.01759 35.7224 6.29421 35.8495V24.8971C6.29421 21.0441 7.27046 17.2316 9.11319 13.8811C11.9495 8.72265 18.685 0.0577659 31.9654 0H32.1733C45.4595 0.0577659 52.195 8.72265 55.0313 13.8811C56.874 17.2373 57.8445 21.0441 57.8445 24.8971V35.8495C59.1211 35.7167 60.3053 35.9997 61.2874 36.6929C63.2456 38.0677 64.2045 40.8983 64.1352 45.0921C64.0255 51.9547 60.236 56.3564 56.4292 57.3673C56.1173 58.5631 55.7534 59.6433 55.3548 60.5849C51.9582 68.2851 42.8311 76.4763 35.414 78.4865C35.3447 78.5039 33.9583 78.8678 32.0694 78.8678ZM5.69345 38.4201C5.2371 38.4201 4.76342 38.5241 4.34173 38.8187C3.1633 39.6447 2.5452 41.8572 2.59719 45.0516C2.70117 51.3597 6.35776 54.6465 8.92834 54.97C9.47134 55.0394 9.91036 55.4322 10.0317 55.9636C10.3494 57.3442 10.7364 58.5573 11.1697 59.5682C14.2255 66.5001 22.7459 74.1772 29.4006 75.9853C29.4006 75.9853 30.5328 76.2741 32.0636 76.2741C33.5944 76.2741 34.7266 75.9853 34.7381 75.9853C41.3812 74.183 49.9017 66.5059 52.9633 59.5566C53.3908 58.5573 53.772 57.3442 54.0955 55.9636C54.2168 55.4322 54.6616 55.0336 55.1988 54.97C57.7636 54.6523 61.426 51.3597 61.53 45.0516C61.582 41.8629 60.9639 39.6505 59.7854 38.8187C58.8496 38.1602 57.6423 38.4663 57.0011 38.7089C56.9665 38.7205 56.926 38.7378 56.8856 38.7436C56.539 38.8418 56.1635 38.7898 55.8574 38.5992C55.4761 38.3623 55.2393 37.9464 55.2393 37.4958V24.9029C55.2393 21.4831 54.3786 18.1096 52.7438 15.1347C50.1847 10.473 44.1078 2.65145 32.1618 2.59947H31.9654C20.0194 2.65145 13.9424 10.473 11.3892 15.1347C9.75439 18.1096 8.89368 21.4831 8.89368 24.9029V37.4958C8.89368 37.9233 8.68572 38.3219 8.33335 38.5645C7.98098 38.8071 7.53618 38.8591 7.13182 38.7089C6.77945 38.5761 6.25378 38.4201 5.69345 38.4201Z" fill="var(--fill-0, #202933)"/>
</svg>
