<svg preserveAspectRatio="none" width="100%" height="100%" overflow="visible" style="display: block;" viewBox="0 0 75 16" fill="none" xmlns="http://www.w3.org/2000/svg">
<path id="Vector" d="M1.18394 15.1543C1.17079 15.1543 1.15767 15.1543 1.14452 15.1543C0.492382 15.1332 -0.0204118 14.5863 0.000624794 13.9315L0.429248 1.14386C0.450284 0.504873 0.973571 0 1.61256 0C1.61782 0 1.62309 0 1.62835 0L73.7183 0.865126C74.3704 0.873015 74.8937 1.40946 74.8884 2.0616C74.8806 2.7111 74.352 3.23175 73.7051 3.23175C73.6999 3.23175 73.6946 3.23175 73.6894 3.23175L2.75645 2.37977L2.36725 14.0104C2.34621 14.6494 1.8203 15.1543 1.18657 15.1543H1.18394Z" fill="var(--fill-0, #202933)"/>
</svg>
