<svg preserveAspectRatio="none" width="100%" height="100%" overflow="visible" style="display: block;" viewBox="0 0 46 44" fill="none" xmlns="http://www.w3.org/2000/svg">
<path id="Vector" d="M1.42725 43.3909C0.975068 43.3909 0.607668 43.0282 0.602958 42.576L4.53643e-05 1.10691C-0.00466489 0.650015 0.358016 0.277905 0.814911 0.268485C11.6014 0.113046 22.5433 0.018841 33.3298 0C33.7867 0 34.1541 0.3674 34.1541 0.824295C34.1541 1.28119 33.7867 1.6533 33.3298 1.6533C22.8259 1.67214 12.1761 1.76164 1.66277 1.91237L2.24212 41.7282C15.9254 41.535 29.7736 41.4503 43.4239 41.4738L43.504 6.63204C43.504 6.17515 43.8761 5.80775 44.3283 5.80775C44.7852 5.80775 45.1526 6.17986 45.1526 6.63675L45.0678 42.3075C45.0678 42.7644 44.6957 43.1318 44.2435 43.1318C30.0609 43.0988 15.6569 43.1883 1.43667 43.3956H1.42254L1.42725 43.3909Z" fill="var(--fill-0, #14B8A6)"/>
</svg>
