<svg preserveAspectRatio="none" width="100%" height="100%" overflow="visible" style="display: block;" viewBox="0 0 63 68" fill="none" xmlns="http://www.w3.org/2000/svg">
<path id="Vector" d="M55.7505 13.1616C51.0807 5.09178 46.2343 4.33452 43.8338 4.4582C43.1094 2.74176 39.4644 -0.405899 31.2533 0.0434058C26.6542 0.2933 18.226 2.69632 12.1755 8.79223C2.05855 18.9824 1.82633 30.9495 1.82633 30.9495C1.82633 30.9495 -1.6621 49.053 1.00344 55.7118C2.49019 59.4248 5.99882 63.3676 12.2967 64.1855C13.7859 64.3798 22.5524 67.4972 30.0997 63.2768C39.7774 57.8674 47.6201 50.0955 47.6201 50.0955C47.4737 51.7614 47.2894 56.1939 45.0782 60.1745C42.8671 64.1552 39.7169 64.8367 39.7169 64.8367C39.7169 64.8367 42.549 67.8935 47.9179 67.3685C52.4791 66.9242 60.3596 63.2717 62.4345 50.7467C64.0147 41.2053 61.7934 23.5991 55.7555 13.1616H55.7505Z" fill="var(--fill-0, #212C68)"/>
</svg>
