<svg preserveAspectRatio="none" width="100%" height="100%" overflow="visible" style="display: block;" viewBox="0 0 63 57" fill="none" xmlns="http://www.w3.org/2000/svg">
<path id="Vector" d="M52.8404 56.1253C52.7357 56.1253 52.6309 56.1116 52.529 56.0868L46.0147 54.392C45.695 54.3094 45.4222 54.1027 45.2541 53.8161C45.0888 53.5295 45.0419 53.1906 45.1273 52.8709L45.8245 50.2613L44.4687 49.9169C44.4522 49.9114 44.4329 49.9086 44.4164 49.9031C44.3144 49.8728 41.9088 49.1178 40.9636 46.3291C40.1038 43.7966 39.2992 39.3959 38.8087 34.5542C38.5414 31.9253 38.478 29.5941 38.4229 27.5356C38.4008 26.7089 38.3788 25.9263 38.3457 25.163C38.3154 24.4796 38.8473 23.9009 39.5307 23.8706C40.2113 23.8403 40.7927 24.3721 40.823 25.0555C40.8561 25.8381 40.8782 26.629 40.9002 27.4667C40.9581 29.5803 41.0159 31.7628 41.275 34.3035C41.7407 38.8999 42.5205 43.2014 43.3114 45.5327C43.8046 46.9904 44.9482 47.4616 45.1273 47.5278L47.6543 48.1698C47.9767 48.2525 48.2523 48.4592 48.4176 48.743C48.5857 49.0296 48.6325 49.3713 48.5471 49.6909L47.8472 52.306L52.3774 53.4854C54.4524 50.7904 62.5485 39.1424 59.7047 24.8323C58.0403 16.458 52.1377 10.0263 45.9733 9.87199C45.4443 9.85821 44.9841 9.511 44.8242 9.00947C43.6834 5.42715 36.1936 1.17796 25.6395 2.87267C21.8174 3.48442 16.8655 5.06891 13.8178 6.27313C14.0272 6.4302 14.1871 6.65065 14.2642 6.91519C14.4185 7.44152 14.2119 8.00918 13.7489 8.30679C13.4954 8.46937 13.2336 8.63747 12.9608 8.80831C10.0757 10.6353 6.48232 12.9115 4.12074 18.6983C2.40949 22.8924 2.34611 26.8136 2.6079 29.4067C3.34916 28.1777 4.15381 26.9128 4.6388 26.381C6.64766 24.1737 13.917 21.5972 14.7382 21.3106C15.2122 21.1453 15.7413 21.2831 16.0747 21.6578C16.4081 22.0326 16.4825 22.5727 16.2621 23.0246L15.4161 24.7552C17.4608 24.3363 20.7758 23.2561 24.3085 20.4674C24.7439 20.123 25.3557 20.1119 25.8048 20.4343C26.254 20.7595 26.4331 21.3437 26.243 21.8645C25.5844 23.6695 24.427 25.3283 23.3909 26.5767C25.4852 26.359 28.442 25.7775 31.3574 24.2702C36.3396 21.6937 38.5056 19.5608 38.5276 19.5415C39.0126 19.0593 39.7952 19.0565 40.2802 19.5415C40.7652 20.0238 40.7679 20.8064 40.2857 21.2913C40.1893 21.3878 37.869 23.697 32.4955 26.4747C26.5213 29.5638 20.5636 29.178 20.3129 29.1614C19.8141 29.1256 19.3869 28.7949 19.2271 28.321C19.0673 27.847 19.2078 27.3234 19.5826 26.9928C19.5964 26.979 20.2881 26.3645 21.1395 25.3917C16.7691 27.5246 13.4623 27.5053 13.2832 27.4998C12.8589 27.4915 12.4676 27.2683 12.2471 26.9073C12.0267 26.5463 12.0046 26.0972 12.1892 25.7141L12.6605 24.7497C10.095 25.7941 7.32552 27.114 6.47403 28.0482C5.85401 28.7288 4.06562 31.7683 3.08462 33.5264C2.84487 33.9562 2.37367 34.207 1.88316 34.1574C1.39266 34.1106 0.976533 33.7771 0.824973 33.3087C0.728526 33.0111 -1.5118 25.9373 1.82527 17.7614C4.17583 12.0049 7.67 9.29055 10.5331 7.41947L10.3677 7.33956C9.95164 7.1384 9.67885 6.7223 9.66508 6.25935C9.6513 5.7964 9.89653 5.36377 10.2989 5.13781C12.6467 3.82612 19.9574 1.26889 25.2482 0.420157C32.0574 -0.671075 37.0313 0.568961 40.0019 1.79798C43.3004 3.16477 45.7942 5.2315 46.8634 7.43876C53.9537 8.10838 60.2999 15.0664 62.1434 24.3473C65.6183 41.8484 54.2678 55.1416 53.7828 55.701C53.5431 55.9765 53.2014 56.1281 52.8486 56.1281L52.8404 56.1253Z" fill="var(--fill-0, #202933)"/>
</svg>
