<svg preserveAspectRatio="none" width="100%" height="100%" overflow="visible" style="display: block;" viewBox="0 0 35 44" fill="none" xmlns="http://www.w3.org/2000/svg">
<path id="Vector" d="M18.1957 0.0213139C18.3733 2.47251 18.6291 3.79403 18.9346 5.10844C23.3326 3.4743 25.2438 2.15988 26.5084 1.30019C27.5529 4.07821 28.1212 5.44237 28.9028 7.04097C27.5102 8.04277 25.8974 9.19376 20.8032 11.2116C21.3716 12.6681 21.4568 12.8031 21.6274 13.2293C22.4515 12.8741 26.4587 11.2755 30.7714 7.74435C31.2474 8.78167 33.6844 12.9807 34.1676 13.8262C30.7288 16.6539 27.0271 18.3733 24.6328 19.3822C27.3753 24.2846 30.1604 27.2545 31.2048 28.3841L27.155 33.1657C21.67 29.2296 15.4461 29.3149 14.7498 29.322C12.9238 29.3504 9.04459 30.0538 9.04459 32.775C9.04459 35.0272 11.3963 36.6045 16.6184 36.569C18.622 36.5548 23.8867 36.4695 28.0218 34.5299C27.8015 35.5388 27.5458 37.1587 27.5458 39.6454C27.5458 40.6969 27.5884 41.1232 27.6737 41.6987C24.1496 42.8924 20.4479 43.2263 16.7463 43.2263C5.55605 43.2263 1.94674 37.4997 1.94674 33.0236C1.94674 28.036 6.20972 24.0928 13.5278 23.9507C14.6148 23.9293 16.7463 23.9862 19.5811 24.3556C19.0554 23.5102 18.757 22.9986 18.0607 21.5421C13.6202 22.6221 8.04988 23.3965 3.52405 23.4817C3.17591 23.4817 1.86862 23.5173 0.738939 23.3965L0 16.526C2.65724 16.5971 4.35534 16.5971 5.30739 16.5758C7.96463 16.5047 11.1831 16.185 15.3182 15.2258C15.0979 14.7143 14.9701 14.2951 14.494 13.1725C10.359 14.0891 6.35181 14.3946 3.60931 14.6077L2.21673 8.12091C3.82955 8.11381 7.31097 8.03567 12.1849 7.02677C11.1832 4.24164 10.8776 3.12616 10.4016 1.59149L18.1957 0V0.0213139Z" fill="var(--fill-0, #0F172A)"/>
</svg>
