<svg preserveAspectRatio="none" width="100%" height="100%" overflow="visible" style="display: block;" viewBox="0 0 19 23" fill="none" xmlns="http://www.w3.org/2000/svg">
<path id="Vector" d="M12.084 22.3825C11.9174 22.3825 11.7533 22.3471 11.5993 22.2739C11.3242 22.1452 11.1147 21.9105 11.0137 21.6227C10.9935 21.5672 9.06506 16.1175 6.75796 11.9727C4.4761 7.87599 0.359148 3.59496 0.318761 3.55205C0.0436248 3.26682 -0.0649191 2.85791 0.0385724 2.47171C0.13954 2.08803 0.434874 1.78514 0.816026 1.67155L6.35409 0.0459713C6.68223 -0.0499477 7.03562 0.0055807 7.3158 0.199943C7.44706 0.290814 10.5922 2.48938 13.8257 8.29753C16.1833 12.2226 18.3919 18.6618 18.4853 18.9344C18.6847 19.52 18.3793 20.1561 17.7987 20.3682L12.4752 22.3118C12.349 22.3572 12.2178 22.38 12.0865 22.38L12.084 22.3825ZM3.2039 3.34003C4.67045 4.99842 7.10377 7.93151 8.74196 10.8697C10.5367 14.0905 12.0663 17.9475 12.7605 19.7901L15.9611 18.6214C15.2367 16.6349 13.5606 12.263 11.8694 9.4536C11.8619 9.4435 11.8568 9.43088 11.8492 9.42078C9.53203 5.25335 7.3158 3.13809 6.43234 2.39346L3.2039 3.34256V3.34003Z" fill="var(--fill-0, #212C68)"/>
</svg>
