<svg preserveAspectRatio="none" width="100%" height="100%" overflow="visible" style="display: block;" viewBox="0 0 57 45" fill="none" xmlns="http://www.w3.org/2000/svg">
<path id="Vector" d="M46.6961 44.3899C45.5917 44.3899 44.8607 44.1637 44.8396 44.1558L28.7414 38.6285C27.2399 38.6048 18.5886 38.213 15.5093 32.4884C12.7141 27.2897 11.8621 23.5794 11.7148 22.8562L8.30954 14.268L0.341899 6.23205C0.123644 6.01116 7.30777e-05 5.71402 7.30777e-05 5.40373C-0.00781566 3.77602 0.620629 0.846667 3.03195 0.189272C5.23554 -0.410273 13.7291 0.473266 15.2753 2.01157C15.8485 2.58219 16.1904 3.15281 16.3955 3.62876C17.5657 3.61824 19.4326 3.73658 20.5923 4.48338C21.7151 5.20914 22.7854 7.18658 24.7339 10.9153C25.4991 12.3774 26.288 13.8894 27.14 15.3856C29.7038 19.8901 30.6425 20.608 32.9829 22.0148C34.7 23.0482 45.5023 25.3018 51.9079 26.4824C51.9921 26.4982 52.071 26.5219 52.1499 26.5534C52.2577 26.5981 54.7821 27.6815 55.8655 30.5057C56.7122 32.7145 56.444 35.3021 55.0713 38.1972C52.5601 43.4906 48.8918 44.3872 46.6961 44.3872V44.3899ZM45.5733 41.9049C45.8547 41.9891 50.112 43.1356 52.9335 37.1848C54.0116 34.9129 54.2588 32.9617 53.6672 31.3866C53.0597 29.7668 51.7002 28.9753 51.3242 28.7833C48.9891 28.3521 34.3476 25.6015 31.7601 24.0448C29.0885 22.4381 27.821 21.3758 25.0784 16.5584C24.2054 15.0254 23.3691 13.4266 22.6328 12.0145C21.439 9.73202 19.9559 6.8947 19.3064 6.47397C18.607 6.02168 16.7189 5.94279 15.6014 6.02957C15.2648 6.05586 14.9308 5.97698 14.6863 5.74294C14.447 5.51154 14.3155 5.23018 14.3234 4.90148C14.3076 4.7963 14.2024 4.29668 13.6239 3.71028C12.58 2.97137 5.49064 1.97213 3.64993 2.47438C2.78743 2.70841 2.4745 4.08631 2.39035 4.93566L10.1581 12.7718C10.2712 12.8849 10.358 13.019 10.4185 13.1689L13.9526 22.0832C13.9815 22.1568 14.0026 22.2304 14.0157 22.3093C14.021 22.3435 14.7283 26.0407 17.5919 31.3682C20.2189 36.254 28.8492 36.2618 28.9333 36.2645C29.0674 36.2645 29.1989 36.2855 29.3251 36.3276L45.5707 41.9049H45.5733Z" fill="var(--fill-0, #202933)"/>
</svg>
