<svg preserveAspectRatio="none" width="100%" height="100%" overflow="visible" style="display: block;" viewBox="0 0 37 36" fill="none" xmlns="http://www.w3.org/2000/svg">
<path id="Vector" d="M21.3533 35.1385C20.0674 35.1385 19.2243 35.1008 18.4047 35.0632C17.9761 35.0443 17.6322 34.7099 17.5992 34.2812C17.3213 30.725 16.4499 29.0199 15.9836 28.1061L15.9365 28.0119C15.7858 27.7152 15.8235 27.3525 16.0354 27.0934C16.2474 26.8343 16.5912 26.7213 16.9162 26.8108L16.9633 26.8249C17.9525 27.0981 20.2652 27.734 21.9845 27.734C23.0301 27.734 23.6613 27.734 24.2172 25.3412C24.5422 23.8904 24.9284 21.6483 25.098 17.1642H17.4626C16.6666 22.2607 14.6506 28.2757 6.94934 34.79C6.63375 35.0584 6.16744 35.0584 5.85185 34.79C2.95505 32.3265 2.12604 31.8508 0.595206 31.3703C0.289039 31.2761 0.0629516 31.017 0.0111387 30.7015C-0.0406741 30.3859 0.0912091 30.0656 0.345563 29.8772C9.80376 22.9672 10.0911 17.1736 10.1712 6.95234H1.25935C0.793038 6.95234 0.411499 6.57081 0.411499 6.1045V0.847848C0.411499 0.381532 0.793038 0 1.25935 0H35.4087C35.875 0 36.2566 0.381532 36.2566 0.847848V6.1045C36.2566 6.57081 35.875 6.95234 35.4087 6.95234H18.1598C18.1268 8.48789 18.1032 9.37341 18.0891 9.90567H32.0927C32.559 9.90567 32.9405 10.2872 32.9405 10.7535C32.9405 10.9042 32.6061 26.5894 30.5101 31.0736C28.7249 34.8512 25.5925 35.1432 21.3533 35.1432V35.1385ZM19.2243 33.4004C19.8225 33.424 20.4772 33.4428 21.358 33.4428C25.9034 33.4428 27.7404 32.9765 28.9792 30.3482C30.5477 26.9898 31.1224 15.2377 31.226 11.5966H17.2177C16.7514 11.5966 16.3699 11.2151 16.3699 10.7488C16.3699 10.6499 16.3699 10.5368 16.3793 10.306C16.3934 9.82089 16.4264 8.77521 16.4782 6.08565C16.4876 5.62405 16.8644 5.25665 17.326 5.25665H34.5609V1.6957H2.10719V5.25665H11.0284C11.2545 5.25665 11.4712 5.34614 11.6313 5.50629C11.7915 5.66644 11.881 5.88311 11.8763 6.1092C11.8056 16.6037 11.7632 23.0944 2.57822 30.3152C3.6239 30.8145 4.65544 31.5634 6.40295 33.0283C13.5767 26.7543 15.2347 21.0077 15.8941 16.1986C15.9506 15.7794 16.3086 15.4685 16.7325 15.4685H25.9788C26.2096 15.4685 26.4263 15.5627 26.5864 15.7275C26.7465 15.8924 26.8313 16.1138 26.8266 16.3446C26.6712 21.5636 26.2378 24.0977 25.8751 25.7227C25.0791 29.1518 23.5813 29.4344 21.9892 29.4344C20.7739 29.4344 19.3562 29.1706 18.2068 28.9021C18.6025 29.929 19.0076 31.3656 19.2243 33.4146V33.4004Z" fill="var(--fill-0, white)"/>
</svg>
