<svg preserveAspectRatio="none" width="100%" height="100%" overflow="visible" style="display: block;" viewBox="0 0 4 7" fill="none" xmlns="http://www.w3.org/2000/svg">
<path id="Vector" d="M0.823325 6.79793C0.667886 6.79793 0.512442 6.75554 0.375845 6.66605C-0.00568609 6.4164 -0.114017 5.9077 0.130917 5.52145C0.846876 4.41925 1.56282 3.31234 2.28349 2.21014C2.29291 2.20072 2.29763 2.18188 2.29292 2.15362C2.28821 2.13007 2.27408 2.11123 2.25053 2.0971L1.27551 1.546C0.879844 1.31991 0.73853 0.815908 0.959912 0.420246C1.18129 0.0245844 1.6853 -0.116723 2.08567 0.104659L3.09366 0.6746C3.527 0.943084 3.80491 1.33404 3.90382 1.79093C4.00745 2.24783 3.92267 2.71414 3.66361 3.10509C2.94294 4.20729 2.22698 5.30949 1.51102 6.41169C1.35087 6.65663 1.08709 6.78851 0.81861 6.78851L0.823325 6.79793Z" fill="var(--fill-0, #14B8A6)"/>
</svg>
