<svg preserveAspectRatio="none" width="100%" height="100%" overflow="visible" style="display: block;" viewBox="0 0 60 89" fill="none" xmlns="http://www.w3.org/2000/svg">
<path id="Vector" d="M36.9389 29.5052L34.6747 29.6819C33.0643 25.4943 31.2923 21.6196 29.5658 19.3075C25.989 14.5141 19.6432 11.4346 16.233 9.57676C11.013 6.73453 0 0 0 0C0 0 0.262541 2.87253 0.626024 3.49095C0.989506 4.10685 9.2562 14.3828 11.4043 23.7526C14.8498 38.769 14.2516 85.4007 14.2516 85.4007C14.2516 85.4007 32.3323 88.8033 38.9154 87.9047C45.4959 87.0061 46.2406 83.4596 47.5355 80.519C49.1888 76.7655 59.5582 41.1594 59.5582 41.1594L36.9389 29.5027V29.5052Z" fill="var(--fill-0, #D4EEFF)"/>
</svg>
