<svg preserveAspectRatio="none" width="100%" height="100%" overflow="visible" style="display: block;" viewBox="0 0 40 53" fill="none" xmlns="http://www.w3.org/2000/svg">
<path id="Vector" d="M6.74577 52.1891C6.35172 52.1891 5.96593 52.0045 5.72619 51.6573C2.7005 47.2979 0.625505 41.0123 0.17358 34.8369C-0.573197 27.4766 1.06916 20.943 5.49747 13.6516C8.57552 8.5867 13.8085 4.32372 19.8571 1.95663C26.3824 -0.597842 33.0759 -0.652954 38.7029 1.80232C39.3312 2.07513 39.6178 2.80813 39.3422 3.43365C39.0694 4.06194 38.3364 4.34852 37.7109 4.07296C26.7682 -0.702558 13.07 5.96608 7.61931 14.9357C3.48585 21.7393 1.95097 27.8017 2.64539 34.5971C2.64539 34.6082 2.64539 34.6219 2.64814 34.633C3.067 40.3922 4.97941 46.2259 7.76535 50.2381C8.15666 50.8003 8.01612 51.5746 7.45397 51.9632C7.23903 52.112 6.99102 52.1836 6.74852 52.1836L6.74577 52.1891Z" fill="var(--fill-0, #202933)"/>
</svg>
