<svg preserveAspectRatio="none" width="100%" height="100%" overflow="visible" style="display: block;" viewBox="0 0 18 18" fill="none" xmlns="http://www.w3.org/2000/svg">
<path id="Vector" d="M0.293665 0C0.17441 0 0.0886957 0.0335404 0.0365217 0.100621C-0.0156522 0.167702 -0.0119255 0.253416 0.0477019 0.357764L7.1359 17.5304C7.19553 17.6944 7.31478 17.7764 7.49366 17.7764H9.75205C9.93093 17.7764 10.0502 17.6944 10.1098 17.5304L17.2204 0.357764C17.2353 0.32795 17.2427 0.28323 17.2427 0.223602C17.2427 0.0745342 17.1533 0 16.9744 0H13.9111C13.7322 0 13.6129 0.0819876 13.5533 0.245963L12.3011 3.55528H4.92224L3.6477 0.245963C3.58807 0.0819876 3.46882 0 3.28994 0H0.293665ZM8.58932 13.3267L6.04025 6.59627H11.1384L8.58932 13.3267Z" fill="var(--fill-0, white)"/>
</svg>
