<svg preserveAspectRatio="none" width="100%" height="100%" overflow="visible" style="display: block;" viewBox="0 0 182 43" fill="none" xmlns="http://www.w3.org/2000/svg">
<path id="Vector" d="M152.231 42.282C152.149 42.282 152.068 42.2741 151.984 42.2557L105.167 32.3027L102.747 35.1663C102.474 35.4898 102.048 35.6423 101.632 35.566L70.5797 29.965L21.4013 31.7426C21.0463 31.7558 20.6966 31.6033 20.4599 31.3324L0.285791 7.84239C-0.00872197 7.50055 -0.0823746 7.01933 0.0964368 6.60386C0.275248 6.18838 0.674956 5.91228 1.12724 5.88862L57.0006 3.20381L116.553 0.00098489C116.621 -0.00164469 116.692 0.000992593 116.76 0.00888133L144.282 3.37474C144.321 3.38 144.36 3.38525 144.397 3.39577L180.885 11.6053C181.306 11.7 181.643 12.0155 181.764 12.431C181.885 12.8465 181.769 13.2935 181.464 13.5985L153.067 41.9375C152.844 42.161 152.541 42.282 152.231 42.282ZM104.72 29.8152C104.801 29.8152 104.883 29.823 104.967 29.8414L151.85 39.8076L178.269 13.4434L143.937 5.71769L116.579 2.37287L57.1241 5.57043L3.66216 8.13954L21.8878 29.3602L70.6244 27.5984C70.7086 27.5958 70.7927 27.6011 70.8768 27.6168L101.383 33.1205L103.818 30.2385C104.044 29.9703 104.378 29.8178 104.722 29.8178L104.72 29.8152Z" fill="var(--fill-0, #202933)"/>
</svg>
