<svg preserveAspectRatio="none" width="100%" height="100%" overflow="visible" style="display: block;" viewBox="0 0 27 27" fill="none" xmlns="http://www.w3.org/2000/svg">
<path id="Vector" d="M18.6291 10.2636C20.6074 10.226 22.581 10.1883 24.5593 10.1553C24.6064 12.8119 24.6488 15.4685 24.6959 18.1251C23.052 18.1533 21.4128 18.1816 19.7689 18.2146C20.8335 19.3639 22.5527 21.0878 26.905 22.4915C26.2691 23.0049 25.2705 23.8292 24.3238 25.8782C21.8085 24.8325 19.2602 23.6549 16.9475 20.7204C14.3474 24.2013 11.851 25.539 8.92123 26.3021C8.43136 24.5593 7.44692 23.4382 6.844 22.8118C11.0785 22.3219 13.3865 19.8773 14.2532 18.3229C12.6376 18.3559 11.0267 18.3936 9.41109 18.4312C9.40638 18.1345 9.39696 17.8377 9.39225 17.541C9.21797 18.549 9.02014 21.0313 5.25665 21.1255C5.10121 20.4896 4.87983 19.5758 4.3193 18.6102C4.38054 21.1255 4.44648 23.6408 4.50771 26.1608C3.22652 26.1937 1.94534 26.2267 0.664148 26.2597C0.442766 17.9508 0.221382 9.63719 0 1.32829C2.78847 1.25293 5.57223 1.18227 8.36071 1.12104C8.94007 1.60149 9.51472 2.07722 10.0941 2.55767C9.99045 2.89681 9.48646 4.38525 9.37812 4.69142C11.493 3.19355 12.8449 1.40837 13.4666 0C15.0351 0.0518128 16.6084 0.103625 18.1769 0.155438C18.2899 0.155438 18.6573 0.174278 18.6667 0.480445C18.6667 0.673565 18.5302 0.819585 18.3936 0.932631C20.3012 2.73195 23.8386 4.20155 25.8876 4.92222C25.3883 5.40266 24.3002 6.5661 23.5419 8.33244C22.515 7.87555 22.1759 7.7154 21.7755 7.49873C21.7849 8.01686 21.7944 8.5397 21.8038 9.05782C20.7393 9.07667 19.6747 9.09551 18.6102 9.11906C18.6196 9.50059 18.6244 9.88212 18.6338 10.2589L18.6291 10.2636ZM3.96133 4.56895C3.99901 6.04326 4.03669 7.52228 4.07437 8.99659C4.81859 7.08422 5.18599 5.87369 5.43563 4.53127C4.94577 4.5454 4.4559 4.55482 3.96604 4.56895H3.96133ZM4.28634 17.3573C4.45591 17.3808 4.65373 17.4327 4.79504 17.428C5.52513 17.4091 5.75594 16.4576 5.7418 15.8971C5.72296 15.1717 5.19071 12.9297 4.1309 11.2245C4.18271 13.2688 4.23452 15.3083 4.28634 17.3526V17.3573ZM14.875 9.19442C13.6597 9.21797 12.4445 9.24623 11.2293 9.2745C11.2198 8.88354 11.2104 8.49259 11.201 8.10635C10.7017 8.47846 10.2825 8.71398 9.66545 9.06254C9.31218 8.48317 9.22739 8.37484 8.37954 7.36213C7.76721 8.96362 7.55054 9.35928 7.20198 10.0941C8.11577 11.6909 9.03898 13.6739 9.32631 15.2848C9.28863 13.6786 9.25094 12.0724 9.21326 10.4662C11.1068 10.4238 12.9956 10.3814 14.8891 10.339C14.8797 9.95748 14.875 9.57595 14.8656 9.19913L14.875 9.19442ZM14.9645 13.5137C14.3427 13.5279 13.7257 13.542 13.1039 13.5514C13.1134 14.079 13.1275 14.6112 13.1369 15.1388C13.7587 15.1246 14.3757 15.1105 14.9975 15.1011C14.988 14.5735 14.9739 14.0413 14.9645 13.5137ZM18.9965 5.96319C17.0794 4.7762 16.387 4.20155 15.6381 3.57979C15.087 4.31459 14.4793 5.13418 13.5655 6.07623C15.3743 6.03855 17.1877 6.00087 18.9965 5.9679V5.96319ZM18.7186 15.0257C19.378 15.0116 20.0327 15.0022 20.6922 14.988C20.6827 14.4605 20.6733 13.9282 20.6639 13.4007C20.0045 13.4148 19.3497 13.4242 18.6903 13.4384C18.6997 13.9659 18.7091 14.4982 18.7233 15.0257H18.7186Z" fill="var(--fill-0, #0F172A)"/>
</svg>
