<svg preserveAspectRatio="none" width="100%" height="100%" overflow="visible" style="display: block;" viewBox="0 0 57 41" fill="none" xmlns="http://www.w3.org/2000/svg">
<path id="Vector" d="M39.9689 16.4653C47.7434 16.4653 44.6058 27.8695 47.1654 30.3937C48.0791 31.2948 49.4573 36.5653 49.4573 36.5653L51.5372 39.6852L53.5389 39.6297C53.5389 39.6297 54.0917 35.273 54.1245 33.0542C54.1574 30.8329 53.7232 30.6789 54.9525 27.3445C56.0328 24.7976 56.9895 22.3264 54.9045 17.8157C51.9361 9.00124 48.011 6.106 41.9605 4.0286C34.4006 1.43374 33.3253 0 26.7927 0C21.1688 0 15.7216 2.73117 16.6732 7.36809C16.0598 7.34285 8.01525 3.38493 1.89915 14.2213C-0.466007 19.3832 -0.122718 22.3315 0.313966 24.737C0.313966 24.737 1.09646 30.2902 1.205 30.8632C2.10866 35.639 2.11371 40.5435 2.11371 40.5435L4.68333 40.5308L6.67996 36.5679C6.67996 36.5679 7.10655 31.4715 8.00768 30.3962C10.3148 27.6373 7.98496 16.4854 14.8205 16.4854C14.8205 16.4854 24.0564 17.4876 27.7216 17.4876C31.3867 17.4876 39.9714 16.4678 39.9714 16.4678L39.9689 16.4653Z" fill="var(--fill-0, #212C68)"/>
</svg>
