<svg preserveAspectRatio="none" width="100%" height="100%" overflow="visible" style="display: block;" viewBox="0 0 7 7" fill="none" xmlns="http://www.w3.org/2000/svg">
<path id="Vector" d="M3.28697 6.57658C2.41132 6.57658 1.58565 6.23473 0.965067 5.61415C0.344487 4.99357 0 4.16788 0 3.2896C0 1.47782 1.47259 0.00262958 3.28437 0C4.16265 0 4.9857 0.341842 5.60628 0.962423C6.22686 1.583 6.57135 2.4087 6.57135 3.28697C6.57135 4.16525 6.2295 4.99094 5.60891 5.61152C4.98833 6.2321 4.16265 6.57395 3.28437 6.57658H3.28697ZM3.28697 2.36925C2.77947 2.36925 2.36662 2.78209 2.36662 3.2896C2.36662 3.53415 2.46392 3.76556 2.63748 3.93911C2.81103 4.11266 3.04242 4.20733 3.28697 4.20733C3.53416 4.20733 3.76295 4.11003 3.93651 3.93648C4.11006 3.76293 4.20473 3.53152 4.20473 3.28434C4.20473 3.03979 4.10743 2.80839 3.93387 2.63484C3.76032 2.46128 3.52893 2.36662 3.28437 2.36662L3.28697 2.36925Z" fill="var(--fill-0, #202933)"/>
</svg>
