<svg preserveAspectRatio="none" width="100%" height="100%" overflow="visible" style="display: block;" viewBox="0 0 72 106" fill="none" xmlns="http://www.w3.org/2000/svg">
<path id="Vector" d="M70.0203 105.736H1.18312C0.857052 105.736 0.544124 105.599 0.32061 105.362C0.0970954 105.123 -0.0185958 104.802 0.00244081 104.476C0.0182183 104.237 1.58019 80.3051 3.4919 56.2891C7.38893 7.30269 8.85886 5.74335 9.56622 4.99392C9.84759 4.69415 10.3551 4.34178 11.1703 4.37071C12.1432 4.40226 14.7255 4.48641 26.6638 17.445C31.4759 22.67 35.9172 27.937 37.2741 29.5595L38.6888 29.3675C39.4593 26.6433 41.9574 15.9619 38.7729 1.4361C38.6625 0.939111 38.886 0.426338 39.3226 0.16601C39.7617 -0.0943187 40.3165 -0.044359 40.7031 0.286968C50.0907 8.40711 60.6984 30.8295 62.1499 38.8419C63.5015 46.3204 70.8828 102.028 71.1957 104.395C71.2404 104.734 71.1378 105.073 70.9117 105.331C70.6855 105.588 70.3621 105.733 70.0229 105.733L70.0203 105.736ZM2.44796 103.369H68.6713C67.5116 94.6363 61.0481 46.0522 59.8201 39.2652C58.5921 32.4704 49.9986 13.9476 41.8154 4.73885C44.3503 20.1561 40.8792 30.3694 40.7162 30.8295C40.569 31.2503 40.2008 31.5527 39.759 31.6105L36.9428 31.9944C36.5378 32.0497 36.1329 31.8919 35.8699 31.5763C35.8173 31.5132 30.524 25.1181 24.7389 18.8518C14.9332 8.23093 11.9539 6.903 11.2439 6.75311C10.6286 8.27301 9.01927 16.4931 5.79278 57.2121C4.15981 77.8149 2.79244 98.1862 2.44796 103.372V103.369Z" fill="var(--fill-0, #202933)"/>
</svg>
