<svg preserveAspectRatio="none" width="100%" height="100%" overflow="visible" style="display: block;" viewBox="0 0 28 27" fill="none" xmlns="http://www.w3.org/2000/svg">
<path id="Vector" d="M11.7333 0C5.25333 0 0 4.77547 0 10.6667C0 13.6924 1.39534 16.4136 3.62292 18.3521C3.3034 19.3985 2.63691 20.4391 1.4125 21.3667C1.41181 21.3674 1.41111 21.3681 1.41042 21.3688C1.30943 21.4072 1.22249 21.4753 1.1611 21.5642C1.09972 21.6532 1.06678 21.7586 1.06667 21.8667C1.06667 22.0081 1.12286 22.1438 1.22288 22.2438C1.3229 22.3438 1.45855 22.4 1.6 22.4C1.63644 22.3995 1.67274 22.3954 1.70833 22.3875C3.77774 22.3815 5.54341 21.4975 6.94792 20.3896C7.61442 20.6607 8.31015 20.8842 9.03542 21.0396C8.71115 20.1223 8.53333 19.1456 8.53333 18.1333C8.53333 12.8395 13.3184 8.53333 19.2 8.53333C20.6741 8.53333 22.0794 8.80415 23.3583 9.29375C22.6159 4.05215 17.7003 0 11.7333 0ZM19.2 10.6667C16.9368 10.6667 14.7663 11.4533 13.166 12.8536C11.5657 14.2539 10.6667 16.1531 10.6667 18.1333C10.6667 20.1136 11.5657 22.0128 13.166 23.4131C14.7663 24.8133 16.9368 25.6 19.2 25.6C20.2911 25.5985 21.3717 25.4139 22.3833 25.0563C23.6914 25.9701 25.2745 26.6478 27.0875 26.6542C27.1245 26.6623 27.1622 26.6665 27.2 26.6667C27.3415 26.6667 27.4771 26.6105 27.5771 26.5105C27.6771 26.4104 27.7333 26.2748 27.7333 26.1333C27.7332 26.0242 27.6995 25.9177 27.6369 25.8283C27.5743 25.7389 27.4858 25.6709 27.3833 25.6333C26.4071 24.8922 25.7815 24.0764 25.4063 23.2458C26.8975 21.8631 27.7298 20.0346 27.7333 18.1333C27.7333 16.1531 26.8343 14.2539 25.234 12.8536C23.6337 11.4533 21.4632 10.6667 19.2 10.6667Z" fill="var(--fill-0, white)"/>
</svg>
