<svg preserveAspectRatio="none" width="100%" height="100%" overflow="visible" style="display: block;" viewBox="0 0 69 81" fill="none" xmlns="http://www.w3.org/2000/svg">
<path id="Vector" d="M32.9001 42.0381C29.924 39.1061 22.7152 34.7935 18.4109 33.6196C11.1361 31.6355 5.32994 32.228 5.22247 29.6928C5.17563 26.9069 9.68936 27.097 12.1777 27.119C14.666 27.1411 18.3173 27.8879 18.3173 27.8879L18.3338 27.1521C18.3338 27.1521 15.1317 25.1653 9.95664 23.7324C4.78155 22.2994 -0.305339 22.6632 0.0143148 19.6402C0.353258 16.4437 6.20622 17.3806 10.7503 18.3726C15.2943 19.3647 19.9624 20.6571 19.9624 20.6571C19.9624 20.6571 14.553 17.7168 10.7558 15.6611C6.95851 13.6082 0.504815 12.9523 0.631575 10.1664C0.747311 6.00535 8.9536 8.58187 12.9713 10.3097C16.989 12.0374 21.985 14.6801 21.985 14.6801L22.3047 13.8479C22.3047 13.8479 19.527 10.9848 17.3059 9.16331C14.1232 6.55372 9.30356 4.97474 9.72242 2.56081C10.3066 -0.798313 15.771 0.981828 19.6014 3.5363C23.4317 6.09078 33.3492 14.3604 33.3492 14.3604L37.0142 13.5916C37.0142 13.5916 37.0694 9.00624 38.5326 5.32471C39.9958 1.64318 41.7622 0.496836 42.7184 0.144114C43.6443 -0.20034 45.9673 -0.0873593 46.0004 2.30453C46.0362 4.69367 42.8975 9.43336 44.5729 14.5616C46.2484 19.6898 49.7866 22.9553 50.8172 26.4715C51.8478 29.9877 51.5612 36.8933 51.5612 36.8933L68.7261 70.6691C68.7261 70.6691 66.2571 73.8877 60.7044 76.5882C54.5869 79.5643 49.6213 80.2505 49.6213 80.2505C49.6213 80.2505 34.6113 43.6115 32.9028 42.0353L32.9001 42.0381Z" fill="var(--fill-0, white)"/>
</svg>
