<svg preserveAspectRatio="none" width="100%" height="100%" overflow="visible" style="display: block;" viewBox="0 0 12 8" fill="none" xmlns="http://www.w3.org/2000/svg">
<path id="Vector" d="M4.22788 7.27526C4.08148 7.27526 3.93509 7.23993 3.79879 7.1642C1.33518 5.79104 0.0958076 2.14107 0.0453239 1.9871C-0.0404983 1.72963 -0.00266269 1.44945 0.14374 1.22227C0.292667 0.995094 0.537512 0.851218 0.805075 0.825976L10.2783 0.00308933C10.551 -0.0196283 10.8185 0.0838634 11.0053 0.283274C11.1896 0.485209 11.2729 0.760347 11.2274 1.03043C11.2022 1.17684 10.5989 4.64759 8.63257 6.50539C8.27666 6.84111 7.71883 6.82343 7.38311 6.47005C7.0474 6.11414 7.06507 5.5563 7.41846 5.22058C8.34988 4.33964 8.91024 2.88319 9.2081 1.87099L2.16059 2.48184C2.63766 3.49656 3.49334 4.96816 4.66204 5.6194C5.08862 5.85667 5.24007 6.39433 5.0028 6.82091C4.84125 7.1112 4.54089 7.27526 4.23041 7.27526H4.22788Z" fill="var(--fill-0, #212C68)"/>
</svg>
