<svg preserveAspectRatio="none" width="100%" height="100%" overflow="visible" style="display: block;" viewBox="0 0 48 52" fill="none" xmlns="http://www.w3.org/2000/svg">
<path id="Vector" d="M28.306 51.6669C25.3006 51.6811 22.2881 51.7025 19.2827 51.7238C19.2472 47.3685 19.2188 43.0203 19.1833 38.6649C15.9363 38.6863 12.6894 38.7147 9.44242 38.7502C9.44952 39.7378 9.46374 40.7183 9.47084 41.7058C6.45836 41.7343 3.43878 41.7698 0.426299 41.8053C0.284201 30.1817 0.142098 18.5651 0 6.9415C6.31627 6.86335 12.6325 6.7994 18.9488 6.75677C18.9346 4.50451 18.9133 2.25226 18.8991 0C21.9471 0.106574 24.9951 0.227357 28.0431 0.341036C29.1444 0.39077 29.6062 0.44761 29.6062 1.016C29.6062 1.52756 29.0875 1.69808 28.0502 2.15989C28.0573 3.67324 28.0644 5.18659 28.0715 6.69993C34.4659 6.67151 40.8604 6.6502 47.2477 6.6502C47.2477 18.1175 47.2477 29.592 47.2477 41.0593C44.2139 41.0593 41.1801 41.0593 38.1463 41.0735C38.1463 40.2422 38.1463 39.411 38.1463 38.5726C34.8425 38.5797 31.5387 38.5939 28.2349 38.6081C28.2562 42.9634 28.2775 47.3187 28.2989 51.6669H28.306ZM19.0127 14.3022C15.7445 14.3235 12.4762 14.3519 9.20796 14.3875C9.22217 15.9363 9.23638 17.4923 9.25059 19.0412C12.5117 19.0056 15.78 18.9772 19.0412 18.9559C19.027 17.407 19.0199 15.8511 19.0056 14.3022H19.0127ZM19.098 26.1745C15.844 26.1958 12.5828 26.2242 9.32876 26.2598C9.34297 27.8655 9.35716 29.4783 9.37847 31.084C12.6325 31.0485 15.8866 31.0272 19.1406 30.9987C19.1264 29.393 19.1193 27.7802 19.1051 26.1745H19.098ZM28.1426 18.9062C31.4605 18.892 34.7857 18.8778 38.1037 18.8707C38.1037 17.3218 38.0965 15.7658 38.0894 14.2169C34.7643 14.224 31.4392 14.2382 28.1141 14.2525C28.1212 15.8013 28.1284 17.3573 28.1355 18.9062H28.1426ZM28.1994 30.9419C31.5103 30.9277 34.8212 30.9135 38.1321 30.9064C38.1321 29.3007 38.125 27.6879 38.1179 26.0821C34.7999 26.0892 31.489 26.1035 28.171 26.1177C28.1781 27.7234 28.1852 29.3362 28.1923 30.9419H28.1994Z" fill="var(--fill-0, #14B8A6)"/>
</svg>
