<svg preserveAspectRatio="none" width="100%" height="100%" overflow="visible" style="display: block;" viewBox="0 0 28 50" fill="none" xmlns="http://www.w3.org/2000/svg">
<path id="Vector" d="M2.04072 39.5978C2.04072 39.5978 0.382844 36.6286 1.27822 32.4926C2.17359 28.3565 6.71976 24.1685 6.71976 24.1685C6.71976 24.1685 2.86678 24.5093 1.775 22.1294C0.67745 19.7379 -0.246805 17.5428 0.0593542 16.2488C0.382843 14.9029 1.66525 14.5563 1.66525 14.5563C1.66525 14.5563 0.683221 9.80213 2.26601 7.97095C3.54263 6.49214 5.5991 7.12179 5.5991 7.12179C5.5991 7.12179 6.19987 4.56854 7.30898 3.79448C8.79356 2.76047 10.9598 3.90424 10.9598 3.90424C10.9598 3.90424 13.9925 -0.162484 16.8057 0.00503698C18.9604 0.137899 20.5663 3.1475 23.0502 6.93694C25.4706 10.634 27.296 13.5338 27.3884 14.7469C27.5559 17.0171 24.2459 22.3027 21.8602 28.3739C19.4803 34.4451 19.0817 35.4502 18.4924 39.6729C17.9032 43.8956 18.4924 48.6555 18.4924 48.6555C18.4924 48.6555 16.2742 49.8974 10.3012 49.9032C3.62351 49.9032 1.58437 48.0374 1.58437 48.0374L2.0465 39.592L2.04072 39.5978Z" fill="var(--fill-0, #FFEBE1)"/>
</svg>
