<svg preserveAspectRatio="none" width="100%" height="100%" overflow="visible" style="display: block;" viewBox="0 0 7 14" fill="none" xmlns="http://www.w3.org/2000/svg">
<path id="Vector" d="M5.56707 13.7951C5.53407 13.7951 5.49741 13.7951 5.46442 13.7877C2.87263 13.4651 0.0792089 10.5837 0.00222496 5.88404C-0.0417659 3.21893 0.566774 1.42631 1.80952 0.553821C2.71133 -0.08038 3.88442 -0.172028 5.10883 0.289876C5.4241 0.407185 5.63305 0.70779 5.64038 1.04139L5.69171 3.10529C5.70271 3.55986 5.34345 3.93745 4.88521 3.94845C4.41964 3.95945 4.05305 3.60019 4.04205 3.14195L4.00539 1.68658C3.6168 1.61693 3.14757 1.62427 2.75532 1.90287C2.00747 2.4271 1.61522 3.83114 1.64821 5.85838C1.69954 9.04039 3.1769 11.009 4.59927 11.7861L4.25834 8.79844C4.20702 8.34753 4.53328 7.93695 4.98419 7.88563C5.43509 7.8343 5.84567 8.16057 5.897 8.61147L6.3809 12.8786C6.41022 13.1315 6.32224 13.3808 6.14261 13.5568C5.98864 13.7107 5.77969 13.7951 5.5634 13.7951H5.56707Z" fill="var(--fill-0, #202933)"/>
</svg>
