<svg preserveAspectRatio="none" width="100%" height="100%" overflow="visible" style="display: block;" viewBox="0 0 10 14" fill="none" xmlns="http://www.w3.org/2000/svg">
<path id="Vector" d="M0.112947 0C-0.0303692 1.17519 -0.0367387 2.18796 0.0906535 3.0383C0.224415 3.89183 0.463276 4.61478 0.80405 5.21671C1.14482 5.81545 1.56203 6.32821 2.05249 6.76134C2.54295 7.18811 3.07482 7.5671 3.64808 7.89832C4.22135 8.22954 4.81053 8.55439 5.40928 8.86968C6.00802 9.18179 6.59084 9.52575 7.15455 9.90156C7.71508 10.2742 8.22465 10.7137 8.68644 11.2233C9.14187 11.7328 9.51768 12.3507 9.81705 13.0736C9.79157 11.7615 9.64825 10.6277 9.3871 9.67225C9.11958 8.72 8.76288 7.90469 8.317 7.21995C7.87432 6.54159 7.37749 5.95559 6.81696 5.45876C6.25325 4.96511 5.66406 4.51605 5.0494 4.11477C4.43473 3.71985 3.82643 3.32494 3.22132 2.93321C2.6162 2.54784 2.04931 2.1179 1.51108 1.64973C0.982399 1.18475 0.517417 0.633776 0.112947 0Z" fill="var(--fill-0, white)"/>
</svg>
