<svg preserveAspectRatio="none" width="100%" height="100%" overflow="visible" style="display: block;" viewBox="0 0 69 27" fill="none" xmlns="http://www.w3.org/2000/svg">
<path id="Vector" d="M1.18307 26.9968C0.862259 26.9968 0.554598 26.8679 0.331084 26.6339C0.0917922 26.3867 -0.0265383 26.0475 0.00501664 25.7056L0.523042 20.0415C0.567745 19.555 0.904332 19.1475 1.3724 19.0134L67.0777 0.0461909C67.4459 -0.0589923 67.8429 0.0172623 68.1427 0.256554C68.4425 0.495846 68.6081 0.863992 68.5871 1.24791L67.4406 22.3345C67.409 22.9367 66.9252 23.4179 66.323 23.4521L1.24355 26.9968C1.22251 26.9968 1.20148 26.9968 1.17781 26.9968H1.18307ZM2.80552 21.0618L2.48471 24.5565L65.1371 21.1433L66.1363 2.77832L2.80552 21.0592V21.0618Z" fill="var(--fill-0, #202933)"/>
</svg>
