<svg preserveAspectRatio="none" width="100%" height="100%" overflow="visible" style="display: block;" viewBox="0 0 66 18" fill="none" xmlns="http://www.w3.org/2000/svg">
<path id="Vector" d="M28.257 17.9355C28.1939 17.9355 28.1308 17.9304 28.0677 17.9203L19.6899 16.4992C19.5385 16.474 19.3946 16.4184 19.2659 16.3351L0.523811 4.32759C0.0114018 3.99945 -0.152676 3.32549 0.155275 2.79794L1.31893 0.803834C1.61426 0.296473 2.25035 0.0995818 2.78295 0.349476C2.82586 0.36967 7.13212 2.3764 10.5473 2.88881C11.4712 3.02764 12.2587 3.11598 12.9554 3.19423C15.3357 3.46179 16.9058 3.63849 19.9272 5.25397C22.5751 6.67256 24.2486 8.8156 25.175 10.3326C26.3513 8.84841 28.459 6.73566 31.5915 5.54677C35.5292 4.05245 37.4703 4.09537 40.9915 4.17614C41.9305 4.19633 42.9957 4.22157 44.2604 4.22157C50.331 4.22157 61.0235 0.119779 61.1295 0.0768675C61.5106 -0.0720594 61.9448 -0.00138712 62.2628 0.261128L65.5291 2.95444C65.8447 3.21443 65.9961 3.62587 65.9254 4.02721C65.8547 4.43108 65.572 4.76427 65.1858 4.90058L28.6357 17.8698C28.5145 17.9128 28.3858 17.9355 28.257 17.9355ZM20.2983 14.2956L28.1561 15.6284L62.538 3.42898L61.3264 2.4294C58.8779 3.33558 49.9448 6.49081 44.2629 6.49081C42.973 6.49081 41.8952 6.46557 40.9411 6.44538C37.4955 6.36713 35.923 6.3318 32.3992 7.66962C28.146 9.28257 26.061 13.0386 26.0383 13.0764C25.8262 13.4651 25.4072 13.6974 24.9655 13.6671C24.5238 13.6368 24.1376 13.3566 23.9785 12.9426C23.9659 12.9073 22.4792 9.19422 18.8544 7.25312C16.2192 5.8421 14.9697 5.70076 12.7005 5.44581C11.9861 5.36504 11.1759 5.27416 10.2116 5.13028C7.4527 4.71884 4.31008 3.48199 2.76781 2.82318L2.66684 2.99734L20.2957 14.2931L20.2983 14.2956Z" fill="var(--fill-0, #212C68)"/>
</svg>
