<svg preserveAspectRatio="none" width="100%" height="100%" overflow="visible" style="display: block;" viewBox="0 0 16 15" fill="none" xmlns="http://www.w3.org/2000/svg">
<path id="Vector" d="M11.7234 14.0716C11.6073 14.0716 11.4887 14.0539 11.3751 14.0161L5.51642 12.133C5.07469 11.9917 4.76422 11.5954 4.7314 11.1334C4.64811 10.0354 4.34521 8.78597 4.09279 8.50831C3.81261 8.20036 2.72721 7.92773 2.07092 7.86715C1.56356 7.82172 1.15211 7.4431 1.05872 6.94331L0.0187554 1.34214C-0.0468734 0.983708 0.0616622 0.612655 0.314081 0.35014C0.566499 0.0851005 0.932507 -0.0411155 1.29347 0.0118924L14.6161 1.88232C14.9392 1.92776 15.227 2.1095 15.4087 2.38463C15.5879 2.65724 15.6409 2.99548 15.5551 3.311L12.8189 13.2386C12.7356 13.5365 12.5362 13.7889 12.2636 13.9353C12.097 14.0262 11.9102 14.0716 11.7234 14.0716ZM6.91483 10.197L10.9409 11.4919L13.0183 3.95467L2.54041 2.48308L3.1437 5.73927C3.95901 5.90334 5.11003 6.2542 5.77137 6.98369C6.47309 7.75609 6.78105 9.22518 6.9123 10.1995L6.91483 10.197Z" fill="var(--fill-0, #212C68)"/>
</svg>
