<svg preserveAspectRatio="none" width="100%" height="100%" overflow="visible" style="display: block;" viewBox="0 0 40 43" fill="none" xmlns="http://www.w3.org/2000/svg">
<path id="Vector" d="M19.5856 42.5797C9.49969 42.5797 3.75776 37.6003 3.51514 37.3923C2.97792 36.9187 2.92593 36.0926 3.40539 35.5554C3.87907 35.0182 4.69934 34.9662 5.24234 35.4456C5.29433 35.4861 10.5395 39.986 19.5914 39.986C31.9475 39.986 35.5117 34.6831 36.3724 32.8635C34.6394 30.628 34.4315 28.4502 34.4315 22.2865V2.9292L19.8687 6.25651C19.678 6.30273 19.4816 6.30273 19.291 6.25651L4.72823 2.9292V22.2865C4.72823 29.0163 4.48561 30.9919 2.27317 33.4874C1.79372 34.0246 0.973442 34.0708 0.436219 33.5971C-0.101004 33.1177 -0.147214 32.2974 0.326467 31.7602C1.80527 30.0907 2.12299 29.0914 2.12299 22.2865V1.3002C2.12299 0.907391 2.30206 0.531911 2.614 0.283518C2.92593 0.0351247 3.32452 -0.0573009 3.71155 0.0351246L19.5741 3.66283L35.4308 0.0351246C35.8178 -0.0515243 36.2222 0.0351247 36.5284 0.283518C36.8403 0.531911 37.0194 0.901615 37.0194 1.3002V22.2865C37.0194 29.0914 37.3371 30.0907 38.8159 31.7602C39.1047 32.0894 39.2145 32.54 39.0989 32.9617C38.995 33.3545 36.2973 42.5855 19.5741 42.5855L19.5856 42.5797Z" fill="var(--fill-0, #202933)"/>
</svg>
