<svg preserveAspectRatio="none" width="100%" height="100%" overflow="visible" style="display: block;" viewBox="0 0 28 9" fill="none" xmlns="http://www.w3.org/2000/svg">
<path id="Vector" d="M0.725615 8.94151C0.546625 8.94151 0.367637 8.87558 0.226329 8.74369C-0.0657068 8.46579 -0.0751298 8.00888 0.198065 7.71684L3.12313 4.63163C9.86822 -2.38665 16.5945 0.496026 17.772 1.08481L24.2628 1.2638C26.0385 1.3109 27.4846 2.84645 27.4846 4.68345C27.4846 5.59724 27.1313 6.44979 26.4907 7.07626C25.8784 7.67446 25.0776 8.00418 24.2298 7.97592L17.2351 7.8299C16.8347 7.82048 16.5144 7.49076 16.5238 7.09039C16.5332 6.69472 16.8582 6.37913 17.2492 6.37913C17.2539 6.37913 17.2586 6.37913 17.2633 6.37913L24.2581 6.52515C24.7197 6.52044 25.1389 6.36029 25.4733 6.03999C25.8313 5.68672 26.0338 5.20629 26.0338 4.68345C26.0338 3.62835 25.2237 2.74753 24.2251 2.71927L17.5695 2.53556C17.447 2.53556 17.3293 2.49788 17.2209 2.43665C16.9619 2.28592 10.7443 -1.19495 4.17823 5.63963L1.25317 8.72013C1.11186 8.87086 0.918736 8.94623 0.725615 8.94623V8.94151Z" fill="var(--fill-0, #14B8A6)"/>
</svg>
