<svg preserveAspectRatio="none" width="100%" height="100%" overflow="visible" style="display: block;" viewBox="0 0 12 8" fill="none" xmlns="http://www.w3.org/2000/svg">
<path id="Vector" d="M6.92108 7.3163C6.60303 7.3163 6.29507 7.14466 6.13857 6.84176C5.9114 6.41012 6.08053 5.875 6.51216 5.65034C7.65057 5.05464 8.5517 3.58556 9.08178 2.47744L2.02921 1.86659C2.39774 3.10597 3.10703 4.7896 4.21515 5.53423C4.61902 5.80684 4.72756 6.35459 4.45495 6.76098C4.18233 7.16485 3.63459 7.27339 3.2282 7.00078C0.764592 5.34492 0.042678 1.20526 0.0123878 1.02856C-0.0330475 0.758476 0.0477276 0.483336 0.234517 0.283926C0.418783 0.081991 0.688872 -0.0215008 0.961484 0.00374108L10.4347 0.826628C10.7048 0.849345 10.9471 0.995746 11.0961 1.22292C11.245 1.4501 11.2803 1.73028 11.197 1.98775C11.144 2.14677 9.86933 5.89771 7.33252 7.22291C7.20127 7.29106 7.06244 7.32388 6.92361 7.32388L6.92108 7.3163Z" fill="var(--fill-0, #212C68)"/>
</svg>
