<svg preserveAspectRatio="none" width="100%" height="100%" overflow="visible" style="display: block;" viewBox="0 0 138 74" fill="none" xmlns="http://www.w3.org/2000/svg">
<path id="Vector" d="M122.641 73.878H1.18331C0.528546 73.878 0 73.3495 0 72.6947V69.1974C0 67.0937 1.70923 65.3845 3.81289 65.3845H26.5298L40.3325 2.98983C40.7217 1.23064 42.2521 0 44.056 0H133.83C134.992 0 136.076 0.520652 136.804 1.42523C137.532 2.33243 137.806 3.50259 137.553 4.63594L123.824 66.6967V72.6947C123.824 73.3495 123.296 73.878 122.641 73.878ZM2.36399 71.5114H121.455V66.5678C121.455 66.481 121.466 66.3969 121.484 66.3127L135.239 4.1258C135.334 3.69455 135.231 3.25279 134.955 2.90831C134.679 2.56384 134.269 2.36662 133.827 2.36662H44.0534C43.3697 2.36662 42.7885 2.83206 42.6413 3.49997L28.6335 66.8229C28.5125 67.3646 28.034 67.7511 27.4791 67.7511H3.81026C3.0135 67.7511 2.36399 68.4006 2.36399 69.1974V71.5114Z" fill="var(--fill-0, #202933)"/>
</svg>
