<svg preserveAspectRatio="none" width="100%" height="100%" overflow="visible" style="display: block;" viewBox="0 0 6 11" fill="none" xmlns="http://www.w3.org/2000/svg">
<path id="Vector" d="M1.2419 10.2539C1.00743 10.2539 0.772964 10.19 0.566921 10.055C-0.00857686 9.67845 -0.171982 8.91112 0.197473 8.32852C1.27742 6.66597 2.35735 4.99631 3.4444 3.33376C3.45861 3.31955 3.46573 3.29113 3.45863 3.2485C3.45152 3.21298 3.43021 3.18456 3.39468 3.16325L1.92396 2.33197C1.32715 1.99093 1.11399 1.23071 1.44792 0.633896C1.78185 0.0370829 2.54209 -0.176065 3.14601 0.157866L4.66645 1.01756C5.3201 1.42254 5.73929 2.01225 5.88849 2.70143C6.0448 3.3906 5.91693 4.09399 5.52616 4.6837C4.43911 6.34625 3.35916 8.0088 2.27921 9.67135C2.03764 10.0408 1.63977 10.2397 1.23478 10.2397L1.2419 10.2539Z" fill="var(--fill-0, #14B8A6)"/>
</svg>
