<svg preserveAspectRatio="none" width="100%" height="100%" overflow="visible" style="display: block;" viewBox="0 0 74 149" fill="none" xmlns="http://www.w3.org/2000/svg">
<path id="Vector" d="M36.6533 149C36.2563 149 35.8855 148.8 35.6672 148.469C35.449 148.138 35.4095 147.717 35.5647 147.352L46.8377 120.903C45.8779 119.993 44.5605 118.397 45.0259 116.83C45.2784 115.981 45.4834 111.658 45.5571 108.734L37.2371 83.4501C35.1571 80.0501 5.37711 31.3292 2.77908 26.5066C-0.526298 20.3692 -2.37752 9.14085 6.06606 3.36366C11.675 -0.475526 19.6873 -0.149458 28.1729 0.192388C29.4377 0.24235 30.7473 0.297571 32.0411 0.334385C45.6149 0.734081 51.2475 1.047 51.3027 1.04963C51.8681 1.08118 52.3309 1.50718 52.4071 2.06728C52.4624 2.45646 53.7245 11.6442 52.5255 16.3827C50.9162 22.7516 48.1393 24.4687 47.829 24.6448C47.6266 24.7579 47.3952 24.8105 47.1611 24.7921L34.3682 23.8323L33.8134 25.3917L43.6533 36.8408C45.0706 36.7409 48.3628 36.7961 50.8557 39.0812C52.5439 40.6274 53.6956 41.2401 54.2373 41.4689C55.3312 40.851 58.0634 39.4731 60.6009 39.4731C63.6512 39.4731 65.5577 43.9065 66.62 47.6248L66.6305 47.6589C68.1346 51.3903 72.4446 74.1598 73.0625 89.4508C73.8461 108.873 70.2909 123.856 67.1696 133.007C63.7722 142.968 60.2196 148.264 60.0724 148.485C59.8515 148.811 59.486 149.003 59.0942 149.003H36.6586L36.6533 149ZM21.1441 2.36705C15.7508 2.36705 10.9097 2.91663 7.40187 5.31481C-0.597308 10.7896 2.85535 21.6576 4.86172 25.3838C7.46501 30.2196 39.0068 81.8119 39.325 82.3326C39.3723 82.4115 39.4118 82.493 39.4407 82.5798L47.8658 108.187C47.9079 108.315 47.929 108.45 47.9237 108.584C47.8948 109.812 47.7318 116.015 47.29 117.503C47.2558 117.824 48.0342 118.884 48.9966 119.652C49.4121 119.983 49.5567 120.554 49.3489 121.043L38.4414 146.636H58.4368C59.3887 145.087 62.2523 140.11 64.9581 132.142C67.9979 123.199 71.4585 108.549 70.6932 89.5429C70.0648 73.9679 65.6313 51.3877 64.4164 48.5057C64.398 48.4636 64.3822 48.4189 64.3717 48.3768L64.3428 48.2743C63.0727 43.8303 61.5476 41.8397 60.6009 41.8397C58.0923 41.8397 55.042 43.7409 55.0104 43.7619C54.7685 43.9144 54.4819 43.9749 54.2005 43.9302C53.8876 43.8829 52.1784 43.5068 49.2569 40.8273C46.9297 38.6921 43.3929 39.2469 43.3561 39.2522C42.9485 39.3205 42.5304 39.1706 42.2622 38.8577L31.5704 26.4172C31.2942 26.0937 31.2101 25.6493 31.3521 25.2497L32.4407 22.1941C32.6195 21.6918 33.1113 21.371 33.6451 21.4105L46.9008 22.4044C47.5004 21.8812 49.1412 20.1246 50.2325 15.8068C51.1055 12.3516 50.4718 5.82495 50.1852 3.36629C48.0499 3.26374 42.3332 3.00867 31.9727 2.70364C30.6684 2.66419 29.351 2.6116 28.0783 2.56164C25.709 2.46697 23.3792 2.37231 21.1441 2.37231V2.36705Z" fill="var(--fill-0, #202933)"/>
</svg>
