<svg preserveAspectRatio="none" width="100%" height="100%" overflow="visible" style="display: block;" viewBox="0 0 6 19" fill="none" xmlns="http://www.w3.org/2000/svg">
<path id="Vector" d="M4.09433 18.3985C3.80106 18.3985 3.51512 18.2409 3.36482 17.9623C1.37057 14.2377 0.0985 11.6533 0.0838364 11.6276C-0.0664656 11.3197 -0.0114781 10.9494 0.22314 10.7001L3.30983 7.40448L0.919662 5.74749C0.571401 5.50554 0.461423 5.03997 0.666714 4.66971L3.02756 0.424599C3.24751 0.0250156 3.74974 -0.117958 4.14932 0.105662C4.5489 0.325616 4.69188 0.827844 4.46826 1.22743L2.47034 4.82001L5.02914 6.59431C5.2271 6.72995 5.3554 6.94624 5.38106 7.18452C5.40673 7.4228 5.32608 7.66109 5.16111 7.83706L1.81414 11.4113C2.27604 12.3351 3.35015 14.4503 4.81285 17.1851C5.02914 17.5884 4.87517 18.0869 4.47559 18.3032C4.35095 18.3692 4.21897 18.4022 4.087 18.4022L4.09433 18.3985Z" fill="var(--fill-0, #202933)"/>
</svg>
