<svg preserveAspectRatio="none" width="100%" height="100%" overflow="visible" style="display: block;" viewBox="0 0 15 100" fill="none" xmlns="http://www.w3.org/2000/svg">
<path id="Vector" d="M9.35571 99.1315C9.35571 99.1315 9.29794 99.1315 9.26906 99.1315C8.55276 99.0853 8.00976 98.4672 8.05597 97.7509C8.495 90.9634 10.0951 61.3526 10.1124 61.0523C10.28 58.707 10.4648 54.5478 10.6439 50.5215C10.8981 44.8894 11.1349 39.5691 11.3486 38.2001C12.452 31.1469 11.4815 28.3741 10.4821 26.335C10.1644 25.688 9.37881 24.6424 8.46611 23.4293C4.98283 18.8138 -0.839977 11.0905 0.101607 1.1779C0.170926 0.461605 0.806354 -0.0582879 1.51687 0.00525461C2.23317 0.0745737 2.75306 0.710006 2.68952 1.42053C1.84614 10.328 7.28769 17.5488 10.5457 21.8581C11.5797 23.2329 12.4 24.3132 12.8274 25.1912C14.081 27.7676 15.0861 31.1757 13.925 38.5987C13.7344 39.8233 13.4744 45.5652 13.2491 50.6371C13.0701 54.6807 12.8794 58.8572 12.7119 61.214C12.6946 61.4913 11.0945 91.1194 10.6554 97.9185C10.6092 98.6059 10.0373 99.1373 9.36148 99.1373L9.35571 99.1315Z" fill="var(--fill-0, #202933)"/>
</svg>
