<svg preserveAspectRatio="none" width="100%" height="100%" overflow="visible" style="display: block;" viewBox="0 0 70 52" fill="none" xmlns="http://www.w3.org/2000/svg">
<path id="Vector" d="M67.6785 31.9587C69.1285 31.7854 69.6426 30.8958 69.6426 30.8958C69.6426 30.8958 66.2979 28.0884 64.3916 25.8182C61.9655 22.9299 60.9777 18.8285 60.9777 18.8285C60.9777 18.8285 59.3256 7.4082 46.3283 2.63096C33.1519 -2.2156 25.5672 1.11749 25.5672 1.11749C25.5672 1.11749 22.2399 1.83379 18.7104 5.17266C15.1173 8.57507 15.4177 10.7991 15.4177 10.7991C15.4177 10.7991 7.49801 11.2496 4.42487 19.2733C2.53592 24.2065 3.63347 28.0248 3.78366 30.6359C3.93386 33.2469 1.08022 35.3207 1.08022 35.3207L5.87479 33.7783C5.87479 33.7783 5.71305 35.4535 4.82345 38.001C4.19958 39.786 0 42.8245 0 42.8245C0 42.8245 5.17583 43.1653 8.72843 40.6814C12.281 38.1974 15.7643 33.3278 15.7239 29.7347C15.6372 21.8208 19.8541 20.3651 19.8541 20.3651H24.0017C26.5088 20.3651 22.4825 19.3715 22.7193 18.505C22.8868 17.8985 24.4292 18.2335 24.4292 18.2335C24.4292 18.2335 25.625 18.5397 26.3355 19.1289C27.693 20.2496 28.3977 22.8895 28.34 23.3862C27.7623 28.1519 27.3117 33.0274 32.6262 36.9555L33.4349 35.8868L35.6069 37.8508C35.6069 37.8508 34.492 35.9792 34.1396 32.8541C33.6082 28.1346 37.3399 27.6898 37.3399 27.6898C37.3399 27.6898 37.5536 31.381 39.8527 34.4946C42.3482 37.8682 48.1537 38.8328 48.1537 38.8328C48.1537 38.8328 51.5445 39.5665 52.7114 41.2359C54.0284 43.1191 55.3975 51.6453 55.3975 51.6453C55.3975 51.6453 57.1478 46.4175 57.5464 41.906L61.3185 48.7744C61.3185 48.7744 61.9828 46.4522 63.0053 42.8707C66.1651 43.8527 67.6381 41.6865 67.6381 41.6865C67.6381 41.6865 65.2581 39.7687 64.5476 38.0184C63.2017 34.6968 63.7562 31.8143 63.7562 31.8143C63.7562 31.8143 66.217 32.1436 67.667 31.9703L67.6785 31.9587Z" fill="var(--fill-0, #AF8F7E)"/>
</svg>
