<svg preserveAspectRatio="none" width="100%" height="100%" overflow="visible" style="display: block;" viewBox="0 0 73 74" fill="none" xmlns="http://www.w3.org/2000/svg">
<path id="Vector" d="M3.04 58.6933C2.29333 58.6933 1.92 59.0667 1.92 59.8133V66.6933C1.92 67.44 2.29333 67.8133 3.04 67.8133H31.2V72.0533C31.2 72.8 31.5733 73.1733 32.32 73.1733H41.2C41.9467 73.1733 42.32 72.8 42.32 72.0533V67.8133H70.96C71.7067 67.8133 72.08 67.44 72.08 66.6933V59.8133C72.08 59.0667 71.7067 58.6933 70.96 58.6933H42.32V53.7333H67.44C68.1867 53.7333 68.56 53.36 68.56 52.6133V46.2133C68.56 45.4667 68.1867 45.0933 67.44 45.0933H6.72C5.97333 45.0933 5.6 45.4667 5.6 46.2133V52.6133C5.6 53.36 5.97333 53.7333 6.72 53.7333H31.2V58.6933H3.04ZM0.32 5.49333C2.66667 8.58667 4.33333 12.04 5.32 15.8533C6.30667 19.6667 6.8 23.8667 6.8 28.4533L6.64 40.2133C6.64 40.96 7.01333 41.3333 7.76 41.3333H66.88C67.6267 41.3333 68 40.96 68 40.2133V17.0133C68 16.2667 67.6267 15.8933 66.88 15.8933H16.48C15.52 9.81333 13.4933 4.69333 10.4 0.533333C10.0267 0 9.52 -0.133333 8.88 0.133333L0.64 3.97333C0.213333 4.13333 0 4.4 0 4.77333C0 5.04 0.106667 5.28 0.32 5.49333ZM17.12 27.0933V24.6133H31.76V32.7733H17.12V27.0933ZM57.68 32.7733H42.16V24.6133H57.68V32.7733Z" fill="var(--fill-0, white)"/>
</svg>
