<svg preserveAspectRatio="none" width="100%" height="100%" overflow="visible" style="display: block;" viewBox="0 0 7 7" fill="none" xmlns="http://www.w3.org/2000/svg">
<path id="Vector" d="M3.14969 6.30931C2.41011 6.30931 1.69828 6.05185 1.12529 5.56973C0.4791 5.02703 0.0853341 4.26725 0.0121327 3.4267C-0.0610686 2.58614 0.198924 1.76831 0.739099 1.12464C1.2818 0.478449 2.04158 0.0846758 2.88213 0.0114744C3.72016 -0.0592027 4.54052 0.198265 5.18418 0.738441C5.83038 1.28114 6.22416 2.04092 6.29736 2.88147C6.37056 3.72202 6.11057 4.53986 5.57039 5.18353C5.02769 5.82972 4.2679 6.22349 3.42735 6.29669C3.33395 6.30427 3.24056 6.30931 3.14969 6.30931ZM3.15727 2.2681C3.13203 2.2681 3.10427 2.26809 3.07902 2.27062C2.84427 2.29081 2.62972 2.40188 2.47827 2.58109C2.32681 2.76283 2.25361 2.99001 2.27381 3.22476C2.294 3.45951 2.40506 3.67407 2.5868 3.82552C2.76855 3.97697 2.99572 4.05017 3.23047 4.02998C3.71511 3.98706 4.07607 3.55795 4.03316 3.07331C4.01296 2.83856 3.9019 2.62653 3.72269 2.47255C3.56114 2.33877 3.36425 2.26557 3.15475 2.26557L3.15727 2.2681Z" fill="var(--fill-0, #212C68)"/>
</svg>
