<svg preserveAspectRatio="none" width="100%" height="100%" overflow="visible" style="display: block;" viewBox="0 0 50 60" fill="none" xmlns="http://www.w3.org/2000/svg">
<path id="Vector" d="M23.884 59.4492C23.5921 59.4492 23.3028 59.3414 23.074 59.1284L0.372901 37.7578C0.0179077 37.4238 -0.0951578 36.9084 0.0836536 36.4588L5.87663 21.9251L8.51407 1.03569C8.56403 0.641254 8.80861 0.299408 9.1636 0.123226C9.51859 -0.0529554 9.93933 -0.0398076 10.2812 0.16004L22.1379 7.03902L37.9838 13.0397C38.5202 13.2422 38.8331 13.7997 38.7279 14.3624C37.8891 18.8537 37.1634 24.2759 37.4342 25.3067C38.1021 26.4217 44.8312 34.7495 48.9728 39.8062C49.2384 40.1297 49.312 40.5714 49.1674 40.9659L43.8425 55.4312C43.6164 56.0439 42.9379 56.3594 42.3226 56.1333C41.7099 55.9071 41.3943 55.2261 41.6205 54.6134L46.7113 40.7844C44.1791 37.6868 36.0326 27.6944 35.3279 26.398C35.015 25.8221 34.7468 24.7519 35.5172 19.3165C35.7618 17.5915 36.0458 15.9165 36.2219 14.9067L21.2044 9.21894C21.1439 9.19528 21.0861 9.16898 21.0309 9.1348L10.6335 3.10254L8.20116 22.3721C8.18802 22.472 8.16434 22.5693 8.12753 22.6614L2.57649 36.5876L24.6912 57.406C25.1672 57.853 25.1909 58.6025 24.7412 59.0784C24.5072 59.3256 24.1943 59.4518 23.8787 59.4518L23.884 59.4492Z" fill="var(--fill-0, #202933)"/>
</svg>
