<svg preserveAspectRatio="none" width="100%" height="100%" overflow="visible" style="display: block;" viewBox="0 0 20 33" fill="none" xmlns="http://www.w3.org/2000/svg">
<path id="Vector" d="M18.3268 32.8221C18.0899 32.8221 17.8589 32.7585 17.6509 32.6315C17.443 32.5044 12.5502 29.5237 9.52327 27.265C8.91673 26.8144 8.37373 26.3812 7.85384 25.9595C5.6414 24.1861 4.77491 23.6084 3.69468 24.1225C2.72422 24.5847 2.59714 25.8497 2.59714 25.8613C2.55092 26.5776 1.93861 27.1206 1.21076 27.0686C0.49446 27.0224 -0.0485463 26.3985 0.00344304 25.6822C0.0727621 24.654 0.690864 22.6726 2.57403 21.7715C5.22549 20.5064 7.2935 22.1701 9.48283 23.9261C9.97962 24.3247 10.5053 24.7464 11.0772 25.1739C12.8275 26.4794 15.2941 28.0737 17.0097 29.1597C16.9173 23.5333 16.409 9.19006 13.6766 1.74981C13.4282 1.07395 13.7748 0.328771 14.4507 0.0803773C15.1266 -0.168016 15.8717 0.178577 16.1201 0.854438C19.7074 10.6342 19.6381 30.6732 19.6323 31.5224C19.6323 31.9903 19.3723 32.4235 18.968 32.6488C18.7716 32.7585 18.5521 32.8163 18.3326 32.8163L18.3268 32.8221Z" fill="var(--fill-0, #202933)"/>
</svg>
