<svg preserveAspectRatio="none" width="100%" height="100%" overflow="visible" style="display: block;" viewBox="0 0 27 26" fill="none" xmlns="http://www.w3.org/2000/svg">
<path id="Vector" d="M9.88211 14.3401C10.1883 14.5191 10.3202 14.6368 10.3154 14.8299C10.3013 15.1926 9.71253 15.1126 9.54296 15.1078C8.16756 17.2322 5.60991 20.3221 3.64573 21.9C2.666 20.8638 1.05039 19.6391 0 18.9655C2.73666 17.0202 4.55479 14.9618 6.2128 11.9802C7.43747 12.7668 8.66215 13.5535 9.88211 14.3401ZM11.5872 0.765108C13.1416 0.868734 14.7007 0.97236 16.2551 1.0807C16.3964 1.08541 16.679 1.12309 16.6696 1.4057C16.6602 1.62709 16.4294 1.75897 16.2551 1.8626C16.1938 3.48764 16.1326 5.11268 16.0667 6.73771C19.1754 6.85547 22.2842 6.98265 25.393 7.11454C25.3365 8.46167 25.2799 9.80409 25.2234 11.1512C22.1194 11.0193 19.0153 10.8969 15.9112 10.7791C15.7841 14.0904 15.6569 17.4064 15.5297 20.7178C15.459 22.5265 15.3554 25.1972 10.697 25.0276C9.93862 24.9994 9.26978 24.891 8.79404 24.8204C8.57737 23.0823 8.24293 22.1497 7.48929 20.4257C8.24293 20.5906 8.99657 20.7601 9.78318 20.7884C10.8524 20.8261 10.876 20.0772 10.9042 19.38C11.0126 16.455 11.1162 13.5299 11.2245 10.6095C8.1393 10.4965 5.0541 10.3882 1.96888 10.2892C2.01128 8.94211 2.05836 7.59969 2.10076 6.25256C5.19068 6.35618 8.28061 6.45981 11.3705 6.57286C11.4412 4.64165 11.5119 2.71045 11.5825 0.77924L11.5872 0.765108ZM20.8099 12.0791C21.8933 13.2096 24.597 16.1394 26.1655 19.0221C24.5922 20.209 23.8951 20.7366 22.5809 21.8859C21.2809 19.2387 19.1707 16.422 17.4091 14.5662C18.5443 13.7372 19.6747 12.9082 20.8099 12.0791ZM26.8296 2.734C26.7684 4.18004 25.5296 5.30109 24.06 5.23985C22.5904 5.17862 21.4505 3.96337 21.507 2.51261C21.5635 1.06656 22.8306 -0.0544763 24.2767 0.00204677C25.751 0.0632801 26.8908 1.28324 26.8296 2.72929V2.734ZM22.9201 2.56914C22.8918 3.26626 23.4335 3.84562 24.1118 3.87388C24.8183 3.9304 25.3788 3.36988 25.4118 2.67276C25.4401 2.00391 24.8984 1.42454 24.2154 1.39628C23.5371 1.36802 22.9484 1.90028 22.9201 2.56914Z" fill="var(--fill-0, #0F172A)"/>
</svg>
