<svg preserveAspectRatio="none" width="100%" height="100%" overflow="visible" style="display: block;" viewBox="0 0 64 52" fill="none" xmlns="http://www.w3.org/2000/svg">
<path id="Vector" d="M41.9685 51.7019C41.6681 51.7019 41.3678 51.5833 41.1431 51.3485C40.7115 50.8942 40.7316 50.1748 41.186 49.7431L59.9836 31.9173C57.0959 30.2867 50.7451 26.5938 48.9529 24.7032C45.992 21.5783 44.4876 18.8749 44.4876 12.7866V3.0331L32.0485 9.70957C31.7127 9.88879 31.3089 9.88879 30.9731 9.70957L18.5314 3.0331V12.7866C18.5314 18.8749 17.027 21.5758 14.0662 24.7032C12.274 26.5938 5.92314 30.2867 3.03548 31.9173L21.8331 49.7431C22.2874 50.1748 22.3076 50.8942 21.876 51.3485C21.4443 51.8029 20.725 51.8231 20.2706 51.3914L0.354793 32.503C0.0922782 32.2531 -0.036454 31.8946 0.0089813 31.5337C0.0544166 31.1752 0.268967 30.8572 0.587014 30.683C3.31313 29.1811 10.7544 24.8976 12.4204 23.1408C15.0784 20.3364 16.2622 18.1757 16.2622 12.7866V1.13492C16.2622 0.736098 16.4717 0.365039 16.815 0.16058C17.1583 -0.0438793 17.5823 -0.0539698 17.9357 0.135344L31.5133 7.42014L45.0884 0.135344C45.4418 -0.0539698 45.8658 -0.0438793 46.2091 0.16058C46.5524 0.365039 46.7619 0.736098 46.7619 1.13492V12.7866C46.7619 18.1757 47.9483 20.3339 50.6037 23.1408C52.2697 24.9001 59.7085 29.1811 62.4371 30.683C62.7552 30.8572 62.9697 31.1727 63.0152 31.5337C63.0606 31.8921 62.9344 32.2531 62.6694 32.503L42.7535 51.3914C42.5339 51.6009 42.2537 51.7019 41.971 51.7019H41.9685Z" fill="var(--fill-0, #212C68)"/>
</svg>
