<svg preserveAspectRatio="none" width="100%" height="100%" overflow="visible" style="display: block;" viewBox="0 0 11 12" fill="none" xmlns="http://www.w3.org/2000/svg">
<path id="Vector" d="M3.91133 11.3217C3.49523 11.3217 3.10945 11.0489 2.98544 10.63C2.83388 10.1202 3.12598 9.58286 3.63853 9.4313C7.0693 8.41998 8.18808 5.29509 8.52978 3.79878L2.0127 2.17296L1.9245 3.1512C1.87765 3.68304 1.40646 4.07434 0.877376 4.02474C0.345538 3.9779 -0.0430189 3.50668 0.00382693 2.9776L0.193983 0.877803C0.218784 0.596728 0.364822 0.340451 0.596295 0.177869C0.825013 0.0152861 1.11435 -0.0398206 1.38716 0.0290703L9.86626 2.14264C10.3292 2.25838 10.6378 2.69377 10.5938 3.16774C10.569 3.42952 9.92964 9.58561 4.18414 11.2803C4.0932 11.3079 4.00227 11.3189 3.91133 11.3189V11.3217Z" fill="var(--fill-0, #202933)"/>
</svg>
