<svg preserveAspectRatio="none" width="100%" height="100%" overflow="visible" style="display: block;" viewBox="0 0 60 127" fill="none" xmlns="http://www.w3.org/2000/svg">
<path id="Vector" d="M55.9583 126.787H1.71939C0.781539 126.787 0.0142129 126.027 0.0142129 125.082V110.098C0.0142129 91.4118 9.75505 80.5413 19.1762 70.0331C28.441 59.6955 37.1942 49.9333 37.1942 33.0734C37.1942 21.7837 33.0521 20.8387 29.1728 20.8387C25.2935 20.8387 21.1513 22.011 21.1513 31.1622V44.2281C21.1513 45.1659 20.3911 45.9333 19.4462 45.9333H1.70519C0.767337 45.9333 0 45.173 0 44.2281V32.3771C0 11.5029 10.5366 0 29.6772 0C48.8179 0 59.3544 11.4957 59.3544 32.3771C59.3544 55.2762 46.2814 69.9763 35.7803 81.7847C28.3841 90.1045 21.9968 97.2805 21.9968 105.046C21.9968 105.359 21.9968 105.657 22.0039 105.956H55.937C56.8748 105.956 57.6422 106.716 57.6422 107.661V125.089C57.6422 126.027 56.8819 126.794 55.937 126.794L55.9583 126.787ZM3.42457 123.377H54.2531V109.359H20.4764C19.6593 109.359 18.963 108.783 18.8067 107.98C18.6078 106.95 18.6078 105.977 18.6078 105.039C18.6078 95.9803 25.393 88.3496 33.251 79.5182C43.8942 67.5464 55.9654 53.976 55.9654 32.3771C55.9654 13.4283 46.8853 3.41036 29.6985 3.41036C12.5118 3.41036 3.43167 13.4283 3.43167 32.3771V42.5229H17.7623V31.155C17.7623 19.8085 23.9791 17.4284 29.187 17.4284C37.0877 17.4284 40.6117 22.2526 40.6117 33.0734C40.6117 51.2406 31.0059 61.9477 21.7197 72.3067C12.3128 82.8007 3.42457 92.712 3.42457 110.098V123.377Z" fill="var(--fill-0, #14B8A6)"/>
</svg>
