<svg preserveAspectRatio="none" width="100%" height="100%" overflow="visible" style="display: block;" viewBox="0 0 56 63" fill="none" xmlns="http://www.w3.org/2000/svg">
<path id="Vector" d="M41.5691 62.4745C33.278 62.4745 23.9667 59.2953 23.4408 59.1139C22.8228 58.9009 22.4968 58.2251 22.7098 57.6098C22.9228 56.9918 23.5986 56.6658 24.2139 56.8787C24.3795 56.9366 40.8434 62.5534 48.5428 58.8667C50.1494 58.0989 50.862 54.7146 51.6851 50.7965C51.8639 49.9445 52.0506 49.0636 52.2557 48.1564C53.2629 43.6993 54.1174 37.9379 51.7719 32.9101C49.8838 28.8606 49.1081 26.1994 48.4849 24.0642C48.2456 23.2464 48.0405 22.5391 47.8065 21.8764C47.6014 21.3005 47.3989 20.6694 47.1833 19.9989C45.5292 14.8581 43.0285 7.08766 32.4313 2.93292C27.2432 0.900258 17.4269 4.77889 12.1126 8.18156C-0.0992131 16.0046 1.34441 26.4387 4.70502 33.8121C6.89283 38.6137 9.02805 43.1918 9.04909 43.2365L12.3887 50.3995C12.6648 50.9911 12.4097 51.6958 11.8154 51.972C11.2238 52.2481 10.519 51.993 10.2429 51.3987L6.90337 44.2357C6.88234 44.191 4.74448 39.605 2.55141 34.7929C-0.517313 28.0586 -3.52292 15.384 10.8372 6.18834C16.3883 2.63052 26.9513 -1.75825 33.2938 0.729335C44.935 5.29166 47.7513 14.0429 49.4342 19.2731C49.6446 19.9253 49.8418 20.5406 50.0363 21.0823C50.294 21.8107 50.5202 22.5838 50.7568 23.4016C51.3564 25.4605 52.1032 28.0244 53.915 31.9109C56.563 37.5882 55.6505 43.8544 54.5619 48.6797C54.3594 49.5711 54.1779 50.4415 53.9991 51.2856C53.0078 56.0031 52.2215 59.7318 49.563 61.0046C47.3174 62.0801 44.5063 62.4798 41.5665 62.4798L41.5691 62.4745Z" fill="var(--fill-0, #202933)"/>
</svg>
