<svg preserveAspectRatio="none" width="100%" height="100%" overflow="visible" style="display: block;" viewBox="0 0 18 12" fill="none" xmlns="http://www.w3.org/2000/svg">
<path id="Vector" d="M1.13564 11.8904C0.910985 11.8904 0.68382 11.8247 0.484409 11.6834C-0.0305246 11.3224 -0.154234 10.6157 0.206724 10.1007L6.94884 0.48359C7.26689 0.0292367 7.86512 -0.127266 8.36491 0.110008C8.45073 0.150395 10.4549 1.11211 11.6388 2.50294C12.1789 3.13651 13.9257 5.56982 16.8335 9.7322C17.192 10.2471 17.0658 10.9539 16.5533 11.3149C16.0384 11.6733 15.3316 11.5471 14.9707 11.0347C12.1865 7.04647 10.3893 4.53995 9.90971 3.97706C9.44778 3.43436 8.76119 2.95476 8.22354 2.62409L2.06705 11.4057C1.84492 11.7213 1.49407 11.8904 1.13564 11.8904Z" fill="var(--fill-0, #212C68)"/>
</svg>
