<svg preserveAspectRatio="none" width="100%" height="100%" overflow="visible" style="display: block;" viewBox="0 0 85 62" fill="none" xmlns="http://www.w3.org/2000/svg">
<path id="Vector" d="M83.7634 61.8284C83.156 61.8284 82.6406 61.363 82.5854 60.7476L78.0125 8.48475C77.8547 6.69401 77.0106 5.07419 75.6327 3.92243C74.2548 2.77068 72.5114 2.22635 70.7207 2.39201C61.4041 3.24663 48.6796 4.26427 40.9644 4.26427C33.2492 4.26427 19.7252 3.27292 9.62502 2.43935C7.65021 2.27631 5.72012 2.98893 4.32118 4.39313C2.92487 5.79732 2.22275 7.73532 2.39368 9.70751L6.84031 60.5399C6.89816 61.192 6.41695 61.7653 5.76482 61.8232C5.11268 61.881 4.53943 61.3998 4.48158 60.7476L0.0349522 9.91525C-0.19908 7.24622 0.750207 4.62452 2.64087 2.72597C4.53154 0.827412 7.14532 -0.135011 9.81698 0.0832437C19.8751 0.911561 33.4411 1.90028 40.9617 1.90028C48.9898 1.90028 62.9161 0.732746 70.5024 0.0385373C72.9216 -0.182347 75.283 0.551307 77.1474 2.11065C79.0118 3.66999 80.1556 5.86043 80.3686 8.28227L84.9415 60.5425C84.9993 61.1947 84.5181 61.7679 83.866 61.8258C83.8318 61.8284 83.795 61.831 83.7608 61.831L83.7634 61.8284Z" fill="var(--fill-0, #202933)"/>
</svg>
