<svg preserveAspectRatio="none" width="100%" height="100%" overflow="visible" style="display: block;" viewBox="0 0 31 61" fill="none" xmlns="http://www.w3.org/2000/svg">
<path id="Vector" d="M0.00502249 54.4634C0.00502249 54.4634 7.22168 41.2518 8.19349 38.084C9.16783 34.9161 6.23219 23.1787 6.44927 22.1564C6.66635 21.1341 8.79172 10.8026 9.8645 9.32848C10.9373 7.85436 16.955 2.58133 16.955 2.58133C16.955 2.58133 20.7992 -1.31096 22.4526 0.46354C24.1741 2.31124 21.5565 4.36846 21.5565 4.36846L18.6688 6.78915C18.6688 6.78915 22.127 7.12991 23.023 7.45553C23.9191 7.78115 26.4156 11.2519 26.4156 11.2519C26.4156 11.2519 27.4682 12.3373 28.4451 13.4909C29.1089 14.2734 29.8384 15.023 29.7929 15.7475C29.7323 16.6991 29.2982 17.1055 29.2982 17.1055C29.2982 17.1055 30.4442 18.0697 30.2372 19.1198C30.0024 20.3087 28.9902 21.2628 27.2713 21.1442C25.9032 21.0508 24.5326 20.0537 24.5326 20.0537L22.9675 21.4572L23.0635 25.5135C23.0635 25.5135 26.0597 30.9683 24.9566 35.8804C24.1539 39.4597 20.8295 45.1492 20.8295 45.1492L15.6121 60.0595C15.6121 60.0595 11.9394 60.9152 7.14342 59.3755C2.34747 57.8357 0 54.4685 0 54.4685L0.00502249 54.4634Z" fill="var(--fill-0, #FFEBE1)"/>
</svg>
