<svg preserveAspectRatio="none" width="100%" height="100%" overflow="visible" style="display: block;" viewBox="0 0 64 74" fill="none" xmlns="http://www.w3.org/2000/svg">
<path id="Vector" d="M1.13662 73.0586C0.879156 73.0586 0.626746 72.9703 0.419763 72.8037C0.101716 72.5437 -0.0522535 72.1348 0.0158995 71.7309L9.44878 16.6683C9.68605 15.2876 10.7109 14.1467 12.0588 13.7655L60.3313 0.0920156C61.134 -0.135161 61.9821 0.0642459 62.598 0.624615C63.2139 1.18751 63.4941 2.01039 63.3426 2.83328L54.3616 51.6485C54.2909 52.0347 54.0259 52.3553 53.6599 52.4991L48.3616 54.5816C47.776 54.8113 47.1197 54.5235 46.89 53.9404C46.6603 53.3574 46.9481 52.696 47.5311 52.4688L52.2413 50.6186L61.1087 2.42436C61.1113 2.40417 61.1214 2.35621 61.0684 2.30825C61.0179 2.26029 60.9674 2.27543 60.9497 2.28048L12.6772 15.954C12.1648 16.0979 11.7761 16.532 11.6877 17.0545L2.59561 70.1306L14.7395 65.3573C15.3225 65.1276 15.9839 65.4154 16.2111 65.9985C16.4408 66.5816 16.153 67.2429 15.5699 67.4701L1.55059 72.9804C1.41681 73.0334 1.27548 73.0586 1.13413 73.0586H1.13662Z" fill="var(--fill-0, #212C68)"/>
</svg>
