<svg preserveAspectRatio="none" width="100%" height="100%" overflow="visible" style="display: block;" viewBox="0 0 99 78" fill="none" xmlns="http://www.w3.org/2000/svg">
<path id="Vector" d="M61.7443 77.7478C61.2697 77.7478 60.8406 77.45 60.6765 76.9982L40.2306 20.3883L26.5824 2.77199L20.6505 7.85823L19.9942 9.69331C19.9059 9.9432 19.7292 10.1552 19.4995 10.2915L1.71156 20.7417C1.17139 21.0597 0.474736 20.878 0.156689 20.3378C-0.161359 19.7976 0.0203764 19.1009 0.560552 18.7829L17.9926 8.54228L18.611 6.81069C18.6766 6.6239 18.7902 6.45983 18.9417 6.33109L26.0094 0.273051C26.2466 0.0711158 26.5546 -0.0248025 26.8625 0.00548767C27.173 0.0357779 27.4557 0.194802 27.645 0.439648L42.1339 19.1413C42.2071 19.2347 42.2651 19.3407 42.303 19.4518L61.353 72.1946C63.072 61.9086 67.1309 35.5511 65.6416 24.0155C64.4123 14.4943 59.3261 5.61675 59.2756 5.5284C59.0181 5.08162 59.0913 4.5162 59.4573 4.15272C59.8233 3.78924 60.3888 3.71856 60.833 3.97855L68.8448 8.68111C68.9735 8.75683 69.0871 8.85781 69.1755 8.97644L71.7476 12.3816L77.9798 16.0643C81.6904 16.8898 88.1775 19.3029 91.3555 26.2949C91.7492 27.1632 93.8519 33.3752 96.3508 40.7963C97.257 43.4896 98.042 45.8169 98.3147 46.5893C98.5216 47.18 98.2112 47.8287 97.6205 48.0382C97.0273 48.2477 96.3811 47.9347 96.1716 47.344C95.894 46.5565 95.1468 44.3352 94.1977 41.5208C92.3929 36.1619 89.6643 28.0668 89.2856 27.2339C86.4661 21.0345 80.5772 18.9419 77.3185 18.2452C77.1973 18.22 77.0837 18.1746 76.9777 18.1115L70.3947 14.2217C70.2659 14.146 70.1548 14.0475 70.0665 13.9289L67.4969 10.5238L63.0392 7.90618C64.7178 11.493 67.0753 17.4047 67.8907 23.7202C69.7989 38.4943 63.1401 75.259 62.8549 76.8164C62.7615 77.3213 62.3425 77.7024 61.8326 77.7453C61.7998 77.7478 61.7695 77.7504 61.7367 77.7504L61.7443 77.7478Z" fill="var(--fill-0, #212C68)"/>
</svg>
