<svg preserveAspectRatio="none" width="100%" height="100%" overflow="visible" style="display: block;" viewBox="0 0 30 28" fill="none" xmlns="http://www.w3.org/2000/svg">
<path id="Vector" d="M5.68979 27.1141C5.1214 27.1141 4.60985 26.7304 4.47486 26.1549C3.00414 19.9026 1.51921 13.6503 0.0342879 7.40504C-0.0438661 7.07821 0.0129741 6.73718 0.190597 6.46009C0.36822 6.183 0.645316 5.97695 0.972142 5.9059C9.68987 3.92363 18.5426 1.94847 27.2745 0.0301405C27.9424 -0.119063 28.6031 0.300127 28.7595 0.967989L29.9247 6.01248C30.081 6.68034 29.6618 7.35531 28.9939 7.50451C28.3261 7.65371 27.6582 7.24163 27.5019 6.57377L26.6138 2.73001C18.6847 4.47782 10.6774 6.26826 2.76257 8.05869C4.15514 13.8989 5.53349 19.7463 6.91184 25.5936C7.06815 26.2615 6.65607 26.9365 5.98821 27.0928C5.88874 27.1141 5.79638 27.1283 5.70402 27.1283L5.68979 27.1141Z" fill="var(--fill-0, #14B8A6)"/>
</svg>
