<svg preserveAspectRatio="none" width="100%" height="100%" overflow="visible" style="display: block;" viewBox="0 0 10 19" fill="none" xmlns="http://www.w3.org/2000/svg">
<path id="Vector" d="M0.916083 18.9273C0.688907 18.9273 0.466782 18.8238 0.32038 18.6395C0.123493 18.3896 0.103312 18.0438 0.269908 17.7737C0.282529 17.7535 1.82229 15.0224 0.030123 8.87094C-0.0859895 8.46959 0.14369 8.04806 0.545036 7.93194C0.946381 7.81583 1.36791 8.04553 1.48402 8.44687C2.50632 11.9555 2.52401 14.4847 2.28926 16.1381C3.39232 14.8634 4.78568 12.4326 5.54546 7.92185C6.32796 3.27735 7.96868 0.485597 8.03936 0.369484C8.25391 0.0110499 8.71836 -0.107585 9.07679 0.106971C9.43523 0.321526 9.55387 0.785976 9.33932 1.14441C9.32417 1.16965 7.76924 3.83014 7.03723 8.17427C5.48991 17.3724 1.32501 18.8339 1.14832 18.892C1.07007 18.9172 0.991837 18.9298 0.913588 18.9298L0.916083 18.9273Z" fill="var(--fill-0, #212C68)"/>
</svg>
