<svg preserveAspectRatio="none" width="100%" height="100%" overflow="visible" style="display: block;" viewBox="0 0 38 76" fill="none" xmlns="http://www.w3.org/2000/svg">
<path id="Vector" d="M1.13659 75.9484C1.00281 75.9484 0.8665 75.9257 0.735243 75.8752C0.147108 75.653 -0.148221 74.9993 0.0739074 74.4111C0.179923 74.1284 10.7815 46.0267 12.4222 39.1735C14.068 32.2901 19.2047 1.26281 19.2577 0.949811C19.3183 0.58128 19.5581 0.263226 19.8989 0.106726C20.2396 -0.0522971 20.6359 -0.0321006 20.9565 0.157213L26.2573 3.29225C26.4062 3.3806 26.5324 3.50176 26.6283 3.64564L28.8698 7.06086C29.7255 7.48997 32.6283 8.91361 36.9043 10.673C37.4848 10.9128 37.76 11.5766 37.5227 12.1547C37.2829 12.7352 36.6216 13.0104 36.041 12.7731C30.8286 10.6275 27.6961 9.01205 27.5648 8.9439C27.3906 8.85303 27.2442 8.72177 27.1382 8.5577L24.874 5.10966L21.2291 2.95401C20.1311 9.54213 16.0974 33.5774 14.6334 39.6986C12.9624 46.6906 2.641 74.0477 2.20179 75.2088C2.03015 75.6632 1.59852 75.9433 1.13911 75.9433L1.13659 75.9484Z" fill="var(--fill-0, #212C68)"/>
</svg>
