<svg preserveAspectRatio="none" width="100%" height="100%" overflow="visible" style="display: block;" viewBox="0 0 8 21" fill="none" xmlns="http://www.w3.org/2000/svg">
<path id="Vector" d="M6.61609 20.2085C6.61609 20.2085 6.59769 20.2085 6.5898 20.2085L1.15711 20.0849C0.507605 20.0691 -0.00779938 19.5353 8.93606e-05 18.8858L0.223597 1.16769C0.231486 0.515553 0.778422 -0.0103632 1.42267 0.00015507C2.07743 0.00804381 2.59811 0.544494 2.59022 1.19926L2.38247 17.7472L5.43018 17.8156L5.39599 1.24396C5.39599 0.589192 5.92453 0.0606438 6.57667 0.0580142C7.22881 0.0580142 7.75735 0.586557 7.75998 1.23869L7.7968 19.0225C7.7968 19.3407 7.67055 19.6484 7.44178 19.8693C7.2209 20.0849 6.92378 20.2085 6.61349 20.2085H6.61609Z" fill="var(--fill-0, #202933)"/>
</svg>
