<svg preserveAspectRatio="none" width="100%" height="100%" overflow="visible" style="display: block;" viewBox="0 0 7 7" fill="none" xmlns="http://www.w3.org/2000/svg">
<path id="Vector" d="M3.44699 6.89058C1.92588 6.89058 0.528775 5.87374 0.118185 4.3361C-0.118799 3.44603 0.00245145 2.52014 0.465398 1.721C0.92559 0.924623 1.6696 0.354204 2.55968 0.11722C4.39493 -0.373284 6.2853 0.720706 6.7758 2.55596C7.26631 4.39121 6.17232 6.28158 4.33706 6.77208C4.03946 6.85199 3.74185 6.88782 3.44975 6.88782L3.44699 6.89058ZM3.44699 2.48156C3.36432 2.48156 3.28165 2.49258 3.19898 2.51463C2.95098 2.58076 2.74155 2.74059 2.61203 2.9638C2.48252 3.187 2.44945 3.44603 2.51558 3.6968C2.65337 4.20935 3.18245 4.51797 3.69775 4.38019C4.2103 4.24241 4.51894 3.71333 4.38116 3.20078C4.26542 2.7709 3.87412 2.48431 3.44975 2.48431L3.44699 2.48156Z" fill="var(--fill-0, #202933)"/>
</svg>
