<svg preserveAspectRatio="none" width="100%" height="100%" overflow="visible" style="display: block;" viewBox="0 0 58 25" fill="none" xmlns="http://www.w3.org/2000/svg">
<path id="Vector" d="M57.6747 12.7146L50.7383 0.573298C50.4632 0.0937025 49.8851 -0.120853 49.3626 0.0684606L39.4577 3.67046C38.5364 3.46348 36.1132 3.09242 32.6702 3.8421C28.4624 4.76091 25.6959 8.81728 25.2264 9.5493L24.0248 10.8316L4.8259 12.5329C4.39679 12.5506 1.87513 12.7146 0.65847 14.1761C0.120818 14.8223 -0.0937353 15.6225 0.0375223 16.4908C0.408577 18.9342 3.38711 19.1387 6.40604 19.1387C8.33452 19.1387 10.7653 19.0806 11.7422 19.0554C14.4986 21.3852 17.7876 24.0836 18.565 24.3663C18.9765 24.5152 19.7665 24.5783 20.7939 24.5783C25.1027 24.5783 33.5309 23.4777 35.1666 23.0461C37.3147 22.4782 43.5368 19.3482 44.2764 18.9746L57.0765 14.3478C57.392 14.2342 57.6394 13.9868 57.7555 13.6713C57.8716 13.3558 57.8413 13.0074 57.6747 12.7146ZM43.4383 16.8619C43.3954 16.877 43.3525 16.8972 43.3096 16.9174C41.4468 17.8614 36.2495 20.4109 34.586 20.8501C32.2688 21.4609 20.91 22.6851 19.3652 22.2384C18.7342 21.8925 15.5966 19.3457 12.8806 17.0411C12.666 16.8593 12.3909 16.7634 12.1132 16.771C12.0804 16.771 8.8343 16.8669 6.40856 16.8669C2.78636 16.8669 2.31938 16.3646 2.28657 16.15C2.24366 15.8698 2.31938 15.7335 2.4052 15.63C2.83936 15.1075 4.14689 14.8299 4.93444 14.8021C4.95716 14.8021 4.97735 14.8021 4.99754 14.7971L19.3248 13.5274C18.1864 14.3781 17.1969 15.4912 16.8991 16.8972C16.629 18.177 17.0253 19.3179 17.9895 20.0297C18.6685 20.5295 19.5974 20.7819 20.5718 20.7819C21.5461 20.7819 22.4977 20.5472 23.3408 20.0777C25.0295 19.1361 29.4922 17.1749 30.3984 16.776L33.0261 16.5135C33.6496 16.4504 34.1064 15.8951 34.0433 15.2691C33.9802 14.6456 33.4224 14.1887 32.8014 14.2519L29.9971 14.532C29.881 14.5447 29.7648 14.5724 29.6563 14.6204C29.4342 14.7163 24.2066 16.9931 22.2352 18.0911C21.329 18.596 19.9483 18.649 19.34 18.1997C19.2213 18.1113 19.0017 17.9498 19.1254 17.3667C19.5419 15.3928 23.1439 13.9161 24.3707 13.5552C24.565 13.4971 24.7417 13.3886 24.8805 13.2422L26.9605 11.0234C27.0135 10.9654 27.0614 10.9048 27.1018 10.8392C27.1271 10.7988 29.5882 6.84337 33.1573 6.0634C36.8679 5.25314 39.1548 5.93467 39.17 5.93972C39.4097 6.01797 39.6697 6.0129 39.907 5.92456L49.2415 2.52954L55.0345 12.6667L43.4409 16.8593L43.4383 16.8619Z" fill="var(--fill-0, #212C68)"/>
</svg>
