<svg preserveAspectRatio="none" width="100%" height="100%" overflow="visible" style="display: block;" viewBox="0 0 54 30" fill="none" xmlns="http://www.w3.org/2000/svg">
<path id="Vector" d="M53.3831 4.16663C52.1551 1.42924 45.8099 1.37665 45.8099 1.37665C45.8099 1.37665 20.6212 -0.734903 18.0705 0.272226C15.5198 1.28198 0 21.251 0 21.251L14.3917 29.1818L23.3507 15.4239C23.3507 15.4239 27.2503 17.4171 33.3062 17.1515C36.8825 16.9937 40.3693 16.4468 40.3693 16.4468L43.4512 19.2105C43.4512 19.2105 42.1811 20.357 41.1082 22.7236C39.5804 26.0973 42.0785 27.8013 43.9429 26.7021C45.7889 25.6135 47.1431 24.4118 49.6991 21.8427C51.6344 19.8968 50.3722 17.943 50.3722 17.943C50.3722 17.943 51.9473 16.594 52.9124 14.0381C54.3718 10.1805 53.5751 8.21882 53.5751 8.21882C53.5751 8.21882 54.6085 6.90666 53.3805 4.16927L53.3831 4.16663Z" fill="var(--fill-0, white)"/>
</svg>
