<svg preserveAspectRatio="none" width="100%" height="100%" overflow="visible" style="display: block;" viewBox="0 0 35 34" fill="none" xmlns="http://www.w3.org/2000/svg">
<path id="Vector" d="M31.2384 9.90096C31.2384 10.1318 30.8663 25.6332 28.888 29.863C27.3572 33.099 24.7854 33.4428 20.499 33.4428C19.232 33.4428 18.4124 33.4051 17.5928 33.3675C17.2961 29.5192 16.3258 27.7293 15.8406 26.7778C16.8109 27.0463 19.2697 27.7293 21.1349 27.7293C22.3266 27.7293 23.4853 27.7293 24.1919 24.6817C24.564 23.0049 24.9738 20.4519 25.1245 15.4638H15.8783C15.2094 20.3389 13.5655 26.5093 5.5534 33.2921C2.68485 30.8522 1.71453 30.2446 0 29.7123C10.0658 22.3596 10.1035 16.1892 10.1789 5.25665H0.40979V0H34.5592V5.25665H16.4765C16.4011 9.14261 16.3634 9.5995 16.3634 9.90567H31.2384V9.90096Z" fill="var(--fill-0, #14B8A6)"/>
</svg>
