<svg preserveAspectRatio="none" width="100%" height="100%" overflow="visible" style="display: block;" viewBox="0 0 56 68" fill="none" xmlns="http://www.w3.org/2000/svg">
<path id="Vector" d="M49.0347 32.8926V21.8872C49.0347 18.7118 48.2421 15.5868 46.7149 12.8052C43.797 7.49178 37.8979 0.0429111 27.7356 0H27.5564C17.394 0.0429111 11.495 7.49178 8.57703 12.8052C7.0499 15.5868 6.2573 18.7143 6.2573 21.8872V32.8926C3.88962 31.9966 -0.111221 32.5797 0.00236724 39.5161C0.10081 45.66 4.55853 48.9515 7.28718 49.2923C7.55979 50.466 7.9056 51.612 8.34228 52.6343C11.1694 59.0483 18.8429 65.9544 25.0221 67.6305C25.0221 67.6305 26.1252 67.9208 27.6498 67.9208C29.1744 67.9208 30.2775 67.6305 30.2775 67.6305C36.4567 65.9544 44.1302 59.0483 46.9573 52.6343C47.3939 51.612 47.7372 50.466 48.0124 49.2923C50.741 48.9515 55.1987 45.66 55.2972 39.5161C55.4108 32.5797 51.4099 31.9966 49.0422 32.8926H49.0347Z" fill="var(--fill-0, #FFEBE1)"/>
</svg>
