<svg preserveAspectRatio="none" width="100%" height="100%" overflow="visible" style="display: block;" viewBox="0 0 39 45" fill="none" xmlns="http://www.w3.org/2000/svg">
<path id="Vector" d="M20.7264 44.76C20.5712 44.76 20.4634 44.7574 20.4082 44.7547H1.18331C0.528546 44.7574 0 44.2288 0 43.5767C0 42.9219 0.528546 42.3934 1.18331 42.3934H20.4319C20.4476 42.3908 20.4634 42.3907 20.4792 42.3907C20.5475 42.3934 27.4186 42.6011 29.6328 38.4175C31.3551 35.162 30.0666 24.8777 29.425 21.1884C29.3803 20.9255 29.425 20.6573 29.5486 20.4232L32.3728 15.1904C32.4464 15.0536 32.5489 14.9327 32.6699 14.8328C34.1924 13.5968 35.857 11.6536 35.8149 10.8463C35.8149 10.799 35.8096 10.7595 35.6782 10.6754C35.1128 10.3072 32.804 11.4511 30.9712 12.9973L28.1391 16.7234C27.821 17.1415 27.2635 17.3019 26.7744 17.1126C26.2827 16.9259 25.975 16.4342 26.0171 15.9109L26.5404 9.48156C26.564 9.1923 26.6929 8.92146 26.9032 8.71898C29.3961 6.3471 31.5182 3.39671 31.3052 2.61046C30.5005 1.97936 29.1962 2.77876 29.1857 2.78665C28.9227 2.94968 28.5993 3.01016 28.2969 2.94179C28.2969 2.94179 27.3371 2.74983 25.7436 2.9602C24.0633 3.18108 19.451 5.61081 18.8751 6.43124C18.4413 7.11756 18.6306 7.92222 18.6332 7.9301C18.7647 8.40869 18.5806 8.90305 18.1757 9.1923C16.6426 10.2888 15.1306 11.6273 14.8151 12.1558C14.9097 13.1577 15.8038 17.8962 16.6636 22.1456C16.6689 22.1719 16.6742 22.1956 16.6768 22.2219L17.6182 29.206C17.6655 29.5558 17.5551 29.9055 17.3158 30.1658C17.0765 30.4235 16.7347 30.5629 16.3849 30.5471L2.35876 29.845C1.70662 29.8135 1.20437 29.256 1.23592 28.6039C1.26748 27.9517 1.82757 27.4495 2.47708 27.481L15.0807 28.1121L14.3338 22.5769C13.8789 20.3233 12.4379 13.1051 12.4379 12.0349C12.4379 11.6457 12.4379 10.4966 16.2245 7.68555C16.1956 7.02816 16.2955 6.08414 16.874 5.16379C17.8864 3.56237 23.4848 0.869682 25.4307 0.614613C26.777 0.438431 27.7736 0.491023 28.3259 0.556762C29.4434 -0.00596779 31.3025 -0.43196 32.7988 0.775017C33.3405 1.21153 33.6402 1.82422 33.6692 2.54998C33.7691 5.04808 30.1823 8.81627 28.8596 10.1179L28.7019 12.0664L29.1594 11.4616C29.2094 11.3959 29.2672 11.3328 29.3303 11.2802C30.5058 10.2731 34.529 7.10705 36.964 8.69005C37.7003 9.16864 38.1289 9.89177 38.1736 10.7227C38.292 13.0078 35.3179 15.6979 34.3423 16.5183L31.8205 21.1884C32.2544 23.8101 33.9742 35.262 31.7206 39.5245C29.1121 44.4576 22.3462 44.76 20.7237 44.76H20.7264Z" fill="var(--fill-0, #202933)"/>
</svg>
