<svg preserveAspectRatio="none" width="100%" height="100%" overflow="visible" style="display: block;" viewBox="0 0 36 43" fill="none" xmlns="http://www.w3.org/2000/svg">
<path id="Vector" d="M35.1364 8.49844C33.2537 7.27568 28.9201 10.9939 28.9201 10.9939L26.0118 14.8226L26.5351 8.39325C26.5351 8.39325 33.0118 2.24004 30.8713 0.512404C29.3803 -0.691943 27.3661 0.604439 27.3661 0.604439C27.3661 0.604439 26.2616 0.359888 24.3999 0.604439C22.5381 0.84899 17.4263 3.44702 16.69 4.61192C15.9537 5.77682 16.3008 7.04691 16.3008 7.04691C16.3008 7.04691 12.4353 9.80797 12.4353 10.8519C12.4353 11.8959 14.3154 21.1967 14.3154 21.1967L15.2568 28.1808L1.23329 27.4787L0 42.3911H19.2485C19.2485 42.3911 26.898 42.6935 29.496 37.7867C31.7837 33.461 29.4066 19.8004 29.4066 19.8004L32.2308 14.5675C32.2308 14.5675 37.6819 10.1498 35.1391 8.49844H35.1364Z" fill="var(--fill-0, white)"/>
</svg>
