<svg preserveAspectRatio="none" width="100%" height="100%" overflow="visible" style="display: block;" viewBox="0 0 21 18" fill="none" xmlns="http://www.w3.org/2000/svg">
<path id="Vector" d="M0 0C0.0849576 1.77137 0.318591 3.27512 0.705148 4.51125C1.08321 5.74738 1.57596 6.77112 2.19191 7.58247C2.8121 8.40231 3.52149 9.06498 4.3116 9.57472C5.1017 10.0887 5.95553 10.5093 6.86882 10.8321C7.79061 11.1549 8.73364 11.4395 9.70216 11.6859C10.6792 11.9365 11.6604 12.2042 12.6459 12.4888C13.6314 12.7734 14.5872 13.1302 15.5218 13.5677C16.4605 14.0053 17.3398 14.5745 18.1554 15.2839C18.9795 15.9848 19.7229 16.8768 20.3856 17.96C20.1604 16.0952 19.7951 14.5065 19.2854 13.1939C18.7756 11.8856 18.1597 10.7939 17.4333 9.91455C16.7027 9.03524 15.8871 8.30461 14.995 7.72265C14.0987 7.14918 13.1472 6.66068 12.1404 6.25713C11.1379 5.85783 10.1057 5.48826 9.04799 5.13569C7.99026 4.77886 6.93254 4.39231 5.87482 3.96752C4.82559 3.53848 3.80185 3.0075 2.8036 2.38306C1.81385 1.75437 0.875063 0.964268 0 0.00424717" fill="var(--fill-0, #94A3B8)"/>
</svg>
