<svg preserveAspectRatio="none" width="100%" height="100%" overflow="visible" style="display: block;" viewBox="0 0 25 30" fill="none" xmlns="http://www.w3.org/2000/svg">
<path id="Vector" d="M20.0563 3.48559C18.0921 5.03055 13.6221 10.2354 12.9862 10.9985C13.476 10.8571 14.8891 10.4615 16.4482 10.4191C20.3719 10.3108 24.4133 13.0474 24.4133 18.8975C24.4133 26.1702 18.3841 29.3496 13.3913 29.3496C9.67015 29.3496 6.0621 27.7105 6.0621 23.8104C6.0621 20.6215 8.71869 18.6149 11.7191 18.5631C14.4322 18.5207 17.2584 20.2117 17.9225 23.2828C19.8255 22.1806 19.8255 19.6512 19.8255 19.3874C19.8255 18.6008 19.5947 14.5971 15.1199 14.6913C10.2448 14.7949 7.47517 18.0497 3.46203 22.7694L0 19.0671C3.32073 16.4482 9.75494 9.19913 11.6861 6.25522C10.7629 6.51428 9.78321 6.80632 4.00843 7.63532L3.31601 2.6189C4.44176 2.60948 12.7789 2.38339 17.7435 0L20.0516 3.48559H20.0563ZM11.3706 22.6281C10.3908 22.6375 10.16 23.2545 10.16 23.8056C10.16 25.0397 11.7757 25.5155 12.7554 25.506C13.4195 25.506 13.9094 25.3365 14.1967 25.2376C13.7351 23.0237 12.176 22.6187 11.3706 22.6281Z" fill="var(--fill-0, #0F172A)"/>
</svg>
