<svg preserveAspectRatio="none" width="100%" height="100%" overflow="visible" style="display: block;" viewBox="0 0 138 74" fill="none" xmlns="http://www.w3.org/2000/svg">
<path id="Vector" d="M136.46 73.878H15.0028C14.348 73.878 13.8195 73.3495 13.8195 72.6947V66.6967L0.0904322 4.63595C-0.159378 3.5026 0.114096 2.32981 0.83986 1.42524C1.56562 0.52066 2.65164 0 3.81391 0H93.5878C95.3917 0 96.9221 1.22801 97.3113 2.98983L111.114 65.3845H133.831C135.935 65.3845 137.644 67.0937 137.644 69.1974V72.6947C137.644 73.3495 137.115 73.878 136.46 73.878ZM16.1861 71.5114H135.277V69.1974C135.277 68.4006 134.628 67.7511 133.831 67.7511H110.162C109.607 67.7511 109.126 67.3646 109.008 66.8229L94.9999 3.49997C94.8526 2.83206 94.2715 2.36662 93.5878 2.36662H3.81391C3.37214 2.36662 2.96193 2.56384 2.68583 2.90831C2.40972 3.25279 2.30717 3.69719 2.40183 4.12581L16.1572 66.3127C16.1756 66.3969 16.1861 66.4837 16.1861 66.5678V71.5114Z" fill="var(--fill-0, #202933)"/>
</svg>
