<svg preserveAspectRatio="none" width="100%" height="100%" overflow="visible" style="display: block;" viewBox="0 0 73 62" fill="none" xmlns="http://www.w3.org/2000/svg">
<path id="Vector" d="M46.4913 61.4717C46.0925 61.4717 45.7063 61.2622 45.4994 60.8886C45.1939 60.3408 45.3908 59.6492 45.9386 59.3438L69.2393 46.3341C67.8813 44.6959 64.5847 41.2832 58.8245 38.5016C53.9402 36.1415 49.0105 31.0754 49.0105 25.078V22.3014L35.4405 13.9943C35.3925 13.964 35.3446 13.9312 35.3016 13.8933L23.0568 3.57444V25.0754C23.0568 31.0729 18.1271 36.1389 13.2428 38.4991C7.48512 41.2807 4.18853 44.6909 2.828 46.3316L26.1288 59.3413C26.6765 59.6467 26.8734 60.3383 26.568 60.8861C26.2625 61.4338 25.5709 61.6307 25.0232 61.3253L0.581467 47.6795C0.308855 47.5255 0.109465 47.2681 0.033739 46.9652C-0.0419866 46.6623 0.0110102 46.3392 0.180131 46.0767C0.324009 45.852 3.79223 40.5462 12.2583 36.457C15.4262 34.9273 20.7876 30.8079 20.7876 25.078V1.13608C20.7876 0.694348 21.045 0.293002 21.4439 0.106212C21.8452 -0.0805776 22.3172 -0.0174731 22.6555 0.26776L36.7026 12.1037L50.7421 20.696C51.0803 20.903 51.2848 21.269 51.2848 21.6653V25.078C51.2848 30.8079 56.6461 34.9248 59.814 36.457C68.2801 40.5462 71.7483 45.852 71.8922 46.0767C72.0613 46.3392 72.1144 46.6623 72.0386 46.9652C71.9629 47.2681 71.7635 47.5281 71.4909 47.6795L47.0492 61.3253C46.875 61.4237 46.6832 61.4691 46.4964 61.4691L46.4913 61.4717Z" fill="var(--fill-0, #212C68)"/>
</svg>
