<svg preserveAspectRatio="none" width="100%" height="100%" overflow="visible" style="display: block;" viewBox="0 0 56 23" fill="none" xmlns="http://www.w3.org/2000/svg">
<path id="Vector" d="M55.5469 12.1413L42.6836 16.7934C42.6836 16.7934 35.881 20.2465 33.7354 20.8119C31.5898 21.3773 19.5596 22.7959 17.8128 22.1623C17.0278 21.8771 11.0076 16.7732 11.0076 16.7732C11.0076 16.7732 7.74135 16.8691 5.27018 16.8691C1.82971 16.8691 0.219284 16.4678 0.0249217 15.1855C-0.35623 12.6613 3.76071 12.5326 3.76071 12.5326L23.4191 10.7909L24.9916 9.1123C24.9916 9.1123 27.6673 4.71518 31.7741 3.81909C35.881 2.92048 38.3774 3.72317 38.3774 3.72317L48.613 0L55.5494 12.1413H55.5469Z" fill="var(--fill-0, #FFEBE1)"/>
</svg>
