<svg preserveAspectRatio="none" width="100%" height="100%" overflow="visible" style="display: block;" viewBox="0 0 5 8" fill="none" xmlns="http://www.w3.org/2000/svg">
<path id="Vector" d="M3.19799 7.7437C2.80207 7.7437 2.45381 7.45777 2.38416 7.05452C2.24119 6.20036 1.99924 4.76333 1.95158 4.54704C1.88193 4.22811 1.82694 3.90184 1.77195 3.58291C1.57766 2.45014 1.42369 1.70597 1.01677 1.66564C0.932457 1.65831 0.855473 1.65098 0.782155 1.64731C0.327583 1.62532 -0.0243423 1.23673 0.00131898 0.782158C0.0233144 0.327586 0.411899 -0.0243424 0.866471 0.00131897C0.969116 0.00498487 1.07543 0.0159853 1.18907 0.026983C2.87172 0.202946 3.16499 1.92592 3.39961 3.30797C3.45093 3.6049 3.50226 3.9055 3.56458 4.19878C3.63789 4.52871 3.97516 6.55595 4.01182 6.7869C4.08513 7.23781 3.78453 7.65939 3.33363 7.73638C3.28963 7.74371 3.24198 7.74737 3.19799 7.74737V7.7437Z" fill="var(--fill-0, #202933)"/>
</svg>
