<svg preserveAspectRatio="none" width="100%" height="100%" overflow="visible" style="display: block;" viewBox="0 0 22 28" fill="none" xmlns="http://www.w3.org/2000/svg">
<path id="Vector" d="M21.0208 7.24587L14.0875 0.312533C13.8869 0.112 13.616 0 13.3333 0H2.13333C0.954667 0 0 0.954667 0 2.13333V25.6C0 26.7787 0.954667 27.7333 2.13333 27.7333H19.2C20.3787 27.7333 21.3333 26.7787 21.3333 25.6V8C21.3333 7.71733 21.2213 7.4464 21.0208 7.24587ZM13.8667 20.2667H5.33333C4.74453 20.2667 4.26667 19.7888 4.26667 19.2C4.26667 18.6112 4.74453 18.1333 5.33333 18.1333H13.8667C14.4555 18.1333 14.9333 18.6112 14.9333 19.2C14.9333 19.7888 14.4555 20.2667 13.8667 20.2667ZM16 16H5.33333C4.74453 16 4.26667 15.5221 4.26667 14.9333C4.26667 14.3445 4.74453 13.8667 5.33333 13.8667H16C16.5888 13.8667 17.0667 14.3445 17.0667 14.9333C17.0667 15.5221 16.5888 16 16 16ZM13.8667 8.53333C13.2779 8.53333 12.8 8.05547 12.8 7.46667V2.03093L19.3024 8.53333H13.8667Z" fill="var(--fill-0, white)"/>
</svg>
