<svg preserveAspectRatio="none" width="100%" height="100%" overflow="visible" style="display: block;" viewBox="0 0 69 23" fill="none" xmlns="http://www.w3.org/2000/svg">
<path id="Vector" d="M49.7447 8.60788C49.7447 8.60788 43.0893 7.24314 36.7283 5.09477C30.7066 3.05947 22.4839 -0.0723532 20.8009 0.001275C17.343 0.153791 8.49978 4.28224 8.49978 4.28224L4.91829 7.85846C4.91829 7.85846 -0.866793 13.0256 0.111411 14.7033C0.632068 15.5973 1.73124 15.4763 1.73124 15.4763C1.73124 15.4763 0.689929 16.6807 1.55243 17.7246C2.4123 18.7686 4.20304 18.0349 4.20304 18.0349C4.20304 18.0349 3.75865 19.447 5.59146 20.4016C7.55576 21.4245 13.5433 17.4959 13.5433 17.4959C13.5433 17.4959 12.452 19.9177 14.348 20.6172C17.5718 21.811 23.8855 18.1506 23.8855 18.1506L29.8572 18.0349C29.8572 18.0349 34.2223 22.1134 40.4912 22.6972C45.945 23.2021 50.8544 21.8794 50.8544 21.8794L68.3359 22.6972L65.3565 8.72622L49.7421 8.61052L49.7447 8.60788Z" fill="var(--fill-0, white)"/>
</svg>
