<svg preserveAspectRatio="none" width="100%" height="100%" overflow="visible" style="display: block;" viewBox="0 0 58 43" fill="none" xmlns="http://www.w3.org/2000/svg">
<path id="Vector" d="M2.87253 42.0529C2.67312 42.0529 2.48128 41.9747 2.33992 41.8333C2.19605 41.692 2.1178 41.4976 2.11527 41.2982C2.11527 41.2502 2.10013 36.4063 1.21919 31.7593C1.11065 31.1863 0.378634 25.9966 0.325626 25.6129C-0.159017 22.9423 -0.429106 19.8956 1.96887 14.6605C1.97897 14.6403 1.98654 14.6226 1.99664 14.6049C4.56121 10.0614 9.15018 5.15186 16.5662 7.09548C16.5662 5.83844 16.9903 4.65964 17.8258 3.63735C19.6558 1.39335 23.3815 0 27.5515 0C32.3903 0 34.3441 0.7724 37.8905 2.17585C39.2788 2.72612 40.8539 3.34707 42.9642 4.07151C49.1232 6.18425 53.2931 9.19056 56.3676 18.2928C58.6141 23.1821 57.4504 25.9461 56.4155 28.3819C55.5371 30.7723 55.5649 31.3807 55.6128 32.4812C55.6305 32.8548 55.6482 33.2763 55.6406 33.8241C55.6078 36.0605 55.0727 40.3062 55.0499 40.4854C55.002 40.8565 54.694 41.1366 54.3205 41.1467L52.3188 41.2023C52.0588 41.2124 51.8114 41.0811 51.6675 40.864L49.5876 37.7441C49.5422 37.6735 49.5068 37.5977 49.4841 37.517C48.8455 35.0786 47.8636 32.1581 47.3916 31.6911C46.291 30.6057 46.0916 28.5283 45.8594 26.1228C45.4 21.3723 44.7639 18.005 40.7732 17.9798C40.021 18.0681 32.0471 18.9995 28.4804 18.9995C24.9137 18.9995 16.3037 18.0807 15.5389 18C12.0681 18.0252 11.3967 21.3773 10.8262 26.1076C10.541 28.4652 10.2962 30.5022 9.34454 31.6381C8.88261 32.1884 8.38787 35.0508 8.19098 37.3882C8.18341 37.4841 8.15565 37.5801 8.11273 37.6659L6.11611 41.6289C5.98737 41.8838 5.72738 42.0428 5.44467 42.0453L2.87505 42.058H2.87L2.87253 42.0529ZM3.33445 15.3168C1.12832 20.143 1.37821 22.9196 1.81994 25.3529C1.81994 25.363 1.82247 25.3731 1.82499 25.3832C2.04207 26.923 2.62516 31.0197 2.71098 31.4741C3.41775 35.2073 3.58183 38.9608 3.61969 40.5334L4.97517 40.5258L6.69667 37.108C6.80016 35.952 7.22927 31.8047 8.18594 30.6613C8.8498 29.8687 9.0896 27.862 9.32435 25.9209C9.80394 21.9352 10.4628 16.4804 15.5793 16.4804C15.607 16.4804 15.6348 16.4804 15.6601 16.4855C15.7509 16.4955 24.8986 17.4825 28.4804 17.4825C32.0622 17.4825 40.5561 16.4779 40.6419 16.4678C40.6722 16.4653 40.7025 16.4627 40.7302 16.4627C46.4475 16.4627 46.9801 21.9604 47.3689 25.9739C47.5556 27.9099 47.75 29.9116 48.4593 30.6108C49.416 31.5523 50.5468 35.5935 50.9204 37.0071L52.6974 39.6726L53.6263 39.6474C53.7778 38.36 54.1034 35.4471 54.1261 33.7988C54.1337 33.2965 54.116 32.8977 54.1009 32.5468C54.0428 31.2216 54.0554 30.4089 55.002 27.8392C55.007 27.8266 55.0096 27.8165 55.0146 27.8064C56.0192 25.4387 56.9683 23.2023 54.9767 18.8885C54.9641 18.8632 54.954 18.838 54.9465 18.8127C52.0563 10.228 48.3331 7.51197 42.4745 5.5002C40.3314 4.76566 38.7412 4.13461 37.3352 3.58182C33.8518 2.20361 32.1026 1.51199 27.5515 1.51199C23.8838 1.51199 20.5267 2.72107 18.9995 4.59149C18.1943 5.58097 17.9141 6.71686 18.1716 7.96885C18.2196 8.19603 18.1565 8.4333 18.0075 8.61252C17.8561 8.78921 17.6314 8.88513 17.3992 8.88008C17.2377 8.87251 17.0887 8.82707 16.7909 8.73368C11.3008 7.02481 6.7724 9.24104 3.32941 15.3193L3.33445 15.3168Z" fill="var(--fill-0, #212C68)"/>
</svg>
