<svg preserveAspectRatio="none" width="100%" height="100%" overflow="visible" style="display: block;" viewBox="0 0 29 29" fill="none" xmlns="http://www.w3.org/2000/svg">
<path id="Vector" d="M17.6 0L15.095 2.505L17.6 5.01L20.105 2.505L17.6 0ZM9.92 1.545C9.74336 1.545 9.6 1.68836 9.6 1.865V5.065C9.6 5.24164 9.74336 5.385 9.92 5.385H10.56C12.0365 5.385 12.16 6.62404 12.16 7.785C12.16 8.37026 12.0913 9.06919 11.9725 9.8125C11.1561 9.44094 10.4002 9.22986 9.765 9.225H9.7475C8.96094 9.225 8.49222 9.52717 8.2375 9.78125C8.06598 9.95277 7.94524 10.1542 7.855 10.3737L7.84625 10.37L0.81875 28.2012L19.2337 21.895C19.2478 21.8899 19.2622 21.8851 19.2762 21.88L19.2837 21.8775C19.5237 21.7873 19.7388 21.6537 19.9237 21.4687C20.5934 20.7991 20.648 19.6536 20.1 18.2175C20.5175 18.1971 20.9626 18.185 21.44 18.185C23.401 18.185 24.96 18.6458 24.96 19.305V19.785C24.96 19.9616 25.1034 20.105 25.28 20.105H27.84C27.9264 20.105 28.0092 20.0702 28.0687 20.0087C28.1295 19.946 28.1626 19.862 28.16 19.7762C28.16 19.7762 28.14 19.0789 28.1412 18.9662V18.965C28.1483 18.1189 27.8077 17.3247 27.16 16.6712C26.1437 15.6466 24.3952 14.985 22.7062 14.985C21.0145 14.985 19.7135 15.3629 18.7612 15.785C18.3395 15.1756 17.8556 14.5666 17.315 13.965C18.2299 13.6851 19.1482 13.4825 19.5825 13.3875C19.7483 13.3517 19.8623 13.3256 19.9525 13.3C21.0277 12.9986 23.03 12.1751 23.03 10.2487C23.03 9.87883 22.8655 9.51367 22.685 9.22375H23.155C24.4625 9.22375 25.5987 8.52383 25.5987 7.21375V6.1525C25.5987 6.07314 25.628 5.38 26.62 5.38L27.2 5.375C27.3766 5.375 27.52 5.23164 27.52 5.055V2.50625C27.52 2.32961 27.3766 2.18625 27.2 2.18625L26.1125 2.185H26.1087C24.7046 2.185 23.6617 2.66617 22.9212 3.65625C22.4348 4.30649 22.2744 5.41956 22.22 6.025H21.8475C19.9678 6.025 19.2025 7.34148 19.2025 9.225V10.33C18.1705 10.6455 16.7397 11.2144 15.54 12.2025C14.8605 11.609 14.1739 11.0956 13.5012 10.6625C14.1411 9.47186 14.72 7.86781 14.72 5.945C14.72 3.82532 13.4034 1.545 10.5125 1.545H9.92ZM4.16 2.56L1.655 5.065L4.16 7.57L6.665 5.065L4.16 2.56ZM26.56 9.865L24.96 11.465L26.56 13.065L28.1587 11.465L26.56 9.865ZM1.6 10.505L0 12.105L1.6 13.705L3.19875 12.105L1.6 10.505ZM9.745 10.505H9.755C10.2272 10.5085 10.912 10.7138 11.7162 11.1125C11.6024 11.5988 11.4739 12.0896 11.3175 12.5787L11.295 12.65C11.2521 12.7882 11.3078 12.9382 11.43 13.015C11.4818 13.0489 11.5411 13.065 11.6 13.065C11.6787 13.065 11.7573 13.0357 11.8187 12.9787C11.8301 12.9682 12.2843 12.5272 12.8287 11.75C13.3986 12.1171 14.0031 12.5646 14.6275 13.105C14.4758 13.2881 14.3266 13.4753 14.195 13.68L12.85 15.7725C12.7674 15.9011 12.7881 16.0694 12.8975 16.175C12.9596 16.2339 13.0394 16.265 13.12 16.265C13.1834 16.265 13.2462 16.2459 13.3012 16.2075L15.3175 14.8125C15.507 14.6814 15.7515 14.5599 16.0137 14.4425C16.6222 15.0843 17.1683 15.7389 17.6287 16.39C17.1874 16.6811 16.9342 16.9147 16.9075 16.9412L15.455 18.3775C15.3475 18.4837 15.3293 18.6501 15.4112 18.7775C15.4925 18.9049 15.6555 18.9569 15.795 18.9025C15.8084 18.8974 16.8166 18.5305 18.7612 18.3237C19.2278 19.3739 19.3333 20.2505 19.02 20.5637C18.3806 21.2018 15.525 20.2106 12.51 17.1962C9.49432 14.1812 8.5 11.3262 9.14 10.6862C9.2616 10.5659 9.46532 10.505 9.745 10.505ZM22.08 23.04L19.575 25.545L22.08 28.05L24.585 25.545L22.08 23.04Z" fill="var(--fill-0, white)"/>
</svg>
