<svg preserveAspectRatio="none" width="100%" height="100%" overflow="visible" style="display: block;" viewBox="0 0 36 20" fill="none" xmlns="http://www.w3.org/2000/svg">
<path id="Vector" d="M0.725613 19.1198C0.546624 19.1198 0.367635 19.0539 0.226327 18.922C-0.0657087 18.6441 -0.0751281 18.1872 0.198067 17.8951L2.93001 15.0172C3.08074 14.857 3.29741 14.777 3.51408 14.7911L14.3477 15.6248C18.3844 15.8791 25.9773 12.2381 26.6132 11.5975L33.5326 4.63106C33.8811 4.2825 34.0695 3.79263 34.0507 3.27921C34.0318 2.74224 33.7869 2.22884 33.3771 1.87557C32.6753 1.26794 31.5966 1.32446 30.9184 1.99802L25.1954 7.74926C24.503 8.45109 23.5468 8.85146 22.5671 8.85146C22.5435 8.85146 22.5153 8.85146 22.4917 8.85146L14.277 8.67716C13.8766 8.66774 13.5564 8.33803 13.5658 7.93295C13.5752 7.53729 13.9002 7.2217 14.2912 7.2217C14.2959 7.2217 14.3006 7.2217 14.3053 7.2217L22.52 7.39599C23.1464 7.39599 23.7211 7.16989 24.1591 6.72713L29.8868 0.971191C31.1021 -0.244055 33.0521 -0.328846 34.3239 0.773354C35.0351 1.3904 35.4638 2.28064 35.4967 3.22269C35.5297 4.13648 35.1859 5.02201 34.55 5.65319L27.6353 12.6102C26.5614 13.6983 18.488 17.3441 14.2299 17.0661L3.73547 16.2607L1.24374 18.889C1.10243 19.0397 0.909315 19.1151 0.716194 19.1151L0.725613 19.1198Z" fill="var(--fill-0, #14B8A6)"/>
</svg>
