<svg preserveAspectRatio="none" width="100%" height="100%" overflow="visible" style="display: block;" viewBox="0 0 29 16" fill="none" xmlns="http://www.w3.org/2000/svg">
<path id="Vector" d="M1.41521 15.3753C1.13812 15.3753 0.86103 15.2901 0.619462 15.1267C0.214482 14.8496 -0.0199763 14.3877 0.00133842 13.8975L0.555499 1.35023C0.569709 0.97367 0.733132 0.625531 1.01022 0.369754C1.28732 0.113978 1.65677 -0.00680903 2.02622 0.000295879C10.3603 0.369751 18.8435 0.767627 27.2416 1.19392C27.8952 1.22945 28.4423 1.70547 28.5631 2.35202C28.6839 2.99857 28.3357 3.63802 27.7389 3.9009C19.1206 7.6594 10.4598 11.4747 1.99071 15.2474C1.80598 15.3327 1.60704 15.3682 1.41521 15.3682V15.3753ZM3.31932 2.892L2.92856 11.7447C8.93221 9.08037 15.014 6.38762 21.1029 3.72327C15.1632 3.43197 9.2093 3.15488 3.31932 2.892Z" fill="var(--fill-0, #14B8A6)"/>
</svg>
