<svg preserveAspectRatio="none" width="100%" height="100%" overflow="visible" style="display: block;" viewBox="0 0 11 22" fill="none" xmlns="http://www.w3.org/2000/svg">
<path id="Vector" d="M8.77237 21.7377C8.72038 21.7377 8.66262 21.7377 8.61063 21.7262C4.52658 21.2178 0.119038 16.6774 0.003506 9.27185C-0.0658131 5.07227 0.893101 2.24752 2.85137 0.87269C4.27241 -0.12666 6.12092 -0.271075 8.0503 0.456775C8.54708 0.641626 8.87635 1.10953 8.8879 1.64098L8.96878 4.8932C8.98611 5.60949 8.42 6.20448 7.7037 6.22181C7.00473 6.24492 6.39241 5.67304 6.37508 4.95096L6.31732 2.65765C5.705 2.5479 4.9656 2.55946 4.3475 2.99848C3.16908 3.82453 2.55098 6.03696 2.60297 9.23142C2.68384 14.2455 5.01181 17.3475 7.25313 18.5722L6.71591 13.8642C6.63503 13.1537 7.14915 12.5067 7.85967 12.4259C8.57019 12.345 9.21717 12.8591 9.29804 13.5696L10.0606 20.2936C10.1068 20.6922 9.96813 21.085 9.68507 21.3623C9.44246 21.6049 9.11319 21.7377 8.77237 21.7377Z" fill="var(--fill-0, #202933)"/>
</svg>
