<svg preserveAspectRatio="none" width="100%" height="100%" overflow="visible" style="display: block;" viewBox="0 0 132 113" fill="none" xmlns="http://www.w3.org/2000/svg">
<path id="Vector" d="M91.8261 112.524C92.8291 103.598 94.2951 94.816 96.4362 88.8005C99.0513 80.4426 105.381 65.237 109.917 56.802C115.547 46.3361 123.971 32.1914 123.971 32.1914C123.971 32.1914 126.26 28.1186 130.557 22.3924C133.191 18.879 129.429 14.6876 129.429 14.6876C129.429 14.6876 126.889 11.9926 121.807 8.07963C116.726 4.16938 114.888 2.45812 114.888 2.45812C114.888 2.45812 112.19 -0.873439 110.716 0.220549C107.131 2.88249 102.851 5.96054 102.358 7.15373C102.196 7.54779 100.972 11.3561 100.972 11.3561C100.972 11.3561 80.4894 34.5144 74.2864 39.1963L69.8747 42.2357L67.6977 38.9758C67.6977 38.9758 62.1423 43.1396 54.7931 47.4659C44.352 53.6138 39.5379 55.212 39.5379 55.212C39.5379 55.212 35.6249 50.6514 35.1977 43.3022C35.1977 37.6063 28.8295 39.3836 28.8295 39.3836L26.9804 41.4669L1.16287 83.2947L0 83.5593C0.992029 88.0923 2.23755 100.134 3.34531 112.524H91.8288H91.8261Z" fill="var(--fill-0, white)"/>
</svg>
