<svg preserveAspectRatio="none" width="100%" height="100%" overflow="visible" style="display: block;" viewBox="0 0 57 48" fill="none" xmlns="http://www.w3.org/2000/svg">
<path id="Vector" d="M40.9118 11.3714C41.717 15.7887 40.2454 19.9208 37.7843 22.3768C33.001 26.731 23.5 26.2994 20.2539 31.0853C18.9034 33.0743 16.2581 38.3019 16.2581 38.3019L13.3199 38.5568L6.79995 47.9115C6.79995 47.9115 -1.06036 39.2358 0.120963 27.3394C0.542501 21.2889 3.00357 14.774 8.53153 8.46856C15.7457 0.239723 32.1731 -4.44769 42.7418 6.08321C48.5449 7.13327 53.2929 11.8737 55.3022 18.6738C57.3467 25.5901 54.7166 31.5674 54.7166 31.5674C54.7166 31.5674 53.9315 18.0857 44.8091 11.7525L42.4238 10.3289C41.6817 9.88463 40.7578 10.5207 40.9143 11.3714H40.9118Z" fill="var(--fill-0, #212C68)"/>
</svg>
