<svg preserveAspectRatio="none" width="100%" height="100%" overflow="visible" style="display: block;" viewBox="0 0 7 6" fill="none" xmlns="http://www.w3.org/2000/svg">
<path id="Vector" d="M3.73998 0C3.67528 0 3.628 0.0373252 3.59814 0.111975L3.19503 1.16454L3.1801 1.22427C3.1801 1.28896 3.22489 1.3238 3.31447 1.32878C3.79224 1.35366 4.18042 1.44946 4.47902 1.61618C4.77762 1.7829 4.99411 1.99067 5.12848 2.23951C5.26285 2.48834 5.33003 2.7546 5.33003 3.03827C5.33003 3.42147 5.22801 3.76113 5.02397 4.05724C4.81992 4.35336 4.53625 4.56362 4.17295 4.68804C4.13812 4.13563 4.00001 3.50608 3.75864 2.79939C3.51727 2.0927 3.22738 1.49301 2.88897 1.00031C2.76953 0.821153 2.61152 0.684294 2.41494 0.589737C2.21836 0.49518 2.00809 0.447902 1.78414 0.447902C1.41587 0.447902 1.09612 0.559877 0.824886 0.783828C0.553656 1.00778 0.348368 1.29269 0.209021 1.63857C0.0696736 1.98445 0 2.33904 0 2.70234C0 3.17015 0.110731 3.63049 0.332194 4.08337C0.553656 4.53625 0.893315 4.93936 1.35117 5.29271C1.63982 5.51666 1.96704 5.68711 2.33282 5.80406C2.69861 5.92101 3.07559 5.97949 3.46377 5.97949C4.06595 5.97949 4.61339 5.8501 5.10608 5.59131C5.59877 5.33252 5.98944 4.97047 6.27809 4.50515C6.56674 4.03983 6.71106 3.51105 6.71106 2.91883C6.71106 2.40623 6.5854 1.93344 6.33408 1.50047C6.08276 1.0675 5.73314 0.717887 5.28524 0.451634C4.83734 0.185382 4.32972 0.0348368 3.76238 0H3.73998ZM2.81432 4.71043C2.53562 4.63081 2.28057 4.49146 2.04915 4.29239C1.81773 4.09333 1.6336 3.85818 1.49674 3.58695C1.35988 3.31572 1.29145 3.03578 1.29145 2.74713C1.29145 2.42365 1.38103 2.15491 1.56019 1.94091C1.60498 1.88616 1.65973 1.85879 1.72442 1.85879C1.80405 1.85879 1.86875 1.89861 1.91851 1.97823C2.14246 2.31167 2.34278 2.75335 2.51945 3.30328C2.69612 3.8532 2.79441 4.32225 2.81432 4.71043Z" fill="var(--fill-0, #14B8A6)"/>
</svg>
