<svg preserveAspectRatio="none" width="100%" height="100%" overflow="visible" style="display: block;" viewBox="0 0 11 22" fill="none" xmlns="http://www.w3.org/2000/svg">
<path id="Vector" d="M1.29789 21.7402C0.650913 21.7402 0.0905864 21.2607 0.00971413 20.6022C-0.0769347 19.8917 0.425627 19.2389 1.13615 19.1523C3.70095 18.8346 7.36331 15.5419 7.46729 9.23387C7.51927 6.04519 6.90119 3.83276 5.72276 3.00093C4.78695 2.3424 3.57387 2.64855 2.93844 2.89117C2.26836 3.14534 1.5174 2.8103 1.26323 2.13444C1.00906 1.46435 1.34988 0.713397 2.01997 0.459227C3.94935 -0.2744 5.79785 -0.124208 7.2189 0.875142C9.17716 2.24997 10.1361 5.0805 10.0668 9.2743C9.94544 16.6799 5.54368 21.2203 1.45964 21.7286C1.40765 21.7344 1.34988 21.7402 1.29789 21.7402Z" fill="var(--fill-0, #202933)"/>
</svg>
