<svg preserveAspectRatio="none" width="100%" height="100%" overflow="visible" style="display: block;" viewBox="0 0 10 52" fill="none" xmlns="http://www.w3.org/2000/svg">
<path id="Vector" d="M1.13657 51.8797C1.04065 51.8797 0.942228 51.8671 0.843785 51.8419C0.237981 51.6803 -0.122994 51.0568 0.038554 50.451C0.0637958 50.3551 2.58799 40.8566 4.74869 30.6841C6.63173 21.8142 7.16433 11.0233 7.27035 8.44607L1.3057 3.79905C1.0028 3.56177 0.838733 3.18819 0.871547 2.80452C0.904362 2.42084 1.12901 2.08008 1.46725 1.90086L4.77645 0.133934C5.32925 -0.161396 6.01834 0.0481052 6.31367 0.600902C6.609 1.1537 6.3995 1.84281 5.84671 2.13814L4.07978 3.08218L9.12309 7.01234C9.40832 7.23446 9.56987 7.58028 9.55977 7.94123C9.55472 8.06997 9.15593 20.855 6.96999 31.1562C4.79919 41.3867 2.25985 50.9407 2.23461 51.0366C2.09831 51.544 1.63888 51.8797 1.13657 51.8797Z" fill="var(--fill-0, #212C68)"/>
</svg>
