<svg preserveAspectRatio="none" width="100%" height="100%" overflow="visible" style="display: block;" viewBox="0 0 40 85" fill="none" xmlns="http://www.w3.org/2000/svg">
<path id="Vector" d="M37.098 84.0545H1.13988C0.518127 84.0545 0.00942253 83.5505 0.00942253 82.9241V72.9901C0.00942253 60.6022 6.46719 53.3955 12.713 46.429C18.8552 39.5756 24.6582 33.1037 24.6582 21.9262C24.6582 14.4416 21.9121 13.8152 19.3403 13.8152C16.7685 13.8152 14.0224 14.5924 14.0224 20.6592V29.3214C14.0224 29.9431 13.5184 30.4518 12.892 30.4518H1.13047C0.508712 30.4518 0 29.9478 0 29.3214V21.4646C0 7.6259 6.98531 0 19.6747 0C32.3642 0 39.3495 7.62119 39.3495 21.4646C39.3495 36.6458 30.6826 46.3913 23.7209 54.2198C18.8175 59.7355 14.583 64.4928 14.583 69.6411C14.583 69.8484 14.583 70.0462 14.5877 70.2441H37.0839C37.7056 70.2441 38.2143 70.7481 38.2143 71.3745V82.9288C38.2143 83.5505 37.7103 84.0593 37.0839 84.0593L37.098 84.0545ZM2.27035 81.7936H35.9675V72.5003H13.575C13.0333 72.5003 12.5717 72.1187 12.4681 71.5865C12.3362 70.9035 12.3362 70.2582 12.3362 69.6364C12.3362 63.6309 16.8345 58.572 22.044 52.7172C29.1 44.7804 37.1027 35.7838 37.1027 21.4646C37.1027 8.90238 31.083 2.26092 19.6889 2.26092C8.29476 2.26092 2.27506 8.90238 2.27506 21.4646V28.1909H11.7756V20.6545C11.7756 13.1322 15.8971 11.5543 19.3497 11.5543C24.5875 11.5543 26.9238 14.7525 26.9238 21.9262C26.9238 33.9704 20.5556 41.0687 14.3993 47.9363C8.16288 54.8933 2.27035 61.4641 2.27035 72.9901V81.7936Z" fill="var(--fill-0, #14B8A6)"/>
</svg>
