<svg preserveAspectRatio="none" width="100%" height="100%" overflow="visible" style="display: block;" viewBox="0 0 23 29" fill="none" xmlns="http://www.w3.org/2000/svg">
<path id="Vector" d="M12.063 0.0141302C12.1807 1.63917 12.3503 2.51528 12.5528 3.38668C15.4685 2.30332 16.7355 1.43191 17.574 0.861971C18.2664 2.70368 18.6432 3.60806 19.1613 4.66787C18.2381 5.33201 17.1689 6.09507 13.7916 7.43279C14.1685 8.39839 14.225 8.48788 14.338 8.7705C14.8844 8.53498 17.541 7.47517 20.4001 5.13418C20.7157 5.82187 22.3313 8.60564 22.6516 9.16616C20.3719 11.0408 17.9178 12.1807 16.3305 12.8496C18.1486 16.0997 19.9951 18.0686 20.6875 18.8175L18.0026 21.9875C14.3663 19.378 10.2401 19.4345 9.7785 19.4392C8.56796 19.4581 5.99618 19.9244 5.99618 21.7284C5.99618 23.2216 7.55526 24.2672 11.0173 24.2437C12.3456 24.2343 15.8359 24.1778 18.5773 22.8919C18.4312 23.5607 18.2617 24.6346 18.2617 26.2832C18.2617 26.9803 18.2899 27.263 18.3465 27.6445C16.0102 28.4358 13.5561 28.6572 11.1021 28.6572C3.68342 28.6572 1.29061 24.8607 1.29061 21.8933C1.29061 18.5867 4.11678 15.9725 8.96835 15.8783C9.68902 15.8641 11.1021 15.9018 12.9815 16.1468C12.6329 15.5862 12.4351 15.2471 11.9735 14.2815C9.02958 14.9975 5.33673 15.5109 2.3363 15.5674C2.1055 15.5674 1.23882 15.5909 0.489885 15.5109L0 10.9561C1.76164 11.0032 2.8874 11.0032 3.51858 10.989C5.28021 10.9419 7.41394 10.73 10.1553 10.0941C10.0093 9.75494 9.92452 9.47704 9.60894 8.73282C6.86757 9.34044 4.21098 9.54298 2.39282 9.68429L1.4696 5.38382C2.53883 5.37911 4.84687 5.32731 8.0781 4.65845C7.41396 2.81203 7.21141 2.07251 6.89582 1.05509L12.063 0V0.0141302Z" fill="var(--fill-0, #0F172A)"/>
</svg>
