<svg preserveAspectRatio="none" width="100%" height="100%" overflow="visible" style="display: block;" viewBox="0 0 13 20" fill="none" xmlns="http://www.w3.org/2000/svg">
<path id="Vector" d="M10.1194 19.1043C8.19349 19.1043 6.20695 18.3899 4.45769 17.037C1.70885 14.9066 0 11.5797 0 8.35379C0 2.97223 2.58729 1.10686 4.12956 0.473288C6.58307 -0.533861 9.44043 0.195627 10.6773 1.45015C12.2423 3.03533 12.631 4.96381 12.6462 5.04459C12.7648 5.66049 12.3634 6.25619 11.7475 6.37483C11.1342 6.49347 10.5384 6.09465 10.4173 5.48127C10.4097 5.44593 10.1194 4.11569 9.0618 3.04543C8.53677 2.51283 6.67644 1.88178 4.99281 2.57341C3.21326 3.30542 2.27177 5.30458 2.27177 8.35379C2.27177 10.8931 3.64238 13.5334 5.84852 15.2423C7.61292 16.6104 9.64491 17.1304 11.4245 16.671C12.0328 16.5145 12.6512 16.8805 12.8077 17.4863C12.9642 18.0946 12.5982 18.713 11.9924 18.8695C11.3816 19.0286 10.753 19.1043 10.1169 19.1043H10.1194Z" fill="var(--fill-0, #212C68)"/>
</svg>
