<svg preserveAspectRatio="none" width="100%" height="100%" overflow="visible" style="display: block;" viewBox="0 0 60 128" fill="none" xmlns="http://www.w3.org/2000/svg">
<path id="Vector" d="M29.7625 127.334C10.8492 127.334 0 115.689 0 95.3835V31.9508C0 11.6449 10.8492 0 29.7625 0C48.6758 0 59.525 11.6449 59.525 31.9508V95.3835C59.525 115.689 48.6758 127.334 29.7625 127.334ZM29.7625 2.56487C12.2204 2.56487 2.55775 13.002 2.55775 31.9579V95.3906C2.55775 114.346 12.2204 124.784 29.7625 124.784C47.3045 124.784 56.9672 114.346 56.9672 95.3906V31.9579C56.9672 13.002 47.3045 2.56487 29.7625 2.56487ZM29.7625 109.913C22.4657 109.913 18.7641 105.437 18.7641 96.6126V30.743C18.7641 21.9187 22.4657 17.4426 29.7625 17.4426C37.0592 17.4426 40.7609 21.9187 40.7609 30.743V96.6126C40.7609 105.437 37.0592 109.913 29.7625 109.913ZM29.7625 19.9932C26.139 19.9932 21.3218 21.1087 21.3218 30.7359V96.6055C21.3218 106.24 26.139 107.348 29.7625 107.348C33.386 107.348 38.2102 106.233 38.2102 96.6055V30.7359C38.2102 21.1016 33.3931 19.9932 29.7625 19.9932Z" fill="var(--fill-0, white)"/>
</svg>
