<svg preserveAspectRatio="none" width="100%" height="100%" overflow="visible" style="display: block;" viewBox="0 0 58 71" fill="none" xmlns="http://www.w3.org/2000/svg">
<path id="Vector" d="M28.7857 70.1925C27.1323 70.1925 25.9208 69.877 25.8677 69.8644C19.3781 68.105 11.3991 60.9439 8.43824 54.2271C8.08233 53.3941 7.76681 52.4475 7.4942 51.4C4.27586 50.5468 0.103386 46.8817 0.00241818 40.6697C-0.0531139 37.1838 0.848019 34.7631 2.6831 33.4732C3.6953 32.7614 4.96496 32.461 6.25734 32.5973V23.0231C6.25734 19.6558 7.10799 16.3264 8.71842 13.3933C11.4546 8.41058 17.6868 0.0454353 28.6898 0C28.7226 0 28.7529 5.3928e-07 28.7832 0.00252472C28.8135 0.00252472 28.8463 0 28.8766 0C39.8795 0.0479595 46.1117 8.41058 48.8479 13.3933C50.4583 16.3239 51.309 19.6558 51.309 23.0231V32.5973C52.6039 32.461 53.871 32.7614 54.8832 33.4732C56.7183 34.7631 57.6195 37.1838 57.5639 40.6697C57.463 46.8817 53.2905 50.5468 50.0722 51.4C49.7995 52.4475 49.484 53.3916 49.1331 54.2144C46.1672 60.9439 38.1883 68.1025 31.7062 69.8619C31.6481 69.877 30.434 70.1925 28.7832 70.1925H28.7857ZM5.62882 34.8388C5.11136 34.8388 4.52828 34.9549 3.99063 35.331C2.82698 36.1488 2.2338 37.9814 2.27671 40.6318C2.36758 46.2128 6.41889 49.0298 8.56697 49.2998C9.039 49.3579 9.4252 49.7062 9.53374 50.1707C9.81393 51.3773 10.1496 52.4374 10.5257 53.3234C13.1963 59.384 20.6452 66.0933 26.4584 67.6683C26.4584 67.6683 27.4479 67.9208 28.7882 67.9208C30.1286 67.9208 31.118 67.6683 31.1281 67.6658C36.9312 66.0933 44.3776 59.384 47.0557 53.3108C47.4293 52.4374 47.7625 51.3773 48.0427 50.1707C48.1512 49.7062 48.5349 49.3604 49.0095 49.2998C51.1575 49.0323 55.2089 46.2153 55.2997 40.6318C55.3426 37.9814 54.7495 36.1488 53.5858 35.331C52.4045 34.5006 50.9884 34.9372 50.582 35.0912C50.2337 35.2225 49.8425 35.1745 49.5345 34.9625C49.2266 34.7504 49.0448 34.4021 49.0448 34.0285V23.0231C49.0448 20.037 48.2901 17.0837 46.8639 14.4863C43.8147 8.93561 38.2211 2.30963 28.874 2.27177C28.8463 2.27177 28.8185 2.27177 28.7907 2.26924C28.763 2.26924 28.7352 2.27177 28.7075 2.27177C19.3604 2.31215 13.7668 8.93561 10.7176 14.4863C9.29142 17.0837 8.53669 20.0345 8.53669 23.0231V34.0285C8.53669 34.4021 8.35242 34.7504 8.04699 34.9625C7.74157 35.1745 7.34779 35.2225 6.99945 35.0912C6.77732 35.0079 6.25482 34.8388 5.63387 34.8388H5.62882Z" fill="var(--fill-0, #212C68)"/>
</svg>
