<svg preserveAspectRatio="none" width="100%" height="100%" overflow="visible" style="display: block;" viewBox="0 0 69 62" fill="none" xmlns="http://www.w3.org/2000/svg">
<path id="Vector" d="M23.7693 61.4733C23.5699 61.4733 23.3705 61.4203 23.1888 61.3117L0.554385 47.7972C0.228765 47.6029 0.0217968 47.2596 0.00160332 46.881C-0.0185902 46.5023 0.153036 46.1388 0.455938 45.9117C0.529139 45.8561 7.95276 40.3206 15.2527 35.1384C16.9717 33.9167 17.7542 32.2659 18.9936 24.8903C19.7205 20.5613 18.986 1.37242 18.9784 1.18059C18.9607 0.731282 19.2106 0.314791 19.6145 0.115381C20.0184 -0.0815058 20.5005 -0.0234481 20.8463 0.266833L34.9338 12.1381L46.4945 20.7556C46.7823 20.9702 46.9514 21.3084 46.9514 21.6669V25.0796C46.9514 27.7905 47.2594 31.0038 47.6279 32.1473C48.1201 32.9273 51.8004 34.8078 53.5749 35.7165C54.5341 36.2062 55.362 36.6302 55.9602 36.9735C64.6485 41.9638 67.7053 44.7202 67.8315 44.8364C68.1319 45.1115 68.2631 45.5255 68.1748 45.9243L65.638 57.2427C65.5016 57.8561 64.8933 58.2398 64.2799 58.1035C63.6691 57.9672 63.2829 57.3588 63.4192 56.7455L65.8046 46.101C64.651 45.1721 61.3696 42.7009 54.8294 38.9449C54.2791 38.6294 53.4361 38.1978 52.54 37.7409C47.9132 35.3757 45.9115 34.1793 45.4823 32.9045C44.9598 31.3446 44.6771 27.7072 44.6771 25.0796V22.2373L33.5455 13.9403C33.5278 13.9277 33.5101 13.9126 33.4925 13.8974L21.336 3.65429C21.5127 9.1242 21.8383 21.6618 21.23 25.2689C19.9401 32.9449 19.0239 35.2445 16.5628 36.9912C11.1434 40.8406 5.65324 44.8843 3.17449 46.7194L24.3474 59.3605C24.885 59.6811 25.0617 60.3803 24.7411 60.9179C24.5291 61.2739 24.1505 61.4707 23.7643 61.4707L23.7693 61.4733Z" fill="var(--fill-0, #212C68)"/>
</svg>
