<svg preserveAspectRatio="none" width="100%" height="100%" overflow="visible" style="display: block;" viewBox="0 0 67 111" fill="none" xmlns="http://www.w3.org/2000/svg">
<path id="Vector" d="M50.0415 110.294C43.6411 110.294 35.9698 107.233 35.5712 107.071C34.9069 106.799 34.5834 106.043 34.8549 105.378C35.1206 104.714 35.8831 104.391 36.5474 104.662C36.6572 104.708 47.7482 109.127 53.4208 107.238C59.4689 105.228 65.5228 97.7879 62.6692 83.4388C61.9644 79.9093 60.3181 73.1565 58.5678 66.0051C55.9799 55.4108 53.2995 44.4584 52.9298 40.8943C52.9298 40.8769 52.9298 40.8538 52.9298 40.8365L52.9125 40.5881C51.7341 25.2859 42.4338 22.155 38.4595 20.8206C38.1995 20.734 37.9685 20.6589 37.7721 20.5838L19.2928 13.9638C19.0559 13.8829 18.8537 13.7327 18.7036 13.5363C16.9706 11.295 15.6131 9.10567 14.5271 7.34959C13.2331 5.26424 12.1125 3.46195 11.2286 2.98249C10.2351 2.44527 9.28193 2.55502 8.68694 2.72832C8.65805 3.78543 8.6985 5.75526 9.18951 7.51712C9.66319 9.22699 10.5066 9.79309 10.547 9.8162C10.9918 10.0704 11.2171 10.5498 11.1651 11.0639C11.1362 11.3297 10.4604 17.5626 9.73251 20.0523C7.9071 26.3141 5.45783 30.7506 3.99635 33.402C3.78839 33.7717 3.60354 34.1183 3.43602 34.4302C2.30958 36.5214 2.44244 39.7678 3.21073 41.5817C3.52267 42.3211 4.10033 43.0778 4.71265 43.8865C5.65423 45.1227 6.71712 46.5206 7.12726 48.2825C7.46808 49.7613 7.17347 50.9802 6.85576 52.2741C6.50339 53.7241 6.09902 55.3646 6.29543 58.1143L6.31276 58.3627C7.38143 73.3587 9.27037 99.4573 9.9058 105.748C9.98089 106.464 9.461 107.1 8.74471 107.175C8.02841 107.25 7.39298 106.73 7.31789 106.014C6.67669 99.6884 4.78774 73.5609 3.71329 58.5533L3.69596 58.3049C3.47068 55.1509 3.96169 53.1348 4.31984 51.6618C4.60289 50.5123 4.78774 49.7498 4.58556 48.8775C4.30251 47.6586 3.49378 46.5957 2.63307 45.4693C1.95143 44.5739 1.24669 43.6497 0.801894 42.6041C-0.209009 40.2242 -0.434292 36.117 1.13116 33.2056C1.30446 32.8879 1.49509 32.5355 1.70882 32.1543C3.21074 29.4335 5.48093 25.3206 7.22546 19.336C7.75691 17.5164 8.29413 13.1724 8.49053 11.4856C7.91865 10.9195 7.14459 9.90284 6.67669 8.22763C5.8333 5.21225 6.11636 1.87916 6.12791 1.74053C6.16257 1.31883 6.40519 0.943356 6.76911 0.729622C6.87887 0.66608 9.55343 -0.864722 12.4591 0.706511C13.9552 1.51523 15.1163 3.39263 16.7337 5.98631C17.7966 7.69618 18.9924 9.62557 20.5347 11.6532L38.6501 18.1403C38.835 18.2096 39.0487 18.2789 39.2913 18.3598C43.3696 19.7288 54.1949 23.3739 55.5062 40.3975L55.5235 40.6574C55.8932 44.0772 58.6602 55.3993 61.1037 65.3985C62.8598 72.5788 64.5177 79.3606 65.2282 82.9421C68.4169 98.949 61.3059 107.371 54.2527 109.717C52.9992 110.132 51.5608 110.306 50.0531 110.306L50.0415 110.294Z" fill="var(--fill-0, #202933)"/>
</svg>
