<svg preserveAspectRatio="none" width="100%" height="100%" overflow="visible" style="display: block;" viewBox="0 0 55 87" fill="none" xmlns="http://www.w3.org/2000/svg">
<path id="Vector" d="M39.1411 86.3614C34.6531 86.3614 29.9707 82.4515 24.8239 74.4069C20.9039 68.2782 16.7516 59.754 12.4857 49.0717C5.24382 30.9379 0.0919422 12.5644 0.0414585 12.3801C-0.0367912 12.0974 -0.00397556 11.7945 0.137379 11.5345L6.05156 0.594687C6.20806 0.304406 6.48319 0.0974227 6.80629 0.0267455C7.12686 -0.0439317 7.46511 0.0267452 7.73015 0.223632C7.78315 0.261494 13.0057 4.13864 17.6906 7.07175C24.4327 11.2947 28.6279 12.837 30.0212 13.2812L33.131 10.7722L35.4457 6.55429C35.6325 6.211 35.9833 5.99139 36.3721 5.96615C36.7633 5.94343 37.1369 6.12013 37.364 6.43818L41.0771 11.6027L47.6451 19.5387C47.7057 19.6119 47.7561 19.6901 47.7965 19.776L53.6653 32.1167C53.7258 32.2429 53.7612 32.3767 53.7712 32.5155C53.8949 34.1133 56.7044 71.8019 46.2694 83.0825C44.2551 85.2584 41.8596 86.3614 39.1487 86.3614H39.1411ZM2.35362 12.211C3.17903 15.1062 8.02547 31.7785 14.601 48.2462C18.8138 58.7948 22.898 67.1877 26.7398 73.1902C31.3691 80.422 35.5416 84.0897 39.1411 84.0897C41.2235 84.0897 43.0056 83.2567 44.5933 81.5402C53.9833 71.3905 51.7267 35.9484 51.5121 32.8992L45.7974 20.879L39.2951 13.0238C39.2799 13.0036 39.2623 12.9834 39.2471 12.9632L36.5639 9.22993L35.009 12.0646C34.9383 12.1933 34.8424 12.3094 34.7263 12.4028L30.9804 15.4243C30.7078 15.6439 30.3468 15.7272 30.0061 15.6464C29.8142 15.601 25.2126 14.4727 16.4789 9.00023C12.993 6.81428 9.2194 4.1235 7.42723 2.82355L2.35362 12.2135V12.211Z" fill="var(--fill-0, #212C68)"/>
</svg>
