<svg preserveAspectRatio="none" width="100%" height="100%" overflow="visible" style="display: block;" viewBox="0 0 69 66" fill="none" xmlns="http://www.w3.org/2000/svg">
<path id="Vector" d="M65.8341 65.6849H65.8128C44.3915 65.2728 22.6718 65.0384 1.24336 64.9887C0.554183 64.9887 0 64.4274 0 63.7382C0 63.049 0.561288 62.4948 1.24336 62.4948C22.2668 62.5446 43.5744 62.7719 64.605 63.1698L65.756 3.11195C49.0381 2.79934 32.1213 2.58619 15.4532 2.48672C14.764 2.48672 14.2098 1.91833 14.2169 1.23626C14.2169 0.554183 14.7782 0 15.4603 0H15.4674C32.5689 0.0994688 49.9191 0.319721 67.0491 0.646547C67.7382 0.660757 68.2853 1.22915 68.2711 1.91833L67.0704 64.47C67.0562 65.1521 66.502 65.692 65.827 65.692L65.8341 65.6849Z" fill="var(--fill-0, #14B8A6)"/>
</svg>
