<svg preserveAspectRatio="none" width="100%" height="100%" overflow="visible" style="display: block;" viewBox="0 0 57 40" fill="none" xmlns="http://www.w3.org/2000/svg">
<path id="Vector" d="M53.2832 39.5859C53.051 39.5859 52.8263 39.4774 52.6799 39.2855C52.6699 39.2755 52.2937 38.8161 51.486 38.6141C50.7767 38.4349 49.8604 38.6772 49.5651 38.7858C49.3833 38.8539 49.1789 38.8489 48.9997 38.7706C48.8785 38.7176 46.0413 37.4202 45.5012 31.4883C45.0241 26.2431 44.8423 25.0895 44.2062 22.0201C43.3733 18.0041 41.9723 16.5098 41.7805 16.3205C41.3009 15.9974 36.1743 12.6882 31.4339 15.2578C30.712 15.6491 29.7957 16.3508 28.6371 17.2393C27.4002 18.1859 25.8605 19.3647 23.9244 20.6495C21.4129 22.318 18.4469 23.4185 16.0641 24.3045C14.2795 24.9659 12.7398 25.5388 11.9068 26.1396C9.26649 28.0479 9.16551 30.4459 9.0595 32.9877C9.01911 33.9494 8.97873 34.944 8.77932 35.8729C8.38302 37.7231 6.89123 38.7328 6.8256 38.7757C6.62871 38.9069 6.38386 38.9372 6.15921 38.8615C6.15164 38.859 5.20759 38.5409 4.25849 38.599C3.40784 38.6495 2.73641 39.1694 2.72884 39.1745C2.51933 39.3386 2.23915 39.384 1.99178 39.2881C1.74441 39.1947 1.56014 38.9776 1.51218 38.7176C1.50713 38.6873 0.961916 35.681 0.479797 31.1451C0.444458 30.8119 0.404068 30.4686 0.366206 30.1202C0.0683518 27.5027 -0.272417 24.5367 0.346008 21.6339C1.90848 14.2835 3.8824 12.5872 7.15122 9.78036C7.76712 9.2528 8.40321 8.70505 9.10493 8.06391C9.83694 7.39248 16.4655 1.48084 23.2959 0.395438C32.3981 -1.05092 36.4469 1.86199 37.5298 2.85652C38.6505 2.78079 41.7628 2.97768 46.5537 6.52416C50.4435 9.40425 52.3417 13.2713 53.8133 17.0222C55.8932 22.3256 55.7165 26.132 55.6585 26.8464C55.7594 27.437 56.1608 29.888 55.9866 31.0769C55.8882 31.7382 55.3581 33.4623 54.823 34.4896C54.6867 34.8203 54.3055 37.0643 54.0354 38.9397C53.9925 39.2426 53.7704 39.4875 53.475 39.5657C53.4119 39.5809 53.3488 39.591 53.2857 39.591L53.2832 39.5859ZM50.9054 37.034C51.2134 37.034 51.5365 37.0643 51.8545 37.145C52.1852 37.2283 52.4729 37.3394 52.7203 37.4631C52.9551 35.9461 53.2605 34.2018 53.475 33.7854C53.9117 32.9473 54.4039 31.3874 54.4847 30.8522C54.616 29.9713 54.2853 27.7803 54.1465 27.0079C54.1339 26.9372 54.1313 26.864 54.1389 26.7908C54.144 26.7555 54.515 22.9667 52.3997 17.5725C50.7969 13.4808 49.035 10.2448 45.6501 7.73829C40.3367 3.80309 37.4566 4.38113 37.4288 4.3887C37.1537 4.44928 36.8558 4.35588 36.6741 4.1388C36.6438 4.10599 33.2588 0.344954 23.5332 1.88975C18.3384 2.71516 12.6615 6.85987 10.1272 9.1796C9.40783 9.83589 8.73387 10.4165 8.13816 10.9263C5.00818 13.6146 3.28163 15.0938 1.8277 21.9444C1.26229 24.6049 1.58539 27.4421 1.87315 29.9435C1.91354 30.2969 1.95392 30.6427 1.98925 30.981C2.29973 33.8888 2.63293 36.1556 2.83234 37.3949C3.20592 37.2435 3.66532 37.1122 4.17521 37.0819C4.99557 37.034 5.78311 37.188 6.24251 37.3066C6.56813 37.0113 7.11841 36.4055 7.30015 35.5523C7.47179 34.7496 7.50965 33.8611 7.54751 32.9196C7.65858 30.2591 7.78479 27.2452 11.0208 24.9078C12.0178 24.1859 13.6485 23.5826 15.5366 22.8809C17.9674 21.9772 20.7212 20.9549 23.0864 19.3849C24.9795 18.1278 26.4966 16.9667 27.7158 16.0328C28.9274 15.1064 29.884 14.3718 30.712 13.9251C36.505 10.7825 42.4444 14.9322 42.6943 15.1089C42.7119 15.1215 42.7271 15.1342 42.7447 15.1468C42.823 15.2124 44.6783 16.8304 45.6905 21.7097C46.3316 24.7993 46.5285 26.0613 47.0106 31.3495C47.3766 35.363 48.8507 36.832 49.4061 37.2485C49.7519 37.1526 50.3022 37.034 50.9054 37.034Z" fill="var(--fill-0, #212C68)"/>
</svg>
