<svg preserveAspectRatio="none" width="100%" height="100%" overflow="visible" style="display: block;" viewBox="0 0 50 86" fill="none" xmlns="http://www.w3.org/2000/svg">
<path id="Vector" d="M33.1727 85.8755H16.248C15.7154 85.8755 15.2535 85.5045 15.1399 84.9845L4.63679 37.502C4.63427 37.4869 4.62922 37.4717 4.62669 37.4541L0.0175343 11.3994C-0.0480945 11.0309 0.0730636 10.6548 0.338103 10.3923L3.21315 7.56016C3.26363 7.50968 3.32169 7.46424 3.38227 7.42385L4.90688 6.41166L8.48617 0.542929C8.65277 0.270317 8.9279 0.0784767 9.2409 0.0204205C9.55643 -0.0401599 9.87952 0.0355674 10.137 0.227405C10.1496 0.237502 11.4369 1.19669 17.6893 5.60644C20.3827 7.50715 23.4849 9.27913 24.7116 9.96318C25.9384 9.27913 29.0406 7.50463 31.7339 5.60644C37.9863 1.19669 39.2736 0.237502 39.2837 0.227405C39.5387 0.0355674 39.8643 -0.0401599 40.1798 0.0204205C40.4954 0.0810009 40.768 0.270317 40.9346 0.542929L44.5139 6.41166L46.0385 7.42385C46.099 7.46424 46.1546 7.50968 46.2076 7.56016L49.0826 10.3923C49.3502 10.6548 49.4688 11.0309 49.4032 11.3994L44.794 37.4541C44.7915 37.4692 44.789 37.4869 44.7839 37.502L34.2808 84.9845C34.1647 85.5045 33.7053 85.8755 33.1727 85.8755ZM17.1593 83.6037H32.2615L42.5627 37.0351L47.0658 11.5938L44.6956 9.25894L43.0498 8.16596C42.911 8.07509 42.7949 7.95393 42.7091 7.81258L39.6397 2.78188C38.6249 3.51389 36.6712 4.90724 33.044 7.46424C29.5 9.96318 25.4235 12.1693 25.2493 12.2627C24.9136 12.4445 24.5072 12.4445 24.1715 12.2627C23.9998 12.1693 19.9232 9.96318 16.3768 7.46424C12.752 4.90724 10.7983 3.51137 9.78108 2.78188L6.71167 7.81258C6.62585 7.95393 6.50974 8.07509 6.37091 8.16596L4.72514 9.25894L2.35493 11.5938L6.85807 37.0351L17.1593 83.6037Z" fill="var(--fill-0, #212C68)"/>
</svg>
