<svg preserveAspectRatio="none" width="100%" height="100%" overflow="visible" style="display: block;" viewBox="0 0 110 99" fill="none" xmlns="http://www.w3.org/2000/svg">
<path id="Vector" d="M101.436 13.9789C101.436 13.9789 95.9864 12.8531 91.0894 10.8641C85.4681 8.58222 82.0402 6.80773 82.0402 6.80773L79.6322 3.13756L74.3314 0.00251895L68.6999 41.0634L60.4762 60.0907L48.6604 57.6196L42.6756 49.4765L35.8527 0L30.5519 3.13503L28.1439 6.8052C28.1439 6.8052 24.716 8.5797 19.0947 10.8616C14.2003 12.8481 10.0101 13.9764 10.0101 13.9764C10.0101 13.9764 4.59069 14.1127 2.18514 18.2347C-2.90109 26.9507 2.16495 49.1711 4.56797 66.9616C6.9609 84.6687 5.93608 90.5778 13.91 96.5374C21.8839 102.497 40.6184 94.869 49.4808 92.736L61.9326 91.166C61.9326 91.166 82.8985 96.9211 86.0966 97.3603C89.2948 97.7995 94.0276 97.3704 98.1698 92.8496C102.882 87.7078 105.5 67.1206 106.116 61.2594C106.732 55.3983 112.002 26.769 108.193 18.8733C106.118 14.5721 101.436 13.9739 101.436 13.9739V13.9789Z" fill="var(--fill-0, #61ADFF)"/>
</svg>
