<svg preserveAspectRatio="none" width="100%" height="100%" overflow="visible" style="display: block;" viewBox="0 0 49 64" fill="none" xmlns="http://www.w3.org/2000/svg">
<path id="Vector" d="M34.36 63.9657C34.2002 63.9657 34.0404 63.9354 33.8833 63.8692L6.07065 52.2845C5.77855 52.1633 5.54432 51.9346 5.41481 51.6425L0.107459 39.7105C-0.154326 39.1236 0.0771455 38.4347 0.639295 38.1206C0.732987 38.0682 10.16 32.7636 12.0256 25.8304C13.1609 21.6143 9.8569 6.87438 8.48735 1.55049C8.36335 1.06826 8.5397 0.558469 8.93651 0.255349C9.33332 -0.0477705 9.87068 -0.0835928 10.3033 0.161659L43.3324 18.9496C43.7209 19.17 43.9607 19.5806 43.9607 20.027V30.8953C43.9607 32.0389 45.964 34.3012 47.3198 35.4696C47.5264 35.646 47.667 35.8885 47.7221 36.153C47.8516 36.773 50.8442 51.4385 44.8838 61.4828C44.5338 62.0725 43.7733 62.2654 43.1836 61.9155C42.5939 61.5655 42.401 60.8049 42.7509 60.2152C47.7138 51.8546 45.7931 39.4102 45.3688 37.0541C44.2583 36.0428 41.4806 33.2734 41.4806 30.8925V20.7435L11.5847 3.73847C12.9542 9.50326 15.6355 21.9615 14.423 26.467C12.6511 33.0557 5.47819 38.0461 2.82451 39.6995L7.48429 50.1737L34.8423 61.5683C35.4733 61.8328 35.7737 62.5575 35.5091 63.1886C35.3107 63.6653 34.8505 63.9519 34.3628 63.9519L34.36 63.9657Z" fill="var(--fill-0, #202933)"/>
</svg>
