<svg preserveAspectRatio="none" width="100%" height="100%" overflow="visible" style="display: block;" viewBox="0 0 64 72" fill="none" xmlns="http://www.w3.org/2000/svg">
<path id="Vector" d="M18.8351 45.2015L12.5117 45.6704V37.0663L49.5639 33.997L53.0666 38.4447C49.2868 46.2672 44.4767 51.5249 41.315 54.5942C47.6384 56.9175 51.7664 57.7772 63.8661 58.7008C61.8696 61.4291 60.0863 65.2586 59.326 68.3493C48.1926 66.6796 42.2103 65.6707 33.0663 61.287C27.9791 64.6121 16.7037 70.0829 5.01607 71.0136C3.85086 67.4754 1.37125 63.525 0 61.7772C9.00193 61.2515 16.7747 59.3616 23.5101 55.937C19.1761 52.9174 16.6326 50.2957 15.0553 48.4839L18.8351 45.2086V45.2015ZM53.8268 13.1157C54.1679 13.2294 54.445 13.4212 54.445 13.9399C54.445 14.6788 53.4147 15.0837 52.3845 15.3324C51.7664 16.725 51.2833 17.8049 48.8108 22.2526L63.0419 20.9098V38.4802L53.5568 39.212V30.1035L10.8705 33.7839V42.5158L1.10836 43.2689V26.7429L10.9415 25.8193C9.77634 24.1567 8.46907 22.5084 7.16177 21.0092L12.796 16.8173C10.1813 17.0873 9.91134 17.1157 9.08717 17.2721C8.263 13.9541 6.06046 9.95399 4.41212 7.59516C7.8509 7.63068 14.1033 7.70884 22.5581 6.75678C30.6719 5.84735 41.9474 3.85086 49.2299 0L56.6546 6.79231C56.9956 7.05519 57.0667 7.33938 57.0667 7.63778C57.0667 8.3838 56.6546 8.94509 56.0365 9.00904C55.6244 9.05167 54.3881 8.58984 53.564 8.3838C51.7096 9.2506 50.6794 9.72664 46.7574 10.8776L53.841 13.0944L53.8268 13.1157ZM27.0129 15.1477C23.0981 15.6948 21.8547 15.8226 15.8084 16.5189C17.8689 18.5225 19.2472 20.5332 20.9666 23.3041C20.6256 23.5528 18.9062 24.7891 18.4941 25.1159L26.3308 24.377C23.7162 20.448 23.4462 20.043 22.21 18.5154L27.02 15.1477H27.0129ZM24.6754 44.7681C27.837 47.7095 31.2758 49.7131 31.965 50.1039C35.1977 47.3329 36.505 45.4928 37.7413 43.8018L24.6825 44.7681H24.6754ZM38.9065 23.1904C41.6561 18.1744 43.1694 14.7214 44.1286 11.6165C43.1694 11.8652 37.6631 13.2436 31.5458 14.3875C34.2243 17.6699 35.7377 19.9932 36.6329 21.4355C34.7786 22.9205 34.4304 23.1762 33.8123 23.6665L38.8994 23.1833L38.9065 23.1904Z" fill="var(--fill-0, #0F172A)"/>
</svg>
