<svg preserveAspectRatio="none" width="100%" height="100%" overflow="visible" style="display: block;" viewBox="0 0 18 10" fill="none" xmlns="http://www.w3.org/2000/svg">
<path id="Vector" d="M9.31423 9.31548C6.45433 9.31548 4.51326 8.44211 3.59445 7.48292C2.30459 6.14005 1.70131 4.63059 1.5751 3.27258C1.29992e-05 2.48756 0 1.84894 0 1.62681C0 1.33148 0.123684 1.05382 0.345812 0.844314C0.896084 0.32938 2.03449 0.321807 2.66301 0.362194C2.90786 0.377339 3.12998 0.513644 3.25872 0.720628C3.38745 0.930135 3.40766 1.1876 3.30922 1.41478C2.94321 2.273 2.75893 4.42613 4.68489 6.43286C5.72737 7.51826 8.66048 8.28814 12.6411 7.41224C16.642 6.5313 16.3643 2.77279 16.3592 2.73493C16.3012 2.32349 16.0033 1.65458 15.5262 1.45769C15.14 1.29867 14.9533 0.856936 15.1123 0.470736C15.2713 0.0845354 15.713 -0.102254 16.0992 0.0567696C17.1316 0.478308 17.7273 1.59904 17.8586 2.52037C18.0126 3.60325 17.6365 7.86155 12.9667 8.89142C11.6188 9.18927 10.3996 9.31548 9.31171 9.31548H9.31423Z" fill="var(--fill-0, #212C68)"/>
</svg>
