<svg preserveAspectRatio="none" width="100%" height="100%" overflow="visible" style="display: block;" viewBox="0 0 64 108" fill="none" xmlns="http://www.w3.org/2000/svg">
<path id="Vector" d="M52.9285 39.4747C52.9227 39.3707 52.9169 39.2725 52.9111 39.2032C51.5825 22.0005 40.1044 19.2161 36.91 18.0724L18.4307 11.4524C14.4795 6.32857 12.6194 1.67842 10.5398 0.551985C8.24654 -0.689982 6.12653 0.551985 6.12653 0.551985C6.12653 0.551985 5.84348 3.75221 6.63487 6.57696C7.28185 8.89915 8.56425 9.63279 8.56425 9.63279C8.56425 9.63279 7.87684 15.9928 7.17787 18.4016C5.14451 25.3798 2.37752 29.9375 0.979584 32.5254C-0.366361 35.0209 -0.193061 38.6775 0.70231 40.7975C1.60346 42.9175 3.95453 44.714 4.55529 47.2788C5.15028 49.8436 3.30756 51.4611 3.69459 56.9084C4.08162 62.3557 6.56555 97.229 7.31073 104.583H34.7669C34.7669 104.583 46.3316 109.25 52.5414 107.188C58.7455 105.126 65.7583 97.5005 62.6505 81.9037C60.9233 73.2157 53.5466 45.361 52.9285 39.4747Z" fill="var(--fill-0, #93CDF1)"/>
</svg>
