<svg preserveAspectRatio="none" width="100%" height="100%" overflow="visible" style="display: block;" viewBox="0 0 44 34" fill="none" xmlns="http://www.w3.org/2000/svg">
<path id="Vector" d="M7.34451 33.7135C7.11986 33.7135 6.89773 33.6479 6.70589 33.5166C6.4257 33.3248 6.24397 33.0194 6.21116 32.6811C6.19854 32.5549 4.97936 19.8532 0.183404 12.4801C-0.0160061 12.1721 -0.0564017 11.7859 0.0799043 11.4426C0.21621 11.1019 0.506503 10.8444 0.864937 10.756C13.7862 7.57556 23.5422 4.28402 25.718 3.53434L26.7504 1.23229C26.9019 0.894046 27.2099 0.65172 27.5733 0.581043L30.4913 0.0206815C31.1072 -0.0979552 31.7029 0.305916 31.8215 0.921817C31.9402 1.53772 31.5363 2.13342 30.9204 2.25205L28.583 2.70136L27.591 4.91003C27.4648 5.19273 27.2275 5.40981 26.9347 5.51582C26.8312 5.55116 16.8733 9.07998 2.90194 12.5911C6.48881 18.9874 7.89226 27.7489 8.31885 31.1035L42.5493 20.9992C43.1501 20.8225 43.7836 21.1658 43.9603 21.7665C44.137 22.3673 43.7937 23.0009 43.193 23.1775L7.66509 33.663C7.55908 33.6933 7.45053 33.7084 7.34451 33.7084V33.7135Z" fill="var(--fill-0, #212C68)"/>
</svg>
