<svg preserveAspectRatio="none" width="100%" height="100%" overflow="visible" style="display: block;" viewBox="0 0 20 56" fill="none" xmlns="http://www.w3.org/2000/svg">
<path id="Vector" d="M2.52693 55.7919C3.57958 52.0938 4.35391 48.3434 4.82236 44.6371C7.60831 22.5534 10.1215 18.1058 10.3419 17.7504C10.5734 17.4693 10.623 17.1524 10.5569 16.7914L8.94206 8.21861L12.8964 3.28051L16.9417 9.05082L14.0455 16.8961C13.9959 17.0311 13.9711 17.1717 13.9683 17.315C13.9683 17.4335 13.8443 29.437 12.9157 47.2274C12.7641 50.1263 12.5382 52.9812 12.2433 55.7148C12.2406 55.7423 12.2433 55.7699 12.2433 55.7974H14.7289C15.021 53.0749 15.2442 50.2366 15.3957 47.3569C16.2583 30.8203 16.4291 19.2577 16.4512 17.5547L19.4989 9.30158C19.6394 8.9213 19.5843 8.49418 19.3501 8.16074L14.0097 0.541411C13.8554 0.32096 13.6294 0.155619 13.3731 0.0729494L13.329 0.0591746C12.8385 -0.0978967 12.3039 0.0646862 11.9815 0.464253L6.65763 7.11636C6.43166 7.39743 6.34072 7.76669 6.40685 8.12217L8.04372 16.8079C7.19774 18.4668 4.86648 24.5513 2.36987 44.3312C1.90142 48.0431 1.1188 51.8018 0.0440996 55.5026C0.0165432 55.6018 0.00275564 55.6982 0 55.7974H2.53796L2.52693 55.7919Z" fill="var(--fill-0, #202933)"/>
</svg>
