<svg preserveAspectRatio="none" width="100%" height="100%" overflow="visible" style="display: block;" viewBox="0 0 14 25" fill="none" xmlns="http://www.w3.org/2000/svg">
<path id="Vector" d="M2.57571 24.6259C2.13398 24.6259 1.72756 24.3685 1.5433 23.9621C1.43981 23.7349 -0.978352 18.3205 0.450336 10.6874C1.83107 3.31174 5.39018 0.373579 5.54163 0.252418C5.74356 0.0908706 5.99597 0 6.25343 0H11.5719C11.9833 0 12.3645 0.222128 12.5639 0.583086C12.6522 0.739585 14.7044 4.54101 13.6013 12.7295C12.4882 20.9861 8.93665 23.9924 8.78772 24.1161C8.59841 24.2726 8.36366 24.3634 8.11881 24.3735L2.62871 24.6234C2.61104 24.6234 2.59338 24.6234 2.57571 24.6234V24.6259ZM6.70275 2.27177C5.93035 3.06688 3.68128 5.76019 2.68171 11.1039C1.67203 16.493 2.79529 20.7109 3.34304 22.3163L7.57863 22.1245C8.31064 21.3344 10.5319 18.4922 11.3473 12.4266C12.102 6.81782 11.2614 3.52376 10.8171 2.27177H6.70022H6.70275Z" fill="var(--fill-0, #212C68)"/>
</svg>
