<svg preserveAspectRatio="none" width="100%" height="100%" overflow="visible" style="display: block;" viewBox="0 0 35 55" fill="none" xmlns="http://www.w3.org/2000/svg">
<path id="Vector" d="M10.0803 54.9906C6.0887 54.9906 4.76008 54.2974 4.48858 54.1241C4.12466 53.893 3.90515 53.4944 3.89359 53.067C3.89359 53.015 3.76651 47.9663 3.62209 44.3154C3.48923 40.861 1.50786 28.8342 1.35189 27.8868C1.1035 26.9395 -0.427297 20.8625 0.115702 18.1417C0.808893 14.67 8.12205 6.36325 9.46222 5.41589C10.5944 4.61872 14.4128 2.39473 17.1855 0.79462L17.4917 0.62132C18.6181 -0.0314346 20.4724 -0.297157 21.8241 0.459576C22.8639 1.03724 23.4589 2.11168 23.5051 3.47496C23.5975 6.47878 17.9076 9.95051 15.1406 11.4582L12.8011 14.9646C15.3832 14.4447 18.855 13.7631 20.2356 13.5262C22.5809 13.1276 28.964 13.7977 29.8767 13.8959C31.1995 13.9595 33.4871 14.6873 33.9319 17.0211C34.1514 18.1648 33.8741 19.0833 33.3773 19.7649C33.9954 20.3079 34.4806 21.0936 34.55 22.1738C34.6597 23.8259 33.8741 24.9408 33.0076 25.6108C33.36 26.6449 33.3658 28.0428 32.2798 29.5274C30.5699 31.8669 25.4865 32.3637 23.9557 32.4561L20.4262 34.0273C20.7439 35.2058 21.2349 37.1525 21.5526 38.9086C22.0205 41.5254 21.7779 43.2237 21.6104 43.9515L23.043 50.843C23.1412 51.3109 22.9737 51.7904 22.6097 52.1023C22.5058 52.1947 19.9467 54.3032 14.1413 54.8115C12.5527 54.9501 11.2068 55.0079 10.0803 55.0079V54.9906ZM6.46417 52.0907C7.42309 52.3045 9.61242 52.5818 13.916 52.2063C17.3126 51.9117 19.3691 51.0163 20.3164 50.4906L18.9994 44.171C18.9532 43.94 18.9647 43.7031 19.0456 43.4836C19.0456 43.4836 19.4788 42.0568 18.9936 39.3591C18.5315 36.7943 17.6361 33.6807 17.6245 33.6519C17.4455 33.028 17.7516 32.3695 18.3466 32.1037L23.1123 29.978C23.2567 29.9144 23.4185 29.874 23.5744 29.8682C25.7638 29.7584 29.3741 29.0826 30.1771 27.985C31.0551 26.7835 30.3388 26.0441 30.3099 26.0152C29.9864 25.6917 29.8536 25.2123 29.9691 24.7675C30.0847 24.3227 30.4312 23.9703 30.8703 23.8432C31.1302 23.7623 32.0198 23.3984 31.9505 22.3355C31.8927 21.4633 30.7778 21.2784 30.6508 21.2611C30.0327 21.1744 29.5532 20.6545 29.5243 20.0307C29.4954 19.4068 29.9114 18.8465 30.5237 18.7078C30.98 18.5865 31.5172 18.2804 31.3671 17.5005C31.188 16.5763 29.7207 16.4838 29.7092 16.4838C29.6861 16.4838 29.6514 16.4838 29.6283 16.4781C27.7162 16.2701 22.3787 15.7906 20.663 16.0853C18.4333 16.4607 10.3056 18.1128 10.2247 18.1302C9.70484 18.2341 9.17917 18.0204 8.88457 17.5814C8.58996 17.1424 8.58996 16.5705 8.88457 16.1372L13.1535 9.74255C13.2748 9.56348 13.4307 9.41907 13.6214 9.32086C17.3762 7.30483 20.9172 4.50319 20.9056 3.55583C20.8883 2.91463 20.6515 2.78177 20.5591 2.73555C20.12 2.49294 19.2478 2.61424 18.7914 2.87419L18.4853 3.05327C14.2626 5.49099 11.7324 6.99868 10.9641 7.54745C9.69906 8.44283 3.13108 16.3221 2.66318 18.6616C2.33391 20.3137 3.23506 24.831 3.88204 27.2918C3.89359 27.3323 3.89937 27.3727 3.90515 27.4074C3.99179 27.9388 6.07137 40.4798 6.21578 44.2172C6.31976 46.9554 6.41796 50.4675 6.46417 52.0965V52.0907Z" fill="var(--fill-0, #202933)"/>
</svg>
