<svg preserveAspectRatio="none" width="100%" height="100%" overflow="visible" style="display: block;" viewBox="0 0 45 56" fill="none" xmlns="http://www.w3.org/2000/svg">
<path id="Vector" d="M34.0602 14.8045C32.1646 10.1651 32.0156 3.47092 32.0308 1.01489C32.0333 0.446945 31.5714 -0.00993255 31.0034 0.000164183C29.807 0.025406 27.621 0.333357 24.6551 1.83272C19.7733 4.30138 19.43 5.26561 13.4174 9.61983C7.43764 13.9513 2.26307 15.2513 1.25844 16.4402C0.253818 17.6291 0.0140143 20.1482 0.0215868 21.1755C0.0443045 23.6619 0.581959 26.4713 0.0720736 32.3223C-0.930028 43.7695 8.76285 55.1284 13.9021 55.6307C22.6257 56.4838 33.8532 47.6038 33.8532 47.6038L43.6042 35.3665L44.2655 27.8091C44.2655 27.8091 44.3892 26.3855 44.5684 24.2702L41.7943 25.242C41.7943 25.242 38.0888 24.664 34.0628 14.8045H34.0602Z" fill="var(--fill-0, #FFEBE1)"/>
</svg>
