<svg preserveAspectRatio="none" width="100%" height="100%" overflow="visible" style="display: block;" viewBox="0 0 5 5" fill="none" xmlns="http://www.w3.org/2000/svg">
<path id="Vector" d="M2.29119 4.58238C1.02645 4.58238 0 3.55226 0 2.29119C0 1.67898 0.238284 1.10344 0.670861 0.670861C1.10344 0.238284 1.67898 0 2.29119 0C2.90339 0 3.47894 0.238284 3.91152 0.670861C4.3441 1.10344 4.58238 1.67898 4.58238 2.29119C4.58238 2.90339 4.3441 3.47894 3.91152 3.91152C3.47894 4.34409 2.90339 4.58238 2.29119 4.58238ZM2.28753 1.64966C2.11523 1.64966 1.95393 1.71564 1.83295 1.83662C1.71198 1.95759 1.64599 2.11889 1.64599 2.29119C1.64599 2.64678 1.93193 2.93272 2.28753 2.93272C2.45982 2.93272 2.62112 2.86674 2.7421 2.74576C2.86307 2.62479 2.92906 2.46349 2.92906 2.29119C2.92906 2.11889 2.86307 1.95759 2.7421 1.83662C2.62112 1.71564 2.45982 1.64966 2.28753 1.64966Z" fill="var(--fill-0, #202933)"/>
</svg>
