<svg preserveAspectRatio="none" width="100%" height="100%" overflow="visible" style="display: block;" viewBox="0 0 5 4" fill="none" xmlns="http://www.w3.org/2000/svg">
<path id="Vector" d="M2.38281 3.73476C2.19952 3.73476 2.00522 3.71277 1.81093 3.66511C1.31603 3.54047 0.612181 3.19221 0.098955 2.23907C-0.117333 1.83949 0.0329687 1.33726 0.432552 1.12098C0.832136 0.904688 1.33436 1.05499 1.55065 1.45457C1.73395 1.7955 1.95757 2.00079 2.21418 2.06677C2.4378 2.12176 2.64676 2.05578 2.72741 2.00445C3.18931 1.69652 3.105 1.27127 3.04634 1.09898C2.90337 0.673732 3.12333 0.20083 3.5449 0.050528C3.96648 -0.10344 4.43205 0.105518 4.59335 0.527096C4.82797 1.1393 4.92695 2.52501 3.63655 3.37917C3.34695 3.57346 2.89604 3.73843 2.38281 3.73843V3.73476Z" fill="var(--fill-0, #202933)"/>
</svg>
