<svg preserveAspectRatio="none" width="100%" height="100%" overflow="visible" style="display: block;" viewBox="0 0 47 27" fill="none" xmlns="http://www.w3.org/2000/svg">
<path id="Vector" d="M0.96 0C0.43125 0 0 0.43125 0 0.96V25.92C0 26.4525 0.43125 26.88 0.96 26.88H45.12C45.6525 26.88 46.08 26.4525 46.08 25.92V0.96C46.08 0.43125 45.6525 0 45.12 0H0.96ZM14.4 1.92H16.32V24.96H14.4V1.92ZM29.76 1.92H31.68V24.96H29.76V1.92ZM34.08 2.88H36.42C36.3975 3.13875 36.3825 3.405 36.39 3.69H36.54C36.69 3.37875 36.8812 3.1125 37.11 2.88H42.18C42.9975 3.58875 43.5 4.635 43.5 5.88C43.5 8.355 41.6062 10.11 38.94 10.11C37.215 10.11 35.8275 9.375 35.01 7.98C34.35 6.96375 34.02 5.595 34.02 3.96C34.02 3.58875 34.0462 3.22125 34.08 2.88ZM38.94 3.87C37.695 3.87 36.75 4.75125 36.75 5.94C36.75 7.155 37.6875 8.07 38.91 8.07C40.1325 8.07 41.07 7.16625 41.07 5.97C41.07 4.755 40.1887 3.87 38.94 3.87ZM7.74 7.2C10.665 7.2 12.48 9.4875 12.48 13.44C12.48 17.3775 10.6875 19.71 7.74 19.71C4.7925 19.71 3.03 17.3925 3.03 13.44C3.03 9.495 4.8075 7.2 7.74 7.2ZM23.04 7.32C25.965 7.32 27.78 9.6075 27.78 13.56C27.78 17.4975 25.9875 19.83 23.04 19.83C20.0925 19.83 18.3 17.5125 18.3 13.56C18.3 9.615 20.1075 7.32 23.04 7.32ZM7.74 9.24C6.38625 9.24 5.55 10.6725 5.55 13.44C5.55 16.2225 6.37875 17.67 7.74 17.67C9.10875 17.67 9.96 16.23 9.96 13.44C9.96 10.665 9.10125 9.24 7.74 9.24ZM23.04 9.36C21.6862 9.36 20.85 10.7925 20.85 13.56C20.85 16.3425 21.6787 17.82 23.04 17.82C24.4125 17.82 25.23 16.35 25.23 13.56C25.23 10.785 24.4012 9.36 23.04 9.36ZM34.56 13.44H42.96V15.51L38.67 24H36.09L40.47 15.66V15.51H34.56V13.44Z" fill="var(--fill-0, white)"/>
</svg>
