<svg preserveAspectRatio="none" width="100%" height="100%" overflow="visible" style="display: block;" viewBox="0 0 10 24" fill="none" xmlns="http://www.w3.org/2000/svg">
<path id="Vector" d="M8.49521 23.0747C8.20638 23.0747 7.91755 22.9765 7.67493 22.7801C2.63775 18.6671 3.27894 13.6704 3.79884 9.66142C3.98369 8.24615 4.15699 6.91176 4.03568 5.83732C3.68908 2.63709 1.7597 2.5851 1.38422 2.6082C0.662149 2.65442 0.0556074 2.11719 0.00361809 1.40667C-0.0483712 0.701928 0.465748 0.0780567 1.17049 0.0145142C2.82837 -0.135677 6.10947 0.823238 6.62359 5.55427C6.77378 6.94065 6.58315 8.42523 6.38097 9.99646C5.90152 13.7166 5.39895 17.5696 9.32126 20.7698C9.87581 21.2262 9.96246 22.0407 9.50611 22.601C9.24617 22.9129 8.87646 23.0804 8.50098 23.0804L8.49521 23.0747Z" fill="var(--fill-0, #202933)"/>
</svg>
