<svg preserveAspectRatio="none" width="100%" height="100%" overflow="visible" style="display: block;" viewBox="0 0 5 5" fill="none" xmlns="http://www.w3.org/2000/svg">
<path id="Vector" d="M2.29119 4.58238C1.02645 4.58238 0 3.55226 0 2.29119C0 1.02645 1.03012 0 2.29119 0C2.90339 0 3.47894 0.238284 3.91152 0.670861C4.34409 1.10344 4.58238 1.67898 4.58238 2.29119C4.58238 2.90339 4.34409 3.47894 3.91152 3.91152C3.47894 4.34409 2.90339 4.58238 2.29119 4.58238ZM2.29119 1.64966C1.93926 1.64966 1.64966 1.9356 1.64966 2.29119C1.64966 2.64312 1.9356 2.93272 2.29119 2.93272C2.46349 2.93272 2.62478 2.86674 2.74576 2.74576C2.86673 2.62479 2.93272 2.46349 2.93272 2.29119C2.93272 2.11889 2.86673 1.95759 2.74576 1.83662C2.62478 1.71564 2.46349 1.64966 2.29119 1.64966Z" fill="var(--fill-0, #202933)"/>
</svg>
