<svg preserveAspectRatio="none" width="100%" height="100%" overflow="visible" style="display: block;" viewBox="0 0 10 19" fill="none" xmlns="http://www.w3.org/2000/svg">
<path id="Vector" d="M8.42562 18.9958C8.37766 18.9958 8.33223 18.9933 8.28427 18.9882C5.0104 18.5793 0.113482 14.8384 0.00241818 8.10392C-0.0531139 4.61802 0.848019 2.19733 2.6831 0.907471C4.09664 -0.0870581 6.00998 -0.276371 7.7971 0.400111C8.23126 0.564183 8.52407 0.97815 8.53164 1.4426L8.59979 5.5444C8.60989 6.1704 8.1101 6.68785 7.48411 6.69795C6.86063 6.7131 6.34065 6.20826 6.33055 5.58226L6.27754 2.32859C5.65154 2.22005 4.77313 2.21752 3.99315 2.76527C2.8295 3.58311 2.23632 5.41566 2.27923 8.06606C2.34991 12.496 4.91701 15.1843 7.04742 16.2394L6.6385 13.4123C6.54763 12.7913 6.97927 12.2158 7.60022 12.1249C8.22116 12.0341 8.79668 12.4657 8.88755 13.0867L9.55646 17.6983C9.60694 18.0492 9.49083 18.4026 9.24346 18.6575C9.02891 18.8771 8.73609 18.9983 8.43319 18.9983L8.42562 18.9958Z" fill="var(--fill-0, #212C68)"/>
</svg>
