<svg preserveAspectRatio="none" width="100%" height="100%" overflow="visible" style="display: block;" viewBox="0 0 49 39" fill="none" xmlns="http://www.w3.org/2000/svg">
<path id="Vector" d="M47.4102 11.375C46.7286 10.6935 45.8376 10.3401 44.8557 10.3426C42.3416 10.3552 39.6256 12.6977 38.674 13.5963C37.1872 13.6619 35.8191 13.4448 35.3218 13.1646C35.6197 12.4377 36.8641 10.7162 38.6563 8.79527C40.6555 6.65224 41.5566 4.36279 41.1325 2.50752C40.8851 1.42464 40.191 0.589137 39.2268 0.218082C36.9399 -0.667907 35.0063 1.30853 33.1384 3.21681C32.7548 3.60806 32.3585 4.01446 31.9672 4.38551C30.7253 5.56683 29.6122 6.46291 26.6412 8.86089C25.8057 9.53484 24.8238 10.3274 23.6525 11.2765C19.3614 14.7523 17.7611 18.5159 17.2234 20.197L1.59874 20.7826C0.972738 20.8053 0.483058 21.3329 0.505775 21.9614C0.528493 22.5874 1.04593 23.0771 1.68455 23.0544L18.1347 22.4385C18.4401 22.4334 20.1111 22.3552 21.4893 21.189C21.9689 20.7851 22.027 20.0683 21.6231 19.5887C21.2192 19.1091 20.5024 19.0485 20.0228 19.4549C19.9849 19.4852 19.947 19.5155 19.9092 19.5432C20.6614 17.8798 22.1683 15.4011 25.0812 13.0435C26.2499 12.0969 27.2318 11.3043 28.0673 10.6303C31.0913 8.18946 32.2221 7.27824 33.5322 6.03381C33.9537 5.63499 34.3627 5.21344 34.7615 4.80705C36.117 3.42379 37.5154 1.99259 38.4064 2.33588C38.7295 2.46209 38.8633 2.77509 38.9188 3.01488C39.1106 3.85544 38.7068 5.41034 36.9954 7.24542C32.1111 12.4806 32.8961 13.7124 33.2318 14.2399C34.398 16.0725 38.1388 15.9261 39.2571 15.8377C39.5297 15.815 39.7846 15.6964 39.9764 15.502C41.0719 14.3889 43.369 12.6219 44.8708 12.6169H44.8784C45.2672 12.6169 45.5524 12.7305 45.8073 12.9854C47.1199 14.2955 45.4665 16.6909 43.8132 18.8314C43.6542 19.0384 43.5078 19.2277 43.379 19.3994C42.4426 20.6564 42.6268 22.335 42.7909 23.8142C42.8616 24.4503 42.9928 25.6316 42.8035 25.8562C41.6777 26.7877 40.865 27.0678 40.8675 27.0678C40.5671 27.1612 40.3096 27.3404 40.1733 27.6232C40.0396 27.9008 40.0118 28.186 40.1178 28.4738C40.138 28.5849 40.2188 29.1856 39.6811 29.9757C39.411 30.372 38.7371 30.6522 38.5276 30.7203C38.1313 30.8415 37.8334 31.1494 37.7501 31.5558C37.7375 31.6063 37.4296 32.7952 35.8848 33.5298C34.5772 34.1507 31.4422 34.3779 27.8149 34.6429C26.2272 34.759 24.4275 34.8878 22.5672 35.067C16.3248 35.6652 1.2403 36.3089 1.08885 36.3164C0.462848 36.3442 -0.0243036 36.8718 0.000938268 37.5003C0.0261801 38.1111 0.531014 38.5882 1.13429 38.5882C1.14944 38.5882 1.16709 38.5882 1.18224 38.5882C1.33369 38.5806 16.4788 37.9345 22.7817 37.3312C24.6168 37.1545 26.4014 37.0257 27.9765 36.9122C32.1489 36.6092 35.1654 36.3896 36.8566 35.587C38.6285 34.7439 39.4211 33.4515 39.7518 32.6816C40.2844 32.4393 41.0619 31.99 41.5591 31.2605C42.1851 30.3417 42.3744 29.4936 42.4022 28.8676C42.8767 28.6177 43.5204 28.2214 44.2549 27.6131C45.3959 26.669 45.2217 25.0939 45.0526 23.5693C44.9339 22.5066 44.8027 21.3026 45.204 20.7624C45.3252 20.5984 45.4665 20.4191 45.6155 20.2222C47.236 18.1221 50.2524 14.2147 47.4177 11.3826L47.4102 11.375Z" fill="var(--fill-0, #212C68)"/>
</svg>
