<svg preserveAspectRatio="none" width="100%" height="100%" overflow="visible" style="display: block;" viewBox="0 0 11 11" fill="none" xmlns="http://www.w3.org/2000/svg">
<path id="Vector" d="M9.66124 10.2449C9.25628 10.2449 8.86448 10.0371 8.64359 9.66375L7.38405 7.53904C5.33823 7.36549 0.33677 6.62658 0.0185909 3.58416C-0.0681852 2.75584 0.150074 2.01167 0.647064 1.43053C1.34916 0.610101 2.52457 0.168332 4.24431 0.0789265C5.54332 0.013187 6.7319 3.92968e-05 6.78186 3.92968e-05C7.43926 -0.00521986 7.97045 0.518066 7.97833 1.1702C7.98622 1.82497 7.46029 2.35877 6.80815 2.36666C6.79763 2.36666 5.61694 2.37981 4.36789 2.44292C3.23455 2.50077 2.63239 2.75321 2.44832 2.96883C2.41677 3.00565 2.34839 3.08717 2.37468 3.33961C2.46935 4.24155 5.55387 5.09091 8.14663 5.22238C8.5437 5.24342 8.90392 5.45905 9.1064 5.80089L10.6841 8.4594C11.0181 9.02213 10.8314 9.74789 10.2713 10.0818C10.082 10.1949 9.87424 10.2475 9.66914 10.2475L9.66124 10.2449Z" fill="var(--fill-0, #202933)"/>
</svg>
