<svg preserveAspectRatio="none" width="100%" height="100%" overflow="visible" style="display: block;" viewBox="0 0 50 63" fill="none" xmlns="http://www.w3.org/2000/svg">
<path id="Vector" d="M20.9077 62.6043C20.7762 62.6043 20.6474 62.5833 20.5212 62.5386C20.0084 62.3624 7.93336 58.0656 3.20801 46.1247C0.446951 39.6875 -1.6357 32.2879 1.7696 21.8169C4.41496 13.6836 9.8319 7.31737 17.0212 3.8884C25.42 -0.116448 32.5568 -0.98158 40.1589 1.08001C45.5705 2.54732 48.9732 6.54428 49.1152 6.71257C49.5333 7.20956 49.4939 7.97477 48.9995 8.39813C48.5104 8.81624 47.7978 8.78994 47.3692 8.31136C47.2692 8.22721 46.5172 7.64081 44.808 7.4173C44.1611 7.33315 43.7035 6.73887 43.7877 6.09199C43.8192 5.8527 43.9192 5.6397 44.0664 5.47141C42.8384 4.65098 41.3027 3.8437 39.5383 3.36512C32.5225 1.4613 25.8907 2.28436 18.0388 6.02625C11.4412 9.17123 6.46079 15.0405 4.01791 22.5505C0.851895 32.2852 2.80566 39.1931 5.38791 45.2096C5.39317 45.2201 5.39581 45.2307 5.40107 45.2412C8.90367 54.1055 17.1185 58.4785 20.1477 59.8327L21.2522 56.1487L19.4509 43.0902C19.4352 42.9797 19.4352 42.8693 19.4509 42.7589C19.472 42.6037 20.0058 38.946 20.7447 35.872C21.4757 32.8374 30.695 23.4472 32.5383 21.596C32.6803 21.4514 32.8592 21.3488 33.0537 21.291C33.1037 21.2752 38.355 19.7132 40.3719 15.122C42.6123 10.0206 40.2824 6.65735 40.2588 6.6258C39.8801 6.09462 40.0037 5.35571 40.5349 4.97442C41.0661 4.59576 41.805 4.71935 42.1863 5.25053C42.3151 5.43197 45.3181 9.75499 42.5413 16.0739C40.3561 21.049 35.3309 23.0265 34.0161 23.4709C29.6405 27.8886 23.4663 34.6992 23.0508 36.4268C22.4223 39.038 21.9359 42.1909 21.8228 42.935L23.6372 56.0829C23.6609 56.2512 23.6477 56.4222 23.5978 56.5852L22.0437 61.7655C21.9517 62.0731 21.736 62.3308 21.4494 62.4781C21.2811 62.5648 21.097 62.6069 20.9103 62.6069L20.9077 62.6043Z" fill="var(--fill-0, #202933)"/>
</svg>
