<svg preserveAspectRatio="none" width="100%" height="100%" overflow="visible" style="display: block;" viewBox="0 0 3 4" fill="none" xmlns="http://www.w3.org/2000/svg">
<path id="Vector" d="M1.16848 0.734578C1.16848 0.758282 1.18152 0.773689 1.2076 0.7808L1.5276 0.8768H1.54537C1.56671 0.8768 1.58093 0.864948 1.58804 0.841244C1.6236 0.710874 1.70182 0.619022 1.82271 0.565689C1.9436 0.512356 2.08226 0.485689 2.23871 0.485689C2.41648 0.485689 2.62982 0.518874 2.87871 0.585244C2.88582 0.587615 2.89174 0.5888 2.89648 0.5888C2.92256 0.5888 2.9356 0.573393 2.9356 0.542578L2.94271 0.1728C2.94271 0.139615 2.92848 0.121837 2.90004 0.119467C2.66537 0.0649481 2.44493 0.0376889 2.23871 0.0376889C1.97323 0.0376889 1.73856 0.0916148 1.53471 0.199467C1.33086 0.307319 1.20997 0.480948 1.17204 0.720356C1.16967 0.722726 1.16848 0.727467 1.16848 0.734578ZM0.510707 0.0341333C0.498855 0.00568889 0.478707 -0.00497778 0.450263 0.00213333L0.0378182 0.1088C0.0212256 0.11117 0.00996633 0.118281 0.0040404 0.130133C-0.00188552 0.141985 -0.00129293 0.156207 0.00581818 0.1728C0.290263 0.87443 0.50004 1.53813 0.635152 2.16391L0.0733737 2.16036C0.0401886 2.16036 0.023596 2.17695 0.023596 2.21013V2.54436C0.023596 2.57754 0.0401886 2.59413 0.0733737 2.59413H0.699152C0.720485 2.71265 0.739448 2.84658 0.75604 2.99591C0.758411 3.02673 0.776189 3.04213 0.809374 3.04213L1.18982 3.0208C1.20641 3.0208 1.21886 3.01606 1.22715 3.00658C1.23545 2.9971 1.23841 2.98406 1.23604 2.96747L1.1756 2.59413L1.82271 2.59769C1.85352 2.59769 1.86893 2.5811 1.86893 2.54791V2.21369C1.86893 2.1805 1.85234 2.16391 1.81915 2.16391H1.10804C0.972929 1.50021 0.773818 0.790282 0.510707 0.0341333ZM1.37826 1.88302C1.37826 1.91384 1.39367 1.93043 1.42448 1.9328C1.69471 1.96361 1.93886 1.97902 2.15693 1.97902C2.38923 1.97902 2.61086 1.96006 2.82182 1.92213C2.85263 1.91739 2.86567 1.89843 2.86093 1.86524L2.82893 1.52036C2.82419 1.48717 2.80523 1.47295 2.77204 1.47769C2.54448 1.52036 2.32404 1.54169 2.11071 1.54169C1.89974 1.54169 1.68523 1.52273 1.46715 1.4848H1.45293C1.42923 1.4848 1.415 1.49902 1.41026 1.52747L1.37826 1.87591V1.88302Z" fill="var(--fill-0, white)"/>
</svg>
