<svg preserveAspectRatio="none" width="100%" height="100%" overflow="visible" style="display: block;" viewBox="0 0 20 37" fill="none" xmlns="http://www.w3.org/2000/svg">
<path id="Vector" d="M15.9389 36.8475C15.9169 36.8475 15.8912 36.8475 15.8693 36.8475C15.4147 36.8108 15.0774 36.4113 15.1141 35.9567C15.3157 33.5409 16.3715 28.5186 17.1963 25.5162C18.2961 21.5094 16.7857 16.3294 16.7711 16.2781C16.7601 16.2415 16.7527 16.2085 16.7454 16.1718C16.5988 15.2407 16.1259 10.4933 16.2358 8.18014C16.2688 7.13902 16.2872 6.1199 16.3055 5.22909C16.3238 4.25762 16.3422 3.41813 16.3678 2.84625C16.3861 2.49799 16.3568 1.88578 15.9902 1.71715C15.7593 1.61084 15.5503 1.59984 15.2241 1.89312C14.1096 2.88291 14.073 5.40138 14.0436 7.238C14.0363 7.61192 14.0326 7.96752 14.018 8.29012C13.9117 10.9589 13.9923 14.1372 13.9923 14.1666C13.9996 14.4012 13.9043 14.6248 13.7357 14.7861C13.5671 14.9474 13.3398 15.028 13.1052 15.0097C12.8339 14.9877 11.4408 14.8741 10.8543 14.6761C10.825 14.6651 10.7956 14.6541 10.77 14.6431C9.44293 14.0199 8.80139 14.1592 8.5851 14.2509C8.40547 14.3242 8.34315 14.4268 8.32483 14.4598C8.2845 14.7788 8.06821 15.039 7.77494 15.138C7.38269 15.2957 7.14807 15.5999 7.04176 16.0875C6.95744 16.4797 6.59818 16.751 6.20227 16.7327C4.42064 16.6557 4.1237 17.4072 4.02472 17.6528C4.00639 17.7005 3.9624 17.8435 3.96607 18.1624C3.96973 18.5473 3.70579 18.8846 3.33186 18.9726C2.86996 19.0825 2.26875 19.3575 2.03047 19.7057C1.61989 20.3106 1.37427 20.9411 2.21743 23.104C2.66101 24.2368 3.99539 26.6416 4.00639 26.6673C4.1127 26.8579 4.13836 27.0815 4.07971 27.2905C4.07604 27.3052 3.62147 28.9841 3.84143 31.3706C4.11637 34.3217 4.89354 35.5608 4.90087 35.5718C5.14649 35.953 5.04018 36.4626 4.66259 36.7119C4.285 36.9611 3.77911 36.8622 3.52616 36.4882C3.42351 36.3343 2.50704 34.8972 2.19544 31.5246C2.00481 29.4497 2.26142 27.8587 2.40439 27.1878C2.0268 26.495 1.06634 24.7097 0.674085 23.7052C-0.220395 21.414 -0.22406 20.0797 0.659422 18.7819C1.09933 18.1331 1.81418 17.7591 2.3494 17.5539C2.37873 17.3632 2.42639 17.1946 2.48871 17.037C2.83697 16.1755 3.66546 15.182 5.63772 15.0867C5.89067 14.5148 6.29758 14.0639 6.82547 13.767C6.97211 13.4554 7.23239 13.1254 7.64663 12.8798C8.29183 12.4949 9.46859 12.231 11.4152 13.1291C11.5838 13.1768 11.9321 13.2318 12.3207 13.2794C12.3023 12.1173 12.2913 10.0571 12.3646 8.22413C12.3756 7.91253 12.383 7.5716 12.3866 7.21234C12.4196 4.95048 12.4636 2.1314 14.117 0.661373C15.1581 -0.269767 16.1662 -0.0168211 16.6758 0.221463C17.211 0.470744 18.0945 1.14894 18.0101 2.9269C17.9845 3.47679 17.9661 4.30528 17.9478 5.26208C17.9295 6.16389 17.9112 7.18668 17.8745 8.24979C17.7719 10.3907 18.2118 14.8887 18.3547 15.8712C18.538 16.5054 19.9494 21.6817 18.7726 25.9598C17.9698 28.8815 16.9324 33.8415 16.7417 36.0997C16.7051 36.5286 16.3458 36.8548 15.9206 36.8548L15.9389 36.8475Z" fill="var(--fill-0, #202933)"/>
</svg>
