<svg preserveAspectRatio="none" width="100%" height="100%" overflow="visible" style="display: block;" viewBox="0 0 9 6" fill="none" xmlns="http://www.w3.org/2000/svg">
<path id="Vector" d="M7.43062 5.06864C6.9283 5.06864 6.49414 4.69506 6.43103 4.18517C6.33007 3.37491 5.25477 2.52173 4.72974 2.3097C2.84669 1.54992 1.70577 2.54193 1.69568 2.55202C1.28676 2.93065 0.648133 2.90793 0.269506 2.49901C-0.109122 2.0901 -0.086399 1.45148 0.322519 1.07285C0.405817 0.994601 2.39739 -0.807668 5.48699 0.436755C6.35026 0.785093 8.20806 2.09767 8.43776 3.93528C8.50592 4.48807 8.11468 4.99291 7.56188 5.06359C7.51897 5.06863 7.47606 5.07116 7.43567 5.07116L7.43062 5.06864Z" fill="var(--fill-0, #212C68)"/>
</svg>
