<svg preserveAspectRatio="none" width="100%" height="100%" overflow="visible" style="display: block;" viewBox="0 0 77 150" fill="none" xmlns="http://www.w3.org/2000/svg">
<path id="Vector" d="M35.877 149.46H33.3552C32.753 149.46 32.2482 149.008 32.1798 148.411C32.1193 147.882 26.1686 95.5144 24.8222 87.0129C22.3715 71.5273 10.8802 56.6833 10.7645 56.5361C10.7198 56.4782 10.6803 56.4151 10.6461 56.3494L9.3971 53.9302L0.822044 51.177C0.240907 50.9903 -0.103573 50.3908 0.0279057 49.7939L3.63305 33.6114C3.70405 33.2959 3.89865 33.0224 4.17476 32.8567C4.45086 32.6884 4.78482 32.6437 5.09511 32.7253L18.2298 36.2594L24.4804 36.4829C24.6881 35.1892 25.193 33.2328 26.4184 32.273C28.5168 30.6268 31.1148 30.7478 32.3086 30.9161L38.1857 25.628L39.5426 22.7907L37.0287 21.4049C36.6579 21.1998 36.4239 20.8133 36.416 20.3873C36.4134 20.1953 36.3819 15.6277 40.0396 8.53312C43.6395 1.55158 47.1342 0.194717 47.5207 0.0632375C47.6838 0.00801635 47.86 -0.0130201 48.0309 0.00801659C48.0914 0.0159053 54.263 0.699596 60.6529 2.0065C68.8125 3.67365 73.4642 5.90616 75.2865 9.03273C79.9277 16.9898 73.8639 26.7324 69.8353 31.8312C69.2726 32.5412 67.0664 35.481 64.0082 39.5516C56.2194 49.9201 43.274 67.1543 37.9386 73.6599C37.9202 80.318 37.0892 145.437 37.0524 148.287C37.0445 148.934 36.516 149.455 35.8691 149.455L35.877 149.46ZM34.4123 147.094H34.7094C34.8278 137.785 35.6088 76.1791 35.5798 73.2523C35.5772 72.9736 35.6745 72.7028 35.8507 72.4871C40.9705 66.2971 54.213 48.6684 62.1228 38.1343C65.1889 34.0532 67.4056 31.1028 67.9841 30.3691C71.6393 25.7411 77.1798 16.9741 73.2459 10.2292C71.826 7.79683 67.4319 5.8115 60.1822 4.32842C54.7232 3.21347 49.4246 2.55608 48.094 2.40093C47.3866 2.77433 44.8386 4.40468 42.1459 9.62176C39.5584 14.6364 38.9615 18.2731 38.8247 19.6957L41.6647 21.2603C42.2142 21.5627 42.4325 22.2411 42.1617 22.8065L40.221 26.8639C40.1553 27.0033 40.0606 27.1295 39.9449 27.2321L33.463 33.0645C33.1685 33.3301 32.7636 33.43 32.3796 33.3327C32.3586 33.3274 29.7185 32.699 27.8804 34.1373C27.2099 34.6632 26.7865 36.6223 26.7129 37.7819C26.6708 38.4209 26.1344 38.9127 25.4901 38.889L18.0142 38.6208C17.9248 38.6181 17.8354 38.605 17.7486 38.5813L5.67624 35.3338L2.57335 49.2548L10.5857 51.8265C10.8828 51.9212 11.1326 52.1315 11.2746 52.4103L12.6999 55.1661C13.7754 56.5598 24.6881 71.0067 27.1626 86.6422C28.409 94.5204 33.5603 139.607 34.4149 147.094H34.4123Z" fill="var(--fill-0, #202933)"/>
</svg>
