<svg preserveAspectRatio="none" width="100%" height="100%" overflow="visible" style="display: block;" viewBox="0 0 13 13" fill="none" xmlns="http://www.w3.org/2000/svg">
<path id="Vector" d="M3.89783 0.191304C3.89783 0.0637681 3.83406 0 3.70652 0H2.49037C2.36284 0 2.29907 0.0637681 2.29907 0.191304V5.11056C1.63406 5.07412 0.978157 5.04679 0.331366 5.02857C0.22205 5.02857 0.158282 5.09234 0.140062 5.21988L0.0307453 6.35404V6.38137C0.0307453 6.43603 0.0489648 6.4793 0.0854037 6.51118C0.121843 6.54306 0.167391 6.55901 0.22205 6.55901H1.00093C1.19224 6.76853 1.47008 7.09193 1.83447 7.52919C1.35166 8.07578 0.777743 8.62692 0.112733 9.18261C0.0580745 9.22816 0.0307453 9.27826 0.0307453 9.33292C0.0307453 9.35114 0.0398551 9.38758 0.0580745 9.44224L0.645652 10.5627C0.691201 10.6356 0.741304 10.6721 0.795963 10.6721C0.850621 10.6721 0.959938 10.5901 1.12391 10.4261C1.53385 11.082 1.86636 11.747 2.12143 12.4211C2.16698 12.5304 2.24896 12.5669 2.36739 12.5304L3.52888 12.1342C3.65642 12.0886 3.69286 12.0112 3.6382 11.9019C3.1736 10.8998 2.69534 10.0663 2.20342 9.40124L2.79099 8.8C3.27381 9.48323 3.68375 10.1346 4.02081 10.754C4.05725 10.8178 4.10735 10.8497 4.17112 10.8497L4.28043 10.8224L5.34627 10.2348C5.41915 10.1892 5.45559 10.1346 5.45559 10.0708C5.45559 10.0435 5.44193 10.007 5.4146 9.96149C5.05932 9.41491 4.6471 8.83872 4.17795 8.23292C3.7088 7.62712 3.25104 7.08282 2.80466 6.6C3.55166 6.63644 4.09369 6.66832 4.43075 6.69565L4.19845 7.35155L4.17112 7.44721C4.17112 7.52008 4.21667 7.57019 4.30776 7.59752L5.05932 7.81615L5.12764 7.82981C5.21874 7.82981 5.27795 7.78882 5.30528 7.70683C5.66967 6.91429 5.94752 6.06253 6.13882 5.15155L6.15248 5.08323C6.15248 5.00124 6.10238 4.94658 6.00217 4.91925L5.10031 4.67329L5.04565 4.65963C4.95456 4.65963 4.8999 4.71429 4.88168 4.8236L4.79969 5.31553C4.61749 5.2882 4.31687 5.25631 3.89783 5.21988V0.191304ZM7.68292 9.38758C7.30031 8.63147 6.88582 7.98923 6.43944 7.46087C6.403 7.41532 6.35745 7.39255 6.3028 7.39255C6.24814 7.39255 6.20259 7.41077 6.16615 7.44721L5.15497 8.23975C5.10942 8.27619 5.08665 8.31718 5.08665 8.36273C5.08665 8.41739 5.10487 8.46294 5.1413 8.49938C5.56946 9.00041 5.93841 9.58116 6.24814 10.2416C6.55787 10.9021 6.79472 11.5921 6.9587 12.3118C6.98603 12.4302 7.0589 12.4849 7.17733 12.4758L8.4618 12.3255C8.52557 12.3164 8.57112 12.2936 8.59845 12.2571C8.62578 12.2207 8.63489 12.1706 8.62578 12.1068C8.56201 11.7789 8.45725 11.4145 8.31149 11.0137H11.837C11.9645 11.0137 12.0283 10.9499 12.0283 10.8224L12.0556 7.07826C12.0556 5.54783 12.0146 4.26791 11.9326 3.23851C11.8688 2.42774 11.7049 1.78778 11.4407 1.31863C11.1765 0.849482 10.7711 0.510145 10.2245 0.300621C9.67795 0.0910973 8.94462 0.00455486 8.02453 0.0409938C7.92433 0.0409938 7.85145 0.0956522 7.8059 0.204969L7.28665 1.58509C7.27754 1.60331 7.27298 1.63064 7.27298 1.66708C7.27298 1.75818 7.32309 1.80373 7.42329 1.80373L7.98354 1.79006C8.53923 1.79006 8.96739 1.84472 9.26801 1.95404C9.56863 2.06335 9.78727 2.23416 9.92391 2.46646C10.0606 2.69876 10.1471 3.02443 10.1835 3.44348C10.2746 4.35445 10.3202 5.45673 10.3202 6.75031L10.3065 9.38758H7.68292ZM7.92888 3.9354C7.61004 4.92836 7.12723 5.853 6.48043 6.70932C6.444 6.76398 6.42578 6.80497 6.42578 6.8323C6.42578 6.89607 6.46222 6.94162 6.53509 6.96894L7.66925 7.52919C7.69658 7.54741 7.73302 7.55652 7.77857 7.55652C7.84234 7.55652 7.89244 7.52919 7.92888 7.47453C8.24772 7.0646 8.54151 6.61366 8.81025 6.12174C9.07899 5.62981 9.30445 5.13789 9.48665 4.64596C9.49576 4.62774 9.50031 4.60041 9.50031 4.56398C9.50031 4.50021 9.45932 4.44555 9.37733 4.4L8.17484 3.82609L8.07919 3.79876C8.00631 3.79876 7.95621 3.84431 7.92888 3.9354ZM0.153727 0.737888C0.0170807 0.765217 -0.0284679 0.84265 0.0170807 0.970186C0.171946 1.44389 0.297205 1.97909 0.392857 2.57578C0.488509 3.17246 0.545445 3.74865 0.563665 4.30435C0.563665 4.36812 0.581884 4.41594 0.618323 4.44783C0.654762 4.47971 0.704865 4.4911 0.768634 4.48199L1.65683 4.37267C1.77526 4.36356 1.83447 4.29979 1.83447 4.18137C1.81625 3.58012 1.76843 2.96749 1.69099 2.34348C1.61356 1.71946 1.50652 1.15238 1.36988 0.642236C1.34255 0.52381 1.26511 0.478261 1.13758 0.50559L0.153727 0.737888ZM4.7177 1.06584C4.66304 2.11346 4.52184 3.11097 4.2941 4.05839L4.28043 4.11304C4.28043 4.20414 4.33509 4.26335 4.44441 4.29068L5.25062 4.45466L5.31894 4.46832C5.40093 4.46832 5.45559 4.41822 5.48292 4.31801C5.61046 3.87164 5.7266 3.37288 5.83137 2.82174C5.93613 2.2706 6.01128 1.76273 6.05683 1.29814V1.25714C6.05683 1.16605 6.00217 1.10683 5.89286 1.0795L4.92267 0.901863C4.91356 0.901863 4.90445 0.899586 4.89534 0.895031C4.88623 0.890476 4.87712 0.892754 4.86801 0.901863C4.76781 0.901863 4.7177 0.956522 4.7177 1.06584Z" fill="var(--fill-0, #F43F5E)"/>
</svg>
