<svg preserveAspectRatio="none" width="100%" height="100%" overflow="visible" style="display: block;" viewBox="0 0 56 90" fill="none" xmlns="http://www.w3.org/2000/svg">
<path id="Vector" d="M54.504 89.3021C54.4636 89.3021 54.4207 89.3021 54.3803 89.2945L1.01145 83.4334C0.387981 83.3652 -0.0613193 82.8048 0.00683365 82.1814C0.0749866 81.5579 0.635346 81.1086 1.25882 81.1767L53.2646 86.889C52.6765 79.382 49.6701 42.8899 45.6037 27.3081C44.1876 21.8811 37.2814 7.64471 35.0324 3.07594C32.5334 5.56983 26.1826 11.5547 18.2516 16.3935C14.8061 18.4937 11.5045 20.7755 8.98029 25.5589C8.68749 26.1142 8.00092 26.3262 7.4456 26.0334C6.89028 25.7406 6.67824 25.054 6.97105 24.4987C9.7628 19.208 13.491 16.6359 17.0678 14.4524C26.8717 8.47517 34.4342 0.438164 34.5099 0.359914C34.7648 0.0898264 35.1359 -0.0414324 35.5019 0.0115755C35.8704 0.0645834 36.1885 0.294285 36.3551 0.627477C36.7514 1.41755 46.0555 20.0334 47.8048 26.7351C52.3786 44.2631 55.6045 87.6487 55.6373 88.0854C55.6626 88.4211 55.5363 88.7518 55.294 88.9866C55.082 89.191 54.7993 89.3046 54.5065 89.3046L54.504 89.3021Z" fill="var(--fill-0, #212C68)"/>
</svg>
