<svg preserveAspectRatio="none" width="100%" height="100%" overflow="visible" style="display: block;" viewBox="0 0 33 88" fill="none" xmlns="http://www.w3.org/2000/svg">
<path id="Vector" d="M15.3894 87.6754C15.3894 87.6754 15.3793 87.6754 15.3742 87.6754C14.7457 87.6678 14.2459 87.1529 14.2535 86.5243C14.2586 86.0599 14.8114 39.8572 11.4365 25.1437C10.2199 19.8354 6.81221 13.3735 1.30949 5.93974C0.968727 5.47781 0.857674 5.32636 0.784473 5.2052C0.352837 4.47571 0.110493 2.4084 0.0044777 1.2397C-0.0333851 0.813112 0.171068 0.399151 0.53455 0.171974C0.898033 -0.0552021 1.35998 -0.0577313 1.72599 0.166921C1.83705 0.235074 12.7743 6.91912 17.9085 9.71339C18.2417 9.89513 18.6002 10.087 18.9838 10.2914C22.6666 12.2603 28.2325 15.2363 31.6098 19.7622C31.9859 20.2645 32.3721 20.8526 32.7634 21.5064C33.0839 22.044 32.9072 22.7432 32.3696 23.0638C31.8319 23.3844 31.1327 23.2077 30.8122 22.67C30.4613 22.0819 30.118 21.5594 29.7899 21.1202C26.7154 16.9982 21.4197 14.1686 17.9136 12.2956C17.5249 12.0887 17.1588 11.8918 16.8231 11.71C12.999 9.62757 6.01457 5.42732 2.57158 3.33982C2.63469 3.68311 2.69525 3.94058 2.74574 4.05922C2.79117 4.12737 2.96535 4.35959 3.13195 4.58677C8.82146 12.2754 12.3578 19.0201 13.6452 24.6338C17.0806 39.6098 16.5455 84.6413 16.5202 86.5496C16.5127 87.173 16.0053 87.6703 15.3843 87.6703L15.3894 87.6754Z" fill="var(--fill-0, #212C68)"/>
</svg>
