<svg preserveAspectRatio="none" width="100%" height="100%" overflow="visible" style="display: block;" viewBox="0 0 17 9" fill="none" xmlns="http://www.w3.org/2000/svg">
<path id="Vector" d="M5.05768 8.49159C4.89594 8.49159 4.72842 8.45115 4.57245 8.3645C1.33756 6.58531 0.0782618 1.46148 0.0262725 1.24774C-0.0430466 0.947358 0.0262692 0.629647 0.216897 0.38703C0.407524 0.144414 0.702132 0 1.00829 0H15.288C15.6 0.00577659 15.8946 0.155969 16.0852 0.398586C16.2758 0.64698 16.3451 0.970465 16.2643 1.27085C16.2123 1.47881 14.8894 6.42934 11.747 8.27208C11.2617 8.55513 10.6436 8.39339 10.3664 7.90815C10.0833 7.4287 10.2451 6.80482 10.7245 6.52754C12.2322 5.64373 13.3066 3.53527 13.8901 2.02181H2.37734C2.93767 3.56416 4.01212 5.74193 5.54291 6.58531C6.03392 6.85104 6.213 7.46913 5.9415 7.96014C5.75665 8.29518 5.41005 8.48581 5.0519 8.48581L5.05768 8.49159Z" fill="var(--fill-0, #202933)"/>
</svg>
