<svg preserveAspectRatio="none" width="100%" height="100%" overflow="visible" style="display: block;" viewBox="0 0 34 35" fill="none" xmlns="http://www.w3.org/2000/svg">
<path id="Vector" d="M30.943 4.71226C29.951 2.50612 28.439 1.90538 27.2955 1.90033C26.5837 0.80736 25.1929 -0.361349 23.0978 0.105625C21.6565 0.426196 20.8412 1.51666 20.4373 2.50109C18.9884 2.51876 17.017 3.0867 16.0099 5.18177C15.24 6.77958 15.1643 9.98277 15.1996 11.9617C14.6468 11.9037 14.0284 11.9491 13.3999 12.1864C11.6431 12.8477 10.3406 14.7308 9.52527 17.785C8.96238 19.8877 8.11929 25.509 7.8391 27.4375L0.713335 30.2924C0.301893 30.4564 0.0242154 30.8452 0.00149771 31.2894C-0.02122 31.7311 0.21606 32.1476 0.607308 32.3521C0.74109 32.4228 3.93672 34.0736 8.8513 34.538C8.88664 34.5406 8.92199 34.5431 8.95733 34.5431C8.97248 34.5431 8.98508 34.5431 9.00022 34.5431C18.8975 34.1645 23.1407 31.3374 25.1802 29.9768C25.4503 29.7976 25.7759 29.5805 25.9375 29.4998C28.7494 29.6083 31.0515 27.0008 31.6725 25.5545C32.2656 24.1737 33.5606 16.3109 33.5606 15.3845C33.5606 13.6908 31.4756 5.88854 30.9455 4.70975L30.943 4.71226ZM29.5824 24.6634C29.2492 25.4434 27.6767 27.3466 25.9552 27.2305C25.2762 27.1851 24.736 27.5435 23.9181 28.0913C22.0578 29.3306 18.1908 31.9104 8.98762 32.2738C7.08691 32.0896 5.46636 31.7059 4.23456 31.3298L9.28798 29.3054C9.66409 29.154 9.93166 28.8132 9.98971 28.4118C9.99981 28.3361 11.0827 20.7459 11.7162 18.3757C12.3094 16.1519 13.1828 14.7131 14.1748 14.3244C14.5686 14.1704 14.9472 14.1982 15.235 14.2688L15.1315 17.6866L13.9451 24.9209C13.8441 25.5393 14.2632 26.1249 14.8816 26.2259C14.9447 26.236 15.0053 26.241 15.0658 26.241C15.6111 26.241 16.0932 25.8447 16.1866 25.2894L17.3856 17.9819C17.3931 17.9314 17.3982 17.8835 17.4007 17.833L17.5295 13.5722C17.5295 13.5722 17.5295 13.5494 17.5295 13.5393C17.5295 13.5166 17.5295 13.4914 17.5295 13.4687C17.3982 11.3458 17.426 7.48888 18.0595 6.1763C18.5618 5.13129 19.4832 4.84604 20.1748 4.79051L20.6266 17.0606L19.569 23.5023C19.468 24.1207 19.8871 24.7063 20.5055 24.8073C20.5686 24.8174 20.6292 24.8225 20.6897 24.8225C21.235 24.8225 21.7171 24.4261 21.8079 23.8708L22.8832 17.3155C22.8959 17.2398 22.9009 17.1641 22.8984 17.0909L22.4087 3.80609C22.4768 3.51328 22.7621 2.51622 23.59 2.32943C24.7688 2.06692 25.3494 3.00339 25.5387 3.40474L26.2328 16.0989L25.1424 22.2579C25.0339 22.8763 25.4453 23.4644 26.0637 23.573C26.1293 23.5856 26.1975 23.5906 26.2631 23.5906C26.8033 23.5906 27.2829 23.2019 27.3814 22.6516L28.4945 16.3614C28.5096 16.2756 28.5147 16.1872 28.5097 16.1014L27.866 4.34627C28.179 4.53306 28.5399 4.90662 28.8706 5.64369C29.3275 6.66093 31.2863 14.1149 31.2863 15.3845C31.2787 16.2604 30.0166 23.6487 29.5824 24.6609V24.6634Z" fill="var(--fill-0, #212C68)"/>
</svg>
