<svg preserveAspectRatio="none" width="100%" height="100%" overflow="visible" style="display: block;" viewBox="0 0 59 47" fill="none" xmlns="http://www.w3.org/2000/svg">
<path id="Vector" d="M10.4061 46.0876L3.98462 46.0396C3.69686 46.0396 3.43686 45.873 3.31065 45.6156C3.23492 45.4591 1.42256 41.7031 0.503758 36.0464C-0.344368 30.8188 -0.538728 22.9282 3.34599 15.0426C7.30139 7.01574 14.8134 2.24755 21.3838 3.51217C24.274 -0.112558 32.9471 -1.58668 42.6576 2.29299C47.4006 4.18865 53.4132 8.54792 55.17 10.2568C55.372 10.4537 55.4502 10.7465 55.3669 11.0191C55.2861 11.2892 55.059 11.4936 54.7813 11.5441L53.8095 11.7259C58.295 17.2513 59.7338 23.8975 58.088 31.5029C57.4494 34.4486 55.9046 38.4545 55.8389 38.6236C55.7152 38.9391 55.3972 39.136 55.0615 39.1032C54.7232 39.0704 54.4481 38.8179 54.3875 38.4822C54.1654 37.2504 53.499 33.8554 53.0699 32.929C51.987 30.5841 49.478 27.9841 47.7817 26.3964L48.2638 28.7212C48.3244 29.0165 48.2058 29.3169 47.961 29.4911C47.7161 29.6652 47.3905 29.6779 47.133 29.5239C46.8705 29.3674 41.7136 26.2626 38.7149 23.433C39.2348 24.6573 40.136 26.3712 41.1759 28.0498C41.3299 28.2971 41.3274 28.6101 41.1709 28.855C41.0144 29.0998 40.7342 29.2336 40.4439 29.2008C40.2369 29.1756 35.335 28.5597 30.6173 24.3544C27.2399 21.343 25.574 18.5134 24.8848 17.1074C23.648 18.16 21.0885 20.9694 20.152 26.7019C18.6375 39.7898 16.5525 41.7788 15.1137 42.1372C14.301 42.3392 13.627 41.953 13.2206 41.5542L11.1634 41.534V45.3303C11.1634 45.5323 11.0826 45.7266 10.9387 45.868C10.7974 46.0093 10.6055 46.0876 10.4061 46.0876ZM4.4844 44.5302L9.65645 44.568V40.7691C9.65645 40.5672 9.73723 40.3728 9.88111 40.2315C10.025 40.0901 10.2244 40.0094 10.4213 40.0119L13.5841 40.0447C13.8315 40.0472 14.0586 40.1684 14.2 40.3728C14.2 40.3728 14.4802 40.7414 14.7603 40.6682C15.1491 40.5647 17.1659 39.4036 18.6577 26.5125C18.6577 26.4999 18.6602 26.4898 18.6628 26.4772C20.0334 18.054 24.64 15.3859 24.8369 15.2774C25.0313 15.1689 25.266 15.1512 25.473 15.2294C25.6825 15.3077 25.8441 15.4743 25.9198 15.6838C25.945 15.7494 27.2803 19.3439 31.632 23.2261C34.3884 25.6821 37.2509 26.8205 38.985 27.3253C37.7153 25.1141 36.3775 22.3476 36.8621 21.242C37.0136 20.8937 37.3165 20.6514 37.6901 20.5807C37.9829 20.5252 38.2807 20.6438 38.4523 20.8887C39.8987 22.9433 44.1444 25.831 46.4288 27.295L45.8432 24.468C45.7775 24.155 45.9189 23.8319 46.1915 23.6678C46.4666 23.5012 46.815 23.5264 47.0624 23.7309C47.287 23.9152 52.6029 28.2997 54.4506 32.3005C54.7409 32.9315 55.0766 34.2769 55.3492 35.5315C55.8036 34.1911 56.3185 32.5504 56.6139 31.1848C58.2521 23.6123 56.6416 17.0696 51.828 11.7334C51.5932 11.4709 51.568 11.0822 51.7699 10.7944C51.8911 10.6203 52.0754 10.5092 52.2748 10.4789L52.974 10.3477C50.5079 8.35356 45.7725 5.16804 42.1023 3.70148C32.2 -0.256437 24.269 1.77806 22.3506 4.76669C22.1764 5.0393 21.8483 5.17056 21.5353 5.09483C15.6287 3.67119 8.39437 8.23492 4.70906 15.7141C-1.71247 28.7464 3.40405 42.0211 4.48693 44.5327L4.4844 44.5302Z" fill="var(--fill-0, #212C68)"/>
</svg>
