<svg preserveAspectRatio="none" width="100%" height="100%" overflow="visible" style="display: block;" viewBox="0 0 17 20" fill="none" xmlns="http://www.w3.org/2000/svg">
<path id="Vector" d="M14.2203 19.4123C14.89 19.2332 15.532 18.9742 16.13 18.6353C16.7252 18.2991 16.9374 17.5413 16.5985 16.9461C16.2623 16.3508 15.5045 16.1387 14.9093 16.4776C13.1622 17.4641 10.8722 17.4889 8.62364 16.5465C5.81565 15.3671 3.62217 12.9724 2.9057 10.2939C2.04319 7.07812 2.47031 4.70276 4.14298 3.42966C5.72196 2.22544 7.86309 2.36323 8.56853 2.77657C9.9987 3.61429 10.6793 4.94801 10.6876 4.96179C10.9935 5.57079 11.7348 5.82155 12.3465 5.52118C12.9583 5.21806 13.2118 4.48231 12.9142 3.87056C12.8756 3.78789 11.9194 1.86446 9.82235 0.638197C8.1607 -0.334543 4.94212 -0.295961 2.64116 1.45938C1.19445 2.56439 -1.0073 5.26216 0.513809 10.9388C1.42593 14.342 4.16778 17.3677 7.66744 18.8364C9.89399 19.7706 12.1894 19.9607 14.2203 19.4179V19.4123Z" fill="var(--fill-0, #202933)"/>
</svg>
