<svg preserveAspectRatio="none" width="100%" height="100%" overflow="visible" style="display: block;" viewBox="0 0 33 63" fill="none" xmlns="http://www.w3.org/2000/svg">
<path id="Vector" d="M31.8254 18.0833C31.939 17.7804 32.0323 17.4068 32.0601 16.9549C32.1308 15.8494 31.3533 14.9457 30.6693 14.1506C30.5961 14.0648 30.5204 13.9789 30.4472 13.8906C29.5763 12.8632 28.6626 11.9041 28.4228 11.6567C27.196 9.95539 25.5426 7.88555 24.5431 7.52207C24.1291 7.37062 23.3491 7.22926 22.5389 7.11063L23.4047 6.38366C23.6495 6.1893 25.164 4.91459 25.2978 3.21329C25.366 2.34244 25.0605 1.51704 24.4169 0.825409C23.9246 0.297855 23.2709 0.0126209 22.5237 0C22.5086 0 22.4935 0 22.4808 0C20.3201 0 17.8616 2.33739 17.3113 2.89019C16.5591 3.55153 11.1801 8.28438 10.0795 9.79636C9.78923 10.1927 8.91081 11.4017 6.51031 22.8691L6.46991 23.0584C6.36137 23.5708 6.48255 24.3483 7.05049 27.453C7.70678 31.0424 8.80479 37.0525 8.23937 38.8851C7.49474 41.3032 2.61549 50.519 0.13927 55.0525C-0.0677136 55.4311 -0.0424692 55.893 0.204901 56.2464C0.310917 56.3979 2.83005 59.9494 7.93143 61.5876C10.3319 62.3575 12.4674 62.5619 14.0626 62.5619C15.817 62.5619 16.9175 62.3145 17.0034 62.2943C17.382 62.206 17.6899 61.9309 17.8187 61.5623L23.0008 46.7555C23.4628 45.9578 26.4185 40.7504 27.201 37.2595C28.2562 32.5544 25.9314 27.5414 25.3281 26.3525L25.2524 23.0837L25.7976 22.5965C26.4286 22.9373 27.355 23.3411 28.3293 23.4068C30.7753 23.5759 32.1762 22.0513 32.4867 20.4686C32.6785 19.4943 32.2469 18.6461 31.8254 18.0807V18.0833ZM28.4859 21.1426C27.6428 21.0845 26.6483 20.4888 26.3378 20.2667C25.9036 19.9512 25.3104 19.9814 24.9116 20.3399L23.3466 21.7433C23.0992 21.9655 22.9629 22.2835 22.9705 22.6167L23.0665 26.6731C23.0715 26.8548 23.1195 27.034 23.2053 27.193C23.2331 27.2435 25.9793 32.3424 24.9873 36.7648C24.2326 40.127 21.0193 45.6524 20.9865 45.7079C20.9487 45.771 20.9184 45.8367 20.8956 45.9048L15.9003 60.1791C14.7316 60.328 11.96 60.4946 8.6281 59.4269C5.38453 58.3844 3.33488 56.4155 2.49938 55.474C3.99874 52.7075 9.53427 42.4113 10.4127 39.554C11.0841 37.368 10.2991 32.5948 9.28691 27.0441C9.01682 25.5649 8.71142 23.8914 8.70637 23.4648L8.73413 23.3336C10.968 12.6512 11.8263 11.2553 11.9171 11.1317C12.6491 10.1245 16.4581 6.65627 18.8384 4.5713C18.8586 4.55363 18.8788 4.53596 18.8965 4.51577C19.7976 3.60706 21.5519 2.26924 22.4758 2.26924C22.4808 2.26924 22.4859 2.26924 22.4909 2.26924C22.65 2.26924 22.7055 2.31973 22.756 2.37021C23.0261 2.66049 23.0462 2.87505 23.0361 3.02902C22.9932 3.62473 22.3092 4.35169 21.9886 4.60663C21.9785 4.61421 21.9684 4.62178 21.9608 4.62936L19.0732 7.05005C18.7223 7.34285 18.5835 7.81993 18.7173 8.25661C18.8536 8.69329 19.2372 9.00629 19.6916 9.05173C21.042 9.18551 23.1598 9.45307 23.7353 9.64491C24.1872 9.92005 25.4871 11.485 26.4968 12.8708C26.5321 13.0854 26.5447 13.4817 26.2444 13.7189C25.8481 14.0319 25.1943 13.6886 25.0025 13.5751L24.0963 12.679C23.6495 12.2372 22.9301 12.2423 22.4909 12.6891C22.0492 13.1359 22.0543 13.8552 22.501 14.2945L23.493 15.2738C23.5359 15.3168 23.5814 15.3546 23.6319 15.3899C24.1216 15.7383 24.957 16.1245 25.8607 16.1245C26.4564 16.1245 27.0799 15.9579 27.6554 15.5061C27.9129 15.3041 28.1148 15.0795 28.2738 14.8447C28.4227 15.0139 28.5717 15.1855 28.7206 15.3597C28.7989 15.4505 28.8771 15.5414 28.9553 15.6323C29.2633 15.9907 29.7808 16.5915 29.801 16.8085C29.7782 17.1695 29.6773 17.3639 29.6344 17.432C29.5713 17.48 29.5157 17.533 29.4703 17.591C29.3315 17.6996 29.1169 17.8308 28.9074 17.8308H28.8998C28.4707 17.8258 28.077 17.6491 27.9129 17.5658L27.0622 16.7379C26.6129 16.3012 25.8935 16.3088 25.4569 16.7581C25.0202 17.2074 25.0278 17.9268 25.4771 18.3634L26.4362 19.2974C26.4943 19.3529 26.5574 19.4034 26.6255 19.4463C26.729 19.5119 27.6756 20.0849 28.8696 20.1001C28.8822 20.1001 28.8973 20.1001 28.9099 20.1001C29.4148 20.1001 29.859 19.9638 30.22 19.7871C30.2578 19.8805 30.2806 19.9638 30.2654 20.0319C30.114 20.8043 29.4678 21.2082 28.4909 21.1426H28.4859Z" fill="var(--fill-0, #212C68)"/>
</svg>
