<svg preserveAspectRatio="none" width="100%" height="100%" overflow="visible" style="display: block;" viewBox="0 0 85 62" fill="none" xmlns="http://www.w3.org/2000/svg">
<path id="Vector" d="M1.18539 61.8309C1.15121 61.8309 1.11702 61.8309 1.0802 61.8257C0.428068 61.7678 -0.0531359 61.1946 0.00471486 60.5424L4.57756 8.28218C4.79055 5.86033 5.93442 3.66989 7.79879 2.11055C9.66317 0.553842 12.0219 -0.182442 14.4437 0.0384427C22.0301 0.735281 35.9563 1.90018 43.9844 1.90018C51.505 1.90018 65.071 0.911459 75.1292 0.0831411C77.7982 -0.137744 80.4147 0.824687 82.3053 2.72587C84.196 4.62443 85.1452 7.24612 84.9112 9.91514L80.4646 60.7475C80.4068 61.3997 79.8309 61.8809 79.1814 61.8231C78.5292 61.7652 78.048 61.1919 78.1059 60.5398L82.5525 9.70741C82.726 7.73259 82.024 5.79722 80.625 4.39303C79.2287 2.98883 77.296 2.27885 75.3211 2.43925C65.2183 3.27283 51.5813 4.26418 43.9818 4.26418C36.3823 4.26418 23.5421 3.24653 14.2255 2.39191C12.4347 2.22888 10.6939 2.77057 9.31342 3.92233C7.93552 5.07409 7.0888 6.69391 6.93365 8.48465L2.36082 60.7449C2.3056 61.3603 1.79019 61.8257 1.18276 61.8257L1.18539 61.8309Z" fill="var(--fill-0, #202933)"/>
</svg>
