<svg preserveAspectRatio="none" width="100%" height="100%" overflow="visible" style="display: block;" viewBox="0 0 11 10" fill="none" xmlns="http://www.w3.org/2000/svg">
<path id="Vector" d="M5.84162 0C5.74057 0 5.66672 0.0582996 5.62008 0.174899L4.99045 1.81895L4.96713 1.91223C4.96713 2.01328 5.03709 2.06769 5.177 2.07547C5.92324 2.11433 6.52955 2.26397 6.99595 2.52437C7.46235 2.78478 7.80049 3.10931 8.01036 3.49798C8.22024 3.88664 8.32518 4.30251 8.32518 4.74559C8.32518 5.34413 8.16583 5.87466 7.84713 6.33717C7.52842 6.79968 7.08534 7.1281 6.51789 7.32243C6.46348 6.4596 6.24777 5.47628 5.87077 4.37247C5.49377 3.26866 5.04097 2.33198 4.51239 1.56243C4.32583 1.28259 4.07903 1.06883 3.77198 0.921134C3.46494 0.773441 3.13652 0.699595 2.78672 0.699595C2.2115 0.699595 1.71206 0.874494 1.28842 1.22429C0.864777 1.57409 0.54413 2.01911 0.326478 2.55935C0.108826 3.0996 0 3.65344 0 4.22089C0 4.95158 0.172955 5.67061 0.518866 6.37798C0.864777 7.08534 1.3953 7.71498 2.11045 8.26688C2.5613 8.61668 3.07239 8.88292 3.64372 9.06559C4.21506 9.24826 4.80389 9.3396 5.4102 9.3396C6.35077 9.3396 7.20583 9.13749 7.97538 8.73328C8.74494 8.32907 9.35514 7.76356 9.80599 7.03676C10.2568 6.30996 10.4823 5.48405 10.4823 4.55903C10.4823 3.75838 10.286 3.01992 9.89344 2.34364C9.50089 1.66737 8.95482 1.1213 8.25522 0.705425C7.55563 0.289555 6.76275 0.054413 5.8766 0H5.84162ZM4.39579 7.35741C3.96049 7.23304 3.56211 7.01539 3.20065 6.70445C2.83919 6.39352 2.55158 6.02624 2.33781 5.60259C2.12405 5.17895 2.01717 4.7417 2.01717 4.29085C2.01717 3.78559 2.15709 3.36583 2.43692 3.03158C2.50688 2.94607 2.59239 2.90332 2.69344 2.90332C2.81781 2.90332 2.91887 2.96551 2.9966 3.08988C3.3464 3.61069 3.65927 4.30057 3.93522 5.15951C4.21117 6.01846 4.3647 6.75109 4.39579 7.35741Z" fill="var(--fill-0, #14B8A6)"/>
</svg>
