<svg preserveAspectRatio="none" width="100%" height="100%" overflow="visible" style="display: block;" viewBox="0 0 27 28" fill="none" xmlns="http://www.w3.org/2000/svg">
<path id="Vector" d="M25.214 5.11535C18.0874 5.2331 11.9123 12.1148 11.9123 16.9852C11.9123 20.4708 16.1562 22.1523 20.0798 22.2089C19.4439 23.49 18.4077 26.076 17.9178 27.7481C15.5815 27.084 7.3009 24.7053 7.3009 17.5693C7.3009 12.0441 11.4271 7.95091 12.6094 7.13604C6.95235 7.79076 3.46206 8.63862 0.664162 9.36871L0 3.83886C4.41351 3.67871 6.92408 3.5845 12.8402 2.67542C17.0229 2.03012 21.7002 1.02684 24.4133 0L25.2234 5.12005L25.214 5.11535ZM20.4237 9.59951C21.2904 10.3673 22.5292 11.8651 23.1085 12.7978C22.3031 13.4289 21.898 13.7728 20.8853 14.6772C19.7878 13.0239 19.5005 12.6376 18.3182 11.2952L20.4237 9.59951ZM23.4524 7.348C24.2626 8.08751 25.4448 9.55711 26.0195 10.4945C25.2988 11.0974 24.8089 11.5684 23.914 12.4445C22.8448 10.7865 22.5292 10.4003 21.3469 9.05783L23.4524 7.348Z" fill="var(--fill-0, #0F172A)"/>
</svg>
