<svg preserveAspectRatio="none" width="100%" height="100%" overflow="visible" style="display: block;" viewBox="0 0 41 38" fill="none" xmlns="http://www.w3.org/2000/svg">
<path id="Vector" d="M14.9061 21.6304C15.3679 21.9004 15.5668 22.0781 15.5597 22.3694C15.5384 22.9164 14.6503 22.7957 14.3945 22.7885C12.3199 25.9929 8.46195 30.6537 5.4992 33.0338C4.02137 31.4708 1.5844 29.6235 0 28.6075C4.12796 25.6731 6.87041 22.5683 9.37134 18.0709C11.2186 19.2574 13.0659 20.4439 14.9061 21.6304ZM17.4781 1.15408C19.8227 1.31039 22.1744 1.4667 24.519 1.63011C24.7322 1.63722 25.1585 1.69406 25.1443 2.12035C25.13 2.45428 24.7819 2.65322 24.519 2.80953C24.4267 5.26072 24.3343 7.71192 24.2349 10.1631C28.9241 10.3407 33.6133 10.5326 38.3026 10.7315C38.2173 12.7635 38.1321 14.7884 38.0468 16.8204C33.3647 16.6215 28.6825 16.4368 24.0004 16.2591C23.8085 21.2539 23.6167 26.2557 23.4249 31.2505C23.3183 33.9788 23.162 38.0073 16.1352 37.7515C14.9913 37.7089 13.9825 37.5455 13.2649 37.4389C12.938 34.8172 12.4336 33.4104 11.2968 30.81C12.4336 31.0587 13.5704 31.3144 14.7569 31.3571C16.3697 31.4139 16.4052 30.2842 16.4479 29.2327C16.6113 24.8206 16.7676 20.4084 16.931 16.0034C12.2773 15.8328 7.62357 15.6694 2.96985 15.5202C3.03379 13.4882 3.10482 11.4633 3.16876 9.43131C7.82959 9.58762 12.4904 9.74392 17.1512 9.91444C17.2578 7.00143 17.3644 4.08841 17.471 1.1754L17.4781 1.15408ZM31.3895 18.2201C33.0236 19.9253 37.1019 24.3445 39.4678 28.6927C37.0947 30.4832 36.0432 31.2789 34.0609 33.0125C32.1 29.0196 28.917 24.7708 26.2597 21.9715C27.972 20.721 29.6772 19.4706 31.3895 18.2201ZM40.4696 4.12394C40.3772 6.30515 38.5086 7.99611 36.2919 7.90375C34.0751 7.81139 32.3558 5.97832 32.441 3.79001C32.5263 1.6088 34.4375 -0.0821716 36.6187 0.00308734C38.8426 0.0954512 40.5619 1.93562 40.4696 4.11683V4.12394ZM34.5725 3.87527C34.5299 4.92679 35.3469 5.8007 36.37 5.84333C37.4358 5.92859 38.2812 5.0831 38.331 4.03157C38.3736 3.02267 37.5566 2.14877 36.5263 2.10614C35.5032 2.06351 34.6151 2.86637 34.5725 3.87527Z" fill="var(--fill-0, #0F172A)"/>
</svg>
