<svg preserveAspectRatio="none" width="100%" height="100%" overflow="visible" style="display: block;" viewBox="0 0 4 3" fill="none" xmlns="http://www.w3.org/2000/svg">
<path id="Vector" d="M1.02044 0.0307302C0.992 0.0354709 0.974222 0.0508783 0.967111 0.0769524L0.867556 0.482286V0.500064C0.867556 0.514286 0.872296 0.523767 0.881778 0.528508C0.891259 0.533249 0.904296 0.533249 0.920889 0.528508C1.05363 0.495323 1.16622 0.47873 1.25867 0.47873C1.36296 0.47873 1.4477 0.500656 1.51289 0.544508C1.57807 0.58836 1.62726 0.656508 1.66044 0.748952C1.70548 0.876952 1.728 1.06895 1.728 1.32495L1.72089 1.54895C1.71378 1.62717 1.70193 1.68703 1.68533 1.72851C1.66874 1.76999 1.64385 1.79903 1.61067 1.81562C1.57748 1.83221 1.52889 1.84169 1.46489 1.84406H1.152C0.971852 1.16851 0.750222 0.564064 0.487111 0.0307302C0.472889 0.00465609 0.451556 -0.0048254 0.423111 0.00228571L0.0462222 0.119619C0.0225185 0.12673 0.0106667 0.139767 0.0106667 0.15873C0.0106667 0.163471 0.013037 0.172952 0.0177778 0.187175C0.295111 0.744212 0.508444 1.29058 0.657778 1.82629C0.449185 1.81443 0.254815 1.80021 0.0746667 1.78362H0.0675556C0.0367407 1.78362 0.0213333 1.79903 0.0213333 1.82984L0 2.21029C0 2.2411 0.0154074 2.25651 0.0462222 2.25651C0.261926 2.26599 0.504889 2.2731 0.775111 2.27784C0.82963 2.5291 0.871111 2.75429 0.899556 2.9534C0.906667 2.98421 0.92563 2.99843 0.956444 2.99606L1.33333 2.96051C1.36889 2.95814 1.3843 2.94273 1.37956 2.91429C1.344 2.69621 1.3037 2.48643 1.25867 2.28495L1.59644 2.2814C1.77896 2.27429 1.91407 2.22866 2.00178 2.14451C2.08948 2.06036 2.14459 1.95725 2.16711 1.83517C2.18963 1.7131 2.20089 1.55488 2.20089 1.36051C2.20089 1.09503 2.18311 0.867471 2.14756 0.677841C2.112 0.488212 2.03022 0.328212 1.90222 0.197841C1.77422 0.0674709 1.58341 0.00228571 1.32978 0.00228571C1.24207 0.00228571 1.13896 0.0117672 1.02044 0.0307302ZM2.16533 2.35606C2.15585 2.37029 2.15111 2.38095 2.15111 2.38806C2.15111 2.40466 2.16178 2.41651 2.18311 2.42362L2.52444 2.54451C2.52919 2.54688 2.5363 2.54806 2.54578 2.54806C2.56237 2.54806 2.57778 2.53977 2.592 2.52317C2.88119 2.12495 3.05896 1.72317 3.12533 1.31784C3.1277 1.31547 3.12889 1.31192 3.12889 1.30717C3.12889 1.28584 3.11704 1.26925 3.09333 1.2574L2.72356 1.11873C2.71407 1.11399 2.70696 1.11162 2.70222 1.11162C2.68089 1.11162 2.66785 1.12584 2.66311 1.15429C2.60148 1.59755 2.43556 1.99814 2.16533 2.35606Z" fill="var(--fill-0, white)"/>
</svg>
