<svg preserveAspectRatio="none" width="100%" height="100%" overflow="visible" style="display: block;" viewBox="0 0 38 38" fill="none" xmlns="http://www.w3.org/2000/svg">
<path id="Vector" d="M22.7571 0.113679C25.1585 0.305511 27.5671 0.497344 29.9685 0.696281C30.3096 0.703386 30.608 0.838379 30.6009 1.13679C30.5867 1.5986 30.1533 1.79754 29.9401 1.8757C29.8762 4.15637 29.8051 6.44416 29.7412 8.72483C32.2137 8.79588 34.6862 8.87404 37.1658 8.95219C37.0948 11.1334 37.0308 13.3217 36.9598 15.5029C34.4731 15.4248 31.9934 15.3537 29.5067 15.2756C29.1089 21.6131 28.3273 23.6523 27.9152 24.7322C25.798 30.2243 20.9027 35.418 15.0482 37.585C13.4638 34.8922 11.0055 33.0663 9.96819 32.2421C17.4497 29.8193 20.0501 24.9311 20.59 23.8512C21.8973 21.1513 22.0963 18.4657 22.3592 15.0695C19.9009 15.0056 17.4497 14.9345 14.9914 14.8777C14.9132 18.0039 14.8351 21.1229 14.7498 24.2491C12.4549 24.1922 10.16 24.1354 7.87226 24.0786C7.94331 20.9524 8.02146 17.8333 8.09251 14.7072C5.39264 14.6432 2.69987 14.5793 0 14.5224C0.0497344 12.3341 0.0923726 10.1529 0.142107 7.96461C2.84197 8.02145 5.54184 8.08539 8.24882 8.14934C8.31276 5.43526 8.3767 2.71408 8.44064 0C10.6716 0.177623 12.9096 0.362349 15.1406 0.539972C15.5242 0.589707 16.0358 0.603918 16.0287 1.06574C16.0216 1.35704 15.6734 1.52045 15.3253 1.71939C15.2685 3.92191 15.2116 6.11733 15.1548 8.31985C17.6131 8.3838 20.0714 8.44774 22.5368 8.51169C22.615 5.71235 22.6931 2.90591 22.7642 0.106575L22.7571 0.113679Z" fill="var(--fill-0, #0F172A)"/>
</svg>
