<svg preserveAspectRatio="none" width="100%" height="100%" overflow="visible" style="display: block;" viewBox="0 0 7 11" fill="none" xmlns="http://www.w3.org/2000/svg">
<path id="Vector" d="M3.45342 0C2.79089 0 2.19669 0.118012 1.67081 0.354037C1.14493 0.590062 0.73499 0.921325 0.440994 1.34783C0.146998 1.77433 0 2.26501 0 2.81988C0 3.39959 0.175983 3.9089 0.52795 4.34783C0.879917 4.78675 1.35404 5.09731 1.95031 5.2795C1.43685 5.4617 1.03106 5.74948 0.732919 6.14286C0.434783 6.53623 0.285714 6.98137 0.285714 7.47826C0.285714 7.96687 0.42236 8.40373 0.695652 8.78882C0.968944 9.17391 1.34576 9.47412 1.82609 9.68944C2.30642 9.90476 2.84886 10.0124 3.45342 10.0124C4.06625 10.0124 4.61284 9.90476 5.09317 9.68944C5.5735 9.47412 5.94824 9.17391 6.21739 8.78882C6.48654 8.40373 6.62112 7.96687 6.62112 7.47826C6.62112 6.98137 6.46998 6.53623 6.1677 6.14286C5.86542 5.74948 5.45756 5.4617 4.9441 5.2795C5.54037 5.09731 6.01656 4.78468 6.37267 4.34161C6.72878 3.89855 6.90683 3.3913 6.90683 2.81988C6.90683 2.27329 6.75983 1.78675 6.46584 1.36025C6.17184 0.933747 5.7619 0.600414 5.23602 0.360248C4.71015 0.120083 4.11594 0 3.45342 0ZM3.45342 5.67702C4.04969 5.67702 4.5383 5.83437 4.91925 6.14907C5.30021 6.46377 5.49068 6.86542 5.49068 7.35404C5.49068 7.66874 5.40373 7.95031 5.22981 8.19876C5.0559 8.44721 4.81366 8.64389 4.50311 8.78882C4.19255 8.93375 3.84265 9.00621 3.45342 9.00621C3.06418 9.00621 2.71429 8.93375 2.40373 8.78882C2.09317 8.64389 1.85093 8.44721 1.67702 8.19876C1.50311 7.95031 1.41615 7.66874 1.41615 7.35404C1.41615 6.86542 1.60663 6.46377 1.98758 6.14907C2.36853 5.83437 2.85714 5.67702 3.45342 5.67702ZM3.45342 1.01863C3.90062 1.01863 4.30021 1.09938 4.65217 1.26087C5.00414 1.42236 5.2795 1.6501 5.47826 1.9441C5.67702 2.2381 5.7764 2.56729 5.7764 2.93168C5.7764 3.28778 5.67702 3.6087 5.47826 3.89441C5.2795 4.18012 5.00414 4.40373 4.65217 4.56522C4.30021 4.72671 3.90062 4.80745 3.45342 4.80745C3.00621 4.80745 2.60663 4.72671 2.25466 4.56522C1.90269 4.40373 1.62733 4.18012 1.42857 3.89441C1.22981 3.6087 1.13043 3.28778 1.13043 2.93168C1.13043 2.56729 1.22981 2.2381 1.42857 1.9441C1.62733 1.6501 1.90269 1.42236 2.25466 1.26087C2.60663 1.09938 3.00621 1.01863 3.45342 1.01863Z" fill="var(--fill-0, #64748B)"/>
</svg>
