<svg preserveAspectRatio="none" width="100%" height="100%" overflow="visible" style="display: block;" viewBox="0 0 16 6" fill="none" xmlns="http://www.w3.org/2000/svg">
<path id="Vector" d="M5.72442 5.97727C5.63607 5.97727 5.54772 5.96465 5.45937 5.93688C2.05677 4.86158 0.18383 1.44888 0.10558 1.305C-0.0408224 1.03239 -0.0357774 0.699197 0.12577 0.431633C0.284794 0.16407 0.572554 0 0.885552 0H14.1476C14.4581 0 14.7459 0.16407 14.9074 0.431633C15.0664 0.699197 15.074 1.02987 14.9276 1.305C14.8544 1.44131 13.0976 4.6445 9.90194 5.82582C9.44506 5.99494 8.93518 5.76019 8.76606 5.30331C8.59694 4.84643 8.83169 4.33655 9.28856 4.16743C10.6769 3.65502 11.7572 2.61505 12.4564 1.76945H2.5818C3.32139 2.66554 4.48756 3.77618 5.99703 4.25325C6.46148 4.39965 6.72147 4.89692 6.57254 5.36137C6.4539 5.73747 6.10557 5.97979 5.72946 5.97979L5.72442 5.97727Z" fill="var(--fill-0, #212C68)"/>
</svg>
