<svg preserveAspectRatio="none" width="100%" height="100%" overflow="visible" style="display: block;" viewBox="0 0 100 18" fill="none" xmlns="http://www.w3.org/2000/svg">
<path id="Vector" d="M61.82 18C65.29 16.55 68.68 14.22 73.12 10.66C78 6.76 80.34 5.1 83.87 3.42C88.56 1.16 93.75 0 100 0V6.16C98.76 6.05 97.43 6 96 6C86.41 6 81.77 8.23 72.87 15.34C71.59 16.37 70.48 17.24 69.47 18H61.82ZM38.18 18H22.52C21.52 17.24 20.42 16.37 19.12 15.34C11.57 9.3 7.08 6.78 0 6.16V0C6.25 0 11.44 1.16 16.14 3.42C19.67 5.12 22.01 6.77 26.87 10.66C31.32 14.22 34.71 16.56 38.18 18ZM61.82 0H69.48C67.208 1.79016 64.7466 3.32599 62.14 4.58C57.44 6.84 52.25 8 46 8C39.75 8 34.56 6.84 29.86 4.58C27.2534 3.32599 24.7921 1.79016 22.52 0L38.18 0C41.65 1.44 45.21 2 50 2C54.8 2 58.35 1.44 61.82 0Z" fill="var(--fill-0, #F1F5F9)" fill-opacity="0.4"/>
</svg>
