<svg preserveAspectRatio="none" width="100%" height="100%" overflow="visible" style="display: block;" viewBox="0 0 8 11" fill="none" xmlns="http://www.w3.org/2000/svg">
<path id="Vector" d="M3.57764 0C2.8323 0 2.19048 0.198758 1.65217 0.596273C1.11387 0.993789 0.703934 1.56729 0.42236 2.31677C0.140787 3.06625 0 3.96273 0 5.00621C0 6.04969 0.140787 6.94617 0.42236 7.69565C0.703934 8.44513 1.11387 9.01863 1.65217 9.41615C2.19048 9.81366 2.8323 10.0124 3.57764 10.0124C4.3147 10.0124 4.95238 9.81366 5.49068 9.41615C6.02899 9.01863 6.43892 8.44513 6.7205 7.69565C7.00207 6.94617 7.14286 6.04969 7.14286 5.00621C7.14286 3.96273 7.00207 3.06625 6.7205 2.31677C6.43892 1.56729 6.02899 0.993789 5.49068 0.596273C4.95238 0.198758 4.3147 0 3.57764 0ZM3.57764 1.08075C4.34783 1.08075 4.9441 1.41615 5.36646 2.08696C5.78882 2.75776 6 3.73085 6 5.00621C6 6.28157 5.78882 7.25466 5.36646 7.92547C4.9441 8.59627 4.34783 8.93168 3.57764 8.93168C2.79917 8.93168 2.19876 8.59834 1.7764 7.93168C1.35404 7.26501 1.14286 6.28986 1.14286 5.00621C1.14286 3.72257 1.35404 2.74741 1.7764 2.08075C2.19876 1.41408 2.79917 1.08075 3.57764 1.08075Z" fill="var(--fill-0, #64748B)"/>
</svg>
