<svg preserveAspectRatio="none" width="100%" height="100%" overflow="visible" style="display: block;" viewBox="0 0 18 12" fill="none" xmlns="http://www.w3.org/2000/svg">
<path id="Vector" d="M0 0C0.261154 1.40131 0.617852 2.57332 1.07009 3.5224C1.52552 4.46828 2.0542 5.23263 2.65931 5.80908C3.26443 6.39509 3.9205 6.84415 4.63389 7.15307C5.35047 7.46837 6.10209 7.69767 6.88555 7.83781C7.6722 7.97794 8.47477 8.07348 9.29326 8.12762C10.1054 8.18813 10.9143 8.25183 11.7201 8.31871C12.529 8.38878 13.3093 8.5098 14.0609 8.68496C14.8157 8.85694 15.5227 9.13402 16.1852 9.50983C16.8476 9.88563 17.4464 10.4079 17.9846 11.0768C17.5674 9.87608 17.1056 8.88561 16.596 8.09896C16.0833 7.30594 15.5227 6.6658 14.9176 6.18171C14.3189 5.69762 13.6756 5.31225 12.9876 5.03199C12.2965 4.74854 11.5704 4.51924 10.8029 4.34089C10.0353 4.15617 9.23275 3.97145 8.39515 3.78992C7.55436 3.61157 6.68172 3.37908 5.78042 3.09245C4.87275 2.80581 3.93642 2.42045 2.97142 1.93318C2.00961 1.44272 1.01914 0.799386 0 0.00318427" fill="var(--fill-0, white)"/>
</svg>
