<svg preserveAspectRatio="none" width="100%" height="100%" overflow="visible" style="display: block;" viewBox="0 0 40 42" fill="none" xmlns="http://www.w3.org/2000/svg">
<path id="Vector" d="M38.0326 7.71595C27.2829 7.89357 17.9684 18.2738 17.9684 25.6203C17.9684 30.878 24.3699 33.4144 30.2883 33.4997C29.3291 35.4322 27.766 39.3328 27.0271 41.8551C23.5031 40.8533 11.0126 37.2653 11.0126 26.5013C11.0126 18.1673 17.2365 11.9931 19.0199 10.7639C10.4869 11.7515 5.22214 13.0304 1.00182 14.1317L0 5.7905C6.6573 5.54893 10.4442 5.40683 19.368 4.03559C25.6772 3.06221 32.7324 1.54887 36.8248 0L38.0469 7.72304L38.0326 7.71595ZM30.8069 14.4798C32.1142 15.6379 33.9828 17.8973 34.8567 19.3041C33.6418 20.2561 33.0308 20.7748 31.5032 22.1389C29.8478 19.6451 29.4144 19.0625 27.631 17.0376L30.8069 14.4798ZM35.3754 11.0837C36.5974 12.1991 38.3808 14.4159 39.2476 15.8297C38.1605 16.7392 37.4216 17.4497 36.0717 18.7712C34.4588 16.2703 33.9828 15.6877 32.1995 13.6628L35.3754 11.0837Z" fill="var(--fill-0, #0F172A)"/>
</svg>
