<svg preserveAspectRatio="none" width="100%" height="100%" overflow="visible" style="display: block;" viewBox="0 0 7 7" fill="none" xmlns="http://www.w3.org/2000/svg">
<path id="Vector" d="M3.15468 6.30995C1.53668 6.30995 0.155963 5.06805 0.0120848 3.42733C-0.139366 1.69321 1.15049 0.161032 2.88208 0.0121054C4.61367 -0.139346 6.14839 1.14799 6.29984 2.8821C6.45129 4.61622 5.16143 6.1484 3.42984 6.29985C3.33645 6.30742 3.24555 6.31247 3.15468 6.31247V6.30995ZM3.15721 2.27125C3.13197 2.27125 3.10674 2.27125 3.07898 2.27377C2.59433 2.31668 2.23336 2.7458 2.27627 3.23044C2.31918 3.71508 2.75083 4.07856 3.23295 4.03313C3.71759 3.99022 4.07856 3.56111 4.03565 3.07647C3.99526 2.61706 3.60904 2.26872 3.15721 2.26872V2.27125Z" fill="var(--fill-0, #212C68)"/>
</svg>
