<svg preserveAspectRatio="none" width="100%" height="100%" overflow="visible" style="display: block;" viewBox="0 0 32 35" fill="none" xmlns="http://www.w3.org/2000/svg">
<path id="Vector" d="M18.7657 34.253C16.7732 34.2624 14.7761 34.2765 12.7836 34.2907C12.7601 31.4033 12.7412 28.5206 12.7177 25.6332C10.5651 25.6474 8.41251 25.6662 6.25992 25.6897C6.26463 26.3445 6.27406 26.9945 6.27877 27.6492C4.28162 27.6681 2.27977 27.6916 0.282618 27.7152C0.188413 20.0092 0.0942051 12.3079 0 4.60192C4.18742 4.55011 8.37483 4.50772 12.5622 4.47945C12.5528 2.9863 12.5387 1.49315 12.5293 0C14.55 0.0706539 16.5707 0.150728 18.5914 0.226092C19.3215 0.259064 19.6276 0.296746 19.6276 0.673567C19.6276 1.01271 19.2838 1.12575 18.5961 1.43192C18.6008 2.4352 18.6055 3.43849 18.6102 4.44177C22.8494 4.42293 27.0887 4.4088 31.3232 4.4088C31.3232 12.0112 31.3232 19.6182 31.3232 27.2206C29.3119 27.2206 27.3007 27.2206 25.2894 27.23C25.2894 26.6789 25.2894 26.1278 25.2894 25.572C23.0991 25.5767 20.9088 25.5861 18.7186 25.5955C18.7327 28.4829 18.7468 31.3703 18.7609 34.253H18.7657ZM12.6046 9.48175C10.4379 9.49588 8.27121 9.51472 6.10449 9.53827C6.11391 10.5651 6.12333 11.5967 6.13275 12.6235C8.29476 12.5999 10.4615 12.5811 12.6235 12.567C12.6141 11.5401 12.6094 10.5086 12.5999 9.48175H12.6046ZM12.6612 17.3526C10.5039 17.3667 8.34187 17.3856 6.18457 17.4091C6.19399 18.4736 6.2034 19.5429 6.21753 20.6074C8.37483 20.5838 10.5321 20.5697 12.6894 20.5509C12.68 19.4863 12.6753 18.4171 12.6659 17.3526H12.6612ZM18.6573 12.534C20.857 12.5246 23.0614 12.5152 25.2611 12.5104C25.2611 11.4836 25.2564 10.4521 25.2517 9.42522C23.0473 9.42993 20.8429 9.43936 18.6385 9.44878C18.6432 10.4756 18.6479 11.5072 18.6526 12.534H18.6573ZM18.695 20.5132C20.89 20.5037 23.085 20.4943 25.2799 20.4896C25.2799 19.4251 25.2752 18.3559 25.2705 17.2914C23.0708 17.2961 20.8759 17.3055 18.6762 17.3149C18.6809 18.3794 18.6856 19.4487 18.6903 20.5132H18.695Z" fill="var(--fill-0, #14B8A6)"/>
</svg>
