<svg preserveAspectRatio="none" width="100%" height="100%" overflow="visible" style="display: block;" viewBox="0 0 8 23" fill="none" xmlns="http://www.w3.org/2000/svg">
<path id="Vector" d="M4.46642 22.573C4.06507 22.573 3.67888 22.361 3.47189 21.9849C1.38692 18.2062 0.147541 15.9193 0.137444 15.8966C-0.0796361 15.4978 -0.0367229 15.0081 0.245986 14.6522L4.61535 9.12671L0.813927 5.00472C0.452969 4.61347 0.412582 4.02533 0.715484 3.58865L2.86104 0.488951C3.21695 -0.0259822 3.92625 -0.154712 4.44118 0.201198C4.95611 0.557108 5.08485 1.2664 4.72894 1.78133L3.10084 4.13387L6.94265 8.30131C7.32127 8.71275 7.34399 9.33622 6.99818 9.77543L2.49251 15.475C2.99987 16.409 4.03226 18.2971 5.46347 20.8919C5.76638 21.4422 5.56697 22.1313 5.01669 22.4342C4.84252 22.5301 4.65574 22.5756 4.46895 22.5756L4.46642 22.573Z" fill="var(--fill-0, #212C68)"/>
</svg>
