<svg preserveAspectRatio="none" width="100%" height="100%" overflow="visible" style="display: block;" viewBox="0 0 63 57" fill="none" xmlns="http://www.w3.org/2000/svg">
<path id="Vector" d="M36.6523 42.2114C36.6523 42.2114 29.0412 39.0452 23.9157 39.475C14.61 40.2604 9.38251 46.2456 7.69882 43.231C6.73985 41.517 9.31086 39.0755 12.8105 37.0666C15.8472 35.3223 18.3301 34.5176 18.3301 34.5176C18.3301 34.5176 14.4115 35.077 10.38 36.025C6.34855 36.9729 2.12967 39.7837 1.23685 36.4218C0.603052 34.0327 6.35131 31.8171 9.00774 30.9188C11.6642 30.0204 17.6191 29.1634 17.6191 29.1634C17.6191 29.1634 14.3123 28.6013 9.28331 28.8906C4.25703 29.18 3.36971 30.0452 1.73286 29.5933C0.0932591 29.1414 -0.372444 27.6534 0.291665 26.3389C1.36636 24.2088 5.91041 23.8781 8.89752 23.5282C13.403 23.0018 18.049 22.8696 18.049 22.8696L18.7792 20.6072C18.7792 20.6072 16.4259 18.7306 12.433 17.4878C5.30692 15.2723 2.61191 13.6657 4.10271 11.475C5.53013 9.37247 11.3032 10.7971 15.2961 12.2962C19.2339 13.7732 26.1395 16.945 26.1395 16.945L32.7393 15.4128C32.7393 15.4128 31.017 10.8412 30.7029 8.64498C30.3887 6.45149 29.5868 0.78039 32.4114 0.102504C35.6575 -0.677341 36.2637 3.12544 37.2392 6.99711C38.2395 10.968 41.6979 13.291 46.0352 18.2952C50.1522 23.0432 49.5101 28.706 50.5517 31.1337C52.635 34.311 62.4258 43.862 62.4258 43.862C62.4258 43.862 62.6958 45.9866 58.0333 51.1093C53.3707 56.2321 49.6727 56.1521 49.6727 56.1521L36.6495 42.2114H36.6523Z" fill="var(--fill-0, white)"/>
</svg>
