<svg preserveAspectRatio="none" width="100%" height="100%" overflow="visible" style="display: block;" viewBox="0 0 50 72" fill="none" xmlns="http://www.w3.org/2000/svg">
<path id="Vector" d="M16.9269 71.275C16.4641 71.275 16.0039 71.254 15.549 71.2093C9.10127 70.5782 -0.977914 57.709 0.0765474 45.6471C0.449948 41.3767 0.276404 38.7129 0.134406 36.5724C0.0791853 35.7231 0.0265931 34.9184 0.0187043 34.148C-0.00233231 31.1976 0.478877 15.9697 11.9964 5.81425C17.3713 1.07574 25.5756 -0.46256 31.3265 0.115947C39.0049 0.889044 44.548 5.43559 47.3538 13.2665C49.8361 20.1928 49.5626 27.8291 49.3312 30.79C48.9157 36.0623 48.4766 41.1006 48.4713 41.1505L47.7824 49.0235C47.7245 49.6756 47.1487 50.1569 46.4992 50.099C45.847 50.0412 45.3658 49.4679 45.4237 48.8158L46.1126 40.9428C46.1179 40.8928 46.557 35.8625 46.9698 30.6007C47.1907 27.7923 47.4537 20.5583 45.1239 14.0606C42.6126 7.05278 37.8899 3.15048 31.0872 2.46679C25.8491 1.94088 18.3995 3.31878 13.5584 7.58658C2.81132 17.061 2.36429 31.3554 2.38269 34.1243C2.38795 34.8264 2.43791 35.5601 2.49313 36.412C2.63776 38.634 2.8192 41.3977 2.43002 45.8496C1.45708 56.9622 11.0182 68.3851 15.7751 68.8505C24.2792 69.6815 35.5969 60.8277 35.71 60.7383C36.2228 60.3333 36.9669 60.4201 37.3719 60.9329C37.7768 61.4456 37.6901 62.1898 37.1773 62.5948C36.7092 62.9655 26.0962 71.2698 16.9216 71.2698L16.9269 71.275Z" fill="var(--fill-0, #202933)"/>
</svg>
