<svg preserveAspectRatio="none" width="100%" height="100%" overflow="visible" style="display: block;" viewBox="0 0 56 54" fill="none" xmlns="http://www.w3.org/2000/svg">
<path id="Vector" d="M32.6349 53.8553C30.6811 53.8553 29.4093 53.7984 28.1731 53.7345C27.3134 53.6918 26.6171 53.024 26.5532 52.1643C26.1411 46.8853 24.8551 44.3631 24.1588 43.006L24.0878 42.8639C23.7822 42.26 23.8604 41.5353 24.2867 41.0167C24.713 40.4909 25.4093 40.2706 26.0558 40.4483L26.1269 40.4696C27.4768 40.8391 31.0506 41.8266 33.587 41.8266C35.0933 41.8266 35.7754 41.8266 36.5356 38.5513C36.969 36.5903 37.5658 33.2652 37.8357 26.7358H27.1215C25.8711 34.4233 22.7165 43.4608 11.1781 53.2229C10.5387 53.7629 9.60792 53.7629 8.97558 53.2229C4.6629 49.5568 3.44087 48.8463 1.19572 48.15C0.57759 47.9582 0.129984 47.4395 0.0234105 46.8001C-0.0831632 46.1677 0.179706 45.5283 0.698364 45.1446C14.6808 34.9349 15.2137 26.8211 15.3416 11.3394H2.3254C1.38755 11.3394 0.620221 10.5792 0.620221 9.63426V1.70518C0.620221 0.767326 1.38044 0 2.3254 0H53.836C54.7739 0 55.5412 0.760221 55.5412 1.70518V9.63426C55.5412 10.5721 54.781 11.3394 53.836 11.3394H28.2299C28.1944 13.0446 28.166 14.1743 28.1447 14.9416H48.8271C49.7649 14.9416 50.5322 15.7019 50.5322 16.6468C50.5322 16.8742 50.0207 40.6401 46.8306 47.475C44.0384 53.3863 38.9725 53.8553 32.6349 53.8553ZM29.8001 50.3952C30.6029 50.4236 31.4911 50.4449 32.6349 50.4449C39.2922 50.4449 41.9708 49.777 43.747 46.0185C46.0277 41.1446 46.8945 24.4196 47.0864 18.3378H26.3968C25.459 18.3378 24.6917 17.5776 24.6917 16.6326C24.6917 16.4834 24.6917 16.3058 24.7059 15.9505C24.7272 15.2187 24.7769 13.6485 24.8551 9.59163C24.8693 8.66089 25.6295 7.92197 26.5602 7.92197H52.1308V3.40325H4.03057V7.92197H17.061C17.5157 7.92197 17.9491 8.0996 18.2688 8.42643C18.5885 8.74615 18.7662 9.18665 18.7662 9.64136C18.6596 25.4001 18.5885 35.2262 5.09631 46.0754C6.46756 46.8143 7.91697 47.88 10.0769 49.6776C20.5637 40.3985 23.0007 31.9082 23.9812 24.7961C24.0949 23.9507 24.8195 23.3254 25.6721 23.3254H39.6191C40.0809 23.3254 40.5214 23.5102 40.8412 23.8441C41.1609 24.1709 41.3385 24.6185 41.3243 25.0803C41.0898 32.9881 40.429 36.8319 39.8749 39.3044C38.6031 44.7823 36.0809 45.237 33.6012 45.237C31.9884 45.237 30.1624 44.9386 28.5638 44.5904C29.0541 46.0256 29.523 47.9084 29.8143 50.3952H29.8001Z" fill="var(--fill-0, #14B8A6)"/>
</svg>
