<svg preserveAspectRatio="none" width="100%" height="100%" overflow="visible" style="display: block;" viewBox="0 0 76 74" fill="none" xmlns="http://www.w3.org/2000/svg">
<path id="Vector" d="M38.2317 42.7515C39.4772 41.8091 46.7135 39.0424 51.8363 39.475C61.1421 40.2576 66.3695 46.2456 68.0532 43.231C69.0122 41.517 66.4412 39.0755 62.9415 37.0666C59.9048 35.3223 57.422 34.5177 57.422 34.5177C57.422 34.5177 61.3405 35.077 65.372 36.025C69.4034 36.9729 73.6223 39.7837 74.5152 36.4218C75.149 34.0327 69.4007 31.8171 66.7443 30.9188C64.0879 30.0205 58.1329 29.1634 58.1329 29.1634C58.1329 29.1634 61.4397 28.6013 66.4687 28.8906C71.4978 29.18 72.3823 30.0452 74.0191 29.5933C75.6587 29.1414 76.1245 27.6534 75.4604 26.3389C74.3857 24.2088 69.8416 23.8781 66.8545 23.5282C62.349 23.0018 57.703 22.8696 57.703 22.8696L56.9728 20.6072C56.9728 20.6072 59.3261 18.7306 63.319 17.4878C70.4451 15.2723 73.1401 13.6657 71.6493 11.475C70.2219 9.37247 64.4488 10.7971 60.4559 12.2962C56.5181 13.7732 49.6125 16.945 49.6125 16.945L43.0128 15.4128C43.0128 15.4128 44.735 10.8412 45.0491 8.64498C45.3633 6.45149 46.1652 0.78039 43.3407 0.102504C40.0945 -0.677341 39.4883 3.12544 38.5128 6.99711C37.5125 10.968 34.0542 13.291 29.7168 18.2952C25.5999 23.0432 25.3491 29.7642 24.3102 32.1891C23.1033 33.9307 0 60.1285 0 60.1285C0 60.1285 0.857003 63.0688 6.0624 67.7837C11.4827 72.6942 15.5528 73.5402 15.5528 73.5402C15.5528 73.5402 37.4601 43.3357 38.2317 42.7515Z" fill="var(--fill-0, white)"/>
</svg>
