<svg preserveAspectRatio="none" width="100%" height="100%" overflow="visible" style="display: block;" viewBox="0 0 15 15" fill="none" xmlns="http://www.w3.org/2000/svg">
<path id="Vector" d="M5.55554 0.310365C5.4107 0.310365 5.33828 0.382784 5.33828 0.527621V5.91246C5.33828 6.05729 5.4107 6.12971 5.55554 6.12971H13.3767C13.5216 6.12971 13.594 6.05729 13.594 5.91246V0.527621C13.594 0.382784 13.5216 0.310365 13.3767 0.310365H5.55554ZM0.0155183 8.51952C0.00517275 8.54021 0 8.57125 0 8.61263C0 8.68505 0.0310365 8.7523 0.0931095 8.81437C0.724185 9.44545 1.27508 10.2136 1.7458 11.1188C2.21652 12.0241 2.5812 12.9681 2.83984 13.9509C2.87088 14.0958 2.95881 14.1527 3.10365 14.1216L4.671 13.8423C4.82618 13.8112 4.87791 13.7233 4.82618 13.5785C4.51581 12.4405 4.17441 11.4887 3.80197 10.7231V0.217256C3.80197 0.0724185 3.72955 0 3.58472 0H2.07945C1.93461 0 1.86219 0.0724185 1.86219 0.217256V7.71257C1.70701 7.49532 1.50268 7.23151 1.24922 6.92114C0.995755 6.61078 0.822468 6.4556 0.729358 6.4556C0.65694 6.4556 0.605212 6.50732 0.574176 6.61078L0.0155183 8.51952ZM4.51581 8.72126C4.51581 8.8661 4.58823 8.93852 4.73307 8.93852H6.5487C6.40387 9.65236 6.21765 10.3559 5.99005 11.049H5.1831C5.03826 11.049 4.96584 11.1214 4.96584 11.2663V12.6008C4.96584 12.7457 5.03826 12.8181 5.1831 12.8181H8.36434V13.9354C8.36434 14.0802 8.43676 14.1527 8.5816 14.1527H10.18C10.3248 14.1527 10.3972 14.0802 10.3972 13.9354V12.8181H13.7802C13.925 12.8181 13.9975 12.7457 13.9975 12.6008V11.2663C13.9975 11.1214 13.925 11.049 13.7802 11.049H12.8181C12.6939 10.3765 12.5129 9.67305 12.2749 8.93852H14.1837C14.3285 8.93852 14.4009 8.8661 14.4009 8.72126V7.34014C14.4009 7.1953 14.3285 7.12288 14.1837 7.12288H4.73307C4.58823 7.12288 4.51581 7.1953 4.51581 7.34014V8.72126ZM11.6387 4.4227H7.3091V2.01737H11.6387V4.4227ZM7.88327 11.049C8.07984 10.48 8.2764 9.7765 8.47297 8.93852H10.3352C10.5628 9.60063 10.7542 10.3041 10.9093 11.049H7.88327Z" fill="var(--fill-0, #F43F5E)"/>
</svg>
