<svg preserveAspectRatio="none" width="100%" height="100%" overflow="visible" style="display: block;" viewBox="0 0 28 17" fill="none" xmlns="http://www.w3.org/2000/svg">
<path id="Vector" d="M24.6399 16.3305C24.4609 16.3305 24.2819 16.2645 24.1406 16.1326C23.8486 15.8594 23.8344 15.3978 24.1076 15.1058L25.4312 13.6927L14.4657 1.79932L1.25817 16.0667C0.984973 16.3587 0.523368 16.3776 0.231332 16.1044C-0.0607042 15.8312 -0.0795443 15.3743 0.193651 15.0775L13.9382 0.235513C14.0748 0.0847846 14.2679 0 14.4704 0C14.673 0 14.8661 0.0847846 15.0027 0.235513L26.9573 13.2076C27.2164 13.4855 27.2117 13.9188 26.9573 14.1967L25.1674 16.0997C25.0261 16.2504 24.833 16.3305 24.6399 16.3305Z" fill="var(--fill-0, #14B8A6)"/>
</svg>
