<svg preserveAspectRatio="none" width="100%" height="100%" overflow="visible" style="display: block;" viewBox="0 0 7 10" fill="none" xmlns="http://www.w3.org/2000/svg">
<path id="Vector" d="M1.86335 0C1.81366 0 1.78054 0.0165631 1.76398 0.0496894C1.74741 0.0828157 1.75569 0.124224 1.78882 0.173913L4.47205 3.7764C4.06625 3.54451 3.59834 3.42857 3.06832 3.42857C2.46377 3.42857 1.92961 3.56108 1.46584 3.82609C1.00207 4.0911 0.641822 4.46377 0.385093 4.9441C0.128364 5.42443 0 5.9793 0 6.6087C0 7.24638 0.138716 7.80745 0.416149 8.29193C0.693582 8.7764 1.08075 9.15321 1.57764 9.42236C2.07453 9.69151 2.6501 9.82609 3.30435 9.82609C3.95859 9.82609 4.53416 9.68737 5.03106 9.40994C5.52795 9.13251 5.91511 8.74534 6.19255 8.24845C6.46998 7.75155 6.6087 7.18427 6.6087 6.54658C6.6087 5.96687 6.48654 5.39337 6.24224 4.82609C5.99793 4.2588 5.56522 3.55694 4.9441 2.7205L2.98137 0.0869565C2.93996 0.0289855 2.88613 0 2.81988 0H1.86335ZM3.31677 4.39752C3.96273 4.39752 4.4824 4.5942 4.87578 4.98758C5.26915 5.38095 5.46584 5.91304 5.46584 6.58385C5.46584 7.2381 5.26915 7.7619 4.87578 8.15528C4.4824 8.54865 3.96273 8.74534 3.31677 8.74534C2.65424 8.74534 2.12629 8.54865 1.73292 8.15528C1.33954 7.7619 1.14286 7.2381 1.14286 6.58385C1.14286 5.91304 1.33954 5.38095 1.73292 4.98758C2.12629 4.5942 2.65424 4.39752 3.31677 4.39752Z" fill="var(--fill-0, #64748B)"/>
</svg>
