<svg preserveAspectRatio="none" width="100%" height="100%" overflow="visible" style="display: block;" viewBox="0 0 15 32" fill="none" xmlns="http://www.w3.org/2000/svg">
<path id="Vector" d="M5.11979 31.3372C4.55942 31.3372 4.07477 30.9232 3.99652 30.3603L0.0108352 2.00865C-0.0320759 1.7007 0.0537483 1.38769 0.245586 1.14285C0.439949 0.898003 0.725183 0.746554 1.03566 0.718788L9.11304 0.00444707C9.71632 -0.0485608 10.254 0.378023 10.3373 0.978779L14.323 29.3304C14.3659 29.6384 14.2801 29.9514 14.0882 30.1962C13.8939 30.4411 13.6086 30.5925 13.2981 30.6203L5.22076 31.3346C5.18794 31.3371 5.1526 31.3397 5.11979 31.3397V31.3372ZM2.429 2.87697L6.09665 28.977L11.9073 28.4621L8.23968 2.36203L2.429 2.87697Z" fill="var(--fill-0, #212C68)"/>
</svg>
