<svg preserveAspectRatio="none" width="100%" height="100%" overflow="visible" style="display: block;" viewBox="0 0 64 65" fill="none" xmlns="http://www.w3.org/2000/svg">
<path id="Vector" d="M22.5388 64.1136C22.1147 64.1136 21.7083 63.8763 21.5139 63.4674C21.2439 62.9019 21.4837 62.2229 22.0491 61.9529L60.187 43.7409C58.3191 42.5065 54.967 40.2524 50.373 36.9912C47.9144 35.2445 46.9981 32.9449 45.7057 25.2689C45.0999 21.6618 45.423 9.12672 45.6023 3.65429L33.4458 13.8974C33.4281 13.9126 33.4104 13.9252 33.3928 13.9403L22.2611 22.2373V25.0796C22.2611 27.7098 21.9784 31.3446 21.4559 32.9045C21.2817 33.422 21.0445 34.1313 11.2405 41.1283C7.91112 43.5061 4.57919 45.8157 2.89808 46.9769L17.291 61.5061C17.7327 61.9529 17.7302 62.6697 17.2834 63.1115C16.8366 63.5532 16.1198 63.5507 15.678 63.1039L0.328463 47.6079C0.0911894 47.3681 -0.0274393 47.0374 0.00537508 46.7017C0.0381895 46.366 0.217407 46.0631 0.495068 45.8713C7.71171 40.9264 18.2123 33.4548 19.3356 32.0741C19.694 30.8726 19.9893 27.7325 19.9893 25.077V21.6643C19.9893 21.3059 20.1585 20.9677 20.4462 20.7531L32.007 12.1355L46.0945 0.266831C46.4377 -0.0234506 46.9224 -0.0815045 47.3263 0.115382C47.7301 0.312268 47.98 0.731283 47.9624 1.18059C47.9548 1.37495 47.2202 20.5613 47.9472 24.8903C49.1866 32.2634 49.9691 33.9167 51.6881 35.1384C58.9476 40.2928 63.0696 42.9079 63.11 42.9331C63.4583 43.1553 63.6603 43.5465 63.6375 43.9605C63.6123 44.3719 63.3649 44.7404 62.9939 44.9171L23.031 64.0025C22.872 64.0782 22.7054 64.1136 22.5413 64.1136H22.5388Z" fill="var(--fill-0, #212C68)"/>
</svg>
