<svg preserveAspectRatio="none" width="100%" height="100%" overflow="visible" style="display: block;" viewBox="0 0 7 21" fill="none" xmlns="http://www.w3.org/2000/svg">
<path id="Vector" d="M1.24059 20.7917C0.807952 20.7917 0.3891 20.5658 0.160382 20.1607C-0.175805 19.5655 0.0336182 18.8077 0.628836 18.4715C0.750084 18.3971 4.00725 16.3028 3.29905 8.46579C2.92979 4.39296 3.50848 1.94044 3.886 0.838187C4.10921 0.190613 4.81465 -0.153838 5.46222 0.0666126C6.1098 0.289819 6.45425 0.995262 6.2338 1.64284C5.91966 2.55495 5.44293 4.62719 5.77085 8.24258C6.63612 17.8102 2.04799 20.5189 1.85234 20.6292C1.65944 20.7394 1.45002 20.789 1.24335 20.789L1.24059 20.7917Z" fill="var(--fill-0, #202933)"/>
</svg>
