<svg preserveAspectRatio="none" width="100%" height="100%" overflow="visible" style="display: block;" viewBox="0 0 59 69" fill="none" xmlns="http://www.w3.org/2000/svg">
<path id="Vector" d="M7.78915 68.45C7.52186 68.45 7.26007 68.3646 7.03962 68.1965C6.90184 68.089 3.63365 65.5373 1.59172 60.9078C-0.295888 56.6311 -1.45049 49.7199 3.75766 41.0783C8.8859 32.5716 16.6485 29.8022 24.8658 26.8702C26.5054 26.286 28.2001 25.6798 29.8728 25.0294C35.5797 22.8029 39.4128 18.1817 41.2646 11.3009C42.681 6.0431 42.3476 1.37782 42.3448 1.33373C42.32 0.989272 42.4385 0.650331 42.6728 0.396812C42.907 0.143294 43.2377 0 43.5821 0H56.8698C57.5559 0 58.1098 0.553883 58.1098 1.24004C58.1098 1.92619 57.5559 2.48007 56.8698 2.48007H44.8635C44.8773 4.33737 44.7367 7.91143 43.6786 11.874C41.6477 19.4906 37.1863 24.8393 30.7739 27.3414C29.0682 28.0083 27.3569 28.6173 25.698 29.2097C17.9078 31.9874 10.5503 34.6135 5.87949 42.3624C-0.926929 53.6522 4.047 61.4865 6.91561 64.6665C7.91315 61.0787 11.5726 54.647 24.8135 50.4805C45.6488 43.9221 49.7685 22.508 49.8071 22.2931C49.9283 21.618 50.5759 21.1716 51.2483 21.2956C51.9234 21.4168 52.3698 22.0644 52.2458 22.7367C52.2017 22.9737 51.1518 28.598 47.3491 35.1399C43.8301 41.1968 37.1918 49.1826 25.5575 52.8448C16.7174 55.628 12.6914 59.4005 10.87 62.0735C8.94376 64.9007 9.02919 67.1218 9.03194 67.1438C9.05674 67.6261 8.79771 68.0863 8.36783 68.3095C8.1832 68.4059 7.9848 68.4528 7.7864 68.4528L7.78915 68.45Z" fill="var(--fill-0, #202933)"/>
</svg>
