<svg preserveAspectRatio="none" width="100%" height="100%" overflow="visible" style="display: block;" viewBox="0 0 27 27" fill="none" xmlns="http://www.w3.org/2000/svg">
<path id="Vector" d="M15.6993 25.8263C14.4275 25.8829 13.1557 25.9394 11.884 25.9959C11.8133 24.3897 11.7427 22.7835 11.6673 21.1773C9.03899 23.5277 5.57224 25.6945 3.99901 26.2738C2.53883 24.531 1.75693 24.093 0.946763 23.6596C5.33672 21.9639 8.23353 19.4063 8.91181 18.8175C6.18457 18.9399 3.45733 19.0718 0.72538 19.2037C0.673567 18.1816 0.626465 17.1642 0.574652 16.142C4.18742 15.9631 7.80019 15.7982 11.4177 15.6333C11.4035 15.3554 11.3941 15.0775 11.38 14.7996C8.84586 14.9127 6.30704 15.0304 3.77292 15.1529C3.73052 14.2156 3.68342 13.2782 3.64103 12.3409C6.17986 12.2184 8.71869 12.1006 11.2575 11.9876C11.2481 11.7285 11.234 11.4695 11.2245 11.2104C8.05454 11.3517 4.88454 11.4977 1.71924 11.6532C1.67214 10.6593 1.62504 9.66545 1.57323 8.67629C3.36313 8.59151 5.14831 8.50672 6.93821 8.42194C6.78277 8.09222 6.31646 7.22082 6.25522 7.11249C4.22039 7.20669 2.18556 7.30561 0.150728 7.40452C0.0989153 6.3824 0.0518128 5.36498 0 4.34286C1.1493 4.28633 2.29861 4.22981 3.45262 4.178C2.95804 3.36312 2.71782 3.01456 2.28919 2.42107C3.34428 1.71924 4.39938 1.01742 5.45448 0.320298C6.18457 1.34713 7.07481 2.84029 7.38568 3.38196C7.00886 3.60335 6.63204 3.82473 6.25522 4.04611C6.90524 4.01785 7.55525 3.98488 8.20527 3.95661C8.15345 2.83557 8.10164 1.70982 8.04983 0.588782C9.30747 0.579362 10.5651 0.56994 11.8227 0.56052C12.1054 0.546389 12.3927 0.588781 12.4021 0.843135C12.4162 1.12104 12.2184 1.21525 11.8604 1.39895C11.8934 2.19498 11.9311 2.99572 11.9688 3.79176C12.4304 3.77292 12.892 3.74936 13.3536 3.73052C13.3065 2.60948 13.2547 1.48373 13.2076 0.362688C14.4746 0.353268 15.7417 0.343848 17.0087 0.339137C17.1218 0.334427 17.6069 0.339138 17.6211 0.678276C17.6305 0.956182 17.2443 1.13988 17.0464 1.20582C17.0794 1.99244 17.1124 2.78376 17.1453 3.57037C17.8801 3.5374 18.6149 3.50914 19.3544 3.47617C18.8081 3.29247 18.2617 3.11348 17.7153 2.92978C18.0026 2.35984 18.6903 1.1022 19.0389 0C20.3719 0.400372 21.7002 0.800743 23.0332 1.20582C23.1792 1.25764 23.2969 1.36126 23.3016 1.50257C23.3158 1.89352 22.8636 1.8841 22.4962 1.89823C22.256 2.27034 22.1759 2.38339 21.6483 3.38196C22.9484 3.33015 24.2531 3.27834 25.5531 3.22653C25.5908 4.24865 25.6332 5.27078 25.6709 6.28819C23.6832 6.36356 21.6954 6.44363 19.7077 6.52842C19.5052 7.09365 19.3026 7.65888 19.199 7.88968C20.8193 7.82374 22.4397 7.75779 24.0553 7.69185C24.093 8.68571 24.1354 9.67958 24.173 10.6734C21.1349 10.7959 18.0968 10.9184 15.0587 11.0503C15.0681 11.3093 15.0822 11.5684 15.0917 11.8275C17.5551 11.7191 20.0186 11.6202 22.4821 11.5213C22.5197 12.4586 22.5574 13.396 22.5951 14.3333C20.1363 14.4322 17.6729 14.5359 15.2141 14.6395C15.2283 14.9174 15.2377 15.1953 15.2518 15.4732C18.8363 15.3178 22.4255 15.1717 26.01 15.0304C26.0477 16.0526 26.0901 17.0747 26.1278 18.0921C23.4288 18.1957 20.7251 18.3088 18.0262 18.4218C21.2857 20.9041 24.6723 21.9404 26.3256 22.435C24.3614 24.0176 23.9705 24.7288 23.6596 25.3836C21.7849 24.8702 17.9414 23.0237 15.4873 20.8994C15.558 22.5433 15.6286 24.1825 15.6993 25.8263ZM10.6075 6.91466C10.8242 7.35271 10.9184 7.54112 11.2622 8.22411C12.4492 8.1723 13.6362 8.12048 14.8232 8.06867C15.0022 7.64004 15.1058 7.44221 15.3884 6.70741C13.7963 6.77806 12.2043 6.844 10.6122 6.91937L10.6075 6.91466Z" fill="var(--fill-0, #0F172A)"/>
</svg>
