<svg preserveAspectRatio="none" width="100%" height="100%" overflow="visible" style="display: block;" viewBox="0 0 15 20" fill="none" xmlns="http://www.w3.org/2000/svg">
<path id="Vector" d="M13.1402 0.336605C12.11 -0.302837 10.7387 -0.00443093 10.0851 1.00447C6.75999 6.12 3.44198 11.2355 0.145302 16.3653C0.0103085 16.5713 -0.0323089 16.8271 0.0245305 17.0687C0.0813698 17.3102 0.23057 17.5234 0.443718 17.6513C1.16131 18.0918 1.8718 18.5323 2.58939 18.9799C2.7457 19.0794 2.92334 19.122 3.09386 19.122C3.41358 19.122 3.71908 18.9728 3.90381 18.6886C7.20759 13.566 10.5256 8.45042 13.8578 3.34198C14.5115 2.34019 14.2059 1.00447 13.1473 0.34371L13.1402 0.336605Z" fill="var(--fill-0, #14B8A6)"/>
</svg>
