<svg preserveAspectRatio="none" width="100%" height="100%" overflow="visible" style="display: block;" viewBox="0 0 15 7" fill="none" xmlns="http://www.w3.org/2000/svg">
<path id="Vector" d="M4.29149 6.9431C4.26323 6.9431 4.23497 6.9431 4.202 6.9431L0.706989 6.85831C0.306617 6.84889 -0.0136805 6.51446 0.000450234 6.11409C0.00987075 5.71843 0.334875 5.40755 0.725827 5.40755C0.730537 5.40755 0.739961 5.40755 0.744672 5.40755L4.23968 5.49234C4.85673 5.50176 5.44079 5.27095 5.87885 4.82819L9.713 0.970486C10.933 -0.24476 12.8783 -0.329546 14.1501 0.777364C14.4515 1.04114 14.4845 1.49804 14.2207 1.80421C13.9569 2.10567 13.5 2.13864 13.1939 1.87486C12.4968 1.26724 11.4181 1.32377 10.7398 1.99733L6.90569 5.85032C6.21328 6.54744 5.26651 6.9478 4.28678 6.9478L4.29149 6.9431Z" fill="var(--fill-0, #14B8A6)"/>
</svg>
