<svg preserveAspectRatio="none" width="100%" height="100%" overflow="visible" style="display: block;" viewBox="0 0 59 53" fill="none" xmlns="http://www.w3.org/2000/svg">
<path id="Vector" d="M0.170814 34.5685C-0.487784 28.1148 0.661315 21.8016 5.31834 14.1354C11.3284 4.24546 25.9994 -3.5833 37.4987 1.70201C38.6174 2.21731 39.5351 2.70506 40.4747 3.53175C45.2916 4.02501 52.4948 9.40677 55.854 16.2104C59.2709 23.1298 57.7636 29.454 57.7636 29.454C57.7636 29.454 54.4761 15.3837 43.7044 10.374C43.7044 10.374 43.7264 11.7325 43.1312 11.4322C42.5332 11.1318 38.871 9.26899 38.9674 9.5225C40.9404 14.6838 40.3397 20.3935 37.934 23.7995C35.3355 28.2057 28.3417 29.7985 28.3417 29.7985C28.3417 29.7985 26.4789 31.9396 20.5818 35.6156C20.2236 36.999 19.8295 39.2972 20.072 42.2264C20.8794 52.0172 16.1755 52.3423 16.1755 52.3423C16.1755 52.3423 18.6666 50.1213 15.8476 45.7205C15.1642 44.6541 14.1226 43.5712 13.2794 43.1578C11.006 42.039 3.99839 42.8795 5.50848 50.7964C2.98707 47.1645 0.664067 41.3391 0.173564 34.574L0.170814 34.5685Z" fill="var(--fill-0, #FF7B22)"/>
</svg>
