<svg preserveAspectRatio="none" width="100%" height="100%" overflow="visible" style="display: block;" viewBox="0 0 76 65" fill="none" xmlns="http://www.w3.org/2000/svg">
<path id="Vector" d="M48.4326 64.0331C48.0171 64.0331 47.6148 63.8149 47.3991 63.4257C47.081 62.8551 47.2861 62.1345 47.8567 61.8164L72.1303 48.2635C70.7156 46.5569 67.2814 43.0017 61.2807 40.1039C56.1924 37.6453 51.0569 32.3677 51.0569 26.1198V3.72106L38.3008 14.4708C38.2561 14.5102 38.2061 14.5444 38.1562 14.576L24.0195 23.2299V26.1225C24.0195 32.3703 18.884 37.6479 13.7957 40.1066C7.79767 43.0044 4.36343 46.5569 2.94609 48.2661L27.2197 61.819C27.7904 62.1372 27.9955 62.8577 27.6773 63.4283C27.3591 63.9989 26.6386 64.204 26.068 63.8859L0.605759 49.6703C0.321764 49.5126 0.114032 49.2417 0.0351443 48.9262C-0.0437431 48.6106 0.0114825 48.274 0.187664 48.0006C0.33755 47.7665 3.95059 42.2391 12.7702 37.9792C16.0703 36.3857 21.6555 32.0942 21.6555 26.1251V22.5699C21.6555 22.157 21.8685 21.7758 22.2209 21.5601L36.8466 12.609L51.4802 0.27894C51.8326 -0.0182027 52.3243 -0.083942 52.7424 0.110647C53.1605 0.305236 53.4261 0.723339 53.4261 1.18352V26.1251C53.4261 32.0942 59.0114 36.3831 62.3115 37.9792C71.1311 42.2391 74.7441 47.7665 74.894 48.0006C75.0702 48.274 75.1254 48.6106 75.0465 48.9262C74.9677 49.2417 74.7599 49.5126 74.4759 49.6703L49.0137 63.8859C48.8323 63.9884 48.6324 64.0357 48.4378 64.0357L48.4326 64.0331Z" fill="var(--fill-0, #202933)"/>
</svg>
