<svg preserveAspectRatio="none" width="100%" height="100%" overflow="visible" style="display: block;" viewBox="0 0 6 5" fill="none" xmlns="http://www.w3.org/2000/svg">
<path id="Vector" d="M1.64 0.0493878C1.59429 0.0570068 1.56571 0.0817687 1.55429 0.123673L1.39429 0.775102V0.803673C1.39429 0.826531 1.4019 0.841769 1.41714 0.849388C1.43238 0.857007 1.45333 0.857007 1.48 0.849388C1.69333 0.796054 1.87429 0.769388 2.02286 0.769388C2.19048 0.769388 2.32667 0.804626 2.43143 0.875102C2.53619 0.945578 2.61524 1.0551 2.66857 1.20367C2.74095 1.40939 2.77714 1.71796 2.77714 2.12939L2.76571 2.48939C2.75429 2.6151 2.73524 2.71129 2.70857 2.77796C2.6819 2.84463 2.6419 2.89129 2.58857 2.91796C2.53524 2.94463 2.45714 2.95986 2.35429 2.96367H1.85143C1.5619 1.87796 1.20571 0.906531 0.782857 0.0493878C0.76 0.00748299 0.725714 -0.0077551 0.68 0.00367347L0.0742857 0.192245C0.0361905 0.203673 0.0171429 0.224626 0.0171429 0.255102C0.0171429 0.262721 0.0209524 0.277959 0.0285714 0.300816C0.474286 1.19605 0.817143 2.07415 1.05714 2.9351C0.721905 2.91605 0.409524 2.8932 0.12 2.86653H0.108571C0.0590476 2.86653 0.0342857 2.89129 0.0342857 2.94082L0 3.55225C0 3.60177 0.0247619 3.62653 0.0742857 3.62653C0.420952 3.64177 0.811429 3.6532 1.24571 3.66082C1.33333 4.06463 1.4 4.42653 1.44571 4.74653C1.45714 4.79605 1.48762 4.81891 1.53714 4.8151L2.14286 4.75796C2.2 4.75415 2.22476 4.72939 2.21714 4.68367C2.16 4.3332 2.09524 3.99605 2.02286 3.67225L2.56571 3.66653C2.85905 3.6551 3.07619 3.58177 3.21714 3.44653C3.3581 3.31129 3.44667 3.14558 3.48286 2.94939C3.51905 2.7532 3.53714 2.49891 3.53714 2.18653C3.53714 1.75986 3.50857 1.39415 3.45143 1.08939C3.39429 0.784626 3.26286 0.527483 3.05714 0.317959C2.85143 0.108435 2.54476 0.00367347 2.13714 0.00367347C1.99619 0.00367347 1.83048 0.0189116 1.64 0.0493878ZM3.48 3.78653C3.46476 3.80939 3.45714 3.82653 3.45714 3.83796C3.45714 3.86463 3.47429 3.88367 3.50857 3.8951L4.05714 4.08939C4.06476 4.0932 4.07619 4.0951 4.09143 4.0951C4.1181 4.0951 4.14286 4.08177 4.16571 4.0551C4.63048 3.4151 4.91619 2.76939 5.02286 2.11796C5.02667 2.11415 5.02857 2.10844 5.02857 2.10082C5.02857 2.06653 5.00952 2.03986 4.97143 2.02082L4.37714 1.79796C4.36191 1.79034 4.35048 1.78653 4.34286 1.78653C4.30857 1.78653 4.28762 1.80939 4.28 1.8551C4.18095 2.56748 3.91429 3.21129 3.48 3.78653Z" fill="var(--fill-0, white)"/>
</svg>
