<svg preserveAspectRatio="none" width="100%" height="100%" overflow="visible" style="display: block;" viewBox="0 0 16 14" fill="none" xmlns="http://www.w3.org/2000/svg">
<path id="Vector" d="M0 0C0.0636961 1.32806 0.23886 2.45548 0.528678 3.38226C0.812125 4.30904 1.18156 5.07658 1.64336 5.68488C2.10834 6.29954 2.6402 6.79637 3.23258 7.17855C3.82495 7.56391 4.4651 7.87921 5.14983 8.12125C5.84093 8.3633 6.54796 8.57668 7.2741 8.7614C8.0066 8.9493 8.74229 9.14995 9.48117 9.36333C10.22 9.57671 10.9366 9.84423 11.6373 10.1723C12.3411 10.5003 13.0004 10.9271 13.6119 11.4589C14.2297 11.9844 14.787 12.6532 15.2839 13.4654C15.1151 12.0672 14.8412 10.8761 14.459 9.892C14.0768 8.91108 13.615 8.09259 13.0704 7.43333C12.5227 6.77408 11.9112 6.22629 11.2424 5.78998C10.5704 5.36003 9.85697 4.99377 9.10217 4.69122C8.35056 4.39185 7.57665 4.11477 6.78363 3.85043C5.99062 3.58291 5.1976 3.29309 4.40459 2.97461C3.61794 2.65294 2.8504 2.25484 2.10197 1.78668C1.35991 1.31532 0.65607 0.72295 0 0.00318427" fill="var(--fill-0, white)"/>
</svg>
