<svg preserveAspectRatio="none" width="100%" height="100%" overflow="visible" style="display: block;" viewBox="0 0 12 12" fill="none" xmlns="http://www.w3.org/2000/svg">
<path id="Vector" d="M1.1368 11.6585C0.838947 11.6585 0.551209 11.5424 0.336654 11.3303C0.0867594 11.083 -0.0344138 10.7321 0.00849733 10.3838L1.16712 0.996336C1.24285 0.390532 1.78302 -0.0486742 2.39134 0.00433367L10.5268 0.703538C10.8751 0.733828 11.1932 0.923136 11.3825 1.21847C11.5718 1.5138 11.6172 1.87728 11.5011 2.21047C11.3547 2.62948 10.0321 6.34257 8.39134 8.08678C5.61221 11.0401 1.45992 11.6257 1.28322 11.6509C1.23274 11.6585 1.18226 11.661 1.13178 11.661L1.1368 11.6585ZM3.28994 2.36193L2.46452 9.0384C3.69128 8.65725 5.44055 7.91009 6.74051 6.52683C7.50534 5.71405 8.29288 4.09352 8.82296 2.83648L3.28741 2.36193H3.28994Z" fill="var(--fill-0, #212C68)"/>
</svg>
