<svg preserveAspectRatio="none" width="100%" height="100%" overflow="visible" style="display: block;" viewBox="0 0 13 23" fill="none" xmlns="http://www.w3.org/2000/svg">
<path id="Vector" d="M5.58337 22.0923C5.5556 22.0923 5.52785 22.0923 5.50008 22.0897C5.00787 22.0519 4.59389 21.701 4.47778 21.2189C4.44749 21.0952 1.54468 8.86807 0.0225989 1.36114C-0.101086 0.74524 0.2952 0.147004 0.911101 0.023319C1.52448 -0.10289 2.12525 0.295936 2.24893 0.911837C3.25861 5.90215 4.88669 12.9976 5.86608 17.1979L9.86692 7.21977C10.0991 6.63669 10.7605 6.35398 11.3436 6.58873C11.9266 6.82095 12.2094 7.48229 11.9746 8.06538L6.63597 21.383C6.4618 21.8171 6.04277 22.0973 5.58337 22.0973V22.0923Z" fill="var(--fill-0, #212C68)"/>
</svg>
