<svg preserveAspectRatio="none" width="100%" height="100%" overflow="visible" style="display: block;" viewBox="0 0 20 18" fill="none" xmlns="http://www.w3.org/2000/svg">
<path id="Vector" d="M3.77209 17.9755C3.39527 17.9755 3.05614 17.7211 2.96664 17.3396C1.99162 13.1946 1.00718 9.04954 0.0227315 4.90923C-0.0290814 4.69256 0.00860125 4.46646 0.126358 4.28276C0.244114 4.09906 0.427817 3.96247 0.644489 3.91536C6.42397 2.6012 12.2929 1.29175 18.0819 0.0199819C18.5246 -0.0789335 18.9627 0.198972 19.0663 0.641736L19.8388 3.98602C19.9424 4.42878 19.6645 4.87626 19.2217 4.97517C18.779 5.07409 18.3362 4.80089 18.2326 4.35813L17.6438 1.80988C12.3872 2.9686 7.07869 4.15559 1.83147 5.34257C2.75468 9.2144 3.66847 13.0909 4.58226 16.9675C4.68588 17.4103 4.41269 17.8577 3.96993 17.9614C3.90399 17.9755 3.84276 17.9849 3.78152 17.9849L3.77209 17.9755Z" fill="var(--fill-0, #14B8A6)"/>
</svg>
