<svg preserveAspectRatio="none" width="100%" height="100%" overflow="visible" style="display: block;" viewBox="0 0 10 19" fill="none" xmlns="http://www.w3.org/2000/svg">
<path id="Vector" d="M1.13486 18.9983C0.831962 18.9983 0.539159 18.8771 0.324603 18.6575C0.0772332 18.4051 -0.0388845 18.0492 0.0115992 17.6983L0.680514 13.0867C0.771385 12.4657 1.34689 12.0341 1.96784 12.1249C2.58879 12.2158 3.0179 12.7913 2.92956 13.4123L2.52064 16.2394C4.65105 15.1843 7.21563 12.496 7.28883 8.06606C7.33174 5.41566 6.73855 3.58311 5.5749 2.76527C4.79746 2.21752 3.91652 2.22005 3.29052 2.32859L3.23751 5.58226C3.22741 6.20826 2.71501 6.71562 2.08396 6.69795C1.45796 6.68785 0.955646 6.17039 0.968267 5.5444L1.03642 1.4426C1.04399 0.978146 1.33427 0.564183 1.77096 0.400111C3.55808 -0.276371 5.46889 -0.0870581 6.88496 0.907471C8.72004 2.19733 9.62117 4.61802 9.56564 8.10392C9.4571 14.8384 4.56018 18.5793 1.28379 18.9882C1.23583 18.9933 1.1904 18.9958 1.14244 18.9958L1.13486 18.9983Z" fill="var(--fill-0, #212C68)"/>
</svg>
