<svg preserveAspectRatio="none" width="100%" height="100%" overflow="visible" style="display: block;" viewBox="0 0 57 29" fill="none" xmlns="http://www.w3.org/2000/svg">
<path id="Vector" d="M36.2017 11.6706C36.2017 11.6706 32.9152 10.7922 30.598 9.66896C28.2782 8.54822 27.68 8.20998 26.0368 7.34923C24.391 6.48849 21.8113 3.08589 20.9505 2.11408C20.0898 1.14227 18.4819 -0.728156 16.8361 0.299187C15.1904 1.32653 16.5938 4.32021 17.3788 5.51667C18.1638 6.71314 21.6194 10.4742 21.6194 10.4742L20.5164 11.234L10.8159 8.15445C10.8159 8.15445 6.10329 4.55496 4.19753 3.58315C2.28925 2.61134 0.893367 2.52804 0.186595 3.3585C-0.63124 4.32021 1.50421 6.751 1.50421 6.751C1.50421 6.751 -0.250087 7.64961 0.787353 9.78002C1.39821 11.0345 4.94468 15.5755 6.36579 16.6231C7.78691 17.6706 15.8466 22.1006 17.6035 22.8502C19.3603 23.5974 34.0712 27.7876 35.9795 28.0475C37.8878 28.3075 56.6223 23.7842 56.6223 23.7842L52.8083 9.5377L36.2042 11.6681L36.2017 11.6706Z" fill="var(--fill-0, #FFEBE1)"/>
</svg>
