<svg preserveAspectRatio="none" width="100%" height="100%" overflow="visible" style="display: block;" viewBox="0 0 34 29" fill="none" xmlns="http://www.w3.org/2000/svg">
<path id="Vector" d="M3.56782 28.8713C3.535 28.8713 3.50222 28.8713 3.4694 28.8662C3.16903 28.841 2.89135 28.6946 2.69951 28.4649L0.266197 25.5646C-0.137673 25.085 -0.0745558 24.3681 0.405039 23.9643L25.5434 2.87218C25.6292 2.8015 25.7226 2.74345 25.8236 2.69801L31.874 0.0930504C32.3334 -0.10636 32.8711 0.0223746 33.1942 0.406051C33.5173 0.789727 33.5501 1.34 33.2724 1.75901L29.6553 7.26426C29.5947 7.35765 29.5215 7.43843 29.4357 7.51163L4.29731 28.6037C4.09285 28.7754 3.83286 28.8688 3.56782 28.8688V28.8713ZM2.73486 24.9739L3.70919 26.1351L27.848 5.87848L29.2943 3.67487L26.8736 4.71736L2.73486 24.9739Z" fill="var(--fill-0, #212C68)"/>
</svg>
