<svg preserveAspectRatio="none" width="100%" height="100%" overflow="visible" style="display: block;" viewBox="0 0 58 71" fill="none" xmlns="http://www.w3.org/2000/svg">
<path id="Vector" d="M28.7832 70.1925C27.1298 70.1925 25.9182 69.877 25.8652 69.8644C19.3755 68.105 11.3966 60.9464 8.43824 54.2271C8.08233 53.3941 7.76681 52.4475 7.4942 51.4C4.27586 50.5468 0.103386 46.8817 0.00241818 40.6697C-0.0531139 37.1838 0.848019 34.7631 2.6831 33.4732C3.6953 32.7614 4.96496 32.461 6.25735 32.5973V23.0231C6.25735 19.6558 7.108 16.3264 8.71843 13.3933C11.4546 8.41058 17.6869 0.0454353 28.6898 0C28.7201 0 28.7529 -1.82895e-07 28.7832 0.002524C28.8135 0.002524 28.8463 0 28.8766 0C39.8795 0.0479595 46.1117 8.41311 48.8479 13.3933C50.4583 16.3264 51.309 19.6558 51.309 23.0231V32.5973C52.6014 32.461 53.871 32.7614 54.8832 33.4732C56.7183 34.7631 57.6195 37.1838 57.5639 40.6697C57.463 46.8817 53.2905 50.5468 50.0721 51.4C49.7995 52.4475 49.484 53.3916 49.1331 54.2144C46.1672 60.9439 38.1883 68.1025 31.7062 69.8619C31.6481 69.877 30.434 70.1925 28.7832 70.1925ZM5.6263 34.8388C5.11137 34.8388 4.52576 34.9549 3.9881 35.331C2.82445 36.1488 2.23127 37.9814 2.27418 40.6318C2.36505 46.2128 6.41637 49.0298 8.56445 49.2998C9.03647 49.3579 9.42267 49.7062 9.53121 50.1707C9.8114 51.3773 10.1471 52.4374 10.5232 53.3234C13.1938 59.384 20.6427 66.0933 26.4559 67.6683C26.4559 67.6683 27.4454 67.9208 28.7857 67.9208C30.126 67.9208 31.1155 67.6683 31.1256 67.6658C36.9287 66.0933 44.3751 59.384 47.0532 53.3108C47.4268 52.4374 47.76 51.3773 48.0402 50.1707C48.1487 49.7062 48.5324 49.3604 49.0069 49.2998C51.155 49.0323 55.2063 46.2153 55.2972 40.6318C55.3401 37.9814 54.7469 36.1488 53.5833 35.331C52.3994 34.5006 50.9859 34.9372 50.5795 35.0887C50.2312 35.2199 49.8374 35.172 49.532 34.96C49.224 34.7479 49.0423 34.3996 49.0423 34.026V23.0206C49.0423 20.0345 48.2875 17.0812 46.8614 14.4838C43.8122 8.93309 38.2186 2.3071 28.8715 2.26924C28.8438 2.26924 28.816 2.26924 28.7882 2.26672C28.7604 2.26672 28.7327 2.26924 28.7049 2.26924C19.3579 2.30963 13.7643 8.93309 10.7151 14.4838C9.28889 17.0812 8.53416 20.0319 8.53416 23.0206V34.026C8.53416 34.3996 8.34989 34.7479 8.04447 34.96C7.73652 35.172 7.34527 35.2199 6.99693 35.0887C6.7748 35.0054 6.2523 34.8363 5.63135 34.8363L5.6263 34.8388Z" fill="var(--fill-0, #212C68)"/>
</svg>
