<svg preserveAspectRatio="none" width="100%" height="100%" overflow="visible" style="display: block;" viewBox="0 0 6 6" fill="none" xmlns="http://www.w3.org/2000/svg">
<path id="Vector" d="M1.37105 5.14326C1.23541 5.14326 1.0961 5.09927 0.978795 5.00762C0.34826 4.52006 0 3.80154 0 2.98404C0 1.39304 1.30873 0 2.80075 0C4.29277 0 5.6015 1.39304 5.6015 2.98404C5.6015 3.75388 5.28623 4.44674 4.71435 4.93064C4.44307 5.16159 4.03982 5.1286 3.80887 4.85732C3.57792 4.58604 3.61091 4.1828 3.88219 3.95185C4.16446 3.7099 4.31477 3.3763 4.31477 2.98038C4.31477 2.08957 3.59259 1.2794 2.79709 1.2794C2.00158 1.2794 1.2794 2.08957 1.2794 2.98038C1.2794 3.5046 1.53968 3.81987 1.75963 3.9885C2.03824 4.20479 2.09323 4.60804 1.87328 4.88665C1.74864 5.05161 1.55801 5.13593 1.36372 5.13593L1.37105 5.14326Z" fill="var(--fill-0, #202933)"/>
</svg>
