<svg preserveAspectRatio="none" width="100%" height="100%" overflow="visible" style="display: block;" viewBox="0 0 64 108" fill="none" xmlns="http://www.w3.org/2000/svg">
<path id="Vector" d="M53.617 18.6006C52.1325 15.2155 51.6646 10.2361 51.6646 10.2361L55.1594 8.81507C55.1594 8.81507 56.6267 7.50956 56.8924 5.65528C57.1581 3.80099 57.2621 0 57.2621 0C57.2621 0 52.1325 0.329266 49.8334 1.57123C48.499 2.29331 46.8527 6.89147 44.542 11.1257L26.5191 17.5782H26.5133C23.3188 18.7219 11.8407 21.512 10.5121 38.7089C10.1078 43.9598 2.52311 72.5771 0.761249 81.4037C-2.34656 97.0063 4.66622 104.626 10.8703 106.688C17.0743 108.75 28.6448 104.083 28.6448 104.083L59.7749 104.1C60.2312 98.5775 60.6356 93.3381 60.6356 93.3381L61.8314 67.3839C62.2184 61.9366 62.7036 46.9348 63.056 44.6646C64.142 37.7327 63.3448 34.5613 62.074 32.0254C60.0291 27.9414 56.5284 25.2495 53.6055 18.5891L53.617 18.6006Z" fill="var(--fill-0, #93CDF1)"/>
</svg>
