<svg preserveAspectRatio="none" width="100%" height="100%" overflow="visible" style="display: block;" viewBox="0 0 29 26" fill="none" xmlns="http://www.w3.org/2000/svg">
<path id="Vector" d="M20.5085 25.3836C19.1048 25.426 17.7011 25.4684 16.3022 25.5155C16.2363 23.4712 16.1703 21.4317 16.1044 19.3874C14.2674 21.7331 13.151 22.8306 10.909 24.6346C10.1694 23.5984 9.52885 22.9531 7.94621 21.9781C7.99331 23.2498 8.0357 24.5216 8.0828 25.7934C6.66973 25.8452 5.25665 25.897 3.84828 25.9488C3.68813 21.6248 3.52799 17.2961 3.36784 12.9721C3.01928 13.4289 2.9392 13.5467 2.60949 13.867C1.96889 12.5811 1.37068 11.7662 0 10.5934C2.33629 7.46576 4.39938 2.70369 5.18128 0C6.47189 0.438054 7.76721 0.876108 9.05782 1.31416C9.28862 1.38953 9.51943 1.54968 9.52885 1.85584C9.53827 2.13375 9.11906 2.26093 8.86471 2.27035C8.50202 3.20298 8.34186 3.54211 7.0277 6.40595C7.17843 6.45776 7.33387 6.50487 7.4846 6.55668C7.65417 6.60849 7.97446 6.73567 7.98388 7.0701C7.98859 7.26322 7.71541 7.44221 7.4375 7.56467C7.60707 12.2796 7.77192 16.9946 7.94149 21.7096C9.62306 20.7016 11.8793 18.4501 13.2452 16.2598C11.705 16.3116 10.1647 16.3634 8.62919 16.42C8.5868 15.1576 8.5397 13.8953 8.49731 12.6329C10.9608 12.5481 13.4242 12.4633 15.8877 12.3833C15.8641 11.7144 15.8453 11.0456 15.8218 10.3767C14.0271 10.4332 12.2278 10.4945 10.4332 10.5557C10.3202 7.26793 10.2071 3.98488 10.0941 0.69712C15.1293 0.52284 20.1599 0.367401 25.1952 0.221383C25.2894 3.50914 25.3836 6.7969 25.4778 10.08C23.8763 10.1271 22.2795 10.1742 20.678 10.2213C20.6827 10.4426 20.5179 10.5887 20.0751 10.7959C20.0893 11.2764 20.1034 11.7615 20.1175 12.242C22.3737 12.1713 24.6299 12.1054 26.8861 12.0441C26.9191 13.3065 26.9568 14.5688 26.9898 15.8312C25.3271 15.8783 23.669 15.9254 22.0063 15.9772C23.2592 17.3055 25.3176 19.3639 28.172 20.9277C26.9097 22.0205 26.2267 22.7929 25.4778 24.0977C24.7336 23.6455 22.8165 22.3596 20.3436 19.7878C20.4001 21.6531 20.4566 23.5183 20.5132 25.3883L20.5085 25.3836ZM14.5547 3.90951C14.5877 4.9128 14.6206 5.91608 14.6536 6.91937C16.745 6.85342 18.8363 6.78748 20.9277 6.72154C20.8994 5.71825 20.8664 4.71497 20.8382 3.71168C18.7421 3.77292 16.6508 3.83886 14.5547 3.90951Z" fill="var(--fill-0, #0F172A)"/>
</svg>
