<svg preserveAspectRatio="none" width="100%" height="100%" overflow="visible" style="display: block;" viewBox="0 0 62 52" fill="none" xmlns="http://www.w3.org/2000/svg">
<path id="Vector" d="M55.5433 51.1953C55.5118 51.1953 55.4802 51.1953 55.4487 51.1926L48.7801 50.6588C48.4645 50.6325 48.1753 50.4853 47.9701 50.2434C47.7677 50.0014 47.6677 49.6912 47.694 49.3756L48.0043 45.8309L46.4134 45.7073C45.8691 46.1044 45.0566 46.4226 44.1467 46.1097C42.4454 45.5233 40.4417 43.0804 40.0551 29.2909C39.5055 23.2087 38.2433 21.1208 38.2302 21.0997C37.8699 20.5554 38.0225 19.827 38.5668 19.4668C39.1111 19.1065 39.85 19.2617 40.2103 19.806C40.3733 20.0505 41.809 22.3882 42.4138 29.1121C42.4138 29.1357 42.4165 29.1594 42.4191 29.1857C42.7872 42.3888 44.7147 43.7614 44.9014 43.864C44.9672 43.8403 45.0776 43.7483 45.0881 43.7352C45.3327 43.438 45.7087 43.2802 46.09 43.3092L49.3743 43.5616C49.6899 43.5853 49.9818 43.7352 50.1869 43.9771C50.392 44.219 50.4919 44.5293 50.463 44.8448L50.1527 48.3921L54.8702 48.7708C56.4164 45.8204 62.3881 32.9749 57.1132 19.401C54.034 11.4728 47.1208 6.18475 41.0412 7.09984C40.5416 7.1761 40.0499 6.92629 39.8158 6.47926C38.1618 3.32377 30.3125 0.628449 19.8784 3.77606C16.289 4.85944 11.6478 7.35228 8.81308 9.16407C9.08655 9.26662 9.32059 9.4691 9.45996 9.74257C9.69662 10.2133 9.59406 10.7813 9.20751 11.1389C3.82476 16.1482 1.60014 22.6801 2.59675 30.5531C2.72297 31.5444 2.94385 32.6857 3.18577 33.7664C3.47239 32.9355 3.76165 32.1887 4.0062 31.76C6.33075 27.6973 12.3183 23.5794 12.5707 23.4059C12.9862 23.1219 13.5332 23.1324 13.9355 23.4269C14.3404 23.7241 14.514 24.2421 14.3694 24.7233L13.7751 26.7007C16.5467 25.2019 20.2886 22.9667 21.6822 21.3101C21.982 20.9551 22.4632 20.8078 22.9103 20.9341C23.4178 21.0787 23.8043 21.4495 23.9752 21.9491C24.2145 22.6564 24.1593 23.7451 22.1582 26.9032C22.0083 27.1399 21.8584 27.3713 21.7112 27.5948C23.5256 27.132 26.0657 26.1932 28.6138 24.2947C33.4102 20.7184 35.0905 17.1738 35.1062 17.137C35.3797 16.5453 36.0818 16.285 36.6735 16.5584C37.2651 16.8293 37.5281 17.5288 37.2572 18.123C37.181 18.2887 35.3508 22.2252 30.0285 26.1932C24.651 30.2033 19.3866 30.4006 19.1657 30.4084C18.7108 30.419 18.2901 30.1744 18.0823 29.7721C17.872 29.3698 17.9141 28.8807 18.1849 28.5178C18.908 27.5527 19.597 26.5403 20.1729 25.6252C16.8228 27.9182 12.6076 29.9798 12.3604 30.0982C11.937 30.3033 11.4348 30.2401 11.0771 29.9351C10.7195 29.6301 10.5749 29.1436 10.7116 28.694L11.0561 27.5475C9.28902 29.0174 7.15381 31.0264 6.06253 32.9355C5.61024 33.7243 4.69779 36.7589 4.22972 38.4865C4.09035 38.9993 3.62755 39.3543 3.09901 39.3595C2.55731 39.3674 2.09975 39.0151 1.9525 38.5049C1.8999 38.3235 0.650865 33.9926 0.253798 30.8502C-0.750701 22.9194 1.22936 16.2087 6.14405 10.868L5.78116 10.7655C5.35517 10.6471 5.03173 10.3 4.94233 9.86616C4.85292 9.43228 5.0107 8.98788 5.35254 8.70652C7.35365 7.07618 14.0538 3.05818 19.1973 1.50673C25.7791 -0.478605 30.7885 -0.142018 33.8335 0.491711C37.3519 1.22273 40.0788 2.72422 41.4751 4.66748C48.5145 4.08372 55.9194 9.78728 59.3221 18.5411C62.6774 27.1767 61.7491 35.4309 60.3791 40.8374C58.8987 46.6803 56.6478 50.4616 56.5531 50.6194C56.3375 50.977 55.9509 51.1926 55.5381 51.1926L55.5433 51.1953Z" fill="var(--fill-0, #202933)"/>
</svg>
