<svg preserveAspectRatio="none" width="100%" height="100%" overflow="visible" style="display: block;" viewBox="0 0 48 54" fill="none" xmlns="http://www.w3.org/2000/svg">
<path id="Vector" d="M24.3414 45.5851C26.6576 44.5904 28.0218 43.7876 29.7554 42.4874C27.7021 39.8799 26.6008 38.1179 25.4427 36.0006L29.0165 33.4784L25.6487 33.3149V27.4108L42.6295 28.3273L45.4714 31.1337C43.9439 37.1587 40.3701 41.6916 39.4252 42.8995C43.475 45.9546 45.9972 46.9564 47.3614 47.4608C44.9954 50.0257 44.7823 50.3525 42.9989 53.4574C39.1054 51.1696 36.4269 49.0879 34.9562 47.8374C31.2758 51.2335 28.8602 52.4058 27.7518 52.9458C26.9632 51.5461 26.0679 50.1394 24.3343 48.356V52.7185L16.9239 52.4698V46.4661C12.4549 47.6242 7.46016 48.5408 2.8917 49.3081C2.52224 49.9404 2.25936 50.3383 1.84017 50.3241C1.31441 50.3028 1.10126 49.6562 1.00179 48.8889L0 42.125C1.26467 42.1748 2.3162 42.2245 4.25584 42.0682V24.5191L0 24.2846V18.5509L47.9937 21.4142V26.9347L24.3343 25.6274V45.5993L24.3414 45.5851ZM41.6419 2.62172V19.2117L6.366 17.0518V0L41.6419 2.62172ZM16.931 25.2011L11.8297 24.9169V27.0626L16.931 27.3326V25.194V25.2011ZM16.931 32.0147L11.8297 31.759V33.9047L16.931 34.1533V32.0147ZM16.931 38.8852L11.8297 38.6578V41.379C15.1406 40.9385 15.51 40.8959 16.931 40.6117V38.8781V38.8852ZM34.3878 8.62537V6.92019L13.6201 5.45658V7.19018L34.3878 8.62537ZM13.6201 11.1263V12.9807L34.3878 14.3235V12.5047L13.6201 11.1334V11.1263ZM31.4392 33.592C32.5405 35.6454 34.1178 37.5992 34.3807 37.8976C35.8514 35.9722 36.3274 34.9136 36.7466 33.8549L31.4392 33.592Z" fill="var(--fill-0, #14B8A6)"/>
</svg>
