<svg preserveAspectRatio="none" width="100%" height="100%" overflow="visible" style="display: block;" viewBox="0 0 113 96" fill="none" xmlns="http://www.w3.org/2000/svg">
<path id="Vector" d="M102.199 14.2869C96.8454 10.8464 89.0229 7.01471 89.0229 7.01471V5.27554L83.2577 0L63.2687 33.4025L49.5876 67.532C49.5876 67.532 44.4004 45.7155 44.2237 42.3104C44.0849 39.607 53.7298 5.1872 53.7298 5.1872L55.4058 3.51619L55.84 0.535126L47.4193 4.89439L44.0445 8.51155L36.2549 11.9621C36.2549 11.9621 30.1918 13.8351 26.9709 19.3933C24.2902 24.0176 23.8586 37.0424 23.8586 37.0424L21.8392 30.8758C21.8392 30.8758 16.4173 31.6962 10.4703 33.3798C4.52334 35.0634 0 37.941 0 37.941C0 37.941 0.785018 41.4749 4.43751 58.7277C6.44929 68.2312 8.44593 82.2152 14.5746 86.0444C23.2099 91.4411 29.273 91.5345 29.273 91.5345C29.273 91.5345 85.4689 95.9644 92.7991 95.3662C100.129 94.768 101.55 87.5135 102.671 82.3515C103.792 77.1921 109.025 54.174 112.167 37.4589C115.307 20.7437 107.55 17.7248 102.197 14.2844L102.199 14.2869Z" fill="var(--fill-0, #E6E7ED)"/>
</svg>
