<svg preserveAspectRatio="none" width="100%" height="100%" overflow="visible" style="display: block;" viewBox="0 0 69 66" fill="none" xmlns="http://www.w3.org/2000/svg">
<path id="Vector" d="M2.15286 65.4505C1.47078 65.4505 0.916601 64.9034 0.909497 64.2213L6.84271e-05 1.66965C-0.00703649 0.980477 0.540028 0.41919 1.2292 0.40498C17.4995 0.170518 34.0042 0.0284197 50.2744 0C50.9636 0 51.5178 0.554183 51.5178 1.24336C51.5178 1.93254 50.9636 2.49382 50.2744 2.49382C34.4305 2.52224 18.3663 2.65724 2.5081 2.8846L3.38199 62.9424C24.0218 62.6511 44.9102 62.5232 65.5003 62.5588L65.621 10.0037C65.621 9.31454 66.1823 8.76036 66.8644 8.76036C67.5536 8.76036 68.1078 9.32165 68.1078 10.0108L67.9799 63.8163C67.9799 64.5055 67.4186 65.0597 66.7365 65.0597C45.3436 65.01 23.6168 65.145 2.16706 65.4576H2.14574L2.15286 65.4505Z" fill="var(--fill-0, #14B8A6)"/>
</svg>
