<svg preserveAspectRatio="none" width="100%" height="100%" overflow="visible" style="display: block;" viewBox="0 0 9 15" fill="none" xmlns="http://www.w3.org/2000/svg">
<path id="Vector" d="M6.85645 14.9543C6.24376 14.9543 5.72574 14.4836 5.6784 13.863L4.83432 3.04227L2.43614 2.61102L2.93577 13.0846C2.96732 13.7368 2.46244 14.2916 1.8103 14.3232C1.15291 14.3547 0.603335 13.8498 0.57178 13.1977L0.00114959 1.24102C-0.0146279 0.880765 0.132636 0.53365 0.403483 0.294359C0.67433 0.0576964 1.03721 -0.044854 1.39221 0.0182559L6.15174 0.872869C6.68292 0.967534 7.07997 1.40931 7.12204 1.94574L8.03716 13.6789C8.08712 14.3311 7.60065 14.899 6.94851 14.9516C6.91696 14.9516 6.88538 14.9543 6.85645 14.9543Z" fill="var(--fill-0, #202933)"/>
</svg>
