<svg preserveAspectRatio="none" width="100%" height="100%" overflow="visible" style="display: block;" viewBox="0 0 59 76" fill="none" xmlns="http://www.w3.org/2000/svg">
<path id="Vector" d="M54.2853 19.2368C54.2676 19.0298 54.1944 18.8304 54.0733 18.6613L40.8768 0.469502C40.6623 0.174173 40.3215 0 39.9581 0C39.5946 0 39.2513 0.176692 39.0393 0.472021L30.4772 12.3685L27.8849 12.7219L1.62577 0.206985C1.26986 0.0378646 0.850845 0.0656303 0.520177 0.277662C0.189509 0.492218 -0.00736174 0.86075 0.000210816 1.25705L1.5753 74.3322C1.58792 74.9506 2.09276 75.4428 2.71118 75.4428H57.5971C57.9151 75.4428 58.218 75.3091 58.4326 75.0768C58.6471 74.8446 58.7557 74.5316 58.7304 74.2161L54.2878 19.2368H54.2853ZM3.82183 73.1711L2.30985 3.05174L26.648 14.6504L27.6198 22.5814C27.6905 23.1569 28.1802 23.5784 28.7456 23.5784C28.7911 23.5784 28.839 23.5759 28.8845 23.5708C29.5079 23.4951 29.9497 22.9272 29.8739 22.3062L28.9627 14.87L31.2622 14.557C31.5702 14.5141 31.8479 14.3475 32.0296 14.095L39.9581 3.07698L52.0439 19.7391L56.3627 73.1736H3.8193L3.82183 73.1711Z" fill="var(--fill-0, #212C68)"/>
</svg>
