<svg preserveAspectRatio="none" width="100%" height="100%" overflow="visible" style="display: block;" viewBox="0 0 21 23" fill="none" xmlns="http://www.w3.org/2000/svg">
<path id="Vector" d="M16.991 22.2465C16.721 22.2465 16.451 22.147 16.2378 21.9481C15.7973 21.536 15.776 20.8398 16.1952 20.3992L18.1349 18.3388L3.72609 2.7009L1.89302 4.64764C1.48093 5.08815 0.78465 5.10946 0.344145 4.69027C-0.0963596 4.27108 -0.117673 3.58191 0.301517 3.1414L2.94455 0.342066C3.15059 0.121813 3.44899 -0.0131879 3.7474 0.00102195C4.05291 0.00102195 4.34421 0.12891 4.55025 0.356268L20.4511 17.607C20.8418 18.0333 20.8347 18.6869 20.4439 19.099L17.8009 21.8984C17.5878 22.1257 17.2965 22.2394 17.0052 22.2394L16.991 22.2465Z" fill="var(--fill-0, #14B8A6)"/>
</svg>
