<svg preserveAspectRatio="none" width="100%" height="100%" overflow="visible" style="display: block;" viewBox="0 0 19 11" fill="none" xmlns="http://www.w3.org/2000/svg">
<path id="Vector" d="M0.938224 10.1932C0.754524 10.1932 0.570826 10.1367 0.410677 10.0283C0.142193 9.84464 -0.0132435 9.53847 0.000887317 9.21346L0.368272 0.895146C0.377693 0.645502 0.486036 0.414701 0.669736 0.245132C0.853436 0.0755623 1.09837 -0.0045141 1.3433 0.000196155C6.86843 0.24513 12.4925 0.508904 18.06 0.791519C18.4933 0.815071 18.8561 1.13066 18.9361 1.55929C19.0162 1.98792 18.7854 2.41185 18.3897 2.58613C12.6762 5.07786 6.93438 7.60726 1.31975 10.1084C1.19729 10.1649 1.0654 10.1885 0.938224 10.1885V10.1932ZM2.20057 1.91727L1.94151 7.78625C5.92168 6.0199 9.95367 4.23472 13.9904 2.46837C10.0526 2.27525 6.10537 2.09155 2.20057 1.91727Z" fill="var(--fill-0, #14B8A6)"/>
</svg>
