<svg preserveAspectRatio="none" width="100%" height="100%" overflow="visible" style="display: block;" viewBox="0 0 11 11" fill="none" xmlns="http://www.w3.org/2000/svg">
<path id="Vector" d="M5.13419 10.2776C3.83518 10.2776 2.60453 9.79643 1.64736 8.91026C0.640236 7.97676 0.0564688 6.70931 0.00387719 5.33667C-0.0487144 3.96403 0.435145 2.65449 1.36865 1.64736C2.30215 0.640236 3.56959 0.0564689 4.94224 0.00387731C6.31225 -0.0487143 7.62441 0.435129 8.63154 1.36863C9.63867 2.30213 10.2224 3.5696 10.275 4.94224C10.3855 7.77429 8.16873 10.1672 5.33667 10.2776C5.2683 10.2803 5.19993 10.2803 5.13419 10.2803V10.2776ZM2.36787 5.24463C2.39679 5.98617 2.71234 6.66986 3.25403 7.17211C3.79836 7.67436 4.5031 7.93732 5.24464 7.90839C6.77243 7.85054 7.96889 6.55942 7.90841 5.029C7.87948 4.28746 7.56394 3.60378 7.02224 3.10153C6.47792 2.59928 5.77054 2.33633 5.03163 2.36525C4.29009 2.39418 3.60641 2.70972 3.10416 3.25142C2.60191 3.79311 2.33894 4.50308 2.36787 5.242V5.24463Z" fill="var(--fill-0, #202933)"/>
</svg>
