<svg preserveAspectRatio="none" width="100%" height="100%" overflow="visible" style="display: block;" viewBox="0 0 130 118" fill="none" xmlns="http://www.w3.org/2000/svg">
<path id="Vector" d="M1.18209 117.743C0.800801 117.743 0.44318 117.558 0.222296 117.251C-0.00121863 116.943 -0.0590736 116.543 0.0618871 116.183C0.280142 115.534 21.8269 51.1931 24.9851 41.0166C29.1056 27.7399 33.6337 18.9466 38.4406 14.8812C46.2505 8.27836 50.7418 9.27235 51.2283 9.40646C51.5464 9.49586 51.8146 9.71149 51.9645 10.006C51.9908 10.056 54.7361 15.2494 61.5783 19.6171C61.8754 19.8064 62.0726 20.1167 62.1147 20.4665C62.8142 26.0123 68.2574 30.2354 70.0061 31.4581C71.9914 30.3931 78.8125 26.2726 84.808 17.2321C89.6464 9.93763 90.5694 4.66532 90.5773 4.61273C90.6088 4.42603 90.6851 4.24459 90.7982 4.0947L93.525 0.471143C93.7459 0.17663 94.093 0.00307567 94.4612 0.000446089C94.8267 -0.0100722 95.179 0.166113 95.4052 0.455366L102.337 9.34334L104.256 10.0665L116.418 13.8715C116.692 13.9583 116.926 14.1397 117.076 14.3869C117.233 14.6472 120.988 20.853 124.281 29.4465C128.735 41.0719 130.084 50.9775 128.285 58.8951C126.979 64.6539 118.19 116.236 118.101 116.756C118.004 117.324 117.512 117.74 116.934 117.74H1.17946L1.18209 117.743ZM50.0765 11.6521C48.8274 11.6521 45.3485 12.1412 39.9684 16.6904C35.5744 20.406 31.1724 29.0599 27.2439 41.7187C24.3566 51.0274 6.15726 105.42 2.82558 115.376H115.937C117.202 107.96 124.743 63.8177 125.979 58.3719C129.758 41.7319 117.131 19.1832 115.277 15.9962L103.517 12.3174C103.496 12.3095 103.475 12.3043 103.454 12.2964L101.19 11.4444C100.988 11.3681 100.809 11.2366 100.675 11.0657L94.4901 3.13491L92.8571 5.30431C92.5915 6.58229 91.3162 11.7073 86.7802 18.5469C79.3069 29.8173 70.7687 33.7485 70.4084 33.9115C70.0508 34.0719 69.6353 34.0456 69.3013 33.8405C68.9595 33.6301 61.1312 28.7339 59.848 21.3237C54.013 17.4793 51.0889 13.1799 50.1764 11.6574C50.1449 11.6574 50.1107 11.6574 50.0765 11.6574V11.6521Z" fill="var(--fill-0, #202933)"/>
</svg>
