<svg preserveAspectRatio="none" width="100%" height="100%" overflow="visible" style="display: block;" viewBox="0 0 8 13" fill="none" xmlns="http://www.w3.org/2000/svg">
<path id="Vector" d="M1.29589 12.1437C1.0706 12.1437 0.845315 12.0859 0.643135 11.9646C0.0250395 11.6007 -0.182921 10.8093 0.175228 10.1854C1.70602 7.56285 2.71693 5.63347 3.6874 3.76186C4.21884 2.74518 4.73874 1.7516 5.32217 0.677153C5.66877 0.0475048 6.45438 -0.183555 7.08403 0.157264C7.71368 0.503859 7.94474 1.28948 7.60392 1.91913C7.02626 2.98202 6.51215 3.96404 5.99225 4.96339C5.00446 6.85811 3.982 8.81637 2.41655 11.4909C2.17393 11.9068 1.74068 12.1379 1.29011 12.1379L1.29589 12.1437Z" fill="var(--fill-0, #202933)"/>
</svg>
