<svg preserveAspectRatio="none" width="100%" height="100%" overflow="visible" style="display: block;" viewBox="0 0 20 23" fill="none" xmlns="http://www.w3.org/2000/svg">
<path id="Vector" d="M8.8316 22.5626C8.74495 22.5626 8.65253 22.551 8.56588 22.5337C8.19618 22.4586 7.87846 22.2217 7.69361 21.8925C7.48566 21.5228 2.61021 12.6846 0.0338544 1.59353C-0.12789 0.894565 0.305354 0.195599 1.00432 0.0338546C1.70329 -0.12789 2.40226 0.30535 2.564 1.00432C4.42984 9.028 7.61852 15.983 9.12621 19.0157C9.87139 17.9759 10.7899 16.2314 11.1422 13.6377C11.8932 8.12108 12.5748 4.77644 15.7173 4.77644C17.8835 4.77644 19.2641 6.67693 19.732 7.79759C20.0093 8.4619 19.6974 9.21863 19.0388 9.50169C18.3803 9.77896 17.6178 9.4728 17.3405 8.81427C17.3232 8.77961 16.682 7.3759 15.7173 7.3759C14.8046 7.3759 14.2616 10.0216 13.7186 13.9901C12.9388 19.7089 9.75008 22.1986 9.61722 22.3026C9.38616 22.4759 9.10888 22.5683 8.8316 22.5683V22.5626Z" fill="var(--fill-0, #202933)"/>
</svg>
