<svg preserveAspectRatio="none" width="100%" height="100%" overflow="visible" style="display: block;" viewBox="0 0 10 7" fill="none" xmlns="http://www.w3.org/2000/svg">
<path id="Vector" d="M5.60358 6.3621C5.1171 6.3621 4.68058 6.02288 4.5754 5.52852C4.45444 4.96053 4.81734 4.40043 5.38533 4.27947C5.55626 4.24003 7.09718 3.85874 6.921 2.7175C6.88944 2.51239 6.80268 2.37565 6.63965 2.2731C6.32147 2.07325 5.79553 2.05222 5.27225 2.21525C4.42552 2.48084 2.67951 3.94288 1.78019 4.80013C1.35946 5.20245 0.694164 5.18667 0.291838 4.76594C-0.110487 4.34521 -0.0947086 3.67993 0.326024 3.28023C0.773053 2.85161 3.08706 0.692723 4.64377 0.206251C5.77186 -0.146113 6.9026 -0.0435595 7.75195 0.487616C8.43302 0.913608 8.87741 1.59204 9.001 2.39669C9.38492 4.89479 7.09191 6.06495 5.82445 6.3358C5.75082 6.35158 5.6772 6.35947 5.60358 6.35947V6.3621Z" fill="var(--fill-0, #202933)"/>
</svg>
