<svg preserveAspectRatio="none" width="100%" height="100%" overflow="visible" style="display: block;" viewBox="0 0 17 20" fill="none" xmlns="http://www.w3.org/2000/svg">
<path id="Vector" d="M4.88201 19.7155C3.35539 19.7155 1.9004 19.3545 0.630053 18.6353C0.0348357 18.2991 -0.177335 17.5413 0.161608 16.9461C0.497796 16.3508 1.2556 16.1414 1.85081 16.4776C3.59789 17.4641 5.8878 17.4889 8.1364 16.5465C10.9444 15.3671 13.1351 12.9724 13.8543 10.2939C14.7169 7.07812 14.2897 4.70276 12.6171 3.42966C11.0381 2.22544 8.89698 2.36323 8.19154 2.77657C6.75861 3.61704 6.08346 4.9425 6.07519 4.95628C5.77483 5.57079 5.03356 5.82706 4.41629 5.52945C3.80179 5.22909 3.54553 4.48782 3.84589 3.87056C3.88447 3.79065 4.84067 1.86446 6.93771 0.638197C8.59936 -0.334543 11.8152 -0.295961 14.1189 1.45938C15.5656 2.56439 17.7674 5.26216 16.2463 10.9388C15.3341 14.342 12.5923 17.3677 9.0926 18.8364C7.68998 19.4261 6.25708 19.7182 4.88201 19.7182V19.7155Z" fill="var(--fill-0, #202933)"/>
</svg>
