<svg preserveAspectRatio="none" width="100%" height="100%" overflow="visible" style="display: block;" viewBox="0 0 6 19" fill="none" xmlns="http://www.w3.org/2000/svg">
<path id="Vector" d="M1.39326 18.5812C1.01934 18.5812 0.682078 18.3283 0.594096 17.9507C0.568435 17.8444 -0.0217753 15.3479 0.649085 13.2767C0.982682 12.0486 1.3676 11.3264 1.85517 10.4173L2.04946 10.0543C2.04946 10.0543 2.06412 10.0287 2.07145 10.0177C2.50037 9.21485 2.90361 8.54765 3.17489 8.11874C3.17856 8.10774 3.18589 8.10041 3.19322 8.09308C3.35452 7.83647 3.49016 7.63117 3.58914 7.4882L3.47916 5.03938C3.32153 4.9734 3.1419 4.89641 2.95127 4.8011C1.66821 4.17056 0.843377 3.53636 0.42913 2.85817C-0.172078 1.87204 0.0258811 0.779599 0.0515424 0.658625C0.14319 0.211385 0.579433 -0.0745559 1.02301 0.0170917C1.47025 0.108739 1.75619 0.544985 1.66454 0.988559C1.66454 0.988559 1.56556 1.55677 1.83317 1.99668C1.96881 2.2203 2.39039 2.68587 3.67712 3.32007C4.14269 3.55103 4.51661 3.66833 4.52028 3.66833C4.85021 3.77098 5.08483 4.07158 5.09949 4.41984L5.24613 7.68983C5.25346 7.87312 5.20214 8.05642 5.09582 8.20672C5.09582 8.20672 4.89787 8.489 4.60459 8.9509C4.59726 8.9619 4.5936 8.96923 4.58626 8.98023C4.32598 9.38714 3.93007 10.0397 3.51215 10.8315C3.50482 10.8462 3.49749 10.8572 3.49016 10.8718L3.3142 11.2018C2.83763 12.0889 2.52603 12.6755 2.24009 13.7312C2.23642 13.7459 2.23275 13.7606 2.22909 13.7752C1.78551 15.1316 2.06046 16.9756 2.20343 17.5694C2.30974 18.013 2.03846 18.4566 1.59489 18.5629C1.5289 18.5776 1.46658 18.5849 1.40059 18.5849L1.39326 18.5812Z" fill="var(--fill-0, #202933)"/>
</svg>
