<svg preserveAspectRatio="none" width="100%" height="100%" overflow="visible" style="display: block;" viewBox="0 0 91 44" fill="none" xmlns="http://www.w3.org/2000/svg">
<path id="Vector" d="M37.1499 43.2208C36.9025 43.2208 36.6602 43.14 36.4583 42.9861L0.445746 15.4245C0.0317794 15.1064 -0.114627 14.5486 0.0948803 14.069C0.304388 13.5894 0.81175 13.3143 1.32668 13.4026L9.41164 14.7732L50.8663 0.0648253C51.2121 -0.0563356 51.5933 -0.00584975 51.8937 0.201133L90.4859 26.9752C90.8494 27.2276 91.0337 27.6668 90.958 28.1035C90.8822 28.5401 90.5617 28.891 90.1351 29.0071L37.4452 43.1804C37.3468 43.2057 37.2484 43.2183 37.1499 43.2183V43.2208ZM5.47392 16.414L37.3948 40.8456L87.1818 27.4547L51.0784 2.40727L9.89377 17.0198C9.71203 17.0854 9.51514 17.1006 9.3233 17.0703L5.47139 16.4165L5.47392 16.414Z" fill="var(--fill-0, #212C68)"/>
</svg>
