<svg preserveAspectRatio="none" width="100%" height="100%" overflow="visible" style="display: block;" viewBox="0 0 21 28" fill="none" xmlns="http://www.w3.org/2000/svg">
<path id="Vector" d="M19.1608 27.2371C18.6069 27.2371 18.1164 26.8679 17.9676 26.3305C17.929 26.1955 14.0436 12.6708 3.93041 7.96698C3.3104 7.67763 3.04034 6.94188 3.32969 6.31911C3.61903 5.69909 4.35753 5.42903 4.97755 5.71838C11.0069 8.52361 14.9585 13.9412 17.3476 18.4246C16.9673 16.8043 16.3831 15.0324 15.4931 13.2302C12.4701 7.10998 5.80977 2.95723 1.11416 2.475C0.433519 2.4061 -0.062501 1.79711 0.00638992 1.11371C0.0752808 0.433068 0.684277 -0.0601919 1.36767 0.0059434C6.6585 0.548804 14.1869 4.98262 17.7169 12.1307C21.2606 19.3064 20.4284 25.8869 20.3898 26.1624C20.3127 26.7466 19.8332 27.1931 19.2462 27.2344C19.2187 27.2344 19.1884 27.2371 19.1608 27.2371Z" fill="var(--fill-0, #202933)"/>
</svg>
