<svg preserveAspectRatio="none" width="100%" height="100%" overflow="visible" style="display: block;" viewBox="0 0 47 47" fill="none" xmlns="http://www.w3.org/2000/svg">
<path id="Vector" d="M21.0369 46.7344C18.4597 46.7344 14.244 46.4338 10.2628 44.8024C6.70686 43.3471 2.16847 40.5097 0.7351 35.2674C-2.8025 22.3268 7.51336 9.06721 8.70477 7.60085C11.4945 4.15124 14.3723 2.00668 17.5066 1.04255C19.6842 0.37169 21.1872 0.763942 21.9204 1.07921C22.8698 0.554985 25.2527 -0.464136 28.4493 0.239717C31.5543 0.925241 35.7628 4.31987 39.1721 8.88758C42.2185 12.9714 45.998 19.7973 46.7019 29.1197C47.413 38.5704 43.1386 41.899 38.8642 43.908C38.4536 44.1022 37.9623 43.9263 37.768 43.512C37.5738 43.1015 37.7497 42.6102 38.164 42.4159C42.1195 40.5537 45.6937 37.6723 45.0595 29.2443C43.8021 12.5901 32.2692 2.77286 28.0974 1.84905C24.7468 1.10854 22.5289 2.62989 22.4336 2.69587C22.144 2.8975 21.7554 2.8975 21.4731 2.68854C21.4365 2.66288 20.2817 1.91137 17.9978 2.61522C15.1861 3.48038 12.5686 5.44897 9.9915 8.63464C8.85874 10.035 -0.99154 22.6824 2.33343 34.8312C3.59084 39.4246 7.68199 41.9577 10.897 43.2738C16.6854 45.6456 23.2584 44.9967 23.3244 44.9894C23.779 44.9417 24.1822 45.2717 24.2299 45.7226C24.2775 46.1771 23.9476 46.5804 23.4967 46.6281C23.394 46.639 22.4702 46.7307 21.0442 46.7307L21.0369 46.7344Z" fill="var(--fill-0, #202933)"/>
</svg>
