<svg preserveAspectRatio="none" width="100%" height="100%" overflow="visible" style="display: block;" viewBox="0 0 13 18" fill="none" xmlns="http://www.w3.org/2000/svg">
<path id="Vector" d="M3.18626 17.58C2.62589 17.58 2.14125 17.166 2.063 16.6031L0.0108352 2.00828C-0.0320759 1.70033 0.0537483 1.38733 0.245586 1.14248C0.439949 0.897638 0.725179 0.746173 1.03565 0.718407L9.11304 0.00407397C9.71632 -0.0464097 10.254 0.37765 10.3373 0.978406L12.3894 15.5732C12.4324 15.8812 12.3465 16.1942 12.1547 16.439C11.9603 16.6839 11.6751 16.8353 11.3646 16.8631L3.28723 17.5774C3.25442 17.58 3.21907 17.5825 3.18626 17.5825V17.58ZM2.42648 2.87407L4.1606 15.2173L9.97127 14.7024L8.23715 2.35913L2.42648 2.87407Z" fill="var(--fill-0, #212C68)"/>
</svg>
