<svg preserveAspectRatio="none" width="100%" height="100%" overflow="visible" style="display: block;" viewBox="0 0 139 67" fill="none" xmlns="http://www.w3.org/2000/svg">
<path id="Vector" d="M137.426 66.9576H137.42L126.983 66.9103C126.331 66.9076 125.803 66.3738 125.805 65.7217C125.808 65.0696 126.337 64.5436 126.989 64.5436H126.994L136.221 64.5857L135.774 39.9439L118.148 39.7967C117.543 39.7914 117.041 39.3312 116.981 38.7291L115.382 22.5992L39.3869 2.51449L3.89543 42.7102L8.16323 42.5472C8.71019 42.5235 9.20192 42.8838 9.34918 43.415C9.49643 43.9435 9.25976 44.5036 8.77855 44.7692L5.19179 46.7388L34.8719 49.8916C35.4793 49.9574 35.9368 50.4728 35.929 51.0828L35.7607 64.1229L108.616 64.4595C109.271 64.4621 109.796 64.9959 109.794 65.6481C109.791 66.3028 109.255 66.8209 108.605 66.8261L34.5563 66.4843C34.2408 66.4843 33.9384 66.3554 33.7175 66.1293C33.4966 65.9031 33.373 65.6007 33.3783 65.2852L33.5492 52.1294L1.19221 48.6899C0.679446 48.6347 0.258729 48.2534 0.156175 47.7459C0.0536215 47.2384 0.292913 46.7256 0.747831 46.4758L3.24856 45.1032L1.22903 45.1821C0.753078 45.2031 0.316571 44.9349 0.114093 44.5062C-0.0883848 44.0776 -0.0174015 43.5701 0.295519 43.2151L38.0984 0.400316C38.3955 0.0637299 38.8557 -0.0756366 39.2869 0.0400649L116.781 20.5219C117.259 20.6481 117.606 21.0583 117.656 21.55L119.231 37.4406L136.947 37.5878C137.589 37.5931 138.109 38.1085 138.12 38.7501L138.609 65.7532C138.614 66.0714 138.493 66.3791 138.267 66.6052C138.043 66.8314 137.741 66.9576 137.426 66.9576Z" fill="var(--fill-0, #202933)"/>
</svg>
