<svg preserveAspectRatio="none" width="100%" height="100%" overflow="visible" style="display: block;" viewBox="0 0 46 44" fill="none" xmlns="http://www.w3.org/2000/svg">
<path id="Vector" d="M43.6452 43.5463H43.6311C29.4297 43.2731 15.0304 43.1177 0.824295 43.0847C0.3674 43.0847 0 42.7126 0 42.2557C0 41.7988 0.37211 41.4314 0.824295 41.4314C14.7619 41.4644 28.888 41.6151 42.8304 41.8789L43.5934 2.06309C32.5102 1.85584 21.2951 1.71453 10.2448 1.64859C9.78791 1.64859 9.4205 1.27177 9.42522 0.819585C9.42522 0.3674 9.79733 0 10.2495 0H10.2542C21.5918 0.0659436 33.0943 0.211961 44.4507 0.428633C44.9076 0.438054 45.2703 0.814875 45.2609 1.27177L44.4648 42.7409C44.4554 43.1931 44.088 43.551 43.6405 43.551L43.6452 43.5463Z" fill="var(--fill-0, #14B8A6)"/>
</svg>
