<svg preserveAspectRatio="none" width="100%" height="100%" overflow="visible" style="display: block;" viewBox="0 0 41 40" fill="none" xmlns="http://www.w3.org/2000/svg">
<path id="Vector" d="M28.0999 15.4816C31.084 15.4248 34.061 15.3679 37.045 15.3182C37.1161 19.3254 37.18 23.3325 37.2511 27.3397C34.7715 27.3823 32.2989 27.425 29.8193 27.4747C31.425 29.2083 34.0183 31.8087 40.5833 33.926C39.6241 34.7004 38.1179 35.9438 36.6898 39.0344C32.8958 37.4571 29.052 35.6809 25.5635 31.2545C21.6416 36.5051 17.876 38.5228 13.4567 39.6738C12.7178 37.045 11.2329 35.3541 10.3234 34.4091C16.7108 33.6702 20.1922 29.9827 21.4995 27.6381C19.0625 27.6878 16.6326 27.7447 14.1956 27.8015C14.1885 27.3539 14.1743 26.9063 14.1672 26.4587C13.9043 27.9792 13.6059 31.7234 7.92909 31.8655C7.69462 30.9064 7.36069 29.528 6.51521 28.0715C6.60757 31.8655 6.70703 35.6596 6.7994 39.4607C4.86686 39.5104 2.93433 39.5602 1.0018 39.6099C0.667865 27.0768 0.333931 14.5367 0 2.00359C4.20611 1.88991 8.40511 1.78333 12.6112 1.69097C13.4851 2.41567 14.3519 3.13326 15.2258 3.85797C15.0695 4.36952 14.3093 6.61467 14.1459 7.07649C17.336 4.81713 19.3751 2.12437 20.313 0C22.6789 0.0781541 25.0519 0.156307 27.4179 0.234461C27.5884 0.234461 28.1426 0.262879 28.1568 0.724699C28.1568 1.016 27.9507 1.23625 27.7447 1.40677C30.6222 4.12085 35.958 6.33758 39.0486 7.42463C38.2955 8.14933 36.6542 9.90425 35.5104 12.5686C33.9615 11.8794 33.4499 11.6379 32.846 11.311C32.8602 12.0926 32.8744 12.8812 32.8886 13.6627C31.2829 13.6912 29.6772 13.7196 28.0715 13.7551C28.0857 14.3306 28.0928 14.9061 28.107 15.4745L28.0999 15.4816ZM5.97524 6.89176C6.03207 9.1156 6.08891 11.3465 6.14575 13.5704C7.26832 10.6858 7.82251 8.85983 8.19907 6.83493C7.46016 6.85624 6.72125 6.87045 5.98234 6.89176H5.97524ZM6.46548 26.1816C6.72125 26.2171 7.01965 26.2953 7.2328 26.2882C8.33406 26.2598 8.68221 24.8246 8.66089 23.9791C8.63247 22.8849 7.82962 19.503 6.23101 16.931C6.30917 20.0145 6.38732 23.091 6.46548 26.1745V26.1816ZM22.4373 13.8688C20.6043 13.9043 18.7712 13.9469 16.9381 13.9896C16.9239 13.3999 16.9097 12.8102 16.8955 12.2276C16.1424 12.7888 15.51 13.1441 14.5793 13.6699C14.0464 12.796 13.9185 12.6325 12.6396 11.105C11.716 13.5207 11.3892 14.1175 10.8634 15.2258C12.2418 17.6344 13.6343 20.6256 14.0677 23.0554C14.0109 20.6327 13.954 18.2099 13.8972 15.7871C16.7534 15.7232 19.6025 15.6592 22.4586 15.5953C22.4444 15.0198 22.4373 14.4443 22.4231 13.8759L22.4373 13.8688ZM22.5723 20.384C21.6345 20.4053 20.7037 20.4266 19.7659 20.4408C19.7801 21.2366 19.8014 22.0394 19.8156 22.8352C20.7535 22.8139 21.6842 22.7926 22.6221 22.7784C22.6078 21.9826 22.5865 21.1797 22.5723 20.384ZM28.6541 8.99482C25.7624 7.20438 24.718 6.33758 23.5883 5.39973C22.757 6.5081 21.8405 7.74435 20.4622 9.16534C23.1904 9.1085 25.9258 9.05166 28.6541 9.00192V8.99482ZM28.2349 22.6647C29.2296 22.6434 30.2172 22.6291 31.2119 22.6078C31.1977 21.8121 31.1835 21.0092 31.1693 20.2135C30.1746 20.2348 29.187 20.249 28.1923 20.2703C28.2065 21.0661 28.2207 21.8689 28.242 22.6647H28.2349Z" fill="var(--fill-0, #0F172A)"/>
</svg>
