<svg preserveAspectRatio="none" width="100%" height="100%" overflow="visible" style="display: block;" viewBox="0 0 28 25" fill="none" xmlns="http://www.w3.org/2000/svg">
<path id="Vector" d="M24.0117 24.3819H3.17101C2.02724 24.3819 1.00079 23.7917 0.428911 22.7983C-0.14297 21.8085 -0.14297 20.6244 0.428911 19.6346L10.8511 1.58367C11.423 0.593876 12.4494 0 13.5932 0C14.7369 0 15.7634 0.59021 16.3353 1.58367L26.7574 19.6346C27.3293 20.6244 27.3293 21.8085 26.7574 22.7983C26.1855 23.788 25.1591 24.3819 24.0153 24.3819H24.0117ZM13.5895 1.65332C13.0433 1.65332 12.5521 1.9356 12.2771 2.41216L1.85861 20.4594C1.58367 20.9323 1.58367 21.5005 1.85861 21.9734C2.13356 22.4463 2.62112 22.7323 3.17101 22.7323H24.0117C24.5579 22.7323 25.0491 22.45 25.3241 21.9734C25.599 21.4969 25.599 20.9323 25.3241 20.4594L14.9019 2.4085C14.627 1.9356 14.1394 1.64966 13.5895 1.64966V1.65332Z" fill="var(--fill-0, #202933)"/>
</svg>
