<svg preserveAspectRatio="none" width="100%" height="100%" overflow="visible" style="display: block;" viewBox="0 0 6 19" fill="none" xmlns="http://www.w3.org/2000/svg">
<path id="Vector" d="M1.29774 18.3998C1.16577 18.3998 1.0338 18.3668 0.909159 18.3008C0.50591 18.0845 0.355609 17.586 0.571897 17.1827C2.03826 14.4443 3.1087 12.3327 3.57061 11.4089L0.223637 7.83466C0.0586718 7.6587 -0.0183144 7.42041 0.00368105 7.18213C0.0256765 6.94385 0.157651 6.72756 0.35561 6.59192L2.91441 4.81762L0.916493 1.22504C0.696539 0.825454 0.839507 0.323227 1.23542 0.103272C1.63501 -0.116682 2.13724 0.0262866 2.35719 0.422204L4.71803 4.66732C4.92332 5.03758 4.81701 5.50315 4.46508 5.7451L2.07492 7.40209L5.16161 10.6977C5.39623 10.947 5.45121 11.3173 5.30091 11.6252C5.28991 11.6509 4.01784 14.2353 2.01993 17.9599C1.86963 18.2385 1.58735 18.3961 1.29042 18.3961L1.29774 18.3998Z" fill="var(--fill-0, #202933)"/>
</svg>
