<svg preserveAspectRatio="none" width="100%" height="100%" overflow="visible" style="display: block;" viewBox="0 0 43 48" fill="none" xmlns="http://www.w3.org/2000/svg">
<path id="Vector" d="M12.4869 29.9667L8.29476 30.2775V24.5734L32.8588 22.5386L35.1809 25.4872C32.6751 30.6732 29.4862 34.1588 27.3901 36.1936C31.5823 37.7339 34.3189 38.3038 42.3405 38.9161C41.0169 40.7249 39.8346 43.2637 39.3306 45.3127C31.9497 44.2058 27.9836 43.5369 21.9215 40.6307C18.549 42.8351 11.0738 46.462 3.32544 47.079C2.55296 44.7333 0.90908 42.1144 0 40.9557C5.9679 40.6071 11.1209 39.3542 15.5862 37.0839C12.713 35.082 11.0267 33.3439 9.98104 32.1428L12.4869 29.9714V29.9667ZM35.6849 8.69514C35.911 8.7705 36.0947 8.89768 36.0947 9.24153C36.0947 9.7314 35.4117 9.99988 34.7287 10.1647C34.3189 11.0879 33.9986 11.8039 32.3595 14.7525L41.7941 13.8623V25.5108L35.5059 25.9959V19.9574L7.20669 22.3973V28.1862L0.734799 28.6855V17.7294L7.25378 17.1171C6.4813 16.0149 5.61463 14.9221 4.74795 13.9282L8.48318 11.1492C6.7498 11.3282 6.5708 11.347 6.02441 11.4506C5.47802 9.25095 4.01783 6.59907 2.92505 5.03527C5.20482 5.05882 9.34986 5.11063 14.9551 4.47946C20.3342 3.87655 27.8093 2.55296 32.6374 0L37.5596 4.50301C37.7857 4.67729 37.8328 4.8657 37.8328 5.06353C37.8328 5.5581 37.5596 5.93022 37.1498 5.97261C36.8766 6.00087 36.057 5.6947 35.5106 5.5581C34.2813 6.13276 33.5983 6.44835 30.9982 7.21141L35.6943 8.68101L35.6849 8.69514ZM17.9084 10.0423C15.3131 10.405 14.4888 10.4897 10.4803 10.9513C11.8463 12.2796 12.7601 13.6126 13.9 15.4496C13.6739 15.6145 12.534 16.4341 12.2608 16.6508L17.4562 16.1609C15.7228 13.5561 15.5439 13.2876 14.7243 12.2749L17.9131 10.0423H17.9084ZM16.3587 29.6793C18.4548 31.6294 20.7345 32.9577 21.1914 33.2167C23.3346 31.3797 24.2013 30.1598 25.0209 29.0387L16.3634 29.6793H16.3587ZM25.7934 15.3743C27.6162 12.0488 28.6195 9.75966 29.2554 7.70127C28.6195 7.86613 24.9691 8.77992 20.9135 9.53827C22.6893 11.7144 23.6926 13.2547 24.2861 14.2109C23.0567 15.1953 22.8259 15.3649 22.4161 15.6899L25.7887 15.3696L25.7934 15.3743Z" fill="var(--fill-0, #0F172A)"/>
</svg>
