<svg preserveAspectRatio="none" width="100%" height="100%" overflow="visible" style="display: block;" viewBox="0 0 46 50" fill="none" xmlns="http://www.w3.org/2000/svg">
<path id="Vector" d="M19.2791 9.0955C19.6418 9.26036 20.0563 9.42522 20.0563 9.98574C20.0563 10.5981 19.4204 10.7676 18.7327 10.7865C17.6399 12.6847 15.0398 17.0087 13.5373 19.1802L17.5033 17.4939C17.3196 17.4091 17.2301 17.3667 17.0935 17.2772C19.053 15.7134 24.9785 10.9749 28.0778 0L34.4131 0.678278C34.6863 0.697119 35.3693 0.777196 35.3693 1.512C35.3693 2.13846 34.9595 2.44463 34.6392 2.63775C36.1418 7.3904 41.8836 12.4869 45.2138 14.2862C43.2072 15.7935 41.9778 17.3856 40.5176 20.0987C39.7876 19.5287 39.5144 19.345 39.0151 18.9164V23.0143L23.6549 24.2814V20.0092C22.9719 20.7393 22.8824 20.8476 22.3313 21.4081C21.5118 20.4519 20.4614 19.2131 18.5019 18.012C19.4581 20.3295 20.6875 24.1636 21.2386 26.5282C19.232 27.4561 17.5033 28.3039 15.77 29.2554C15.6805 28.4971 15.6333 28.1956 15.5438 27.5927C15.2236 27.668 13.8576 27.9271 13.5373 27.9554V48.9019L7.5223 49.1986V33.1084C7.3386 33.2214 7.1125 33.3392 6.9288 33.3533C6.6556 36.4385 6.10922 40.8897 5.10593 44.9594C2.78377 44.0409 1.82287 43.7442 0 43.4992C1.05039 40.9981 2.18557 35.3363 2.27978 31.3892L6.70272 31.912C7.11251 31.9826 7.3386 31.9638 7.5223 32.0015V29.1848C6.88641 29.3355 4.47004 29.7735 3.92365 29.863C3.56096 30.4895 3.24067 30.9652 2.87327 30.9935C2.32688 31.0359 2.14316 30.4989 2.05367 30.009L0.687708 24.0411C1.1446 24.0035 3.41966 23.6549 4.01315 23.556C4.51244 22.9625 5.47333 21.6766 7.02301 19.4298C5.01644 17.5598 2.92037 15.8076 0.687708 14.2815L4.42294 8.35128C4.87983 8.65274 5.01643 8.78934 5.42623 9.0955C6.9759 6.21754 7.79548 4.11677 8.47846 2.27505L13.8105 4.44648C14.1732 4.60663 14.4935 4.7762 14.4935 5.2331C14.4935 5.63818 14.2203 5.97261 13.8576 6.015C13.6739 6.03384 13.4007 6.015 13.2217 5.98202C11.7615 8.67158 10.1224 11.6202 9.52887 12.5905C9.71257 12.7742 10.5321 13.4996 10.6687 13.6362C12.4916 10.518 13.2217 9.12376 14.0884 6.90052L19.2838 9.10022L19.2791 9.0955ZM10.7111 23.0756C11.851 22.8777 13.4007 22.6422 14.4935 22.4444C14.3098 21.7001 13.9942 20.6592 13.3536 19.3968C12.534 20.6356 11.5778 21.9875 10.7111 23.0708V23.0756ZM18.9164 29.1659C19.4628 33.7254 19.9668 36.7117 20.9654 40.0796C19.0954 40.447 17.5457 40.951 15.3601 42.1474C14.5829 38.5346 14.4935 37.8328 13.8105 30.7203L18.9164 29.1659ZM28.0778 46.429V48.1906L21.4694 48.5156V27.4891L41.7517 25.9017V47.5265L35.0066 47.8562V46.0804L28.0778 46.4384V46.429ZM36.6929 16.8109C34.0976 14.3333 31.9968 11.0974 30.9511 9.49116C30.0844 11.0832 28.5819 13.7728 25.4825 17.8377L36.6929 16.8156V16.8109ZM35.0066 39.8535V33.1131L28.0778 33.5936V40.2727L35.0066 39.8582V39.8535Z" fill="var(--fill-0, #0F172A)"/>
</svg>
