<svg preserveAspectRatio="none" width="100%" height="100%" overflow="visible" style="display: block;" viewBox="0 0 61 100" fill="none" xmlns="http://www.w3.org/2000/svg">
<path id="Vector" d="M23.6663 88.9386C21.4397 78.3459 4.51734 28.5654 4.51734 28.5654C4.51734 28.5654 2.92455 22.8998 0.320476 16.2339C-1.27779 12.1445 3.62176 9.02239 3.62176 9.02239C3.62176 9.02239 12.6382 4.73739 12.7346 4.69881C18.6758 2.29038 23.4926 -0.572731 25.5235 0.0996446C27.1356 0.634238 31.5226 7.07967 31.721 9.01688C31.7651 9.44125 31.9332 13.4397 31.9332 13.4397C31.9332 13.4397 36.6866 24.6496 44.9508 37.7802C47.4915 41.3157 52.413 47.2872 55.2844 51.0045C58.1558 54.7219 67.8749 79.0872 51.6828 92.3143C35.4879 105.541 25.8956 99.5368 23.6718 88.9441L23.6663 88.9386Z" fill="var(--fill-0, white)"/>
</svg>
