<svg preserveAspectRatio="none" width="100%" height="100%" overflow="visible" style="display: block;" viewBox="0 0 55 57" fill="none" xmlns="http://www.w3.org/2000/svg">
<path id="Vector" d="M1.13519 56.4876C0.993832 56.4876 0.852482 56.4624 0.713652 56.4068C0.130565 56.1746 -0.152144 55.5133 0.0826056 54.9302L8.42756 34.1157C8.45028 34.0602 8.47552 34.0072 8.50833 33.9542L28.4973 0.551665C28.6715 0.258859 28.9694 0.0594526 29.3076 0.0114931C29.6458 -0.0364664 29.9866 0.0670186 30.239 0.296719L36.0043 5.57227C36.239 5.78683 36.3728 6.09225 36.3728 6.41029V7.44521C38.3593 8.43974 44.5688 11.6 49.0291 14.4675C49.4733 14.7527 49.9327 15.0354 50.4199 15.3333C51.6416 16.0804 52.9062 16.8554 54.133 17.8221C54.6252 18.2109 54.711 18.9252 54.3248 19.4174C53.9361 19.9096 53.2217 19.9955 52.7295 19.6093C51.6062 18.7258 50.3997 17.9862 49.2335 17.2719C48.7363 16.9664 48.2668 16.6812 47.8023 16.3808C42.5672 13.0161 34.8179 9.20962 34.7397 9.17175C34.3509 8.97992 34.1036 8.58615 34.1036 8.15199V6.91261L29.7342 2.91431L10.5075 35.0446L2.19787 55.7758C2.02118 56.22 1.59458 56.4901 1.14275 56.4901L1.13519 56.4876Z" fill="var(--fill-0, #212C68)"/>
</svg>
