<svg preserveAspectRatio="none" width="100%" height="100%" overflow="visible" style="display: block;" viewBox="0 0 32 33" fill="none" xmlns="http://www.w3.org/2000/svg">
<path id="Vector" d="M7.73407 27.1108C7.73407 27.1108 8.82959 19.4045 9.4884 16.9409C11.3967 9.80249 15.2637 12.3923 15.2637 12.3923C15.2637 12.3923 14.9053 6.61192 15.9024 4.53704C17.1468 1.94723 20.1379 2.57071 20.1379 2.57071C20.1379 2.57071 20.4459 0.470583 22.2128 0.0768105C24.6209 -0.460841 25.5321 2.00024 25.5321 2.00024C25.5321 2.00024 27.5136 1.23036 28.7757 4.03726C29.2906 5.18324 31.2898 12.7836 31.2898 14.2451C31.2898 15.1588 29.9999 22.7894 29.4951 23.9682C28.9903 25.147 27.0163 27.3784 24.7471 27.2219C23.5733 27.1411 20.5519 31.7831 7.82497 32.2703C3.07698 31.821 0 30.208 0 30.208L7.73407 27.1083V27.1108Z" fill="var(--fill-0, #FFEBE1)"/>
</svg>
