<svg preserveAspectRatio="none" width="100%" height="100%" overflow="visible" style="display: block;" viewBox="0 0 65 59" fill="none" xmlns="http://www.w3.org/2000/svg">
<path id="Vector" d="M50.8469 58.5154H50.8221C50.5052 58.5072 50.2021 58.3749 49.9872 58.1407L37.1431 44.39C35.859 43.883 29.4852 41.4746 25.1892 41.8328C20.8463 42.1993 17.3494 43.7893 14.7977 44.9494C11.9373 46.2501 9.23682 47.4791 7.84522 44.9908C6.78155 43.0866 8.06016 40.7995 11.4579 38.4489C10.5678 38.6831 9.65843 39.0028 8.77387 39.3169C6.43158 40.1436 4.40619 40.8573 2.82996 40.0251C2.06114 39.62 1.54033 38.9091 1.27579 37.9115C0.658523 35.5803 3.05868 33.4474 8.61129 31.411C7.35747 31.546 6.47016 31.7114 5.76196 31.8436C4.57153 32.0641 3.71452 32.2267 2.59849 31.918C1.51001 31.6177 0.686079 30.9425 0.275489 30.0194C-0.1351 29.0908 -0.085499 27.9885 0.416027 26.9965C1.69189 24.4696 5.84739 24.0039 9.18997 23.6291C9.44625 23.5988 9.69701 23.5712 9.93675 23.5437C13.3152 23.1496 16.8038 22.9705 18.358 22.9071L18.5674 22.254C17.6498 21.656 15.8007 20.5869 13.26 19.796C7.04058 17.8615 4.49161 16.4672 3.85506 14.6485C3.64563 14.0477 3.5547 13.1026 4.30423 11.9975C6.34891 8.98839 13.0644 10.9449 16.8865 12.3778C20.3448 13.6757 25.9442 16.2082 27.4406 16.8916L32.3539 15.7507C31.8055 14.1938 30.9375 11.5704 30.7115 9.99695C30.3312 7.32674 29.4384 1.0742 33.3128 0.142796C37.4242 -0.840966 38.4714 3.45783 39.3146 6.91615C39.3945 7.24132 39.4744 7.56648 39.5571 7.8944C40.1826 10.3772 41.9765 12.229 44.4594 14.7918C45.5506 15.9188 46.7879 17.1947 48.1023 18.7103C51.1748 22.254 51.7811 26.2111 52.222 29.1018C52.3901 30.1958 52.5361 31.1492 52.7731 31.7637C54.8867 34.8886 64.3275 44.1117 64.4239 44.2054C64.6141 44.39 64.7353 44.6353 64.7712 44.8998C64.8263 45.3435 64.8676 47.8318 60.0811 53.0868C55.2642 58.3777 51.2465 58.5154 50.8497 58.5154H50.8469ZM26.0903 39.4437C31.326 39.4437 37.9754 42.1855 38.2757 42.3095C38.43 42.3729 38.5706 42.4721 38.6835 42.5934L51.3071 56.107C52.3322 55.9224 55.0575 55.104 58.334 51.5023C61.3845 48.1515 62.1588 46.2281 62.3545 45.4813C60.4283 43.5882 52.6381 35.8669 50.7367 32.9652C50.6981 32.9073 50.6678 32.8467 50.6403 32.7833C50.26 31.8987 50.0864 30.7689 49.888 29.4573C49.4664 26.7044 48.9428 23.2819 46.3167 20.2507C45.0463 18.7847 43.8338 17.5336 42.7619 16.4286C40.1275 13.7115 38.047 11.5622 37.2672 8.46757C37.1845 8.13414 37.1018 7.80071 37.0219 7.47279C36.0023 3.29524 35.4347 2.05521 33.8584 2.43273C33.1916 2.59256 32.1968 3.74441 33.04 9.66076C33.3321 11.7027 34.9938 16.1338 35.0103 16.1778C35.1288 16.4947 35.1067 16.8502 34.9469 17.1478C34.7871 17.4482 34.506 17.6631 34.1753 17.7403L27.5756 19.2724C27.3221 19.3303 27.0548 19.3055 26.8178 19.1953C26.7489 19.165 19.9066 16.0263 16.0543 14.5796C10.7359 12.5845 6.89177 12.3696 6.24971 13.3175C6.00721 13.6757 6.05681 13.8163 6.0761 13.8686C6.39576 14.7807 9.04668 16.018 13.9572 17.5446C18.1155 18.837 20.5845 20.7853 20.6892 20.8679C21.0723 21.1738 21.2266 21.6836 21.075 22.1521L20.3448 24.4144C20.1905 24.8884 19.7551 25.2163 19.2563 25.2301C19.2095 25.2301 14.6076 25.3679 10.2068 25.8832C9.96155 25.9107 9.70803 25.9411 9.44625 25.9686C7.11498 26.2304 3.21575 26.6658 2.51582 28.0546C2.33395 28.4156 2.30088 28.7821 2.42489 29.0604C2.57645 29.4021 2.94019 29.5675 3.21851 29.6419C3.78066 29.7962 4.19676 29.7328 5.32382 29.5234C6.41229 29.3195 7.90309 29.0439 10.3887 28.9006C15.4894 28.6058 18.8485 29.1624 18.989 29.1872C19.5622 29.2837 19.9755 29.7824 19.97 30.3639C19.9618 30.9425 19.5346 31.433 18.9615 31.5157C18.9036 31.524 13.0809 32.37 10.5568 33.2215C4.94629 35.1173 3.4114 36.7928 3.54643 37.3053C3.68146 37.8096 3.86333 37.9088 3.92395 37.9391C4.58806 38.2918 6.393 37.6525 7.983 37.0931C9.04944 36.7156 10.1517 36.3271 11.2787 36.0625C15.3158 35.1146 19.1681 34.5579 19.3307 34.5359C19.937 34.4505 20.5074 34.8418 20.6452 35.437C20.7829 36.0322 20.444 36.6357 19.8626 36.8231C19.8405 36.8313 17.4486 37.6194 14.5635 39.2728C10.8323 41.414 9.57301 43.263 9.89542 43.8389C10.0001 44.0263 10.069 44.1476 10.6477 44.0401C11.411 43.8968 12.5243 43.3898 13.8167 42.8028C16.5255 41.571 20.2373 39.8846 24.9853 39.485C25.3435 39.4547 25.71 39.4409 26.0875 39.4409L26.0903 39.4437Z" fill="var(--fill-0, #202933)"/>
</svg>
