<svg preserveAspectRatio="none" width="100%" height="100%" overflow="visible" style="display: block;" viewBox="0 0 37 50" fill="none" xmlns="http://www.w3.org/2000/svg">
<path id="Vector" d="M24.4351 49.4478C23.905 49.4478 23.433 49.0768 23.3219 48.5366C22.7338 45.6363 22.4283 43.8164 22.3829 42.9682C22.2415 40.2169 30.3114 11.2569 31.9319 5.47906C31.9849 5.28974 32.0859 5.12062 32.2247 4.98179L33.6332 3.57835L33.6938 3.16186L27.4136 6.41301L24.1725 9.88629C24.0691 9.99735 23.9428 10.0882 23.8015 10.1513L16.0119 13.6019C15.9715 13.6196 15.9286 13.6347 15.8882 13.6498C15.8326 13.6675 10.2012 15.4774 7.2504 20.5661C4.74389 24.89 4.29459 37.5539 4.28954 37.6826C4.27187 38.2329 3.86043 38.6923 3.31521 38.7705C2.76998 38.8488 2.24747 38.5232 2.07582 37.9981L0.0564745 31.8316C-0.137888 31.2358 0.185209 30.5947 0.783441 30.3978C1.37915 30.2034 2.0203 30.5291 2.21719 31.1248L2.43174 31.7785C2.8558 27.5783 3.68878 22.1866 5.28659 19.4277C8.54279 13.8114 14.4065 11.7466 15.1486 11.5018L22.6707 8.16984L25.8865 4.7218C25.9748 4.62588 26.0783 4.54763 26.1944 4.48705L34.6151 0.127789C34.9937 -0.069097 35.4506 -0.036286 35.7964 0.211084C36.1422 0.458454 36.324 0.879992 36.2609 1.29901L35.8267 4.28007C35.7914 4.52239 35.6778 4.74704 35.5036 4.92121L34.0396 6.38272C30.3416 19.5867 24.589 40.9211 24.6547 42.8547C24.6799 43.3494 24.8566 44.662 25.5507 48.0873C25.6744 48.7032 25.2781 49.3014 24.6622 49.4251C24.5865 49.4403 24.5108 49.4478 24.4351 49.4478Z" fill="var(--fill-0, #212C68)"/>
</svg>
