<svg preserveAspectRatio="none" width="100%" height="100%" overflow="visible" style="display: block;" viewBox="0 0 144 59" fill="none" xmlns="http://www.w3.org/2000/svg">
<path id="Vector" d="M57.4927 58.5123C57.4769 58.5123 57.4585 58.5123 57.4427 58.5123L18.3961 56.8767C17.744 56.8504 17.2365 56.2982 17.2628 55.646C17.2891 54.9939 17.8413 54.4864 18.4934 54.5127L57.4953 56.1483L140.422 53.3268L141.297 29.2345L128.573 29.0978C128.252 29.0952 127.947 28.9611 127.726 28.727C127.505 28.493 127.39 28.1827 127.403 27.8619L127.71 20.7989L126.782 20.7489C126.138 20.7147 125.641 20.1704 125.665 19.5261L125.933 11.8346C120.505 11.5164 97.2598 10.0886 82.7577 8.28732C67.7796 6.42558 55.1208 3.04657 52.8462 2.4181C50.8688 3.09127 40.8369 6.42032 26.9896 9.48641C14.7568 12.1949 7.42024 13.0521 4.7407 13.2993L5.17458 26.0501C5.19036 26.5182 4.9274 26.9547 4.50404 27.1572L4.10697 27.3491C4.45145 28.4615 4.95633 30.3469 5.16932 32.4006C5.49539 35.5508 5.18247 38.8851 5.16932 39.0245C5.1141 39.5872 4.67233 40.0316 4.1096 40.0895L2.71856 40.2288C2.96574 41.2649 3.22869 42.8111 3.26025 44.7648C3.30232 47.2182 2.80007 51.7148 2.5266 53.971L6.58141 53.9105C7.23617 53.9053 7.77261 54.4233 7.78313 55.0754C7.79364 55.7302 7.27036 56.2666 6.61822 56.2772L1.20129 56.3587C0.854183 56.3613 0.528115 56.2193 0.299342 55.9616C0.0705686 55.7039 -0.0346146 55.3594 0.0100883 55.0202C0.0206066 54.9492 0.948848 47.9256 0.896257 44.8043C0.843665 41.5936 0.0916052 39.6503 0.0837165 39.6319C-0.0530216 39.2874 -0.0188371 38.8956 0.173122 38.5801C0.365082 38.2645 0.693779 38.0542 1.06455 38.0174L2.88422 37.8333C2.95259 36.6552 3.01833 34.5831 2.81585 32.6451C2.51871 29.7736 1.55628 27.1756 1.54839 27.1493C1.3354 26.576 1.5931 25.9344 2.14268 25.6688L2.78429 25.3612L2.3399 12.2527C2.31886 11.6111 2.81322 11.0694 3.45484 11.0326C3.5311 11.0273 11.2542 10.5488 26.4821 7.18026C41.7652 3.79862 52.3151 0.104065 52.4202 0.0672512C52.6516 -0.0142658 52.9041 -0.022159 53.1381 0.0462101C53.2722 0.0856538 66.7725 3.91958 83.0522 5.94172C99.3924 7.97176 126.948 9.52584 127.224 9.54162C127.866 9.57843 128.362 10.1201 128.341 10.7644L128.073 18.4533L129.012 18.5059C129.659 18.5427 130.158 19.0923 130.13 19.7391L129.825 26.7496L142.541 26.8863C142.859 26.889 143.164 27.0231 143.385 27.2519C143.606 27.4833 143.722 27.7935 143.711 28.1117L142.752 54.518C142.728 55.1385 142.231 55.6355 141.61 55.6566L57.5374 58.5175C57.5243 58.5175 57.5111 58.5175 57.498 58.5175L57.4927 58.5123Z" fill="var(--fill-0, #202933)"/>
</svg>
