<svg preserveAspectRatio="none" width="100%" height="100%" overflow="visible" style="display: block;" viewBox="0 0 30 53" fill="none" xmlns="http://www.w3.org/2000/svg">
<path id="Vector" d="M11.5728 52.499C4.60042 52.499 2.2378 50.5118 1.99518 50.2865C1.70635 50.0208 1.55616 49.6453 1.57927 49.2583L2.02407 41.148C1.56772 40.1544 0.49327 37.2488 1.30199 33.5055C1.87965 30.831 3.76859 28.2142 5.24162 26.4985C3.95344 26.1693 2.57284 25.4587 1.8912 23.9626C0.666562 21.2938 -0.315459 18.9485 0.0946787 17.2387C0.331519 16.2451 0.920732 15.5634 1.5215 15.136C1.27888 13.4146 1.06515 10.1623 2.57861 8.41203C3.56063 7.27404 4.86614 6.95633 5.96947 6.97366C6.31607 5.99164 6.92839 4.6688 7.85842 4.02182C9.22169 3.07446 10.8218 3.31707 11.85 3.64056C13.0111 2.30617 15.5355 -0.148878 18.1812 0.00709026C20.6998 0.163058 22.3692 2.75675 24.4777 6.04362C24.7838 6.51731 25.1015 7.01409 25.4366 7.52243C28.4924 12.1899 29.8788 14.5121 29.9828 15.9447C30.1098 17.6777 28.9256 20.1732 27.2793 23.6218C26.3435 25.5858 25.2806 27.8156 24.3737 30.1378C22.0111 36.157 21.6471 37.0812 21.081 41.1422C20.5207 45.1511 21.081 49.7378 21.081 49.784C21.1446 50.3096 20.8904 50.818 20.4283 51.0779C20.1683 51.2223 17.7364 52.4874 11.6016 52.4932H11.5843L11.5728 52.499ZM4.21339 48.646C5.07988 49.085 7.26921 49.8995 11.5728 49.8995H11.5901C15.2062 49.8995 17.3551 49.42 18.3891 49.0966C18.2447 47.4329 18.0483 43.99 18.4931 40.784C19.1054 36.4169 19.5329 35.3194 21.9244 29.2251C22.8833 26.7816 23.9636 24.5114 24.9167 22.5069C26.1644 19.8901 27.4526 17.1809 27.3775 16.1353C27.3024 15.1302 24.5643 10.9537 23.2473 8.94348C22.9064 8.42936 22.5887 7.92679 22.2768 7.44156C20.6305 4.88253 19.2094 2.6701 18.0079 2.595C16.402 2.4968 14.1318 4.83054 13.2826 5.97431C12.9014 6.48843 12.1966 6.64439 11.6363 6.34401C11.2551 6.14761 10.0015 5.68548 9.33722 6.14761C8.93286 6.43066 8.38409 7.72461 8.15303 8.70663C8.07216 9.05323 7.84687 9.35361 7.53493 9.53268C7.22299 9.71176 6.85329 9.7522 6.5067 9.64822C6.46626 9.63667 5.23007 9.29584 4.53688 10.1046C3.74549 11.023 3.88413 13.9171 4.22495 15.5808C4.36358 16.2566 3.95344 16.9209 3.28913 17.1C3.25447 17.1116 2.74613 17.2906 2.61327 17.8394C2.38221 18.8099 3.64151 21.5538 4.24805 22.8766C4.81993 24.1244 7.13057 24.2226 7.89886 24.159C8.44186 24.1128 8.9733 24.4247 9.19859 24.9331C9.42388 25.4414 9.29679 26.0364 8.89243 26.4119C8.852 26.4523 4.63508 30.3746 3.84369 34.0543C3.06385 37.6705 4.46178 40.2237 4.47334 40.2468C4.59464 40.4606 4.65241 40.7089 4.63508 40.9516L4.21339 48.6402V48.646Z" fill="var(--fill-0, #202933)"/>
</svg>
