<svg preserveAspectRatio="none" width="100%" height="100%" overflow="visible" style="display: block;" viewBox="0 0 71 147" fill="none" xmlns="http://www.w3.org/2000/svg">
<path id="Vector" d="M64.3076 46.8619C64.0814 46.0836 62.2933 39.4728 59.3982 39.4728C56.503 39.4728 53.1766 41.5765 53.1766 41.5765C53.1766 41.5765 51.6567 41.3424 48.8536 38.7707C46.0478 36.199 41.9588 36.9011 41.9588 36.9011L31.2669 24.4605L32.3556 21.4049L46.0504 22.4305C46.0504 22.4305 48.6484 20.9711 50.1789 14.9099C51.3332 10.3397 50.0369 1.04937 50.0369 1.04937C50.0369 1.04937 44.5226 0.739079 30.8068 0.334123C21.1483 0.0501287 11.6397 -1.02274 5.53384 3.15566C-2.68886 8.78296 -0.0277105 19.843 2.62028 24.7629C5.26826 29.6829 37.1151 81.767 37.1151 81.767L45.5403 107.374C45.5403 107.374 45.3746 114.571 44.9565 115.983C44.5384 117.395 47.0602 119.394 47.0602 119.394L35.4506 146.633H57.8862C57.8862 146.633 72.1779 125.555 70.6738 88.312C70.0427 72.6844 65.646 50.0437 64.3049 46.8619H64.3076Z" fill="var(--fill-0, #D8DAE5)"/>
</svg>
