<svg preserveAspectRatio="none" width="100%" height="100%" overflow="visible" style="display: block;" viewBox="0 0 48 61" fill="none" xmlns="http://www.w3.org/2000/svg">
<path id="Vector" d="M38.6505 1.03828C30.9774 -1.04171 24.1011 0.0705993 16.3333 3.77305C10.0565 6.76551 4.46862 12.4796 1.69704 20.9994C-1.67671 31.3679 0.611022 38.686 3.10386 44.4921C7.67933 56.0754 19.7097 60.238 19.7097 60.238L21.2638 55.0577L19.4283 41.7442C19.4283 41.7442 19.9647 38.0207 20.701 34.9651C21.39 32.0989 32.1818 21.2466 32.1818 21.2466C32.1818 21.2466 37.98 19.5979 40.2598 14.415C42.7974 8.6404 40.0258 4.75388 40.0258 4.75388L43.7651 5.06154C46.1159 5.3692 47.0126 6.29219 47.0126 6.29219C47.0126 6.29219 43.7677 2.4267 38.6505 1.04091V1.03828Z" fill="var(--fill-0, #202933)"/>
</svg>
