<svg preserveAspectRatio="none" width="100%" height="100%" overflow="visible" style="display: block;" viewBox="0 0 28 7" fill="none" xmlns="http://www.w3.org/2000/svg">
<path id="Vector" d="M1.37798 6.86329C1.26491 6.86329 1.1939 6.86329 1.17024 6.86329C0.518102 6.8554 -0.00780114 6.3216 8.7604e-05 5.66683C0.00797634 5.0147 0.536519 4.48878 1.19654 4.49667C1.26228 4.49667 7.98875 4.5519 15.0018 3.02411C19.2907 2.09061 25.7016 0.0737111 25.7647 0.055304C26.3879 -0.141914 27.0532 0.205191 27.2478 0.828401C27.445 1.45161 27.0979 2.1169 26.4747 2.31149C26.2091 2.39563 19.8955 4.38097 15.5014 5.33814C8.83546 6.78967 2.60074 6.86592 1.37535 6.86592L1.37798 6.86329Z" fill="var(--fill-0, #202933)"/>
</svg>
