<svg preserveAspectRatio="none" width="100%" height="100%" overflow="visible" style="display: block;" viewBox="0 0 37 36" fill="none" xmlns="http://www.w3.org/2000/svg">
<path id="Vector" d="M21.6356 35.7037C20.3403 35.7037 19.4971 35.6661 18.6776 35.6237C18.1076 35.5954 17.646 35.1526 17.6036 34.5827C17.3304 31.083 16.4779 29.4108 16.0163 28.5112L15.9692 28.417C15.7666 28.0166 15.8184 27.5362 16.101 27.1923C16.3837 26.8438 16.8453 26.6977 17.2739 26.8155L17.321 26.8296C18.2159 27.0746 20.5852 27.7293 22.2668 27.7293C23.2653 27.7293 23.7175 27.7293 24.2215 25.5579C24.5089 24.2578 24.9045 22.0534 25.0835 17.7247H17.9804C17.1514 22.8212 15.0601 28.8126 7.41061 35.2845C6.98669 35.6425 6.36965 35.6425 5.95043 35.2845C3.09131 32.854 2.28115 32.383 0.79271 31.9214C0.382917 31.7942 0.0861741 31.4504 0.0155202 31.0265C-0.0551337 30.6072 0.119137 30.1833 0.462986 29.929C9.73277 23.1603 10.086 17.7812 10.1708 7.51757H1.54164C0.919885 7.51757 0.41118 7.01357 0.41118 6.38711V1.13046C0.41118 0.508705 0.915175 0 1.54164 0H35.691C36.3128 0 36.8215 0.503995 36.8215 1.13046V6.38711C36.8215 7.00886 36.3175 7.51757 35.691 7.51757H18.7152C18.6917 8.64804 18.6729 9.39696 18.6587 9.90567H32.3703C32.992 9.90567 33.5007 10.4097 33.5007 11.0361C33.5007 11.1869 33.1616 26.9427 31.0467 31.4739C29.1956 35.3929 25.8371 35.7037 21.6356 35.7037ZM19.7562 33.4098C20.2885 33.4287 20.8772 33.4428 21.6356 33.4428C26.0491 33.4428 27.8249 33.0001 29.0024 30.5083C30.5144 27.2771 31.0891 16.1892 31.2163 12.1572H17.5C16.8782 12.1572 16.3695 11.6532 16.3695 11.0267C16.3695 10.9278 16.3695 10.81 16.3789 10.5745C16.3931 10.0894 16.426 9.0484 16.4779 6.35885C16.4873 5.7418 16.9913 5.25193 17.6083 5.25193H34.5605V2.25621H2.6721V5.25193H11.3107C11.6122 5.25193 11.8995 5.36969 12.1115 5.58637C12.3234 5.79833 12.4412 6.09036 12.4412 6.39182C12.3705 16.8392 12.3234 23.3535 3.37864 30.546C4.28772 31.0359 5.24861 31.7424 6.68053 32.9341C13.6329 26.7825 15.2485 21.1538 15.8985 16.4388C15.9739 15.8783 16.4543 15.4638 17.0195 15.4638H26.2658C26.5719 15.4638 26.864 15.5862 27.076 15.8076C27.2879 16.0243 27.4057 16.321 27.3962 16.6272C27.2408 21.8697 26.8027 24.418 26.4353 26.0571C25.5922 29.6887 23.9201 29.9902 22.2762 29.9902C21.207 29.9902 19.9964 29.7924 18.9366 29.5616C19.2616 30.513 19.5725 31.7613 19.7656 33.4098H19.7562Z" fill="var(--fill-0, #14B8A6)"/>
</svg>
