<svg preserveAspectRatio="none" width="100%" height="100%" overflow="visible" style="display: block;" viewBox="0 0 56 71" fill="none" xmlns="http://www.w3.org/2000/svg">
<path id="Vector" d="M39.0455 71.0024C30.2026 71.0024 20.3071 65.7308 19.8194 65.4663C19.2159 65.1411 18.9927 64.3888 19.3179 63.7853C19.643 63.1819 20.3953 62.9559 20.9988 63.2811C21.1311 63.3527 34.4243 70.4319 43.0467 68.0235C47.8718 66.6788 55.6592 53.1486 52.6335 41.8587C51.421 37.334 51.1041 34.4488 50.8506 32.1313C50.7542 31.244 50.6687 30.4752 50.5475 29.7477C49.8834 25.8209 47.8608 13.8587 35.5293 6.33308C29.9877 2.94916 21.2138 1.54929 15.5564 3.14481C8.63427 5.0958 4.40161 9.84651 2.9797 17.2674C1.64598 24.2227 3.17536 31.4452 3.89458 34.2256C5.27791 39.5798 6.64746 44.6915 6.66124 44.7411L8.80512 52.7407C8.98148 53.4021 8.59019 54.0827 7.92883 54.2591C7.26748 54.4355 6.58684 54.0442 6.41047 53.3828L4.26659 45.3832C4.25281 45.3308 2.88051 40.2109 1.49442 34.8456C0.273674 30.128 -4.81323 6.30828 14.8841 0.755671C21.2303 -1.03549 30.6628 0.452552 36.8217 4.214C42.2337 7.518 46.4085 11.9959 49.2358 17.5237C51.5946 22.1394 52.5095 26.474 52.9945 29.3344C53.1268 30.1335 53.2205 30.9712 53.3169 31.8585C53.5622 34.0934 53.8653 36.8738 55.0282 41.2139C58.3129 53.471 50.2526 68.5857 43.7135 70.4099C42.2365 70.8232 40.6603 70.9968 39.0482 70.9968L39.0455 71.0024Z" fill="var(--fill-0, #202933)"/>
</svg>
