<svg preserveAspectRatio="none" width="100%" height="100%" overflow="visible" style="display: block;" viewBox="0 0 28 45" fill="none" xmlns="http://www.w3.org/2000/svg">
<path id="Vector" d="M1.13392 44.8612C0.921886 44.8612 0.707328 44.8006 0.51549 44.6769C-0.00954077 44.3336 -0.158467 43.6319 0.184822 43.1043L5.63202 34.7442C5.64716 34.719 5.66482 34.6963 5.68249 34.671L20.3732 15.5705L15.9862 10.7771C15.7262 10.4944 15.6278 10.0981 15.7237 9.72706C15.8196 9.356 16.0973 9.05562 16.4608 8.93446L24.7401 6.15028L25.0253 1.07162C25.0607 0.445627 25.5983 -0.0289175 26.2243 0.00137276C26.8503 0.0367113 27.3299 0.571838 27.2946 1.20036L26.9664 7.04637C26.9412 7.51082 26.6332 7.91216 26.194 8.05857L18.8386 10.5323L22.6904 14.7426C23.0615 15.149 23.0893 15.7649 22.7536 16.2016L7.50748 36.024L2.08553 44.3462C1.86845 44.6794 1.50497 44.8612 1.13392 44.8612Z" fill="var(--fill-0, #212C68)"/>
</svg>
