<svg preserveAspectRatio="none" width="100%" height="100%" overflow="visible" style="display: block;" viewBox="0 0 48 69" fill="none" xmlns="http://www.w3.org/2000/svg">
<path id="Vector" d="M32.5732 68.3266C32.6161 68.3216 32.659 68.319 32.7019 68.314C38.8887 67.688 48.526 55.3043 47.476 43.7284C47.1049 39.6291 47.2639 37.0721 47.3926 35.0175C47.4431 34.2021 47.4911 33.4297 47.4961 32.6902C47.5062 29.858 46.9989 15.2405 35.9127 5.52994C30.8214 1.0697 23.11 -0.406944 17.6073 0.0928443C17.5164 0.100417 17.4281 0.110513 17.3397 0.118086C9.97163 0.882914 4.66325 5.2649 1.99519 12.7895C-0.367445 19.4483 -0.0822244 26.776 0.152525 29.6157C0.566491 34.6767 1.0057 39.5105 1.00823 39.5585L1.6948 47.1134C1.75033 47.7394 2.30313 48.1988 2.92913 48.1432C3.55513 48.0877 4.01455 47.5349 3.95901 46.9089L3.27494 39.354C3.26989 39.3061 2.83323 34.4798 2.41927 29.4289C2.19966 26.7331 1.92451 19.7891 4.14075 13.5467C6.53115 6.8097 11.052 3.05119 17.5795 2.37471C17.6603 2.36713 17.7436 2.35704 17.8269 2.34946C22.8374 1.89511 29.8369 3.21778 34.4209 7.23376C44.765 16.2956 45.2395 30.0171 45.2294 32.675C45.2269 33.349 45.1815 34.0532 45.131 34.8711C44.9972 37.004 44.8331 39.6569 45.2193 43.9304C46.1861 54.5925 37.0435 65.5879 32.4798 66.0498C32.4444 66.0523 32.4091 66.0574 32.3712 66.0599C24.2232 66.7995 13.4272 58.4091 13.3187 58.3233C12.8265 57.9371 12.1121 58.0229 11.7234 58.5151C11.3372 59.0073 11.4205 59.7217 11.9152 60.1104C12.3873 60.4814 23.5265 69.1419 32.5782 68.3216L32.5732 68.3266Z" fill="var(--fill-0, #212C68)"/>
</svg>
