<svg preserveAspectRatio="none" width="100%" height="100%" overflow="visible" style="display: block;" viewBox="0 0 11 12" fill="none" xmlns="http://www.w3.org/2000/svg">
<path id="Vector" d="M6.6866 11.3189C6.59567 11.3189 6.50473 11.3051 6.4138 11.2803C0.668294 9.58562 0.0289839 3.42953 0.00418317 3.16774C-0.039907 2.69377 0.268728 2.25838 0.731675 2.14265L9.21077 0.0290687C9.48358 -0.0398222 9.77292 0.0152929 10.0044 0.177875C10.2331 0.340458 10.3819 0.596734 10.4067 0.877809L10.5968 2.9776C10.6437 3.50668 10.2552 3.9779 9.72332 4.02474C9.19424 4.07434 8.72303 3.68305 8.67618 3.15121L8.588 2.1702L2.07091 3.79603C2.41536 5.29234 3.5314 8.41723 6.96492 9.42855C7.47472 9.58011 7.76681 10.1147 7.61801 10.6272C7.494 11.0461 7.11097 11.3189 6.69212 11.3189H6.6866Z" fill="var(--fill-0, #202933)"/>
</svg>
