<svg preserveAspectRatio="none" width="100%" height="100%" overflow="visible" style="display: block;" viewBox="0 0 42 26" fill="none" xmlns="http://www.w3.org/2000/svg">
<path id="Vector" d="M1.13452 25.9133C0.531237 25.9133 0.0263722 25.4362 0.00113035 24.8279C-0.0266357 24.2019 0.460544 23.6718 1.08654 23.644C1.96496 23.6062 2.73988 23.5633 3.38607 23.5254C3.94392 23.4951 4.40838 23.4699 4.76177 23.4547C9.48452 23.2755 32.8433 22.7707 37.45 22.6722C38.3612 19.9284 41.2892 9.82413 37.8336 2.27935C21.4087 2.45099 15.5476 2.48633 15.4896 2.48633H15.482C14.8585 2.48633 14.3511 1.98149 14.3461 1.35801C14.3436 0.729491 14.8484 0.219613 15.4744 0.214565C15.5325 0.214565 21.5602 0.176693 38.5252 0C38.5303 0 38.5328 0 38.5379 0C38.9619 0 39.3532 0.237274 39.5475 0.615902C44.558 10.3239 39.5349 23.6365 39.3178 24.1994C39.1512 24.631 38.7423 24.9162 38.2829 24.9263C38.0002 24.9314 10.0449 25.5271 4.84506 25.724C4.49924 25.7366 4.04993 25.7618 3.50723 25.7921C2.85346 25.8275 2.07098 25.8729 1.18246 25.9108C1.16479 25.9108 1.14966 25.9108 1.13199 25.9108L1.13452 25.9133Z" fill="var(--fill-0, #212C68)"/>
</svg>
