<svg preserveAspectRatio="none" width="100%" height="100%" overflow="visible" style="display: block;" viewBox="0 0 37 20" fill="none" xmlns="http://www.w3.org/2000/svg">
<path id="Vector" d="M20.4835 19.718C20.4257 19.718 20.3678 19.7153 20.3099 19.707C19.971 19.6602 19.6651 19.4728 19.4694 19.1917L12.4178 9.13363L5.25312 18.0591C4.95827 18.4256 4.47879 18.5965 4.0186 18.4945C3.55841 18.3926 3.19466 18.0398 3.08168 17.5824C3.05963 17.4942 0.882672 8.67343 0.00913575 1.38753C-0.0735333 0.706888 0.414229 0.0896257 1.09212 0.00971222C1.77 -0.0757125 2.39002 0.412033 2.46993 1.09268C3.04586 5.90402 4.20873 11.418 4.90867 14.5237L11.5139 6.29532C11.7592 5.9922 12.1339 5.82962 12.5225 5.83237C12.911 5.84615 13.2748 6.0418 13.498 6.3587L20.737 16.6868C22.7652 15.061 27.6289 11.1673 34.0275 6.11069C34.5648 5.68633 35.3447 5.77726 35.769 6.31461C36.1934 6.85196 36.1025 7.63181 35.5651 8.05617C27.0943 14.7524 21.3185 19.4011 21.2606 19.448C21.0401 19.6271 20.7646 19.7235 20.4835 19.7235V19.718Z" fill="var(--fill-0, #202933)"/>
</svg>
