<svg preserveAspectRatio="none" width="100%" height="100%" overflow="visible" style="display: block;" viewBox="0 0 16 41" fill="none" xmlns="http://www.w3.org/2000/svg">
<path id="Vector" d="M14.7387 40.1691C14.3449 40.1691 13.9637 39.9647 13.7517 39.5987L0.151398 15.9218C-0.0808275 15.5179 -0.0429659 15.0156 0.244791 14.6522L4.61415 9.12672L0.812733 5.00472C0.451774 4.61347 0.411384 4.02534 0.714286 3.58865L2.85984 0.488957C3.21575 -0.025977 3.92505 -0.154714 4.43998 0.201196C4.95492 0.557106 5.08366 1.2664 4.72775 1.78134L3.09964 4.13388L6.94145 8.3013C7.32007 8.71275 7.3428 9.33622 6.99699 9.77543L2.50394 15.4599L15.7206 38.4704C16.0336 39.0156 15.8442 39.7097 15.3015 40.0202C15.1223 40.1237 14.928 40.1717 14.7361 40.1717L14.7387 40.1691Z" fill="var(--fill-0, #212C68)"/>
</svg>
