<svg preserveAspectRatio="none" width="100%" height="100%" overflow="visible" style="display: block;" viewBox="0 0 18 36" fill="none" xmlns="http://www.w3.org/2000/svg">
<path id="Vector" d="M16.2248 7.3995C16.2945 5.19629 16.3055 3.13971 16.3605 2.06194C16.4081 1.09047 16.1039 0.419613 15.5027 0.144671C14.6888 -0.232917 14.0986 0.221656 13.8383 0.452608C12.207 1.90431 12.4453 5.35392 12.361 7.43249C12.251 10.1599 12.3353 13.3639 12.3353 13.3639C12.3353 13.3639 10.8066 13.2466 10.2897 13.0706C7.55498 11.7876 6.70449 13.078 6.67516 13.5325C6.06295 13.7672 5.59005 14.2584 5.40676 15.0832C3.72044 15.0099 2.8003 15.5928 2.42638 16.5203C2.3384 16.7329 2.3054 17.0152 2.30907 17.3451C1.86916 17.4477 0.952684 17.774 0.516441 18.4192C-0.132423 19.376 -0.246066 20.3658 0.619087 22.58C1.08832 23.7787 2.4557 26.2422 2.4557 26.2422C2.4557 26.2422 1.94981 28.0349 2.19176 30.623C2.49236 33.8856 3.38318 35.2017 3.38318 35.2017H15.0994C15.2937 32.8885 16.3238 27.9395 17.156 24.9115C18.3364 20.6187 16.7234 15.2189 16.7234 15.2189C16.5841 14.3427 16.1149 9.65036 16.2248 7.39583V7.3995Z" fill="var(--fill-0, #FFEBE1)"/>
</svg>
