<svg preserveAspectRatio="none" width="100%" height="100%" overflow="visible" style="display: block;" viewBox="0 0 5 10" fill="none" xmlns="http://www.w3.org/2000/svg">
<path id="Vector" d="M4.00799 9.72361C3.51676 9.72361 3.0292 9.53298 2.57829 9.16273C2.07973 8.75581 0.356753 4.70866 0.0158238 1.76127C-0.0354988 1.31036 0.0488164 0.925449 0.114803 0.643175C0.213782 0.1996 0.657356 -0.0790127 1.10093 0.0199667C1.5445 0.118946 1.82311 0.562521 1.72413 1.0061C1.68014 1.20772 1.63615 1.39835 1.65448 1.57065C1.95142 4.15877 3.34813 7.34444 3.70006 7.94565C3.82836 8.03363 3.94201 8.08129 4.02632 8.07396C4.50655 8.0263 4.9318 8.41489 4.9318 8.89512C4.9318 9.33136 4.59454 9.68696 4.16563 9.71628C4.1143 9.71995 4.05931 9.72361 4.00799 9.72361Z" fill="var(--fill-0, #202933)"/>
</svg>
