<svg preserveAspectRatio="none" width="100%" height="100%" overflow="visible" style="display: block;" viewBox="0 0 24 15" fill="none" xmlns="http://www.w3.org/2000/svg">
<path id="Vector" d="M0 0C0.348326 1.86907 0.824089 3.43229 1.42729 4.69816C2.03473 5.95978 2.73988 6.97927 3.54698 7.74813C4.35408 8.52974 5.22914 9.1287 6.18067 9.54074C7.13644 9.96128 8.13894 10.2671 9.18392 10.454C10.2331 10.6409 11.3036 10.7684 12.3953 10.8406C13.4785 10.9213 14.5575 11.0063 15.6322 11.0955C16.7112 11.1889 17.7519 11.3503 18.7544 11.584C19.7611 11.8134 20.7042 12.1829 21.5877 12.6842C22.4713 13.1854 23.2699 13.8821 23.9878 14.7741C23.4313 13.1727 22.8154 11.8516 22.1357 10.8024C21.4518 9.74464 20.7042 8.89081 19.8971 8.24514C19.0985 7.59946 18.2404 7.08546 17.3229 6.71165C16.4011 6.33359 15.4326 6.02774 14.4088 5.78986C13.3851 5.54349 12.3146 5.29711 11.1974 5.05498C10.076 4.8171 8.91205 4.507 7.7099 4.12469C6.49926 3.74238 5.25038 3.22839 3.96327 2.57846C2.68041 1.92429 1.35932 1.06622 0 0.00424717" fill="var(--fill-0, #94A3B8)"/>
</svg>
