<svg preserveAspectRatio="none" width="100%" height="100%" overflow="visible" style="display: block;" viewBox="0 0 42 40" fill="none" xmlns="http://www.w3.org/2000/svg">
<path id="Vector" d="M17.6 0C7.88 0 0 7.1632 0 16C0 20.5386 2.093 24.6204 5.43438 27.5281C4.9551 29.0977 3.95536 30.6587 2.11875 32.05C2.11771 32.051 2.11667 32.0521 2.11563 32.0531C1.96414 32.1107 1.83373 32.213 1.74165 32.3464C1.64957 32.4797 1.60018 32.6379 1.6 32.8C1.6 33.0122 1.68429 33.2157 1.83431 33.3657C1.98434 33.5157 2.18783 33.6 2.4 33.6C2.45467 33.5993 2.50912 33.593 2.5625 33.5813C5.66661 33.5722 8.31511 32.2463 10.4219 30.5844C11.4216 30.991 12.4652 31.3263 13.5531 31.5594C13.0667 30.1834 12.8 28.7184 12.8 27.2C12.8 19.2592 19.9776 12.8 28.8 12.8C31.0112 12.8 33.1191 13.2062 35.0375 13.9406C33.9239 6.07822 26.5504 0 17.6 0ZM28.8 16C25.4052 16 22.1495 17.18 19.749 19.2804C17.3486 21.3808 16 24.2296 16 27.2C16 30.1704 17.3486 33.0192 19.749 35.1196C22.1495 37.22 25.4052 38.4 28.8 38.4C30.4366 38.3977 32.0576 38.1209 33.575 37.5844C35.5372 38.9551 37.9118 39.9718 40.6313 39.9813C40.6867 39.9935 40.7432 39.9998 40.8 40C41.0122 40 41.2157 39.9157 41.3657 39.7657C41.5157 39.6157 41.6 39.4122 41.6 39.2C41.5997 39.0363 41.5493 38.8766 41.4554 38.7425C41.3615 38.6084 41.2287 38.5063 41.075 38.45C39.6107 37.3383 38.6722 36.1146 38.1094 34.8688C40.3463 32.7946 41.5947 30.0519 41.6 27.2C41.6 24.2296 40.2514 21.3808 37.851 19.2804C35.4505 17.18 32.1948 16 28.8 16Z" fill="var(--fill-0, white)"/>
</svg>
