<svg preserveAspectRatio="none" width="100%" height="100%" overflow="visible" style="display: block;" viewBox="0 0 47 37" fill="none" xmlns="http://www.w3.org/2000/svg">
<path id="Vector" d="M38.0344 13.559C38.0344 13.559 33.9477 13.8821 33.0567 12.4837C32.5342 11.6608 35.1467 8.53335 36.6941 6.87496C39.7786 3.5708 39.3268 0.768953 37.6836 0.132858C35.7223 -0.626921 33.7559 2.03105 31.6154 4.06554C29.9823 5.61792 28.5965 6.6705 23.2326 11.0171C17.8687 15.3638 16.9676 20.1597 16.9676 20.1597L0.50989 20.7756L0 36.3019C0 36.3019 15.1931 35.6582 21.5389 35.0499C27.8443 34.4466 33.1148 34.4163 35.2376 33.4092C37.3604 32.3995 37.7239 30.6603 37.7239 30.6603C37.7239 30.6603 38.9229 30.2969 39.4884 29.4689C40.4198 28.1034 40.0765 27.0053 40.0765 27.0053C40.0765 27.0053 41.0508 26.6999 42.3987 25.5842C43.7466 24.4685 41.8333 20.71 43.161 18.9305C44.4888 17.1509 47.8308 13.3823 45.4833 11.0323C42.9743 8.52577 38.0394 13.559 38.0394 13.559H38.0344Z" fill="var(--fill-0, #FFEBE1)"/>
</svg>
