<svg preserveAspectRatio="none" width="100%" height="100%" overflow="visible" style="display: block;" viewBox="0 0 49 60" fill="none" xmlns="http://www.w3.org/2000/svg">
<path id="Vector" d="M20.3584 59.4965H7.7122C7.15183 59.4965 6.67728 59.0901 6.58893 58.5373L0.013433 16.6737C-0.0193814 16.4642 0.008384 16.2471 0.0916821 16.0502L6.6596 0.690577C6.81105 0.337191 7.13162 0.0822526 7.51025 0.0166238C7.88888 -0.049005 8.27508 0.0822538 8.53759 0.364962C8.59313 0.425543 14.2094 6.4129 21.0222 7.75829C26.1943 8.77806 41.4757 3.55301 46.9254 1.45289C47.3596 1.28629 47.8543 1.39988 48.1698 1.74317C48.4853 2.08645 48.5611 2.58625 48.3566 3.00778L21.3781 58.8579C21.1888 59.2491 20.79 59.499 20.3558 59.499L20.3584 59.4965ZM8.68653 57.2247H19.6465L45.0878 4.55258C39.9637 6.39271 28.7462 10.1512 22.5443 10.1512C21.8148 10.1512 21.156 10.1007 20.5855 9.98715C14.9566 8.87651 10.2389 5.08266 8.09839 3.11127L2.31296 16.6434L8.68653 57.2247Z" fill="var(--fill-0, #212C68)"/>
</svg>
