<svg preserveAspectRatio="none" width="100%" height="100%" overflow="visible" style="display: block;" viewBox="0 0 23 74" fill="none" xmlns="http://www.w3.org/2000/svg">
<path id="Vector" d="M22.8266 71.656C22.7484 71.2269 14.9512 28.707 14.57 26.4706C13.8456 22.2123 11.1069 14.5363 10.5364 12.9561L11.6773 5.56783C11.7228 5.2725 11.6521 4.97213 11.4779 4.73233C10.6222 3.54091 10.0745 2.80638 9.80438 2.49086C8.70384 1.19848 6.9142 0.284721 6.56586 0.115601C6.30335 -0.0131326 6.00042 -0.0358555 5.72024 0.0550151L5.67987 0.0676406C5.4426 0.143366 5.23813 0.294813 5.09677 0.496747L0.204901 7.47612C-0.0424692 7.82951 -0.0677136 8.29396 0.13927 8.67511L2.89316 13.7033C3.05724 15.0588 3.93565 22.5657 4.05428 27.9675C4.18806 33.9826 6.71479 70.447 6.82081 71.9943C6.8612 72.59 7.35846 73.0519 7.95417 73.0519H7.95922L21.7135 72.9989C22.0492 72.9989 22.3673 72.8475 22.5843 72.5875C22.7989 72.3275 22.8872 71.9867 22.8266 71.656ZM6.38663 2.61202C6.96971 2.97045 7.63864 3.45257 8.0728 3.96498C8.21163 4.12905 8.54986 4.56321 9.36012 5.68142L8.32016 12.4185C7.99454 12.6406 7.40388 12.9662 6.67691 13.0041C5.81869 13.0495 5.10688 12.6759 4.82417 12.4992L2.47161 8.20308L6.38915 2.61202H6.38663ZM9.01178 70.7751C8.5852 64.5833 6.44216 33.3086 6.32352 27.9144C6.2276 23.6132 5.66471 18.0323 5.34414 15.1395C5.56879 15.1926 5.80861 15.2304 6.0585 15.2531L7.31554 18.0954C7.48214 18.474 7.85068 18.6961 8.2394 18.6961C8.37571 18.6961 8.51453 18.6684 8.64579 18.6103C9.15568 18.3856 9.38788 17.7899 9.1607 17.2775L8.15861 15.0083C8.37821 14.9351 8.58016 14.8518 8.76947 14.766C9.7009 17.4063 11.748 23.4189 12.3286 26.8467C12.6794 28.9039 18.9874 63.3288 20.3454 70.7271L9.01178 70.7726V70.7751Z" fill="var(--fill-0, #212C68)"/>
</svg>
