<svg preserveAspectRatio="none" width="100%" height="100%" overflow="visible" style="display: block;" viewBox="0 0 10 13" fill="none" xmlns="http://www.w3.org/2000/svg">
<path id="Vector" d="M8.71139 0.223155C8.02841 -0.200768 7.11933 -0.00293752 6.68599 0.665919C4.48159 4.0573 2.28189 7.44869 0.096329 10.8495C0.00683409 10.9861 -0.0214194 11.1557 0.0162627 11.3158C0.0539447 11.476 0.152858 11.6173 0.294166 11.7021C0.769902 11.9941 1.24092 12.2861 1.71666 12.5829C1.82028 12.6488 1.93805 12.6771 2.0511 12.6771C2.26306 12.6771 2.46559 12.5782 2.58806 12.3897C4.77833 8.99365 6.97802 5.60227 9.18713 2.21559C9.62048 1.55145 9.41794 0.665919 8.71611 0.227865L8.71139 0.223155Z" fill="var(--fill-0, #14B8A6)"/>
</svg>
