<svg preserveAspectRatio="none" width="100%" height="100%" overflow="visible" style="display: block;" viewBox="0 0 127 116" fill="none" xmlns="http://www.w3.org/2000/svg">
<path id="Vector" d="M114.884 13.8184L102.69 10.0029L100.426 9.15093L93.2922 0L90.5654 3.62356C90.5654 3.62356 89.6792 9.06679 84.6146 16.7031C77.2439 27.8183 68.7425 31.6417 68.7425 31.6417C68.7425 31.6417 60.6749 26.6745 59.7598 19.43C52.5285 14.8124 49.728 9.3613 49.728 9.3613C49.728 9.3613 45.5785 8.20954 38.0211 14.5994C32.2308 19.4931 27.7368 31.1447 24.931 40.1826C21.7335 50.4906 0 115.373 0 115.373H115.754C115.754 115.373 124.621 63.3045 125.952 57.4458C130.159 38.9178 114.884 13.8158 114.884 13.8158V13.8184Z" fill="var(--fill-0, white)"/>
</svg>
