<svg preserveAspectRatio="none" width="100%" height="100%" overflow="visible" style="display: block;" viewBox="0 0 50 54" fill="none" xmlns="http://www.w3.org/2000/svg">
<path id="Vector" d="M10.16 53.4076H1.27888C0.575489 53.4076 0 52.8321 0 52.1288V1.27888C0 0.575489 0.575489 0 1.27888 0H48.5692C49.2726 0 49.8481 0.575489 49.8481 1.27888V44.3133C49.8481 52.2709 43.276 53.2939 37.5495 53.2939C36.6258 53.2939 36.0859 53.2087 35.5175 53.1234C35.3612 53.1021 35.1978 53.0737 35.0201 53.0524C34.4304 52.9742 33.9757 52.4982 33.9189 51.9014C33.4357 46.6366 32.0645 44.2281 31.3256 42.935C31.0698 42.4874 31.1124 41.9261 31.425 41.514C31.7448 41.109 32.2776 40.9314 32.775 41.0664C33.9259 41.3861 35.4961 41.8266 37.72 41.8266C38.2173 41.8266 38.4731 41.7911 38.5868 41.7627C38.6294 41.514 38.6294 40.9669 38.6294 40.5193V31.5103H11.4389V52.1216C11.4389 52.825 10.8634 53.4005 10.16 53.4005V53.4076ZM2.55066 50.8499H8.88114V30.2385C8.88114 29.5351 9.45663 28.9596 10.16 28.9596H39.9083C40.6117 28.9596 41.1872 29.5351 41.1872 30.2385V40.5264C41.1872 42.4234 41.1872 44.3915 37.7129 44.3915C36.5974 44.3915 35.624 44.292 34.7714 44.157C35.3825 45.6491 35.9935 47.7237 36.3487 50.6651C36.6898 50.7078 37.0308 50.7362 37.5424 50.7362C45.6562 50.7362 47.2832 48.2779 47.2832 44.3133V2.55775H2.55066V50.8499ZM39.9083 23.3538H29.2225C28.5191 23.3538 27.9436 22.7783 27.9436 22.075V9.60584C27.9436 8.90245 28.5191 8.32696 29.2225 8.32696H39.9083C40.6117 8.32696 41.1872 8.90245 41.1872 9.60584V22.075C41.1872 22.7783 40.6117 23.3538 39.9083 23.3538ZM30.5014 20.7961H38.6294V10.8847H30.5014V20.7961ZM20.6753 23.3538H10.16C9.45663 23.3538 8.88114 22.7783 8.88114 22.075V9.60584C8.88114 8.90245 9.45663 8.32696 10.16 8.32696H20.6753C21.3787 8.32696 21.9542 8.90245 21.9542 9.60584V22.075C21.9542 22.7783 21.3787 23.3538 20.6753 23.3538ZM11.4389 20.7961H19.3964V10.8847H11.4389V20.7961Z" fill="var(--fill-0, white)"/>
</svg>
