<svg preserveAspectRatio="none" width="100%" height="100%" overflow="visible" style="display: block;" viewBox="0 0 56 31" fill="none" xmlns="http://www.w3.org/2000/svg">
<path id="Vector" d="M50.2621 4.87057C49.4695 4.15118 48.7627 3.3586 48.1418 2.6594C46.8948 1.25848 45.9104 0.152876 44.6559 0.0165702C41.9676 -0.278759 35.4881 3.45957 33.9458 4.37837L11.9096 11.7515L4.60466 11.7162H4.5996C4.35223 11.7162 4.10992 11.7969 3.91303 11.9484C3.79187 12.0393 0.952166 14.2555 0.222676 19.4831C-0.479047 24.5188 0.697214 28.0224 0.750222 28.1688C0.909246 28.6307 1.34844 28.9387 1.8356 28.9362L10.2412 28.8554C10.9303 28.9841 14.3001 29.5546 17.2937 29.0371C22.1856 28.1941 24.9622 26.1343 26.1259 25.059L32.4186 28.141C32.8276 28.3758 36.0358 30.1957 38.6837 30.6173C40.6854 30.9353 42.1898 30.0821 43.0657 29.3602C43.9163 30.0342 45.3021 30.8924 46.8267 30.8924C47.4325 30.8924 48.061 30.7561 48.687 30.4204C48.7173 30.4052 48.7451 30.3876 48.7728 30.3699C50.0021 29.5622 50.4186 28.4692 50.4565 27.4923C51.0118 27.4671 51.615 27.3207 52.13 26.9219C52.6853 26.4927 53.3189 25.6244 53.1674 23.9307C52.9024 20.9572 47.7304 16.242 46.698 15.3283C46.6879 15.3182 46.6778 15.3106 46.6651 15.3005L41.1952 10.8125L43.361 9.48226C45.1834 11.1407 49.626 14.8007 52.65 14.1167C53.4123 13.945 54.4371 13.425 54.9874 11.9383C55.7068 9.99719 53.6849 7.97279 50.2697 4.87057H50.2621ZM52.1426 11.9004C50.4413 12.2866 46.5263 9.41159 44.2924 7.24584C43.9188 6.88488 43.3509 6.82178 42.9066 7.09439L39.1431 9.40654L37.3307 8.90423C36.7249 8.73763 36.1014 9.09102 35.9323 9.69683C35.7657 10.3026 36.1191 10.9261 36.7249 11.0952L38.5751 11.6076L45.2062 17.0447C47.4956 19.0742 50.7669 22.6055 50.9032 24.1352C50.9562 24.7309 50.8553 25.0363 50.7417 25.1246C50.6003 25.2357 50.2823 25.2458 49.9743 25.2079L42.9874 18.6021C42.9319 18.5491 42.8688 18.5012 42.8031 18.4608L35.9399 14.2202C35.4048 13.8895 34.7055 14.0561 34.3774 14.5887C34.0467 15.1213 34.2133 15.823 34.7459 16.1512L41.5108 20.3312L47.9777 26.4473C47.9954 26.5104 48.0156 26.5735 48.0459 26.6341C48.1645 26.9017 48.4724 27.8154 47.5663 28.4439C46.4607 28.9942 45.0926 28.088 44.3656 27.4898C44.3076 27.2904 44.199 27.1036 44.0324 26.9547L39.0724 22.5247C38.9992 22.4591 38.9159 22.4036 38.8301 22.3581L32.0021 18.8975C31.4418 18.6148 30.7603 18.8369 30.475 19.3973C30.1923 19.9576 30.4144 20.6392 30.9748 20.9244L37.6689 24.3169L41.4779 27.7195C40.9453 28.1208 40.1048 28.5424 39.0345 28.3707C36.6896 27.9972 33.5545 26.1747 33.5242 26.157C33.499 26.1419 33.4737 26.1293 33.451 26.1166L26.3833 22.656C25.9088 22.4238 25.3332 22.555 25.0001 22.9639C24.9773 22.9917 22.6097 25.8137 16.9075 26.7982C14.0502 27.2904 10.6021 26.6114 10.5668 26.6038C10.4885 26.5887 10.4128 26.5811 10.332 26.5811L2.69383 26.6568C2.42374 25.4578 2.0325 22.9589 2.47423 19.7986C2.94878 16.3884 4.42795 14.5988 5.03628 13.993L12.0889 14.0283C12.2075 14.0283 12.3362 14.0081 12.4549 13.9703L34.7863 6.49867C34.8646 6.47343 34.9378 6.4381 35.0084 6.39519C38.0274 4.58787 42.942 2.11922 44.4136 2.27824C44.7998 2.32116 45.7539 3.39141 46.4506 4.17391C47.1119 4.91602 47.8591 5.75657 48.74 6.55674C49.9996 7.7002 52.9478 10.3783 52.8569 11.1507C52.6449 11.7187 52.3799 11.85 52.1477 11.903L52.1426 11.9004Z" fill="var(--fill-0, #212C68)"/>
</svg>
