<svg preserveAspectRatio="none" width="100%" height="100%" overflow="visible" style="display: block;" viewBox="0 0 9 18" fill="none" xmlns="http://www.w3.org/2000/svg">
<path id="Vector" d="M6.94122 0.296813C2.87326 3.91774 0.653874 6.05033 0.343583 6.6341C0.188438 6.92335 -0.171799 7.60442 0.0964183 15.9428C0.117455 16.5818 0.643371 17.0893 1.27973 17.0893C1.29288 17.0893 1.30603 17.0893 1.31918 17.0893C1.97132 17.0683 2.48408 16.5213 2.46304 15.8692C2.35786 12.5638 2.3342 8.63784 2.47357 7.71486C3.07311 7.01276 5.93672 4.36477 8.51634 2.06652C9.00544 1.63264 9.04751 0.883209 8.61363 0.396737C8.17975 -0.0923649 7.43033 -0.134438 6.94385 0.299443L6.94122 0.296813Z" fill="var(--fill-0, #202933)"/>
</svg>
