<svg preserveAspectRatio="none" width="100%" height="100%" overflow="visible" style="display: block;" viewBox="0 0 71 26" fill="none" xmlns="http://www.w3.org/2000/svg">
<path id="Vector" d="M44.252 25.1725C43.3842 25.1725 42.4823 25.1357 41.5646 25.0516C35.961 24.5309 31.8378 21.4359 30.6071 20.4051L25.39 20.5076C23.9832 21.2886 18.469 24.1443 15.1215 22.9084C14.3405 22.6192 13.7699 22.088 13.4701 21.3701C13.407 21.2203 13.3597 21.0677 13.3229 20.9126C11.0299 22.1932 7.94802 23.5238 6.23091 22.6297C5.1633 22.0722 4.60583 21.3386 4.34814 20.6391C3.47249 20.6864 2.50216 20.4761 1.82636 19.6583C1.22419 18.9299 1.1348 18.1436 1.26628 17.4573C0.892875 17.247 0.540509 16.934 0.277551 16.4791C-0.442954 15.2432 0.224962 13.5682 2.44959 11.049C3.7223 9.6054 5.08442 8.36686 5.29216 8.18016L8.84998 4.6276C8.94727 4.5303 9.06035 4.45143 9.18657 4.39358C10.1122 3.9597 18.3454 0.159949 21.9374 0.00217448C23.3311 -0.0609354 27.144 1.25385 33.2446 3.40222C34.9512 4.00176 36.713 4.62497 38.296 5.15878C44.0706 7.10993 50.1686 8.42209 51.06 8.61142L66.5561 8.72449C67.2109 8.72975 67.7341 9.26356 67.7315 9.91569C67.7263 10.5678 67.1951 11.0858 66.5403 11.0911L50.9259 10.9754C50.8496 10.9754 50.7734 10.9675 50.6971 10.9517C50.6287 10.9386 43.8944 9.54755 37.5387 7.39918C35.9425 6.86012 34.1728 6.2369 32.4584 5.63473C28.4877 4.23579 23.0523 2.32146 22.0426 2.36616C19.4656 2.47924 12.9285 5.27186 10.3778 6.44991L6.94616 9.87888C6.93038 9.89465 6.91461 9.91043 6.89883 9.92357C4.59532 11.9825 2.49955 14.5122 2.38121 15.3563C2.53373 15.4957 2.81509 15.4799 2.82035 15.4799C3.31208 15.4036 3.7591 15.6482 3.9984 16.0821C4.23769 16.5159 4.14566 17.0576 3.82222 17.431C3.82222 17.431 3.44882 17.8965 3.65919 18.1515C3.84063 18.3698 4.54798 18.2778 4.95557 18.1174C5.39734 17.9412 5.92589 17.9964 6.25721 18.3356C6.58591 18.6696 6.70687 19.114 6.53595 19.5452C6.51491 19.6977 6.54383 20.1185 7.3327 20.5287C8.02691 20.8863 11.3113 19.5058 14.0907 17.6835C14.5299 17.3942 15.1084 17.431 15.5081 17.7729C15.9078 18.1147 16.034 18.6801 15.8184 19.1587C15.6764 19.4847 15.5265 20.129 15.6632 20.455C15.6843 20.505 15.7263 20.5997 15.9525 20.6838C17.9168 21.4096 22.2293 19.6083 24.4855 18.3014C24.659 18.2015 24.8562 18.1463 25.0561 18.141L31.0279 18.0253C31.3381 18.0174 31.6353 18.1331 31.8588 18.3435C31.8982 18.3803 36.0267 22.1564 41.796 22.6902C46.9578 23.1688 51.6937 21.9197 51.741 21.9066C51.8594 21.875 51.983 21.8619 52.1039 21.8671L69.5854 22.6849C70.2375 22.7165 70.7424 23.2687 70.7108 23.9235C70.6793 24.5756 70.1297 25.0831 69.4723 25.0489L52.167 24.239C51.3676 24.4389 48.1727 25.1673 44.2625 25.1673L44.252 25.1725Z" fill="var(--fill-0, #202933)"/>
</svg>
