<svg preserveAspectRatio="none" width="100%" height="100%" overflow="visible" style="display: block;" viewBox="0 0 66 67" fill="none" xmlns="http://www.w3.org/2000/svg">
<path id="Vector" d="M5.79981 39.4463V63.671C5.79981 64.3572 6.35369 64.9111 7.03984 64.9111C7.726 64.9111 8.27988 64.3572 8.27988 63.671V39.3085C8.27988 39.2175 8.26886 39.1266 8.24957 39.0357L2.53438 13.5598C4.50191 9.35471 8.5086 2.92856 11.5095 2.50695C11.9862 2.43806 12.7247 2.47113 13.612 3.49898C26.3706 20.617 41.0168 28.1013 41.6369 28.4099C41.8105 28.4954 42.0006 28.5422 42.1935 28.5422H44.8885C45.2963 28.5422 45.6794 28.341 45.9108 28.0048C46.101 27.7265 50.1022 21.7248 49.022 9.01301C57.3991 22.105 59.7772 38.9282 59.8599 39.5234L62.6513 66.4019H65.1452L62.3262 39.2478C62.3262 39.2478 62.3262 39.2258 62.3234 39.2148C62.2077 38.3385 59.3804 17.5637 48.1346 3.50174C47.7819 3.06083 47.1757 2.91479 46.6576 3.14351C46.1423 3.37498 45.8475 3.9261 45.9439 4.48274C48.1071 17.1669 45.1668 24.1552 44.1776 26.0566H42.5049C40.5126 24.9874 27.0843 17.426 15.5823 1.97787C15.5658 1.95582 15.5492 1.93653 15.5327 1.91449C13.973 0.0792332 12.3004 -0.113655 11.1705 0.043416C5.72816 0.809483 0.668812 11.6667 0.109418 12.9012C-0.000807603 13.1465 -0.0283579 13.422 0.0295105 13.6838L5.80808 39.4352L5.79981 39.4463Z" fill="var(--fill-0, #202933)"/>
</svg>
