<svg preserveAspectRatio="none" width="100%" height="100%" overflow="visible" style="display: block;" viewBox="0 0 45 23" fill="none" xmlns="http://www.w3.org/2000/svg">
<path id="Vector" d="M24.9962 22.0636C24.8384 22.0636 24.6833 22.032 24.536 21.9715L0.722559 11.9029C0.120386 11.6478 -0.160979 10.9536 0.0940898 10.3514C0.349159 9.74924 1.04337 9.46787 1.64554 9.72294L24.3572 19.3262C25.5484 16.5388 28.9406 9.29958 33.8184 4.77144C38.0047 0.884922 42.6828 0.0513571 42.88 0.0171726C43.5242 -0.0932698 44.1343 0.340609 44.2447 0.984856C44.3552 1.6291 43.9213 2.23917 43.2797 2.34961C43.2139 2.36276 39.0645 3.12796 35.4278 6.50434C29.8241 11.7056 26.1401 21.2089 26.1033 21.3036C25.9876 21.6034 25.7562 21.8427 25.4616 21.9689C25.3144 22.032 25.1566 22.0636 24.9988 22.0636H24.9962Z" fill="var(--fill-0, #202933)"/>
</svg>
