<svg preserveAspectRatio="none" width="100%" height="100%" overflow="visible" style="display: block;" viewBox="0 0 38 51" fill="none" xmlns="http://www.w3.org/2000/svg">
<path id="Vector" d="M33.167 50.1986H13.5844C11.6088 50.1986 9.93359 48.8526 9.50035 46.929L4.32452 23.8862C4.16856 23.1872 4.60758 22.4883 5.30655 22.3323C6.01129 22.1763 6.70448 22.6154 6.86045 23.3143L12.0363 46.3571C12.198 47.085 12.8392 47.5991 13.5844 47.5991H33.167C33.6523 47.5991 34.1028 47.3796 34.409 47.0041C34.7152 46.6229 34.8249 46.1376 34.7209 45.6639L25.3282 3.84721C25.1665 3.11936 24.5253 2.60524 23.7801 2.60524H4.19166C3.70643 2.60524 3.25586 2.82475 2.9497 3.20023C2.64354 3.58149 2.53378 4.06672 2.63776 4.5404L4.24365 11.686C4.39962 12.385 3.9606 13.084 3.26163 13.2399C2.56267 13.3959 1.86947 12.9569 1.70773 12.2579L0.101838 5.10651C-0.175439 3.85876 0.119167 2.57058 0.916337 1.57123C1.71351 0.571883 2.90926 0 4.18589 0H23.7685C25.7441 0 27.4251 1.34595 27.8526 3.26955L37.2453 45.0863C37.5226 46.334 37.228 47.6222 36.4308 48.6216C35.6336 49.6209 34.4379 50.1928 33.1613 50.1928L33.167 50.1986Z" fill="var(--fill-0, #202933)"/>
</svg>
