<svg preserveAspectRatio="none" width="100%" height="100%" overflow="visible" style="display: block;" viewBox="0 0 4 4" fill="none" xmlns="http://www.w3.org/2000/svg">
<path id="Vector" d="M0.490667 0.0426667C0.478815 0.00948148 0.458667 -0.00118518 0.430222 0.0106667L0.032 0.145778C0.0177778 0.150519 0.0082963 0.158815 0.00355556 0.170667C-0.00118519 0.182519 -0.00118519 0.195556 0.00355556 0.209778C0.247704 0.835556 0.41363 1.25867 0.501333 1.47911C0.745481 2.09067 0.943407 2.6003 1.09511 3.008C1.10696 3.04119 1.1283 3.05185 1.15911 3.04L1.56444 2.912C1.58104 2.90963 1.5917 2.90252 1.59644 2.89067C1.60119 2.87881 1.6 2.86578 1.59289 2.85156L1.41156 2.44622C1.23615 2.05985 1.09511 1.73867 0.988444 1.48267C1.05007 1.53244 1.11526 1.57037 1.184 1.59644C1.25274 1.62252 1.3203 1.63556 1.38667 1.63556C1.50756 1.63556 1.61067 1.59289 1.696 1.50756C1.78133 1.42222 1.8323 1.29659 1.84889 1.13067C1.85363 1.08326 1.856 1.04415 1.856 1.01333C1.85837 0.963556 1.86193 0.912 1.86667 0.858667C1.87141 0.805333 1.87852 0.760889 1.888 0.725333C1.90459 0.649481 1.93363 0.592 1.97511 0.552889C2.01659 0.513778 2.06459 0.494222 2.11911 0.494222C2.16652 0.494222 2.21452 0.508444 2.26311 0.536889C2.3117 0.565333 2.35615 0.60563 2.39644 0.657778C2.46044 0.73363 2.51259 0.845037 2.55289 0.992C2.59319 1.13896 2.62044 1.3037 2.63467 1.48622C2.63941 1.52415 2.65956 1.536 2.69511 1.52178L3.072 1.35822C3.10044 1.34637 3.1123 1.32622 3.10756 1.29778C3.07911 1.06785 3.03585 0.869926 2.97778 0.704C2.9197 0.538074 2.8397 0.399407 2.73778 0.288C2.65481 0.195556 2.55644 0.124444 2.44267 0.0746667C2.32889 0.0248889 2.21393 0 2.09778 0C1.94133 0 1.80444 0.0444444 1.68711 0.133333C1.56978 0.222222 1.49215 0.35437 1.45422 0.529778C1.43289 0.598519 1.41985 0.718222 1.41511 0.888889L1.41156 0.970667C1.40444 1.04889 1.38489 1.10815 1.35289 1.14844C1.32089 1.18874 1.28 1.20889 1.23022 1.20889C1.14726 1.20889 1.05541 1.15674 0.954667 1.05244C0.853926 0.948148 0.763259 0.801185 0.682667 0.611556C0.609185 0.402963 0.545185 0.213333 0.490667 0.0426667Z" fill="var(--fill-0, white)"/>
</svg>
