<svg preserveAspectRatio="none" width="100%" height="100%" overflow="visible" style="display: block;" viewBox="0 0 13 33" fill="none" xmlns="http://www.w3.org/2000/svg">
<path id="Vector" d="M1.13493 32.6698C0.920377 32.6698 0.703302 32.6092 0.50894 32.4805C-0.0135662 32.1347 -0.15745 31.4304 0.188364 30.9054L10.4416 15.417L5.98135 9.77543C5.63554 9.33622 5.65825 8.71275 6.03688 8.30131L9.87871 4.13387L8.25059 1.78133C7.89468 1.2664 8.02342 0.557108 8.53835 0.201198C9.05329 -0.154712 9.76259 -0.0259822 10.1185 0.488951L12.2641 3.58865C12.567 4.02533 12.5266 4.61347 12.1656 5.00472L8.3642 9.12671L12.7335 14.6522C13.039 15.0384 13.0617 15.5735 12.7891 15.9824L2.0815 32.1574C1.8619 32.488 1.50094 32.6673 1.13241 32.6673L1.13493 32.6698Z" fill="var(--fill-0, #212C68)"/>
</svg>
