<svg preserveAspectRatio="none" width="100%" height="100%" overflow="visible" style="display: block;" viewBox="0 0 11 36" fill="none" xmlns="http://www.w3.org/2000/svg">
<path id="Vector" d="M3.62698 35.8421C3.06661 35.8421 2.57691 35.4256 2.50118 34.8551L0.00981584 15.9162C-0.043192 15.5148 0.120888 15.116 0.443984 14.8686L5.6236 10.8779L3.1903 8.75758C2.7208 8.34866 2.66779 7.63684 3.07418 7.16229L8.86213 0.39748C9.27105 -0.0795909 9.98793 -0.135121 10.4625 0.273797C10.9395 0.682715 10.9951 1.39958 10.5862 1.87413L5.53021 7.78325L8.16042 10.0752C8.41788 10.2999 8.55923 10.6255 8.54914 10.9662C8.53904 11.307 8.37749 11.6251 8.1074 11.832L2.34721 16.2696L4.75277 34.5623C4.83354 35.1833 4.39686 35.7537 3.77338 35.837C3.7229 35.8446 3.67241 35.8471 3.62445 35.8471L3.62698 35.8421Z" fill="var(--fill-0, #212C68)"/>
</svg>
