<svg preserveAspectRatio="none" width="100%" height="100%" overflow="visible" style="display: block;" viewBox="0 0 35 61" fill="none" xmlns="http://www.w3.org/2000/svg">
<path id="Vector" d="M33.0196 60.7502C32.6082 60.7502 32.2119 60.5255 32.01 60.1342L18.6873 34.3396L6.16988 15.5218C5.86446 15.0624 5.93258 14.4465 6.33393 14.0679L9.46898 11.102L1.06596 8.74438C0.591411 8.6106 0.255718 8.18654 0.238049 7.6918L0.000759554 1.17688C-0.0219581 0.550879 0.467723 0.0233234 1.09372 0.000605731C1.72224 -0.0195877 2.24728 0.467577 2.27 1.09357L2.477 6.78056L12.0108 9.4562C12.4046 9.56726 12.71 9.88026 12.8059 10.2766C12.9044 10.6729 12.7807 11.0919 12.4828 11.3746L8.58551 15.0599L20.6082 33.1331C20.6309 33.1684 20.6536 33.2037 20.6713 33.2416L34.0217 59.0918C34.3095 59.6496 34.0899 60.3337 33.5345 60.6214C33.3679 60.7072 33.1887 60.7476 33.0146 60.7476L33.0196 60.7502Z" fill="var(--fill-0, #212C68)"/>
</svg>
