<svg preserveAspectRatio="none" width="100%" height="100%" overflow="visible" style="display: block;" viewBox="0 0 30 30" fill="none" xmlns="http://www.w3.org/2000/svg">
<path id="Vector" d="M28.8744 29.0539C28.5151 29.0539 28.1852 28.8193 28.0825 28.4563C23.9767 14.163 23.3792 4.44102 23.3755 4.34571C23.3682 4.21007 23.3939 4.07076 23.4525 3.94612L23.8484 3.10663L18.8665 6.35462C18.8298 6.38028 18.7895 6.39861 18.7492 6.41694L7.28221 11.4869C7.18323 11.5309 7.07325 11.5565 6.96327 11.5565C6.79831 11.5602 2.88679 11.7142 2.3699 16.1829C2.2196 17.477 1.97765 20.9266 1.64771 26.4291C1.62205 26.8837 1.2298 27.2283 0.77523 27.2026C0.320658 27.1769 -0.0276026 26.7847 0.00172461 26.3301C0.331656 20.7983 0.577271 17.3193 0.731239 15.9923C1.34711 10.6694 5.76452 9.99853 6.74698 9.91788L18.0196 4.93225L25.3808 0.133581C25.6887 -0.0680433 26.0956 -0.0387152 26.3742 0.203234C26.6528 0.445184 26.7372 0.841099 26.5795 1.1747L25.0398 4.45201C25.1498 5.91104 25.9453 15.0318 29.6699 27.9981C29.7945 28.4343 29.5416 28.8926 29.1053 29.0172C29.0283 29.0392 28.9514 29.0502 28.878 29.0502L28.8744 29.0539Z" fill="var(--fill-0, #202933)"/>
</svg>
