<svg preserveAspectRatio="none" width="100%" height="100%" overflow="visible" style="display: block;" viewBox="0 0 107 114" fill="none" xmlns="http://www.w3.org/2000/svg">
<path id="Vector" d="M2.1616 43.5373L3.74885 41.7489C4.63892 41.5726 6.34468 41.432 7.32293 42.176C7.92091 42.6335 8.213 43.4106 8.213 44.5486C8.213 44.5734 8.213 44.5955 8.213 44.6203C8.66217 52.2975 12.6799 57.0675 12.8507 57.2659C13.1786 57.6489 13.705 57.795 14.1817 57.6352C14.3828 57.569 19.2411 55.9267 29.6739 49.7816C35.1383 46.563 39.6658 43.3996 41.6361 41.9859L43.0966 44.1711C43.2812 44.4467 43.5678 44.6368 43.8957 44.7002C44.2209 44.7608 44.5598 44.6919 44.8327 44.5046L49.2444 41.4651C49.2582 41.4541 49.2747 41.443 49.2885 41.4348C55.519 36.7309 75.3155 14.3772 76.1559 13.4265C76.2689 13.297 76.3544 13.1482 76.4067 12.9856C76.9937 11.1641 77.6578 9.1277 77.7542 8.89072C78.1951 8.0282 82.0916 5.1458 84.6709 3.23615L85.6794 2.48937C86.1286 2.49213 87.3466 3.46211 88.1815 4.48721C88.2174 4.5313 88.2587 4.57539 88.3001 4.61396C88.3772 4.68561 90.24 6.40789 95.3076 10.3099C100.058 13.9666 102.577 16.5707 102.77 16.7718C102.999 17.0364 105.765 20.3018 103.82 22.8949C99.6064 28.5108 97.3275 32.5065 97.1539 32.8152C96.8536 33.3194 88.5839 47.2299 83.0809 57.4588C78.7159 65.5714 72.254 80.9065 69.5149 89.6529C67.597 95.0512 66.0235 103.136 64.8441 113.682C64.8413 113.712 64.8441 113.74 64.8441 113.767H67.3324C68.4925 103.489 70.0164 95.6492 71.8627 90.4603C71.8682 90.4465 71.8737 90.43 71.8792 90.4135C74.577 81.7911 80.959 66.6433 85.2689 58.6327C90.8215 48.3129 99.2123 34.2095 99.2978 34.069C99.3033 34.0607 99.3088 34.0524 99.3143 34.0414C99.3364 34.0001 101.624 29.9631 105.809 24.3801C108.378 20.9576 106.148 16.8159 104.613 15.1019C104.608 15.0937 104.6 15.0881 104.594 15.0799C104.487 14.9669 101.927 12.2664 96.826 8.34235C92.3508 4.8978 90.4026 3.1645 90.0526 2.85036C89.3527 2.00162 86.4786 -1.18941 84.2382 0.472243L83.2021 1.24107C78.3412 4.83717 75.9934 6.66968 75.4753 7.929C75.3182 8.30652 74.4888 10.872 74.1333 11.977C72.1437 14.2201 53.5845 35.0748 47.8225 39.4397L44.4689 41.7517L42.9891 39.5361C42.799 39.2523 42.5014 39.0594 42.1679 39.0016C41.8318 38.9437 41.4873 39.0264 41.2145 39.2303C41.1594 39.2716 35.6233 43.4078 28.4256 47.646C20.6492 52.2258 16.0059 54.2595 14.2341 54.9705C13.22 53.499 11.0127 49.7403 10.6986 44.5128C10.6903 42.5894 10.0593 41.1372 8.82474 40.1975C6.52654 38.4532 3.1371 39.3295 2.75683 39.4369C2.52811 39.5003 2.32143 39.6298 2.1616 39.8089L0.312577 41.8922C-0.142103 42.4048 -0.0952556 43.1874 0.417293 43.642C0.929841 44.0967 1.71244 44.0499 2.16712 43.5373H2.1616Z" fill="var(--fill-0, #202933)"/>
</svg>
