<svg preserveAspectRatio="none" width="100%" height="100%" overflow="visible" style="display: block;" viewBox="0 0 12 12" fill="none" xmlns="http://www.w3.org/2000/svg">
<path id="Vector" d="M2.2826 11.1639C1.72223 11.1639 1.23759 10.7499 1.15934 10.187L0.0108353 2.00865C-0.0320758 1.7007 0.0537466 1.3877 0.245585 1.14286C0.439947 0.898011 0.725181 0.746562 1.03566 0.718796L9.11304 0.00444707C9.71632 -0.0485608 10.254 0.378023 10.3373 0.978779L11.4858 9.15714C11.5287 9.46509 11.4429 9.77809 11.251 10.0229C11.0567 10.2678 10.7714 10.4192 10.461 10.447L2.38357 11.1639C2.35075 11.1664 2.31542 11.1689 2.2826 11.1689V11.1639ZM2.42396 2.87444L3.25694 8.80122L9.06761 8.2863L8.23463 2.35952L2.42396 2.87444Z" fill="var(--fill-0, #212C68)"/>
</svg>
