<svg preserveAspectRatio="none" width="100%" height="100%" overflow="visible" style="display: block;" viewBox="0 0 11 9" fill="none" xmlns="http://www.w3.org/2000/svg">
<path id="Vector" d="M3.32308 0C3.19093 0 3.10543 0.0582996 3.06656 0.174899L2.43692 1.90057L2.4136 1.99385C2.4136 2.11045 2.48356 2.16097 2.62348 2.14543C2.77117 2.13765 2.98883 2.13377 3.27644 2.13377C4.70672 2.13377 5.75611 2.31644 6.42462 2.68178C6.81328 2.89166 7.12032 3.16955 7.34575 3.51547C7.57117 3.86138 7.68389 4.217 7.68389 4.58235C7.68389 5.04097 7.49344 5.42381 7.11255 5.73085C6.73166 6.03789 6.17198 6.19142 5.43352 6.19142C4.78834 6.19142 4.09069 6.10785 3.34057 5.94073C2.59045 5.7736 1.75287 5.55401 0.827854 5.28194L0.746235 5.27028C0.652955 5.27028 0.586883 5.3247 0.548016 5.43352L0.0116599 7.10089C0.00388664 7.12421 0 7.1553 0 7.19417C0 7.28745 0.054413 7.34575 0.163239 7.36907C2.0366 7.7966 3.70008 8.06478 5.15368 8.1736L5.79498 8.19692C6.75887 8.19692 7.5634 8.03368 8.20858 7.70721C8.85377 7.38073 9.32988 6.94737 9.63692 6.40713C9.94397 5.86688 10.0975 5.27806 10.0975 4.64065C10.0975 3.89441 9.89733 3.17733 9.497 2.48939C9.09668 1.80146 8.55061 1.27093 7.85879 0.897814C6.79385 0.330364 5.28194 0.0310931 3.32308 0Z" fill="var(--fill-0, #14B8A6)"/>
</svg>
