<svg preserveAspectRatio="none" width="100%" height="100%" overflow="visible" style="display: block;" viewBox="0 0 46 56" fill="none" xmlns="http://www.w3.org/2000/svg">
<path id="Vector" d="M13.7709 55.4645C11.2728 55.4645 8.84828 55.1095 6.96024 54.1155C4.49633 52.8218 1.47757 49.832 0.394182 45.3301C-0.415729 41.9643 -0.373662 36.5184 4.43847 29.6973C4.44899 29.6841 4.45951 29.6683 4.47003 29.6552C11.9617 19.9626 19.2325 11.8188 25.0702 5.27899C26.6295 3.53295 28.1021 1.88158 29.3984 0.403752C29.6088 0.16183 29.9112 0.0172037 30.232 0.00142622C30.5502 -0.0143513 30.8658 0.101356 31.0998 0.319611C40.5873 9.22863 44.8314 11.4532 44.8735 11.4743C45.4547 11.7714 45.6861 12.484 45.3889 13.0652C45.0944 13.6463 44.3844 13.8803 43.8033 13.5858C43.6297 13.4991 39.5565 11.3954 30.374 2.88082C29.2801 4.11935 28.0863 5.45781 26.8372 6.85674C21.0259 13.365 13.7945 21.4667 6.35807 31.0857C2.96591 35.9031 1.69845 40.6389 2.69506 44.7805C3.59438 48.5198 6.1477 51.0205 8.06204 52.025C13.6604 54.9675 25.8958 51.0337 26.0194 50.9942C26.64 50.7918 27.3079 51.131 27.5104 51.7516C27.7129 52.3721 27.3737 53.04 26.7531 53.2425C26.3692 53.3687 19.8452 55.4645 13.7709 55.4645Z" fill="var(--fill-0, #202933)"/>
</svg>
