<svg preserveAspectRatio="none" width="100%" height="100%" overflow="visible" style="display: block;" viewBox="0 0 7 10" fill="none" xmlns="http://www.w3.org/2000/svg">
<path id="Vector" d="M0.256433 0C0.157054 0 0.107365 0.0496894 0.107365 0.149068V0.385093C0.107365 0.426501 0.132209 0.480331 0.181899 0.546584L2.5173 3.14286C3.21295 3.90476 3.73469 4.5176 4.08252 4.98137C4.43035 5.44513 4.66637 5.83851 4.79059 6.16149C4.91482 6.48447 4.97693 6.81988 4.97693 7.1677C4.97693 7.64803 4.80716 8.03106 4.46761 8.31677C4.12807 8.60248 3.68915 8.74534 3.15084 8.74534C2.63739 8.74534 2.2026 8.61491 1.8465 8.35404C1.49039 8.09317 1.22952 7.71015 1.06389 7.20497C1.02248 7.12215 0.964508 7.09317 0.889973 7.11801L0.107365 7.32919C0.0162674 7.34576 -0.0168589 7.40373 0.0079858 7.50311C0.248151 8.24017 0.643597 8.81159 1.19432 9.21739C1.74505 9.62319 2.40964 9.82609 3.18811 9.82609C3.75954 9.82609 4.26471 9.71843 4.70364 9.50311C5.14256 9.28778 5.48418 8.98758 5.72848 8.60248C5.97279 8.21739 6.09494 7.77226 6.09494 7.26708C6.09494 6.81159 6.02662 6.38509 5.88997 5.98758C5.75333 5.59006 5.48625 5.11387 5.08873 4.55901C4.69122 4.00414 4.09494 3.31263 3.29991 2.48447L1.93345 1.04348H6.34339C6.3848 1.04348 6.41792 1.03106 6.44277 1.00621C6.46761 0.981366 6.48004 0.94824 6.48004 0.906832V0.149068C6.48004 0.0496894 6.43449 0 6.34339 0H0.256433Z" fill="var(--fill-0, #64748B)"/>
</svg>
