<svg preserveAspectRatio="none" width="100%" height="100%" overflow="visible" style="display: block;" viewBox="0 0 4 10" fill="none" xmlns="http://www.w3.org/2000/svg">
<path id="Vector" d="M2.37267 0C2.28157 0 2.23602 0.0496894 2.23602 0.149068V8.06211L0.372671 7.01863C0.339545 7.00207 0.3147 6.99379 0.298137 6.99379C0.26501 6.99379 0.227743 7.02692 0.186335 7.09317L0.0248447 7.37888C0.00828157 7.39545 0 7.42029 0 7.45342C0 7.51139 0.0207039 7.54865 0.0621118 7.56522L2.44721 9.57764C2.48861 9.61905 2.54658 9.63975 2.62112 9.63975H3.19255C3.28364 9.63975 3.32919 9.5942 3.32919 9.50311V0.149068C3.32919 0.0496894 3.28364 0 3.19255 0H2.37267Z" fill="var(--fill-0, #64748B)"/>
</svg>
