<svg preserveAspectRatio="none" width="100%" height="100%" overflow="visible" style="display: block;" viewBox="0 0 29 62" fill="none" xmlns="http://www.w3.org/2000/svg">
<path id="Vector" d="M27.4033 0.548795C26.7646 0.11716 25.4495 -0.450783 23.829 0.586657C21.2291 2.24252 20.3204 6.15501 19.654 9.01239C19.5606 9.41373 19.4723 9.79488 19.3839 10.1508C18.8639 12.2332 18.6368 14.7473 18.4146 17.1756C18.4071 17.2463 18.402 17.3144 18.3944 17.3851C17.8366 17.2337 17.5387 17.1074 17.2156 16.9358C16.9127 16.7742 16.6376 16.6051 16.3726 16.4385C15.431 15.8529 14.4567 15.2471 12.8387 15.5071C11.9073 15.656 11.2005 16.1331 10.8143 16.8449C10.0621 17.1352 9.43358 17.6501 8.97671 18.3519C6.27078 18.049 4.92791 19.2177 4.26658 20.3132C4.14289 20.5201 4.0394 20.7524 3.95358 21.0199C3.29224 21.2143 2.55266 21.6156 1.91152 22.4133C0.361667 24.3443 0.144585 26.7473 1.20727 30.2029C1.48998 31.1217 1.91657 31.9799 2.45674 32.7145C1.82065 34.2366 0.303612 38.1238 0.0511939 41.1124C-0.403159 46.4889 2.29267 49.8411 3.16604 50.7725L5.51606 60.4073C5.60441 60.7733 5.87197 61.0712 6.22536 61.2024C6.31118 61.2352 7.57578 61.6871 9.70115 61.6871C11.1526 61.6871 13.0078 61.475 15.161 60.7733C20.4996 59.0342 22.4458 55.8259 22.5265 55.6896C22.6805 55.4271 22.7259 55.1141 22.6477 54.8213L20.1588 45.4162C20.6914 44.0026 22.7891 38.4671 24.3212 35.115C26.8505 29.5719 26.1967 23.0368 26.1008 22.2063C26.1109 20.6186 26.2674 14.2501 26.8606 11.4583C27.1483 10.0978 27.5673 8.55551 27.9384 7.19245C28.2312 6.11462 28.4861 5.1832 28.625 4.51934C29.1323 2.12136 28.0797 1.00062 27.4058 0.546269L27.4033 0.548795ZM13.2451 28.1684C13.2451 28.1684 13.2274 28.1911 13.2173 28.2012C12.8614 28.6026 12.3667 29.1806 11.8114 29.8798C11.7836 29.852 11.7558 29.8268 11.7281 29.7965C11.5615 29.6097 11.405 29.3624 11.2762 29.0822C10.3019 26.9593 10.2439 22.7086 10.4332 20.8735C10.4836 20.5555 10.5594 20.2703 10.6578 20.0254C10.6578 20.0254 10.6578 20.0254 10.6578 20.0229C10.6578 20.0229 10.6578 20.0229 10.6578 20.0204C10.6831 19.9572 10.7108 19.8967 10.7386 19.8386C10.8067 20.0708 10.885 20.3106 10.9809 20.5605C11.3999 21.651 12.2935 22.6884 13.6313 23.6375C13.8711 23.8092 14.0983 23.9556 14.2952 24.0792L13.9064 27.4339C13.7424 27.608 13.5127 27.8579 13.2375 28.1684H13.2451ZM8.18411 20.5757C8.18411 20.5757 8.1816 20.5984 8.17907 20.6085C7.97966 22.5117 7.96956 27.3203 9.21398 30.0287C9.37048 30.3695 9.55222 30.6775 9.75416 30.9551C9.76426 32.4999 9.4134 32.616 9.12564 32.7069C8.74449 32.8281 8.25479 32.1061 8.06043 31.7881C7.87111 31.4801 7.6818 31.0939 7.49501 30.6446C6.42223 28.0372 5.73314 24.0767 6.01837 22.1659C6.084 21.7317 6.17487 21.5475 6.21021 21.4869C6.36419 21.2345 6.76805 20.5656 8.1816 20.5757H8.18411ZM3.68349 23.8369C3.68349 23.8369 3.69611 23.8243 3.70116 23.8167C3.81223 26.3333 4.55686 29.4684 5.39742 31.5104C5.55391 31.8916 5.71546 32.2298 5.87953 32.5378C5.85681 32.5958 5.83411 32.6489 5.81391 32.6943C5.55644 32.5908 5.09956 32.3106 4.61997 31.7755C4.61997 31.7755 4.61997 31.7755 4.61744 31.773C4.61744 31.773 4.61744 31.7704 4.61492 31.7679C4.23629 31.3438 3.71883 30.6169 3.38564 29.5365C2.34568 26.1566 2.91614 24.7986 3.68854 23.8369H3.68349ZM26.4012 4.05236C26.275 4.65312 26.0276 5.55425 25.7449 6.59927C25.3662 7.99009 24.9371 9.56518 24.6368 10.9888C23.9047 14.4495 23.829 22.1912 23.829 22.2669C23.829 22.3174 23.8315 22.3653 23.8391 22.4158C23.8467 22.4814 24.6393 28.9509 22.2564 34.1709C20.4668 38.0935 18.0108 44.6816 17.9047 44.9593C17.824 45.1789 17.8114 45.4187 17.8719 45.6459L20.3179 54.8819C19.702 55.6492 17.9401 57.4793 14.4618 58.6126C11.0995 59.7081 8.62079 59.4279 7.56821 59.2108L5.30402 49.9294C5.25101 49.7149 5.1349 49.5155 4.97335 49.3665C4.84714 49.2479 1.89132 46.4157 2.32043 41.3018C2.50975 39.0678 3.54972 36.1297 4.2262 34.4133C4.82948 34.7995 5.43276 35.0115 5.97041 35.0115C6.18244 35.0115 6.38438 34.9787 6.57117 34.913C6.88921 34.7995 7.1492 34.6152 7.35871 34.4006C7.76258 34.7086 8.15635 34.8752 8.51983 34.9484C7.31327 37.5735 7.54802 40.86 7.55812 41.0039C7.60355 41.5996 8.10081 42.0514 8.68895 42.0514C8.71671 42.0514 8.74701 42.0514 8.77477 42.0489C9.40077 42.001 9.86775 41.4557 9.82232 40.8323C9.82232 40.802 9.61029 37.7654 10.6906 35.6779C10.7007 35.6602 10.7083 35.64 10.7184 35.6223C11.3368 34.2492 11.8921 33.5197 12.7352 32.4166L13.0457 32.0077C13.0583 31.9926 13.0709 31.9774 13.0836 31.9597C13.8282 30.9753 14.5097 30.1777 14.9514 29.6804C14.9615 29.6678 14.9717 29.6577 14.9818 29.6451C15.4815 29.0797 15.8122 28.7465 15.8147 28.7414C15.9939 28.5622 16.105 28.3249 16.1353 28.075L16.6528 23.5971C16.7083 23.1226 16.4584 22.6632 16.0293 22.4486C16.0242 22.4486 15.5421 22.2038 14.9616 21.7898C14.0175 21.1209 13.3637 20.3965 13.1138 19.7503C12.715 18.7103 12.7478 18.213 12.7832 18.0389C12.7832 18.0338 12.7857 18.0288 12.7882 18.0237C12.8135 17.9152 12.8362 17.8117 13.2072 17.7536C13.9569 17.6325 14.3305 17.842 15.1812 18.3721C15.4664 18.5488 15.7895 18.7507 16.1605 18.9476C16.9329 19.3565 17.6094 19.571 19.1744 19.9017C19.2729 19.9219 19.3789 19.9472 19.4899 19.9774C19.9796 20.1087 19.9519 21.5323 19.9291 22.6733C19.9191 23.2261 19.9089 23.7965 19.9392 24.3544C19.9645 24.8415 20.4087 26.3561 20.7747 27.5399C20.9262 28.0271 21.3755 28.3401 21.8602 28.3401C21.9712 28.3401 22.0848 28.3249 22.1959 28.2896C22.7941 28.1028 23.1298 27.4667 22.9456 26.8685C22.6199 25.8159 22.2489 24.5109 22.2085 24.2155C22.1832 23.7435 22.1933 23.221 22.2034 22.7162C22.2363 20.9594 22.2716 18.8188 20.6284 17.9934C20.646 17.789 20.6662 17.587 20.6864 17.3826C20.901 15.0376 21.1206 12.6144 21.5976 10.7011C21.6885 10.3351 21.7819 9.94128 21.8778 9.52732C22.4533 7.05109 23.2434 3.66111 25.0633 2.49999C25.5682 2.17689 25.8509 2.23243 26.1437 2.42931C26.6081 2.74231 26.5097 3.58034 26.4113 4.04984L26.4012 4.05236Z" fill="var(--fill-0, #212C68)"/>
</svg>
