<svg preserveAspectRatio="none" width="100%" height="100%" overflow="visible" style="display: block;" viewBox="0 0 54 29" fill="none" xmlns="http://www.w3.org/2000/svg">
<path id="Vector" d="M1.09451 28.8402C0.824523 28.8402 0.554538 28.7407 0.34139 28.5418C-0.0991145 28.1226 -0.113323 27.4334 0.298762 26.9929L4.41961 22.6518C4.64697 22.4102 4.97379 22.2894 5.30062 22.3108L21.6419 23.5683C27.7308 23.952 39.184 18.4599 40.1431 17.4936L50.5802 6.98545C51.106 6.45968 51.3902 5.72078 51.3618 4.94634C51.3334 4.13638 50.9639 3.36196 50.3458 2.82909C49.2871 1.91256 47.6601 1.9978 46.637 3.0138L38.0045 11.6889C36.9601 12.7476 35.5178 13.3515 34.04 13.3515C34.0045 13.3515 33.9618 13.3515 33.9263 13.3515L21.5353 13.0886C20.9314 13.0744 20.4483 12.577 20.4625 11.966C20.4767 11.3692 20.967 10.8931 21.5567 10.8931C21.5638 10.8931 21.5709 10.8931 21.578 10.8931L33.9689 11.156C34.9139 11.156 35.7807 10.815 36.4415 10.1471L45.081 1.46494C46.9141 -0.368131 49.8555 -0.496029 51.7739 1.16652C52.8467 2.09726 53.4933 3.4401 53.543 4.86108C53.5927 6.23944 53.0741 7.57516 52.1149 8.52722L41.6849 19.0212C40.065 20.6624 27.8871 26.1616 21.4643 25.7424L5.63455 24.5275L1.87605 28.492C1.6629 28.7194 1.3716 28.8331 1.0803 28.8331L1.09451 28.8402Z" fill="var(--fill-0, #14B8A6)"/>
</svg>
