<svg preserveAspectRatio="none" width="100%" height="100%" overflow="visible" style="display: block;" viewBox="0 0 17 17" fill="none" xmlns="http://www.w3.org/2000/svg">
<path id="Vector" d="M8.12913 16.2583C7.44297 16.2583 6.88909 15.7044 6.88909 15.0182C6.88909 13.3786 3.87443 9.36916 1.24004 9.36916C0.553883 9.36916 0 8.81528 0 8.12913C0 7.44297 0.553883 6.88909 1.24004 6.88909C3.87443 6.88909 6.88909 2.87964 6.88909 1.24004C6.88909 0.553883 7.44297 0 8.12913 0C8.81528 0 9.36916 0.553883 9.36916 1.24004C9.36916 2.87964 12.3838 6.88909 15.0182 6.88909C15.7044 6.88909 16.2583 7.44297 16.2583 8.12913C16.2583 8.81528 15.7044 9.36916 15.0182 9.36916C12.3838 9.36916 9.36916 13.3786 9.36916 15.0182C9.36916 15.7044 8.81528 16.2583 8.12913 16.2583ZM4.82788 8.12913C6.14783 9.01644 7.3107 10.2785 8.13188 11.5709C8.95306 10.2785 10.1159 9.01644 11.4359 8.12913C10.1159 7.24181 8.95306 5.97973 8.13188 4.68734C7.3107 5.97973 6.14783 7.24181 4.82788 8.12913Z" fill="var(--fill-0, #202933)"/>
</svg>
