<svg preserveAspectRatio="none" width="100%" height="100%" overflow="visible" style="display: block;" viewBox="0 0 8 4" fill="none" xmlns="http://www.w3.org/2000/svg">
<path id="Vector" d="M6.99714 3.21466C6.78259 3.21466 6.56804 3.14651 6.3863 3.00768C6.3863 3.00768 5.59875 2.45488 3.81415 2.11159C2.36527 1.83393 1.51209 2.26304 1.502 2.26809C1.01483 2.54071 0.401452 2.36653 0.12884 1.87937C-0.143772 1.3922 0.0303989 0.778822 0.517567 0.50621C0.663969 0.422911 2.01946 -0.286382 4.19531 0.130109C6.46455 0.564268 7.50198 1.319 7.61305 1.40482C8.0573 1.74306 8.1406 2.37663 7.80236 2.82089C7.60295 3.08088 7.30257 3.21719 6.99967 3.21719L6.99714 3.21466Z" fill="var(--fill-0, #212C68)"/>
</svg>
