<svg preserveAspectRatio="none" width="100%" height="100%" overflow="visible" style="display: block;" viewBox="0 0 14 19" fill="none" xmlns="http://www.w3.org/2000/svg">
<path id="Vector" d="M2.60475 18.7522C1.97118 18.6967 1.35275 18.5654 0.757046 18.3534C0.166387 18.1439 -0.144086 17.4952 0.0654216 16.9045C0.274929 16.3139 0.923642 16.0034 1.5143 16.2129C3.24589 16.8263 5.31572 16.483 7.19372 15.2764C9.54121 13.767 11.1365 11.2554 11.3561 8.72616C11.6211 5.68705 10.8588 3.61469 9.14743 2.73123C7.52943 1.89572 5.62114 2.36269 5.0532 2.84481C3.89207 3.82924 3.49577 5.13425 3.49073 5.14687C3.31908 5.75015 2.69056 6.09849 2.08728 5.92684C1.484 5.7552 1.13567 5.12415 1.30732 4.5234C1.33003 4.44262 1.88536 2.55706 3.58161 1.11575C4.92448 -0.0251827 7.83486 -0.504781 10.1899 0.7144C11.6716 1.47923 14.0873 3.56421 13.6178 8.92558C13.3376 12.1414 11.346 15.3067 8.42047 17.1872C6.56014 18.3837 4.51808 18.9213 2.5997 18.7547L2.60475 18.7522Z" fill="var(--fill-0, #212C68)"/>
</svg>
