<svg preserveAspectRatio="none" width="100%" height="100%" overflow="visible" style="display: block;" viewBox="0 0 182 43" fill="none" xmlns="http://www.w3.org/2000/svg">
<path id="Vector" d="M29.58 42.2794C29.2697 42.2794 28.9673 42.1584 28.7438 41.9349L0.346962 13.5985C0.0419309 13.2935 -0.0737705 12.8465 0.0471902 12.431C0.168151 12.0155 0.502107 11.7 0.925469 11.6053L37.4135 3.39578C37.453 3.38789 37.4898 3.38 37.5292 3.37474L65.0504 0.00888133C65.1188 0.000992593 65.1871 -0.00164469 65.2581 0.00098489L124.815 3.20381L180.684 5.88862C181.136 5.90965 181.536 6.18838 181.714 6.60386C181.893 7.01933 181.82 7.50055 181.525 7.84239L161.351 31.3324C161.117 31.6059 160.77 31.7558 160.409 31.7426L111.231 29.965L80.1784 35.566C79.7629 35.6423 79.3369 35.4872 79.0634 35.1663L76.6442 32.3027L29.8272 42.2557C29.7457 42.2741 29.6641 42.282 29.58 42.282V42.2794ZM3.5419 13.4408L29.9613 39.8049L76.8441 29.8388C77.2701 29.7494 77.7118 29.8993 77.9932 30.2333L80.4282 33.1153L110.934 27.6116C111.018 27.5958 111.102 27.5905 111.186 27.5932L159.923 29.355L178.149 8.13427L124.695 5.56518L65.2345 2.36761L37.8763 5.71244L3.54453 13.4381L3.5419 13.4408Z" fill="var(--fill-0, #202933)"/>
</svg>
