<svg preserveAspectRatio="none" width="100%" height="100%" overflow="visible" style="display: block;" viewBox="0 0 112 102" fill="none" xmlns="http://www.w3.org/2000/svg">
<path id="Vector" d="M23.4839 101.037C19.9223 101.037 16.7368 100.363 14.3565 98.5836C7.49071 93.452 6.91014 88.3102 5.63795 77.0498C5.34767 74.4827 5.01953 71.5723 4.57023 68.2505C4.09821 64.7646 3.51259 61.0238 2.94465 57.4066C0.534056 42.0419 -1.95731 26.1521 2.33128 18.7992C4.81003 14.551 9.9947 14.0411 10.9564 13.9831C11.6556 13.7887 15.4671 12.7008 19.7936 10.9439C24.4305 9.06089 27.5883 7.51356 28.4869 7.06174L30.7284 3.64651C30.8243 3.50264 30.9505 3.38148 31.0994 3.29313L36.4002 0.158089C36.7283 -0.0362729 37.1297 -0.0514161 37.473 0.112656C37.8163 0.276728 38.0535 0.604872 38.104 0.980976L44.8865 50.1723L50.4448 57.7322L60.9302 59.9257L68.7249 41.8904L74.3362 0.983503C74.3867 0.607399 74.6239 0.281779 74.9672 0.115183C75.3105 -0.0514137 75.7119 -0.0337462 76.04 0.160616L81.3408 3.29566C81.4897 3.384 81.6159 3.50516 81.7118 3.64904L83.9533 7.06426C84.8519 7.51357 88.0097 9.06342 92.6466 10.9465C97.1876 12.7891 102.297 13.8947 102.761 13.9931C103.349 14.079 108.127 14.9195 110.346 19.5186C113.623 26.3061 110.664 46.5577 109.077 57.4369C108.746 59.6986 108.486 61.4832 108.377 62.5155C107.915 66.9001 105.351 89.0649 100.138 94.7519C95.6554 99.6438 90.5591 100.101 87.0732 99.6211C83.8397 99.1768 63.6235 93.6337 62.7628 93.3964C62.157 93.2298 61.8011 92.6064 61.9677 92.0006C62.1343 91.3947 62.7577 91.0388 63.3635 91.2054C70.5903 93.1894 84.91 97.0287 87.3812 97.3695C90.3294 97.7734 94.6432 97.3821 98.4623 93.2172C102.385 88.9362 105.121 71.7541 106.118 62.2757C106.232 61.1979 106.494 59.3931 106.83 57.1062C108.274 47.224 111.275 26.662 108.302 20.503C106.53 16.8329 102.584 16.2599 102.418 16.2371C102.392 16.2346 102.362 16.2296 102.337 16.2245C102.11 16.1766 96.7282 15.0533 91.7934 13.0491C86.1872 10.7723 82.7922 9.0205 82.6483 8.9473C82.4742 8.85643 82.3277 8.72517 82.2217 8.5611L79.9575 5.11306L76.3555 2.98265L70.9563 42.3498C70.9411 42.4508 70.9134 42.5518 70.873 42.6452L62.6492 61.6725C62.4346 62.1672 61.902 62.4449 61.3745 62.3338L49.5588 59.8626C49.2862 59.8046 49.0413 59.6481 48.8772 59.4234L42.8924 51.2804C42.7814 51.1289 42.7081 50.9497 42.6829 50.7629L36.0948 2.98013L32.4928 5.11054L30.2286 8.55857C30.1226 8.72265 29.9736 8.8539 29.802 8.94477C29.6606 9.01798 26.2631 10.7698 20.6569 13.0466C15.7549 15.0382 11.6152 16.1589 11.4411 16.2043C11.3552 16.227 11.2669 16.2397 11.1785 16.2422C11.1306 16.2422 6.3523 16.4239 4.30266 19.9376C0.420469 26.5914 2.84873 42.0747 5.19875 57.0482C5.76921 60.6779 6.35736 64.4314 6.8319 67.94C7.28373 71.2846 7.6144 74.2076 7.90468 76.7873C9.13648 87.6968 9.64889 92.2126 15.7271 96.7586C21.6665 101.199 34.5979 97.3493 44.0384 94.5399C46.3682 93.8457 48.5693 93.192 50.3514 92.7629C50.9597 92.6165 51.5756 92.9926 51.722 93.6009C51.8684 94.2117 51.4923 94.8251 50.884 94.9715C49.1625 95.3855 46.9892 96.0317 44.6871 96.7183C38.2201 98.6417 30.1932 101.032 23.494 101.032L23.4839 101.037Z" fill="var(--fill-0, #212C68)"/>
</svg>
