<svg preserveAspectRatio="none" width="100%" height="100%" overflow="visible" style="display: block;" viewBox="0 0 64 65" fill="none" xmlns="http://www.w3.org/2000/svg">
<path id="Vector" d="M2.66 51.3567C2.00667 51.3567 1.68 51.6833 1.68 52.3367V58.3567C1.68 59.01 2.00667 59.3367 2.66 59.3367H27.3V63.0467C27.3 63.7 27.6267 64.0267 28.28 64.0267H36.05C36.7033 64.0267 37.03 63.7 37.03 63.0467V59.3367H62.09C62.7433 59.3367 63.07 59.01 63.07 58.3567V52.3367C63.07 51.6833 62.7433 51.3567 62.09 51.3567H37.03V47.0167H59.01C59.6633 47.0167 59.99 46.69 59.99 46.0367V40.4367C59.99 39.7833 59.6633 39.4567 59.01 39.4567H5.88C5.22667 39.4567 4.9 39.7833 4.9 40.4367V46.0367C4.9 46.69 5.22667 47.0167 5.88 47.0167H27.3V51.3567H2.66ZM0.28 4.80667C2.33333 7.51333 3.79167 10.535 4.655 13.8717C5.51833 17.2083 5.95 20.8833 5.95 24.8967L5.81 35.1867C5.81 35.84 6.13667 36.1667 6.79 36.1667H58.52C59.1733 36.1667 59.5 35.84 59.5 35.1867V14.8867C59.5 14.2333 59.1733 13.9067 58.52 13.9067H14.42C13.58 8.58667 11.8067 4.10667 9.1 0.466667C8.77333 0 8.33 -0.116667 7.77 0.116667L0.56 3.47667C0.186667 3.61667 0 3.85 0 4.17667C0 4.41 0.0933333 4.62 0.28 4.80667ZM14.98 23.7067V21.5367H27.79V28.6767H14.98V23.7067ZM50.47 28.6767H36.89V21.5367H50.47V28.6767Z" fill="var(--fill-0, white)"/>
</svg>
