<svg preserveAspectRatio="none" width="100%" height="100%" overflow="visible" style="display: block;" viewBox="0 0 8 10" fill="none" xmlns="http://www.w3.org/2000/svg">
<path id="Vector" d="M5.13043 0C5.03934 0 4.99379 0.0496894 4.99379 0.149068V2.1118H0.149068C0.0496894 2.1118 0 2.16149 0 2.26087V2.52174C0 2.57971 0.0165631 2.63768 0.0496894 2.69565L5.20497 9.5528C5.2381 9.61077 5.29193 9.63975 5.36646 9.63975H5.95031C6.04969 9.63975 6.09938 9.5942 6.09938 9.50311V3.15528H7.41615C7.51553 3.15528 7.56522 3.10973 7.56522 3.01863V2.26087C7.56522 2.16149 7.51553 2.1118 7.41615 2.1118H6.09938V0.149068C6.09938 0.0496894 6.04969 0 5.95031 0H5.13043ZM4.99379 7.76398L1.57764 3.15528H4.99379V7.76398Z" fill="var(--fill-0, #64748B)"/>
</svg>
