<svg preserveAspectRatio="none" width="100%" height="100%" overflow="visible" style="display: block;" viewBox="0 0 34 35" fill="none" xmlns="http://www.w3.org/2000/svg">
<path id="Vector" d="M1.25293 13.5467V8.19114L14.4605 9.04369V0L19.9338 0.706539C20.1411 0.720669 20.598 0.791323 20.598 1.22938C20.598 1.52141 20.2494 1.67685 19.9338 1.76163V9.39696L32.8964 10.2354V15.3884L20.0374 14.6395C23.0708 24.1589 29.3779 28.5865 33.5606 30.8663C30.6355 33.0848 29.9714 34.2106 29.5192 34.9831C26.0006 33.2403 20.4566 27.9978 17.2866 21.1538C13.0003 29.7406 7.35271 32.5479 3.69284 34.2765C2.78847 32.1663 1.7428 30.8286 0 29.1989C2.92507 28.0873 11.639 24.9502 13.9424 14.2862L1.25764 13.5467H1.25293Z" fill="var(--fill-0, #14B8A6)"/>
</svg>
