<svg preserveAspectRatio="none" width="100%" height="100%" overflow="visible" style="display: block;" viewBox="0 0 53 53" fill="none" xmlns="http://www.w3.org/2000/svg">
<path id="Vector" d="M20.4621 8.90246C20.4408 10.835 20.4266 12.7604 20.4124 14.693C13.6059 14.629 6.80651 14.5864 0 14.558C0.00710491 12.6254 0.014209 10.7 0.0213139 8.76746C6.83493 8.79588 13.6485 8.83851 20.4621 8.90246ZM8.14934 49.301C8.14934 50.3028 8.13513 51.3046 8.12802 52.3135C5.82603 52.2993 3.52404 52.2851 1.22205 52.278C1.25047 45.2583 1.27889 38.2315 1.31441 31.2119C7.2257 31.2403 13.137 31.2758 19.0554 31.3256C18.9985 38.0468 18.9346 44.7681 18.8778 51.4822C16.6113 51.4609 14.3448 51.4467 12.0854 51.4254C12.0854 50.722 12.0926 50.0257 12.0997 49.3223C10.7853 49.3152 9.47084 49.301 8.15643 49.2939L8.14934 49.301ZM17.6912 1.61282C17.677 3.48851 17.6628 5.36421 17.6415 7.2328C12.6752 7.19017 7.70884 7.16175 2.7354 7.13333C2.7425 5.25764 2.74959 3.38194 2.7638 1.51335C7.73724 1.53466 12.7178 1.57019 17.6912 1.61282ZM17.5633 16.4905C17.5491 18.4017 17.5278 20.313 17.5136 22.2242C12.5615 22.1815 7.61647 22.1531 2.66434 22.1247C2.67145 20.2135 2.67854 18.3023 2.69275 16.391C7.65198 16.4124 12.6041 16.4479 17.5633 16.4905ZM17.4994 24.043C17.4852 25.8761 17.471 27.7163 17.4497 29.5493C12.5118 29.5067 7.57383 29.4783 2.62881 29.4499C2.63591 27.6168 2.64302 25.7766 2.65723 23.9436C7.60225 23.9649 12.5473 24.0004 17.4994 24.043ZM12.1352 43.1339C12.1494 41.3151 12.1636 39.4962 12.1707 37.6845C10.8492 37.6774 9.53479 37.6631 8.21328 37.656C8.19907 39.4749 8.19195 41.2938 8.17774 43.1055C9.49215 43.1126 10.8137 43.1197 12.1281 43.1339H12.1352ZM32.1213 0C34.9917 0.127888 37.8692 0.262883 40.7396 0.397876C41.2582 0.404981 41.9545 0.468925 41.9474 1.09416C41.9403 1.66255 41.4714 1.8828 40.3701 2.32331C40.3701 2.69987 40.3559 3.08353 40.3559 3.46009C44.0362 3.50983 47.7166 3.57377 51.4041 3.63061C51.3685 5.56315 51.3401 7.48858 51.3046 9.42112C47.6313 9.35717 43.951 9.30033 40.2778 9.2506C40.2707 9.79768 40.2636 10.3448 40.2564 10.8989C43.3755 10.9416 46.4875 10.9913 49.6065 11.041C49.5781 12.6112 49.5568 14.1814 49.5284 15.7516C46.4164 15.7019 43.3045 15.6521 40.1925 15.6095C40.1854 16.1779 40.1783 16.7463 40.1712 17.3147C44.2423 17.3715 48.3134 17.4355 52.3845 17.5065C52.349 19.4533 52.3135 21.4071 52.2851 23.3539C41.3364 23.162 30.3877 23.0199 19.4319 22.9205C19.4462 20.9737 19.4675 19.0199 19.4817 17.0731C23.6309 17.1086 27.7802 17.1513 31.9295 17.2081C31.9295 16.6397 31.9437 16.0713 31.9508 15.5029C29.0307 15.4674 26.1105 15.4319 23.1904 15.4035C23.2046 13.8333 23.2189 12.2631 23.2402 10.6929C26.1674 10.7213 29.0875 10.7568 32.0147 10.7924C32.0147 10.2453 32.029 9.69821 32.0361 9.14402C28.2847 9.10139 24.5333 9.05877 20.7748 9.02324C20.7961 7.0907 20.8103 5.16527 20.8316 3.23274C24.5901 3.26826 28.3486 3.31089 32.1071 3.35352C32.1213 2.23805 32.1355 1.12258 32.1497 0H32.1213ZM29.258 42.2742C29.2154 45.6633 29.1799 49.0523 29.1372 52.4414C26.6079 52.413 24.0786 52.3845 21.5421 52.3632C21.6274 43.2192 21.7197 34.0752 21.805 24.9383C31.2332 25.0306 40.6685 25.1514 50.0967 25.3148C49.976 32.6187 49.8481 39.9225 49.7273 47.2335C49.6349 52.5124 47.1837 52.4627 38.331 52.3987C38.2955 51.0346 38.2599 49.1589 36.0858 45.0452C38.4802 45.4714 40.1996 45.5567 40.768 45.5638C41.9687 45.5851 41.9758 45.1304 41.99 43.9368C41.9972 43.4466 42.0043 42.9492 42.0114 42.459C37.7555 42.395 33.4997 42.3382 29.2438 42.2884L29.258 42.2742ZM42.1677 32.4481C42.1748 31.8016 42.189 31.1622 42.1961 30.5156C37.926 30.4517 33.6631 30.3948 29.393 30.3451C29.3859 30.9916 29.3788 31.6311 29.3717 32.2776C33.6347 32.3274 37.9047 32.3842 42.1677 32.4481ZM42.0824 38.4092C42.0895 37.7626 42.1037 37.1232 42.1108 36.4766C37.8479 36.4127 33.5849 36.3558 29.3291 36.3061C29.322 36.9527 29.3149 37.5921 29.3078 38.2386C33.5707 38.2884 37.8266 38.3452 42.0895 38.4092H42.0824Z" fill="var(--fill-0, #14B8A6)"/>
</svg>
