<svg preserveAspectRatio="none" width="100%" height="100%" overflow="visible" style="display: block;" viewBox="0 0 41 48" fill="none" xmlns="http://www.w3.org/2000/svg">
<path id="Vector" d="M20.3517 47.0695C19.1529 47.0695 18.2694 46.8386 18.2328 46.8313C13.5184 45.5519 7.72628 40.3536 5.57806 35.478C5.32145 34.8731 5.0905 34.1876 4.89254 33.4251C2.47671 32.7799 0.0718771 29.9901 0.00222496 25.635C-0.0417659 22.9699 0.566774 21.1773 1.80952 20.3048C2.45471 19.8502 3.23555 19.6743 4.07871 19.7806C4.76057 12.6321 7.38902 6.98289 11.8871 2.9834C12.096 2.77444 13.4158 1.51703 15.2121 1.21276C15.663 1.13578 16.0882 1.44005 16.1615 1.88729C16.2385 2.3382 15.9342 2.76344 15.487 2.83676C14.1233 3.06771 13.0638 4.14182 13.0528 4.14915C13.0382 4.16382 13.0198 4.18215 13.0052 4.19681C8.72341 7.99468 6.25992 13.4385 5.68437 20.3854C5.66971 20.5651 5.65871 20.7117 5.64405 20.818C5.64405 21.0856 5.50841 21.3386 5.28846 21.4925C5.06484 21.6465 4.78256 21.6795 4.52595 21.5842C4.1227 21.4302 3.35286 21.2359 2.75899 21.6538C2.01114 22.1781 1.61889 23.5821 1.65188 25.6093C1.71787 29.6125 4.04205 31.6984 5.66971 31.9037C6.0143 31.9477 6.29291 32.197 6.3699 32.5342C6.57519 33.4104 6.81714 34.1802 7.09208 34.8218C9.03134 39.2208 14.4385 44.0928 18.6617 45.2403C18.6617 45.2403 19.3802 45.4235 20.3517 45.4235C21.3231 45.4235 22.0416 45.2403 22.049 45.2403C26.2648 44.0965 31.672 39.2245 33.6149 34.8144C33.8862 34.1802 34.1281 33.4104 34.3334 32.5342C34.4104 32.197 34.6927 31.944 35.0336 31.9037C36.6613 31.7021 38.9854 29.6125 39.0514 25.6093C39.0844 23.5858 38.6922 22.1781 37.9443 21.6538C37.3504 21.2359 36.5806 21.4302 36.1774 21.5842C35.8877 21.6942 35.5651 21.6318 35.3342 21.4266C34.9126 21.049 34.4324 20.6897 33.9082 20.3561C31.496 18.8348 28.7356 18.2775 28.2223 18.1859C27.6248 18.2152 24.8827 18.2665 22.3129 16.7635C19.3179 15.0149 17.6792 10.4985 17.4336 3.34265C17.4299 3.18502 17.4226 3.05305 17.4189 2.95407C17.3713 1.94228 16.8727 1.44372 16.8507 1.42172C16.5318 1.10645 16.5171 0.585895 16.8251 0.259629C17.133 -0.066636 17.6426 -0.0886311 17.9761 0.211973C18.0788 0.307286 18.9879 1.18344 19.0686 2.87342C19.0723 2.97606 19.0796 3.11537 19.0832 3.284C19.3069 9.83863 20.6742 13.8931 23.1451 15.3375C25.5242 16.7269 28.1747 16.5326 28.2004 16.5326C28.2663 16.5289 28.3323 16.5326 28.3983 16.5399C28.5376 16.5619 31.8406 17.0971 34.7916 18.9594C35.2499 19.249 35.6825 19.5606 36.0784 19.8832C37.1268 19.6083 38.1129 19.7512 38.8975 20.3011C40.1402 21.1736 40.7487 22.9699 40.7047 25.6313C40.6351 29.9864 38.2303 32.7799 35.8144 33.4214C35.6165 34.1802 35.3892 34.8658 35.1326 35.4633C32.9807 40.3499 27.1849 45.5482 22.4779 46.8239C22.4339 46.8349 21.5541 47.0659 20.3553 47.0659L20.3517 47.0695Z" fill="var(--fill-0, #202933)"/>
</svg>
