<svg preserveAspectRatio="none" width="100%" height="100%" overflow="visible" style="display: block;" viewBox="0 0 5 5" fill="none" xmlns="http://www.w3.org/2000/svg">
<path id="Vector" d="M0.788571 0.0685714C0.769524 0.0152381 0.737143 -0.00190476 0.691429 0.0171429L0.0514286 0.234286C0.0285714 0.241905 0.0133333 0.255238 0.00571429 0.274286C-0.00190476 0.293333 -0.00190476 0.314286 0.00571429 0.337143C0.398095 1.34286 0.664762 2.02286 0.805714 2.37714C1.1981 3.36 1.51619 4.17905 1.76 4.83429C1.77905 4.88762 1.81333 4.90476 1.86286 4.88571L2.51429 4.68C2.54095 4.67619 2.5581 4.66476 2.56571 4.64571C2.57333 4.62667 2.57143 4.60571 2.56 4.58286L2.26857 3.93143C1.98667 3.31048 1.76 2.79429 1.58857 2.38286C1.68762 2.46286 1.79238 2.52381 1.90286 2.56571C2.01333 2.60762 2.1219 2.62857 2.22857 2.62857C2.42286 2.62857 2.58857 2.56 2.72571 2.42286C2.86286 2.28571 2.94476 2.08381 2.97143 1.81714C2.97905 1.74095 2.98286 1.6781 2.98286 1.62857C2.98667 1.54857 2.99238 1.46571 3 1.38C3.00762 1.29429 3.01905 1.22286 3.03429 1.16571C3.06095 1.04381 3.10762 0.951429 3.17429 0.888571C3.24095 0.825714 3.3181 0.794286 3.40571 0.794286C3.4819 0.794286 3.55905 0.817143 3.63714 0.862857C3.71524 0.908571 3.78667 0.973333 3.85143 1.05714C3.95429 1.17905 4.0381 1.3581 4.10286 1.59429C4.16762 1.83048 4.21143 2.09524 4.23429 2.38857C4.2419 2.44952 4.27429 2.46857 4.33143 2.44571L4.93714 2.18286C4.98286 2.16381 5.0019 2.13143 4.99429 2.08571C4.94857 1.71619 4.87905 1.3981 4.78571 1.13143C4.69238 0.864762 4.56381 0.641905 4.4 0.462857C4.26667 0.314286 4.10857 0.2 3.92571 0.12C3.74286 0.04 3.5581 0 3.37143 0C3.12 0 2.9 0.0714286 2.71143 0.214286C2.52286 0.357143 2.3981 0.569524 2.33714 0.851429C2.30286 0.961905 2.2819 1.15429 2.27429 1.42857L2.26857 1.56C2.25714 1.68571 2.22571 1.78095 2.17429 1.84571C2.12286 1.91048 2.05714 1.94286 1.97714 1.94286C1.84381 1.94286 1.69619 1.85905 1.53429 1.69143C1.37238 1.52381 1.22667 1.28762 1.09714 0.982857C0.979048 0.647619 0.87619 0.342857 0.788571 0.0685714Z" fill="var(--fill-0, white)"/>
</svg>
