<svg preserveAspectRatio="none" width="100%" height="100%" overflow="visible" style="display: block;" viewBox="0 0 14 15" fill="none" xmlns="http://www.w3.org/2000/svg">
<path id="Vector" d="M4.42935 0.217391C4.42935 0.0724638 4.35688 0 4.21196 0H2.82997C2.68504 0 2.61258 0.0724638 2.61258 0.217391V5.80745C1.85688 5.76605 1.11154 5.73499 0.376553 5.71429C0.252329 5.71429 0.179865 5.78675 0.159161 5.93168L0.0349379 7.2205V7.25155C0.0349379 7.31366 0.0556418 7.36284 0.0970497 7.39907C0.138458 7.4353 0.190217 7.45342 0.252329 7.45342H1.13742C1.35481 7.69151 1.67055 8.05901 2.08463 8.5559C1.53597 9.17702 0.883799 9.80331 0.128106 10.4348C0.0659938 10.4865 0.0349379 10.5435 0.0349379 10.6056C0.0349379 10.6263 0.0452899 10.6677 0.0659938 10.7298L0.733696 12.0031C0.785455 12.0859 0.842391 12.1273 0.904503 12.1273C0.966615 12.1273 1.09084 12.0342 1.27717 11.8478C1.74301 12.5932 2.12086 13.3489 2.41071 14.1149C2.46247 14.2391 2.55564 14.2805 2.69022 14.2391L4.01009 13.7888C4.15502 13.7371 4.19643 13.6491 4.13432 13.5248C3.60637 12.3861 3.06289 11.4389 2.50388 10.6832L3.17158 10C3.72024 10.7764 4.18608 11.5166 4.5691 12.2205C4.61051 12.293 4.66744 12.3292 4.73991 12.3292L4.86413 12.2981L6.07531 11.6304C6.15813 11.5787 6.19953 11.5166 6.19953 11.4441C6.19953 11.413 6.18401 11.3716 6.15295 11.3199C5.74922 10.6988 5.2808 10.044 4.74767 9.35559C4.21454 8.66718 3.69436 8.04865 3.18711 7.5C4.03597 7.54141 4.65192 7.57764 5.03494 7.6087L4.77096 8.35404L4.73991 8.46273C4.73991 8.54555 4.79167 8.60248 4.89519 8.63354L5.74922 8.88199L5.82686 8.89752C5.93038 8.89752 5.99767 8.85093 6.02873 8.75776C6.44281 7.85714 6.75854 6.88923 6.97593 5.85404L6.99146 5.7764C6.99146 5.68323 6.93452 5.62112 6.82065 5.59006L5.79581 5.31056L5.7337 5.29503C5.63018 5.29503 5.56806 5.35714 5.54736 5.48137L5.45419 6.04037C5.24715 6.00932 4.90554 5.97308 4.42935 5.93168V0.217391ZM8.73059 10.6677C8.29581 9.80849 7.82479 9.07868 7.31755 8.47826C7.27614 8.4265 7.22438 8.40062 7.16227 8.40062C7.10016 8.40062 7.0484 8.42133 7.00699 8.46273L5.85792 9.36335C5.80616 9.40476 5.78028 9.45135 5.78028 9.50311C5.78028 9.56522 5.80098 9.61698 5.84239 9.65839C6.32893 10.2277 6.74819 10.8877 7.10016 11.6382C7.45212 12.3887 7.72127 13.1729 7.90761 13.9907C7.93866 14.1253 8.02148 14.1874 8.15606 14.177L9.61568 14.0062C9.68815 13.9959 9.73991 13.97 9.77096 13.9286C9.80202 13.8872 9.81237 13.8302 9.80202 13.7578C9.72956 13.3851 9.61051 12.971 9.44488 12.5155H13.4511C13.596 12.5155 13.6685 12.4431 13.6685 12.2981L13.6995 8.04348C13.6995 6.30435 13.653 4.8499 13.5598 3.68012C13.4873 2.7588 13.301 2.03157 13.0008 1.49845C12.7006 0.965321 12.2399 0.57971 11.6188 0.341615C10.9977 0.10352 10.1643 0.00517598 9.11879 0.0465839C9.00492 0.0465839 8.9221 0.108696 8.87034 0.232919L8.28028 1.80124C8.26993 1.82195 8.26475 1.853 8.26475 1.89441C8.26475 1.99793 8.32169 2.04969 8.43556 2.04969L9.07221 2.03416C9.70368 2.03416 10.1902 2.09627 10.5318 2.2205C10.8734 2.34472 11.1219 2.53882 11.2772 2.8028C11.4325 3.06677 11.5308 3.43685 11.5722 3.91304C11.6757 4.94824 11.7275 6.20083 11.7275 7.67081L11.712 10.6677H8.73059ZM9.01009 4.47205C8.64777 5.60041 8.09912 6.65114 7.36413 7.62422C7.32272 7.68634 7.30202 7.73292 7.30202 7.76398C7.30202 7.83644 7.34343 7.8882 7.42624 7.91925L8.71506 8.5559C8.74612 8.5766 8.78753 8.58696 8.83929 8.58696C8.91175 8.58696 8.96869 8.5559 9.01009 8.49379C9.37241 8.02795 9.70626 7.51553 10.0116 6.95652C10.317 6.39752 10.5732 5.83851 10.7803 5.2795C10.7906 5.2588 10.7958 5.22774 10.7958 5.18634C10.7958 5.11387 10.7492 5.05176 10.6561 5L9.2896 4.34783L9.1809 4.31677C9.09809 4.31677 9.04115 4.36853 9.01009 4.47205ZM0.174689 0.838509C0.0194099 0.869565 -0.0323499 0.957557 0.0194099 1.10248C0.195393 1.64079 0.337733 2.24896 0.446429 2.92702C0.555124 3.60507 0.619824 4.25983 0.640528 4.8913C0.640528 4.96377 0.661232 5.01812 0.70264 5.05435C0.744048 5.09058 0.800983 5.10352 0.873447 5.09317L1.88276 4.96894C2.01734 4.95859 2.08463 4.88613 2.08463 4.75155C2.06392 4.06832 2.00958 3.37215 1.92158 2.66304C1.83359 1.95393 1.71196 1.30952 1.55668 0.729814C1.52562 0.595238 1.43763 0.543478 1.2927 0.574534L0.174689 0.838509ZM5.36102 1.21118C5.29891 2.40166 5.13846 3.5352 4.87966 4.6118L4.86413 4.67391C4.86413 4.77743 4.92624 4.84472 5.05047 4.87578L5.96662 5.06211L6.04425 5.07764C6.13742 5.07764 6.19953 5.0207 6.23059 4.90683C6.37552 4.39959 6.50751 3.83282 6.62655 3.20652C6.7456 2.58023 6.831 2.00311 6.88276 1.47516V1.42857C6.88276 1.32505 6.82065 1.25776 6.69643 1.22671L5.59394 1.02484C5.58359 1.02484 5.57324 1.02226 5.56289 1.01708C5.55254 1.0119 5.54218 1.01449 5.53183 1.02484C5.41796 1.02484 5.36102 1.08696 5.36102 1.21118Z" fill="var(--fill-0, #F43F5E)"/>
</svg>
