<svg preserveAspectRatio="none" width="100%" height="100%" overflow="visible" style="display: block;" viewBox="0 0 7 6" fill="none" xmlns="http://www.w3.org/2000/svg">
<path id="Vector" d="M2.12753 0C2.04293 0 1.98819 0.0373252 1.9633 0.111975L1.56019 1.2168L1.54526 1.27652C1.54526 1.35117 1.59005 1.38352 1.67963 1.37357C1.77419 1.36859 1.91354 1.3661 2.09767 1.3661C3.01338 1.3661 3.68524 1.48305 4.11323 1.71696C4.36207 1.85133 4.55865 2.02924 4.70297 2.25071C4.84729 2.47217 4.91946 2.69985 4.91946 2.93376C4.91946 3.22738 4.79753 3.47248 4.55367 3.66906C4.30981 3.86564 3.95149 3.96393 3.4787 3.96393C3.06564 3.96393 2.61898 3.91043 2.13873 3.80343C1.65848 3.69643 1.12224 3.55584 0.530017 3.38166L0.477762 3.37419C0.418042 3.37419 0.37574 3.40903 0.350856 3.4787L0.00746503 4.5462C0.00248834 4.56113 0 4.58104 0 4.60592C0 4.66564 0.0348368 4.70297 0.10451 4.7179C1.30389 4.99162 2.3689 5.16331 3.29954 5.23299L3.71012 5.24792C4.32723 5.24792 4.84232 5.14341 5.25538 4.93439C5.66845 4.72536 5.97327 4.44791 6.16985 4.10203C6.36643 3.75615 6.46472 3.37917 6.46472 2.97108C6.46472 2.49332 6.33657 2.03422 6.08027 1.59378C5.82397 1.15335 5.47436 0.813688 5.03143 0.574807C4.34962 0.211509 3.38166 0.0199067 2.12753 0Z" fill="var(--fill-0, #14B8A6)"/>
</svg>
