<svg preserveAspectRatio="none" width="100%" height="100%" overflow="visible" style="display: block;" viewBox="0 0 48 70" fill="none" xmlns="http://www.w3.org/2000/svg">
<path id="Vector" d="M28.8363 69.3032C19.7492 69.3032 9.43541 59.6709 9.00125 59.2594C8.54437 58.8278 8.52417 58.1109 8.9558 57.6541C9.38491 57.1972 10.1043 57.177 10.5612 57.6061C10.6621 57.702 20.6554 67.0314 28.8363 67.0314C28.8741 67.0314 28.9095 67.0314 28.9448 67.0314C33.5313 66.986 43.6305 56.8615 43.6305 46.1539C43.6305 41.8628 44.0344 39.2351 44.36 37.1249C44.4837 36.3146 44.5923 35.6154 44.6579 34.944C44.9078 32.2986 45.6751 18.5923 36.1918 8.63187C31.9208 4.14639 24.9087 2.20782 19.8578 2.27092C13.2949 2.35674 8.4535 5.69119 5.46487 12.1834C2.69584 18.2011 2.33993 25.14 2.31722 27.846C2.27178 32.912 2.27177 37.7584 2.27177 37.8064V45.3941C2.27177 46.0226 1.76441 46.53 1.13588 46.53C0.507361 46.53 0 46.0226 0 45.3941V37.8064C0 37.7584 1.35558e-05 32.9019 0.0454489 27.8258C0.0706907 24.976 0.446776 17.6508 3.4026 11.2343C6.74209 3.97979 12.4215 0.0975994 19.83 0.00168039C25.3706 -0.0689968 33.0946 2.08666 37.8375 7.0694C48.0024 17.7442 47.1871 32.3441 46.9195 35.1636C46.8489 35.9006 46.7302 36.6655 46.6065 37.4732C46.2935 39.5077 45.9023 42.0395 45.9023 46.1564C45.9023 57.7803 35.1871 69.2426 28.9675 69.3057C28.9246 69.3057 28.8817 69.3057 28.8388 69.3057L28.8363 69.3032Z" fill="var(--fill-0, #212C68)"/>
</svg>
