<svg preserveAspectRatio="none" width="100%" height="100%" overflow="visible" style="display: block;" viewBox="0 0 14 15" fill="none" xmlns="http://www.w3.org/2000/svg">
<path id="Vector" d="M11.2643 14.7485C11.0853 14.7485 10.9063 14.6826 10.765 14.5507C10.473 14.2775 10.4588 13.8159 10.7367 13.5238L12.0226 12.1578L2.47024 1.79058L1.25499 3.08119C0.981795 3.37323 0.52019 3.38736 0.228154 3.10945C-0.0638823 2.83154 -0.078012 2.37465 0.199893 2.08262L1.95211 0.226775C2.08871 0.0807571 2.28654 -0.00874301 2.48437 0.000677508C2.68691 0.000677508 2.88003 0.0854621 3.01662 0.23619L13.5582 11.6727C13.8172 11.9553 13.8125 12.3887 13.5535 12.6619L11.8013 14.5177C11.6599 14.6684 11.4668 14.7438 11.2737 14.7438L11.2643 14.7485Z" fill="var(--fill-0, #14B8A6)"/>
</svg>
