<svg preserveAspectRatio="none" width="100%" height="100%" overflow="visible" style="display: block;" viewBox="0 0 13 26" fill="none" xmlns="http://www.w3.org/2000/svg">
<path id="Vector" d="M6.24481 25.4935C6.14637 25.4935 6.04542 25.4809 5.94698 25.4531L0.838016 24.0648C0.343276 23.931 0 23.4792 0 22.9668C0 22.7119 0.0277568 16.6412 1.61547 10.4872C3.21075 4.30803 5.38409 0.695918 5.47748 0.544467C5.74505 0.102735 6.27765 -0.0991929 6.77239 0.0472098L11.6794 1.50618C12.0126 1.60462 12.2802 1.84947 12.4089 2.17257C12.5376 2.49314 12.5124 2.85663 12.3407 3.15953C12.3256 3.1873 10.6546 6.17593 9.1956 12.0977C7.71643 18.0977 7.3807 24.3551 7.37817 24.4182C7.3605 24.7615 7.18886 25.077 6.9112 25.279C6.71432 25.4203 6.48209 25.496 6.24481 25.496V25.4935ZM2.29195 22.1061L5.20738 22.8986C5.38912 20.6647 5.86873 16.0935 6.98947 11.5499C7.98652 7.50113 9.07445 4.76239 9.74084 3.29836L7.00207 2.48305C6.31549 3.80573 4.91205 6.80192 3.81655 11.0526C2.6428 15.6063 2.3601 20.2306 2.29448 22.1035L2.29195 22.1061Z" fill="var(--fill-0, #212C68)"/>
</svg>
