<svg preserveAspectRatio="none" width="100%" height="100%" overflow="visible" style="display: block;" viewBox="0 0 61 54" fill="none" xmlns="http://www.w3.org/2000/svg">
<path id="Vector" d="M35.792 21.0573C34.5933 21.9033 32.9097 22.967 30.6803 24.1216C24.9486 27.0839 19.1563 26.6733 19.1563 26.6733C19.1563 26.6733 22.5567 23.6807 23.8326 20.1893C17.6104 25.1026 12.0577 25.0089 12.0577 25.0089L13.904 21.2309C13.904 21.2309 6.16895 23.9259 4.31165 25.9651C3.36371 27.0067 0.756869 31.6748 0.756869 31.6748C0.756869 31.6748 -1.47519 24.8298 1.72686 16.9817C4.47147 10.258 8.88325 7.92394 11.829 6.01704L9.65759 4.97541C11.8483 3.7519 19.0874 1.21947 24.1991 0.401049C35.6157 -1.42869 43.483 3.36887 44.7616 7.38659C51.637 7.55744 57.9171 14.4713 59.6807 23.3445C63.0784 40.4487 51.6011 53.6399 51.6011 53.6399L45.0868 51.9452L46.1092 48.1232L43.5354 47.4701C43.5354 47.4701 41.6505 46.9024 40.8982 44.6841C40.0137 42.0773 37.225 26.8193 37.1092 24.0968C37.1092 24.0968 37.4234 19.9082 35.792 21.0573Z" fill="var(--fill-0, #FF7B22)"/>
</svg>
