<svg preserveAspectRatio="none" width="100%" height="100%" overflow="visible" style="display: block;" viewBox="0 0 9 4" fill="none" xmlns="http://www.w3.org/2000/svg">
<path id="Vector" d="M4.34206 3.69172C4.24837 3.69172 4.15195 3.69173 4.0555 3.68346C1.93366 3.57324 0.531016 2.28084 0.379456 2.13204C-0.113802 1.65807 -0.127579 0.872715 0.34639 0.379456C0.82036 -0.113802 1.60571 -0.127579 2.09897 0.34639C2.09897 0.34639 2.96977 1.14277 4.18225 1.20615C5.39748 1.26953 6.34267 0.564074 6.35093 0.558563C6.89379 0.147973 7.67089 0.249939 8.08424 0.790044C8.49758 1.33015 8.40664 2.09896 7.86929 2.51782C7.70946 2.64182 6.31234 3.68896 4.3393 3.68896L4.34206 3.69172Z" fill="var(--fill-0, #202933)"/>
</svg>
