<svg preserveAspectRatio="none" width="100%" height="100%" overflow="visible" style="display: block;" viewBox="0 0 66 64" fill="none" xmlns="http://www.w3.org/2000/svg">
<path id="Vector" d="M30.1466 63.9598C29.6616 63.9598 29.1986 63.6732 29.0002 63.1965C28.7357 62.5627 29.0361 61.8379 29.6671 61.5762L57.0884 50.1568L62.484 40.6333C59.6512 38.7512 51.8582 33.0746 50.0836 26.4776C48.8491 21.8867 50.0671 8.38134 50.6072 3.16492L20.2731 15.3586V32.2782C20.2731 33.4356 19.5374 34.8134 10.656 38.9C7.85073 40.1897 5.02069 41.3801 3.31219 42.0828L18.8733 60.0413C19.3224 60.5593 19.2646 61.3419 18.7493 61.7911C18.2312 62.2403 17.4486 62.1824 16.9995 61.6671L0.303028 42.3969C0.0412421 42.0938 -0.0607084 41.6805 0.0357389 41.2919C0.132186 40.9034 0.410495 40.581 0.782506 40.4322C8.20895 37.4836 16.6881 33.5072 17.7931 32.0771V14.5181C17.7931 14.0111 18.1017 13.5564 18.5702 13.3663L51.5992 0.0896356C52.0043 -0.0729469 52.4672 -0.0123297 52.8145 0.254967C53.1617 0.519508 53.3435 0.949386 53.2939 1.38202C53.2719 1.57492 51.0922 20.666 52.481 25.8273C54.3549 32.788 64.6802 39.0929 64.7849 39.1563C65.3608 39.5035 65.5538 40.2448 65.2231 40.829L59.0367 51.7468C58.9016 51.9865 58.6895 52.1739 58.436 52.2814L30.6233 63.8661C30.4662 63.9322 30.3064 63.9625 30.1466 63.9625V63.9598Z" fill="var(--fill-0, #202933)"/>
</svg>
