<svg preserveAspectRatio="none" width="100%" height="100%" overflow="visible" style="display: block;" viewBox="0 0 34 36" fill="none" xmlns="http://www.w3.org/2000/svg">
<path id="Vector" d="M6.73566 35.407H0.847841C0.381525 35.407 0 35.0255 0 34.5592V0.847841C0 0.381525 0.381525 0 0.847841 0H32.1993C32.6656 0 33.0472 0.381525 33.0472 0.847841V29.3779C33.0472 34.6534 28.6902 35.3316 24.8937 35.3316C24.2814 35.3316 23.9234 35.2751 23.5466 35.2186C23.443 35.2045 23.3346 35.1856 23.2169 35.1715C22.8259 35.1197 22.5245 34.8041 22.4868 34.4084C22.1665 30.9181 21.2574 29.3213 20.7675 28.4641C20.598 28.1673 20.6262 27.7952 20.8335 27.522C21.0454 27.2535 21.3987 27.1358 21.7284 27.2253C22.4915 27.4372 23.5324 27.7293 25.0068 27.7293C25.3365 27.7293 25.506 27.7057 25.5814 27.6869C25.6097 27.522 25.6097 27.1593 25.6097 26.8626V20.89H7.58352V34.5544C7.58352 35.0208 7.20198 35.4023 6.73566 35.4023V35.407ZM1.69098 33.7113H5.88782V20.0469C5.88782 19.5805 6.26935 19.199 6.73566 19.199H26.4575C26.9238 19.199 27.3054 19.5805 27.3054 20.0469V26.8673C27.3054 28.1249 27.3054 29.4297 25.002 29.4297C24.2625 29.4297 23.6172 29.3637 23.052 29.2742C23.4571 30.2634 23.8622 31.6388 24.0977 33.5888C24.3238 33.6171 24.5499 33.6359 24.889 33.6359C30.2681 33.6359 31.3468 32.0062 31.3468 29.3779V1.69568H1.69098V33.7113ZM26.4575 15.4826H19.3733C18.907 15.4826 18.5254 15.1011 18.5254 14.6348V6.36826C18.5254 5.90195 18.907 5.52042 19.3733 5.52042H26.4575C26.9238 5.52042 27.3054 5.90195 27.3054 6.36826V14.6348C27.3054 15.1011 26.9238 15.4826 26.4575 15.4826ZM20.2211 13.7869H25.6097V7.2161H20.2211V13.7869ZM13.7069 15.4826H6.73566C6.26935 15.4826 5.88782 15.1011 5.88782 14.6348V6.36826C5.88782 5.90195 6.26935 5.52042 6.73566 5.52042H13.7069C14.1732 5.52042 14.5547 5.90195 14.5547 6.36826V14.6348C14.5547 15.1011 14.1732 15.4826 13.7069 15.4826ZM7.58352 13.7869H12.859V7.2161H7.58352V13.7869Z" fill="var(--fill-0, white)"/>
</svg>
