<svg preserveAspectRatio="none" width="100%" height="100%" overflow="visible" style="display: block;" viewBox="0 0 60 110" fill="none" xmlns="http://www.w3.org/2000/svg">
<path id="Vector" d="M15.9592 109.866C14.4516 109.866 13.019 109.698 11.7597 109.277C4.70645 106.931 -2.40453 98.5091 0.784148 82.5022C1.50045 78.9149 3.15833 72.1332 4.90863 64.9529C7.42145 54.659 10.2751 42.9903 10.5119 39.9634C11.8232 22.9398 22.6543 19.3005 26.7268 17.9257C26.9694 17.8448 27.1832 17.7755 27.368 17.7062C27.3796 17.7062 27.3911 17.6946 27.4085 17.6946L44.9288 11.4155C45.8473 9.69983 46.5867 8.14016 47.1875 6.86353C48.0367 5.06124 48.6548 3.75573 49.3133 2.99322C50.8614 1.20825 54.4833 0.561274 58.3768 0.012498C59.0873 -0.085704 59.7458 0.405308 59.844 1.11583C59.9422 1.82635 59.4512 2.48488 58.7407 2.58308C56.6553 2.87768 52.3171 3.49578 51.2773 4.69731C50.8499 5.18832 50.2433 6.4765 49.5386 7.97264C48.8743 9.38213 48.0482 11.1382 46.9795 13.0907C46.8293 13.368 46.5752 13.5817 46.2748 13.6915L28.3269 20.1208C28.2692 20.1439 28.2172 20.167 28.1594 20.1786C27.9803 20.2421 27.7782 20.3114 27.5586 20.3865C23.5843 21.7209 14.284 24.8518 13.1056 40.1598C12.8572 43.4005 10.1018 54.6706 7.43878 65.571C5.68847 72.7224 4.04215 79.481 3.3374 83.0105C0.477989 97.3596 6.53186 104.8 12.5857 106.81C18.2641 108.699 29.3494 104.274 29.4591 104.234C30.1234 103.968 30.8802 104.286 31.1517 104.95C31.4174 105.614 31.0997 106.371 30.4354 106.643C30.0368 106.804 22.3655 109.866 15.965 109.866H15.9592Z" fill="var(--fill-0, #202933)"/>
</svg>
